/* XPM */
static char *_012[] = {
/* columns rows colors chars-per-pixel */
"32 32 11 1 ",
"  c #163C2B",
". c #755338",
"X c #296640",
"o c #9D7658",
"O c #509B66",
"+ c #6C918D",
"@ c #00CCFF",
"# c gray54",
"$ c gray59",
"% c #D7F8FF",
"& c #F4FDFF",
/* pixels */
"OOOX %@@@@@@@@@@@@@@@@@@@@% OOOO",
"OOOX %@@@@@@@@@@@@@@@@@@@%& OOOO",
"OOOX %@@@@@@@@@@@@@@@@@@@%&  XXX",
"XXX  %@@@@@@@@@@@@@@@%@@@%&..   ",
"    &%@@@@@@@@@@@@@@@@%@@@%.o...",
"..o.%@@@@@@@@@@@@@@@@@@@@@%.oooo",
"ooo.%@@@@@@@@@@@@@@@@@@@@@&.oo#$",
"ooo.&@@@@@@@@@@@@@@@@@@@@@&.oo..",
"ooo.&@@%@@@@@@@@@@@@@@@@@@%&oooo",
"ooo&%@%@@@@@@@@@@@@@@@@@@@%&&&&&",
"&&&&%@@@@@@@@@@@@@@@@@@@@@@+%%%%",
"%%%+@@@@@@@@@@@@@@@@@@@@@@@+++++",
"++++@@@@@@%%@@@@@@@@%@@@@@%@++++",
"+++@@@@@@%%@@@@@@@@@@%@@@@@%@@@@",
"@@@@@@@@@%@@@@@@@@@@@@@@@@@@@@@@",
"@@@@@@@@@@@@@@@@@@@@@@@@@@@@@@@@",
"@@@@@@@@@@@@@@@@@@@@@@@@@@@@@@@@",
"@@@@@@@@@@@@@@@@@@@@@@@@@@@@@@@@",
"@@@@@@@@@@@@@@@@@@@@@@@@@@@@@@@@",
"@@@@@@@@@@@@@@@@@@@@@@@@@@@@@@@@",
"@@@@@@@@@@@@@@@@@@@@@@@@@@@@@@@@",
"@@@@@@@@@@@@@@@@@@@@@@@@@@@@@@@@",
"@@@@@@@@@%@@@@@@@@@@@@%@@@@@@@@@",
"@@%@@@@@@%%@@@@@@@@@@%%@@@@@@@@@",
"@@@%@@@@@@%%@@@@@@@%%%@@@@@@@@@@",
"@@@@@@@@@@@@@@@@@@@@@@@@@@@@@@@@",
"%%%@@@@@@@@@@@@@@@@@@@@@@@@@@%%%",
"  &%@@@@@@@@@@@@@@@@@@@@@%@@%&  ",
"XX %@@@@@@@@@@@@@@@@@@@@%@@%& OO",
"OOX %@%@@@@@@@@@@@@@@@@@@@@% XOO",
"OOX %@@%@@@@@@@@@@@@@@@@@@@% XOO",
"OOX %@@@@@@@@@@@@@@@@@@@@@@% XOO"
};
