/* XPM */
static char *_000[] = {
/* columns rows colors chars-per-pixel */
"32 32 11 1 ",
"  c #163C2B",
". c #503625",
"X c #755338",
"o c #296640",
"O c #9D7658",
"+ c #509B66",
"@ c #00CCFF",
"# c gray54",
"$ c gray59",
"% c #D7F8FF",
"& c #F4FDFF",
/* pixels */
"+++++++++++++o+++++++++o++++++++",
"+++++++o ++oo ++++o+++o+++o+++o+",
"++++ ++o oo  ++++o ++o ++o +++ +",
"++++ oo    .  oooo      oo  +o  ",
"+++ X  XXXXXX.    XXXX.   XX  XX",
"++ XXXXOOOOOXXXXXXOOOOXXXXOOXXOO",
"++  XOOO$#XOOOOOOOO$#OOOOOOOOOOO",
"++o OOOOXXOOOOOOOO##XOOOOOOOOOOO",
"++ XOOOOOOOOOOOOOOXXOOOOOOOOOOOO",
"+++ OO&&&&&&OOOOOO&&&&&OOOOOO&&&",
"+++o &%%%%%%&&&&&&%%%%%&&&&&&%%%",
"+++o %%@@@@@%%%%%%@@@@@%%%%%%@@@",
"+++o %@@@@@@@@@@@@@@@@@@@@@@@@@@",
"++o &%@@@@@@@@@@@@@@@@@@@@@@@@@@",
"++o &%@@@@@@@@@@@@@@@@@@@@@@@@@@",
"++ &%@@@@@%%@@@@@@@@@@@@@@%%@@@@",
"+++ %@@@@%%@@@@@@@@@@@@@@@@@%@@@",
"+++o %@@@%@@@@@@@@@@@@@@@@@@@@@@",
"+++o %@@@@@@@@@@@@@@@@@@@@@@@@@@",
"+ oo %@@@@@@@@@@@@@@@@@@@@@@@@@@",
"++  &%@@@@@@@@@@@@@@@@@@@@@@@@@@",
"+++ &%@@@@@@@@@@@@@@@@@@@@@@@@@@",
"++o %@@@@@@@@@@@@@@@@@@@@@@%%%@@",
"++ &%@@@@@@@@@@@@@@@@@@@@@%%@@@@",
"++o %@@@@@@@@@@@@@@@@@@@@@@@@@@@",
"++o %@@@@@@@@@@@@@@@@@@@@@@@@@@@",
"+oo %@@@@@@@@@@@@@@@@@@@@@@@@%%%",
"+  &%@@%@@@@@@@@@@@@@@@@@@@@%&  ",
"++  &%@@%@@@@@@@@@@@@@@%@@@%& ++",
"++o &%@@%@@@@@@@@@@@@@@%@@@% o++",
"++o &%@@%@@@@@@@@@@@@@@@@@@% o++",
"++o %@@@@@@@@@@@@@@@@@@@@@@% o++"
};
