/* XPM */
static char *_010[] = {
/* columns rows colors chars-per-pixel */
"32 32 6 1 ",
"  c #163C2B",
". c #296640",
"X c #509B66",
"o c #00CCFF",
"O c #D7F8FF",
"+ c #F4FDFF",
/* pixels */
"XX. OooooooooooooooooooooooO .XX",
"X  +OooooooooooooooooooooooO+ .X",
"XX  +OooOoooooooooooooooooooO+ X",
"XXX +OooOoooooooooooooooooooO XX",
"XX. +OooOOoooooooooooooooooO XXX",
"XX +OooooOoooooooooooooooooO .XX",
"XXX OooooooooooooooooooooooO .XX",
"XXX OooooooooooooooooooooooO+ XX",
"XX. OoooooooooooooooooooooO+ X X",
"XX. +OooooooooooooooooooooO .XXX",
"XX . OooooooooooooooooooooO .XXX",
"XXX. OooooooooooooooooooooO ..XX",
"XXX. OooooooooooooooooooooO+ .XX",
"XX. +OoooooooooooooooooooooO  XX",
"XX. +OoooooooooooooooooooooO XXX",
"XX +OooooooooooooooooooooooO XXX",
"XXX OoooooooooooooooooOooooO .XX",
"XXX. OooooooooooooooooOooooO+  X",
"XXX. OooooooooooooooooOOooO+  XX",
"XXX. OoooooooooooooooooOooO+ XXX",
"XXX. OooooooooooooooooooooO+ .XX",
"XX.. OooooooooooooooooooooO+ .XX",
"XX. OooooooooooooooooooooooO+ XX",
"XX +OooooooooooooooooooooooO XXX",
"XX. OoooooooooooooooooooooO XXXX",
"XX. OoooooooooooooooooooooO .XXX",
"X.. OoooooooooooooooooooooO ..XX",
"X  +OooooOooooooooooooooooO+  XX",
"XX  +OoooOOoooooooooooooooO  XXX",
"XX. +OoooooooooooooooooooO+ .XXX",
"XX. +OoooooooooooooooooooO+ .XXX",
"XX. OoooooooooooooooooooooO+ XXX"
};
