/* XPM */
static char *_012[] = {
/* columns rows colors chars-per-pixel */
"32 32 10 1 ",
"  c #163C2B",
". c #755338",
"X c #296640",
"o c #9D7658",
"O c #509B66",
"+ c #00CCFF",
"@ c gray54",
"# c gray59",
"$ c #D7F8FF",
"% c #F4FDFF",
/* pixels */
"OOX $+++++++++++++++++++++$ OOOO",
"O  %$++++++++++++++++++++$% OOOO",
"OO  %$+++++++++++++++$+++$%  XXX",
"OOO %$+++++++++++++++++++$%..   ",
"OOX %$++++++++++++++++++++$.o...",
"OO %$+++++$+++++++++++++++$.oooo",
"OOO $++++$++++++++++++++++%.oo@#",
"OOX $++++$++++++++++++++++%.oo..",
"OO %$++++$++++++++++++++++$%oooo",
"OOO %$++++++++++++++++++++$%%%%%",
"OOOX $+++++++++++++++++++++$$$$$",
"OOOX $+++++++++++++++$++++++++++",
"OOOX $+++++++++++++++$++++++++++",
"OOX %$+++++++++++++++$++++++++++",
"OOX %$++++++++++++++++$+++++++++",
"OO %$+++++++++++++++++++++++$$++",
"OOO $+++++++++++++++++++++++++++",
"OOOX $++++++++++++++++++++++++++",
"OOOX $++++++++++++++++++++++++++",
"O XX $++++++++++++++++++++++++++",
"OO  %$++++++++++++++++++++++++++",
"OOO %$++++++++++++++++++++++++++",
"OOX $+++$+++++++++++++$+++++++++",
"OO %$++++$+++++++++++++$$+++++++",
"OOX $+++++++++++++++++++++++++++",
"OOX $+++++++++++++++++++++++++++",
"OOX $+$$$$$$++$$$+$$++$$$$$$++$$",
"OXX $$%%%   $$%%%$%%$$%   %%$$  ",
"OO  %    OOX %  %%   % XOO    XO",
"OOOX OOX OOOX XO  OOO XOOOO XOOO",
"OOOOOOOOOOOOOOOOOOOOOOOOOOOOOOOO",
"OOOOOOOOOOOOOOOOOOOOOOOOOOOOOOOO"
};
