/* XPM */
static char *f42a258610c64f32d2118cc30acc7c83bZDRvJOJHvYCzvRZ[] = {
/* columns rows colors chars-per-pixel */
"128 128 7 1 ",
"  c None",
". c gray24",
"X c #9A0000",
"o c #FE0000",
"O c #FE4A4B",
"+ c #99E550",
"@ c #FF9796",
/* pixels */
"                                                                                                                                ",
"                                                                                                                                ",
"                                                                                                                                ",
"                                                                                                                                ",
"                                                                                                                                ",
"                                                                                                                                ",
"                                                                                                                                ",
"                                                                                                                                ",
"                                                                                                XXXXXXXX    XXXXXXXX            ",
"                                                                                                XXXXXXXX    XXXXXXXX            ",
"                                                                                                XXXXXXXX    XXXXXXXX            ",
"                                                                                                XXXXXXXX    XXXXXXXX            ",
"                                                                                            XXXX@@@@OOOOXXXX@@@@OOOOXXXX        ",
"                                                                                            XXXX@@@@OOOOXXXX@@@@OOOOXXXX        ",
"                                                                                            XXXX@@@@OOOOXXXX@@@@OOOOXXXX        ",
"                                                                                            XXXX@@@@OOOOXXXX@@@@OOOOXXXX        ",
"                                                                                            XXXXooooOOOO@@@@OOOOooooXXXX        ",
"                                                                                            XXXXooooOOOO@@@@OOOOooooXXXX        ",
"                                                                                            XXXXooooOOOO@@@@OOOOooooXXXX        ",
"                                                                                            XXXXooooOOOO@@@@OOOOooooXXXX        ",
"                                                        ................                        XXXXooooOOOOooooXXXX            ",
"                                                        ................                        XXXXooooOOOOooooXXXX            ",
"                                                        ................                        XXXXooooOOOOooooXXXX            ",
"                                                        ................                        XXXXooooOOOOooooXXXX            ",
"                                                ................................                    XXXXooooXXXX                ",
"                                                ................................                    XXXXooooXXXX                ",
"                                                ................................                    XXXXooooXXXX                ",
"                                                ................................                    XXXXooooXXXX                ",
"                                            ........................................                    XXXX                    ",
"                                            ........................................                    XXXX                    ",
"                                            ........................................                    XXXX                    ",
"                                            ........................................                    XXXX                    ",
"                                            ........................................                                            ",
"                                            ........................................                                            ",
"                                            ........................................                                            ",
"                                            ........................................                                            ",
"                                            ........................................                                            ",
"                                            ........................................                                            ",
"                                            ........................................                                            ",
"                                            ........................................                                            ",
"                                            ........................................                                            ",
"                                            ........................................                                            ",
"                                            ........................................                                            ",
"                                            ........................................                                            ",
"                                            ........................................                                            ",
"                                            ........................................                                            ",
"                                            ........................................                                            ",
"                                            ........................................                                            ",
"                                        ................................................                                        ",
"                                        ................................................                                        ",
"                                        ................................................                                        ",
"                                        ................................................                                        ",
"                                            ........................................++++++++                                    ",
"                                            ........................................++++++++                                    ",
"                                            ........................................++++++++                                    ",
"                                            ........................................++++++++                                    ",
"                                                    ........................    ++++++++++++                                    ",
"                                                    ........................    ++++++++++++                                    ",
"                                                    ........................    ++++++++++++                                    ",
"                                                    ........................    ++++++++++++                                    ",
"                                                            ........            ++++++++++++                                    ",
"                                                            ........            ++++++++++++                                    ",
"                                                            ........            ++++++++++++                                    ",
"                                                            ........            ++++++++++++                                    ",
"                                                    ++++................++++        ++++++++                                    ",
"                                                    ++++................++++        ++++++++                                    ",
"                                                    ++++................++++        ++++++++                                    ",
"                                                    ++++................++++        ++++++++                                    ",
"                                                ++++........................++++++++++++++++                                    ",
"                                                ++++........................++++++++++++++++                                    ",
"                                                ++++........................++++++++++++++++                                    ",
"                                                ++++........................++++++++++++++++                                    ",
"                                                ++++........................++++++++++++                                        ",
"                                                ++++........................++++++++++++                                        ",
"                                                ++++........................++++++++++++                                        ",
"                                                ++++........................++++++++++++                                        ",
"                                            ++++++++........................                                                    ",
"                                            ++++++++........................                                                    ",
"                                            ++++++++........................                                                    ",
"                                            ++++++++........................                                                    ",
"                                            ++++++++........................                                                    ",
"                                            ++++++++........................                                                    ",
"                                            ++++++++........................                                                    ",
"                                            ++++++++........................                                                    ",
"                                        ++++++++++++........................                                                    ",
"                                        ++++++++++++........................                                                    ",
"                                        ++++++++++++........................                                                    ",
"                                        ++++++++++++........................                                                    ",
"                                        ++++++++................................                                                ",
"                                        ++++++++................................                                                ",
"                                        ++++++++................................                                                ",
"                                        ++++++++................................                                                ",
"                                        ++++++++................................                                                ",
"                                        ++++++++................................                                                ",
"                                        ++++++++................................                                                ",
"                                        ++++++++................................                                                ",
"                                                ............        ............                                                ",
"                                                ............        ............                                                ",
"                                                ............        ............                                                ",
"                                                ............        ............                                                ",
"                                                ............        ............                                                ",
"                                                ............        ............                                                ",
"                                                ............        ............                                                ",
"                                                ............        ............                                                ",
"                                                    ........        ........                                                    ",
"                                                    ........        ........                                                    ",
"                                                    ........        ........                                                    ",
"                                                    ........        ........                                                    ",
"                                                    ........        ........                                                    ",
"                                                    ........        ........                                                    ",
"                                                    ........        ........                                                    ",
"                                                    ........        ........                                                    ",
"                                                    ........        ........                                                    ",
"                                                    ........        ........                                                    ",
"                                                    ........        ........                                                    ",
"                                                    ........        ........                                                    ",
"                                                        ....        ....                                                        ",
"                                                        ....        ....                                                        ",
"                                                        ....        ....                                                        ",
"                                                        ....        ....                                                        ",
"                                                        ....        ....                                                        ",
"                                                        ....        ....                                                        ",
"                                                        ....        ....                                                        ",
"                                                        ....        ....                                                        ",
"                                                    ........        ........                                                    ",
"                                                    ........        ........                                                    ",
"                                                    ........        ........                                                    ",
"                                                    ........        ........                                                    "
};
