/* XPM */
static char *b0d908f67c38484ac4b6214c9c281812FUztTFHUhJh8woge[] = {
/* columns rows colors chars-per-pixel */
"128 128 7 1 ",
"  c None",
". c gray24",
"X c #9A0000",
"o c #FE0000",
"O c #FE4A4B",
"+ c #99E550",
"@ c #FF9796",
/* pixels */
"                                                                                                                                ",
"                                                                                                                                ",
"                                                                                                                                ",
"                                                                                                                                ",
"                                                                                                                                ",
"                                                                                                                                ",
"                                                                                                                                ",
"                                                                                                                                ",
"                                                                                            XXXXXXXX            XXXXXXXX        ",
"                                                                                            XXXXXXXX            XXXXXXXX        ",
"                                                                                            XXXXXXXX            XXXXXXXX        ",
"                                                                                            XXXXXXXX            XXXXXXXX        ",
"                                                                                        XXXX@@@@OOOO        XXXX@@@@OOOOXXXX    ",
"                                                                                        XXXX@@@@OOOO        XXXX@@@@OOOOXXXX    ",
"                                                                                        XXXX@@@@OOOO        XXXX@@@@OOOOXXXX    ",
"                                                                                        XXXX@@@@OOOO        XXXX@@@@OOOOXXXX    ",
"                                                                                        XXXXooooOOOO@@@@        OOOOooooXXXX    ",
"                                                                                        XXXXooooOOOO@@@@        OOOOooooXXXX    ",
"                                                                                        XXXXooooOOOO@@@@        OOOOooooXXXX    ",
"                                                                                        XXXXooooOOOO@@@@        OOOOooooXXXX    ",
"                                                        ................                    XXXXoooo        OOOOooooXXXX        ",
"                                                        ................                    XXXXoooo        OOOOooooXXXX        ",
"                                                        ................                    XXXXoooo        OOOOooooXXXX        ",
"                                                        ................                    XXXXoooo        OOOOooooXXXX        ",
"                                                ................................                XXXXoooo        XXXX            ",
"                                                ................................                XXXXoooo        XXXX            ",
"                                                ................................                XXXXoooo        XXXX            ",
"                                                ................................                XXXXoooo        XXXX            ",
"                                            ........................................                XXXX                        ",
"                                            ........................................                XXXX                        ",
"                                            ........................................                XXXX                        ",
"                                            ........................................                XXXX                        ",
"                                            ........................................                                            ",
"                                            ........................................                                            ",
"                                            ........................................                                            ",
"                                            ........................................                                            ",
"                                            ........................................                                            ",
"                                            ........................................                                            ",
"                                            ........................................                                            ",
"                                            ........................................                                            ",
"                                            ........................................                                            ",
"                                            ........................................                                            ",
"                                            ........................................                                            ",
"                                            ........................................                                            ",
"                                            ........................................                                            ",
"                                            ........................................                                            ",
"                                            ........................................                                            ",
"                                            ........................................                                            ",
"                                        ................................................                                        ",
"                                        ................................................                                        ",
"                                        ................................................                                        ",
"                                        ................................................                                        ",
"                                            ........................................                                            ",
"                                            ........................................                                            ",
"                                            ........................................                                            ",
"                                            ........................................                                            ",
"                                                    ........................                                                    ",
"                                                    ........................                                                    ",
"                                                    ........................                                                    ",
"                                                    ........................                                                    ",
"                                                            ........                                                            ",
"                                                            ........                                                            ",
"                                                            ........                                                            ",
"                                                            ........                                                            ",
"                                                    ++++................++++                                                    ",
"                                                    ++++................++++                                                    ",
"                                                    ++++................++++                                                    ",
"                                                    ++++................++++                                                    ",
"                                                ++++........................++++                                                ",
"                                                ++++........................++++                                                ",
"                                                ++++........................++++                                                ",
"                                                ++++........................++++                                                ",
"                                                ++++........................++++                                                ",
"                                                ++++........................++++                                                ",
"                                                ++++........................++++                                                ",
"                                                ++++........................++++                                                ",
"                                            ++++++++........................++++++++                                            ",
"                                            ++++++++........................++++++++                                            ",
"                                            ++++++++........................++++++++                                            ",
"                                            ++++++++........................++++++++                                            ",
"                                            ++++++++........................++++++++                                            ",
"                                            ++++++++........................++++++++                                            ",
"                                            ++++++++........................++++++++                                            ",
"                                            ++++++++........................++++++++                                            ",
"                                        ++++++++++++........................++++++++++++                                        ",
"                                        ++++++++++++........................++++++++++++                                        ",
"                                        ++++++++++++........................++++++++++++                                        ",
"                                        ++++++++++++........................++++++++++++                                        ",
"                                        ++++++++................................++++++++                                        ",
"                                        ++++++++................................++++++++                                        ",
"                                        ++++++++................................++++++++                                        ",
"                                        ++++++++................................++++++++                                        ",
"                                        ++++++++................................++++++++                                        ",
"                                        ++++++++................................++++++++                                        ",
"                                        ++++++++................................++++++++                                        ",
"                                        ++++++++................................++++++++                                        ",
"                                                ............        ............                                                ",
"                                                ............        ............                                                ",
"                                                ............        ............                                                ",
"                                                ............        ............                                                ",
"                                                ............        ............                                                ",
"                                                ............        ............                                                ",
"                                                ............        ............                                                ",
"                                                ............        ............                                                ",
"                                                    ........        ........                                                    ",
"                                                    ........        ........                                                    ",
"                                                    ........        ........                                                    ",
"                                                    ........        ........                                                    ",
"                                                    ........        ........                                                    ",
"                                                    ........        ........                                                    ",
"                                                    ........        ........                                                    ",
"                                                    ........        ........                                                    ",
"                                                    ........        ........                                                    ",
"                                                    ........        ........                                                    ",
"                                                    ........        ........                                                    ",
"                                                    ........        ........                                                    ",
"                                                        ....        ....                                                        ",
"                                                        ....        ....                                                        ",
"                                                        ....        ....                                                        ",
"                                                        ....        ....                                                        ",
"                                                        ....        ....                                                        ",
"                                                        ....        ....                                                        ",
"                                                        ....        ....                                                        ",
"                                                        ....        ....                                                        ",
"                                                    ........        ........                                                    ",
"                                                    ........        ........                                                    ",
"                                                    ........        ........                                                    ",
"                                                    ........        ........                                                    "
};
