/* XPM */
static char *result[] = {
/* columns rows colors chars-per-pixel */
"128 128 84 1 ",
"  c black",
". c #040404",
"X c #060606",
"o c #0B0B0B",
"O c #0E0E0E",
"+ c gray6",
"@ c gray7",
"# c gray10",
"$ c #232323",
"% c gray18",
"& c #2F2F2F",
"* c #313131",
"= c #323232",
"- c #373737",
"; c #39353C",
": c #39363C",
"> c #3A373C",
", c gray22",
"< c #393939",
"1 c #3A3A3A",
"2 c gray23",
"3 c #3A383C",
"4 c #3B393D",
"5 c #3B3A3D",
"6 c #3C3A3D",
"7 c #3C3B3D",
"8 c #3C3C3C",
"9 c #3C3C3D",
"0 c #3D3C3D",
"q c gray24",
"w c #3E3E3E",
"e c #3F3F3F",
"r c #42473E",
"t c #44493E",
"y c gray25",
"u c #484848",
"i c #4E5C40",
"p c #4F5E41",
"a c #526341",
"s c #526441",
"d c #536441",
"f c #536541",
"g c #536642",
"h c #546642",
"j c #546742",
"k c gray38",
"l c #6C6C6C",
"z c #6D6D6D",
"x c gray43",
"c c #648445",
"v c #729E48",
"b c #75A449",
"n c #7EB34A",
"m c #82BC4B",
"M c #83BC4B",
"N c #83BD4B",
"B c #83BD4C",
"V c #84BE4C",
"C c #84BF4C",
"Z c #85C14C",
"A c #88C64D",
"S c #94DB4F",
"D c #99E550",
"F c #99E650",
"G c #9AE650",
"H c #9AE750",
"J c #9AE850",
"K c #9BE850",
"L c #9BE950",
"P c #9BEA51",
"I c #9CEA51",
"U c #9CEB51",
"Y c #9DEB51",
"T c #9DEC51",
"R c #9DED51",
"E c #9EEE51",
"W c #9FF051",
"Q c gray68",
"! c #D0D0D0",
"~ c #D2D2D2",
"^ c gray83",
"/ c gray84",
"( c white",
") c None",
/* pixels */
"))))))))))))))))))))))))))))))))))))))))))))))))))))))))))))))))))))))))))))))))))))))))))))))))))))))))))))))))))))))))))))))))",
"))))))))))))))))))))))))))))))))))))))))))))))))))))))))))))))))))))))))))))))))))))))))))))))))))))))))))))))))))))))))))))))))",
"))))))))))))))))))))))))))))))))))))))))))))))))))))))))))))))))))))))))))))))))))))))))))))))))))))))))))))))))))))))))))))))))",
"))))))))))))))))))))))))))))))))))))))))))))))))))))))))))))))))))))))))))))))))))))))))))))))))))))))))))))))))))))))))))))))))",
"))))))))))))))))))))))))))))))))))))))))))))))))))))))))))))))))))))))))))))))))))))))))))))))))))))))))))))))))))))))))))))))))",
"))))))))))))))))))))))))))))))))))))))))))))))))))))))))))))))))))))))))))))))))))))))))))))))))))))))))))))))))))))))))))))))))",
"))))))))))))))))))))))))))))))))))))))))))))))))))))))))))))))))))))))))))))))))))))))))))))))))))))))))))))))))))))))))))))))))",
"))))))))))))))))))))))))))))))))))))))))))))))))))))))))))))))))))))))))))))))))))))))))))))))))))))))))))))))))))))))))))))))))",
"))))))))))))))))))))))))))))))))))))))))))))))))))))))))))))))))))))))))))))))))))))))))))))))))))))))))))))))))))))))))))))))))",
"))))))))))))))))))))))))))))))))))))))))))))))))))))))))))))))))))))))))))))))))))))))))))))))))))))))))))))))))))))))))))))))))",
"))))))))))))))))))))))))))))))))))))))))))))))))))))))))))))))))))))))))))))))))))))))))))))))))))))))))))))))))))))))))))))))))",
"))))))))))))))))))))))))))))))))))))))))))))))))))))))))))))))))))))))))))))))))))))))))))))))))))))))))))))))))))))))))))))))))",
"))))))))))))))))))))))))))))))))))))))))))))))))))))))))))))))))))))))))))))))))))))))))))))))))))))))))))))))))))))))))))))))))",
"))))))))))))))))))))))))))))))))))))))))))))))))))))))))))))))))))))))))))))))))))))))))))))))))))))))))))))))))))))))))))))))))",
"))))))))))))))))))))))))))))))))))))))))))))))))))))))))))))))))))))))))))))))))))))))))))))))))))))))))))))))))))))))))))))))))",
"))))))))))))))))))))))))))))))))))))))))))))))))))))))))))))))))))))))))))))))))))))))))))))))))))))))))))))))))))))))))))))))))",
"))))))))))))))))))))))))))))))))))))))))))))))))))))))))))))))))))))))))))))))))))))))))))))))))))))))))))))))))))))))))))))))))",
"))))))))))))))))))))))))))))))))))))))))))))))))))))))))))))))))))))))))))))))))))))))))))))))))))))))))))))))))))))))))))))))))",
"))))))))))))))))))))))))))))))))))))))))))))))))))))))))))))))))))))))))))))))))))))))))))))))))))))))))))))))))))))))))))))))))",
"))))))))))))))))))))))))))))))))))))))))))))))))))))))))))))))))))))))))))))))))))))))))))))))))))))))))))))))))))))))))))))))))",
"))))))))))))))))))))))))))))))))))))))))))))))))))))))))qqqqqqqqqqqqqqqq))))))))))))))))))))))))))))))))))))))))))))))))))))))))",
"))))))))))))))))))))))))))))))))))))))))))))))))))))))))qqqqqqqqqqqqqqqq))))))))))))))))))))))))))))))))))))))))))))))))))))))))",
"))))))))))))))))))))))))))))))))))))))))))))))))))))))))qqqqqqqqqqqqqqqq))))))))))))))))))))))))))))))))))))))))))))))))))))))))",
"))))))))))))))))))))))))))))))))))))))))))))))))))))))))qqqqqqqqqqqqqqqq))))))))))))))))))))))))))))))))))))))))))))))))))))))))",
"))))))))))))))))))))))))))))))))))))))))))))))))qqqqqqqqqqqqqqqqqqqqqqqqqqqqqqqq))))))))))))))))))))))))))))))))))))))))))))))))",
"))))))))))))))))))))))))))))))))))))))))))))))))qqqqqqqqqqqqqqqqqqqqqqqqqqqqqqqq))))))))))))))))))))))))))))))))))))))))))))))))",
"))))))))))))))))))))))))))))))))))))))))))))))))qqqqqqqqqqqqqqqqqqqqqqqqqqqqqqqq))))))))))))))))))))))))))))))))))))))))))))))))",
"))))))))))))))))))))))))))))))))))))))))))))))))qqqqqqqqqqqqqqqqqqqqqqqqqqqqqqqq))))))))))))))))))))))))))))))))))))))))))))))))",
"))))))))))))))))))))))))))))))))))))))))))))qqqqqqqqqqqqqqqqqqqqqqqqqqqqqqqqqqqqqqqq))))))))))))))))))))))))))))))))))))))))))))",
"))))))))))))))))))))))))))))))))))))))))))))qqqqqqqqqqqqqqqqqqqqqqqqqqqqqqqqqqqqqqqq))))))))))))))))))))))))))))))))))))))))))))",
"))))))))))))))))))))))))))))))))))))))))))))qqqqqqqqqqqqqqqqqqqqqqqqqqqqqqqqqqqqqqqq))))))))))))))))))))))))))))))))))))))))))))",
"))))))))))))))))))))))))))))))))))))))))))))qqqqqqqqqqqqqqqqqqqqqqqqqqqqqqqqqqqqqqqq))))))))))))))))))))))))))))))))))))))))))))",
"))))))))))))))))))))))))))))))))))))))))))))qqqqqqqqqqqqqqqqqqqqqqqqqqqqqqqqqqqqqqqq))))))))))))))))))))))))))))))))))))))))))))",
"))))))))))))))))))))))))))))))))))))))))))))qqqqqqqqqqqqqqqqqqqqqqqqqqqqqqqqqqqqqqqq))))))))))))))))))))))))))))))))))))))))))))",
"))))))))))))))))))))))))))))))))))))))))))))qqqqqqqqqqqqqqqqqqqqqqqqqqqqqqqqqqqqqqqq))))))))))))))))))))))))))))))))))))))))))))",
"))))))))))))))))))))))))))))))))))))))))))))qqqqqqqqqqqqqqqqqqqqqqqqqqqqqqqqqqqqqqqq))))))))))))))))))))))))))))))))))))))))))))",
"))))))))))))))))))))))))))))))))))))))))))))qqqqqqqqqqqqqqqqqqqqqqqqqqqqqqqqqqqqqqqq))))))))))))))))))))))))))))))))))))))))))))",
"))))))))))))))))))))))))))))))))))))))))))))qqqqqqqqqqqqqqqqqqqqqqqqqqqqqqqqqqqqqqqq))))))))))))))))))))))))))))))))))))))))))))",
"))))))))))))))))))))))))))))))))))))))))))))qqqqqqqqqqqqqqqqqqqqqqqqqqqqqqqqqqqqqqqq))))))))))))))))))))))))))))))))))))))))))))",
"))))))))))))))))))))))))))))))))))))))))))))qqqqqqqqqqqqqqqqqqqqqqqqqqqqqqqqqqqqqqqq))))))))))))))))))))))))))))))))))))))))))))",
"))))))))))))))))))))))))))))))))))))))))))))qqqqqqqqqqqqqqqqqqqqqqqqqqqqqqqqqqqqqqqq))))))))))))))))))))))))))))))))))))))))))))",
"))))))))))))))))))))))))))))))))))))))))))))qqqqqqqqqqqqqqqqqqqqqqq821128qqqqqqqqqqq))))))))))))))))))))))))))))))))))))))))))))",
"))))))))))))))))))))))))))))))))))))))))))))qqqqqqqqqqqqqqqqqqqqqqq81,,18qqqqqqqqqqq))))))))))))))))))))))))))))))))))))))))))))",
"))))))))))))))))))))))))))))))))))))))))))))qqqqqqqqqqqqqqqqqqqqq88ukxxku88qqqqqqqqq))))))))))))))))))))))))))))))))))))))))))))",
"))))))))))))))))))))))))))))))))))))))))))))qqqqqqqqqqqqqqqqqqqqq21kQ//Qk12qqqqqqqqq))))))))))))))))))))))))))))))))))))))))))))",
"))))))))))))))))))))))))))))))))))))))))))))qqqqqqqqqqqqqqqqqqqqq1,z^((^z,1qqqqqqqqq))))))))))))))))))))))))))))))))))))))))))))",
"))))))))))))))))))))))))))))))))))))))))))))qqqqqqqqqqqqqqqqqqqqq1,z~((~z,1qqqqqqqqq))))))))))))))))))))))))))))))))))))))))))))",
"))))))))))))))))))))))))))))))))))))))))))))qqqqqqqqqqqqqqqqqqqqq1,l!((!l,1qqqqqqqqq))))))))))))))))))))))))))))))))))))))))))))",
"))))))))))))))))))))))))))))))))))))))))))))qqqqqqqqqqqqqqqqqqqqq1,l!((!l,1qqqqq))))))))))))))))))))))))))))))))))))))))))))))))",
"))))))))))))))))))))))))))))))))))))))))))))qqqqqqqqqqqqqqqqqqqqq1,z~((~z,1qqqqq))))))))))))))))))))))))))))))))))))))))))))))))",
"))))))))))))))))))))))))))))))))))))))))))))qqqqqqqqqqqqqqqqqqqqq1,z^((^z,1qqqqq))))))))))))))))))))))))))))))))))))))))))))))))",
"))))))))))))))))))))))))))))))))))))))))))))qqqqqqqqqqqqqqqqqqqqq21kQ//Qk12qqqqq))))))))))))))))))))))))))))))))))))))))))))))))",
"))))))))))))))))))))))))))))))))))))))))))))qqqqqqqqqqqqqqqqqqqqq88ukxxku88qqqqq))))))))))))))))))))))))))))))))))))))))))))))))",
"))))))))))))))))))))))))))))))))))))))))))))qqqqqqqqqqqqqqqqqqqqqqq81,,18qqqqqqq))))))))))))))))))))))))))))))))))))))))))))))))",
"))))))))))))))))))))))))))))))))))))))))))))qqqqqqqqqqqqqqqqqqqqqqq821128qqqqqqq))))))))))))))))))))))))))))))))))))))))))))))))",
"))))))))))))))))))))))))))))))))))))))))))))qqqqqqqqqqqqqqqqqqqqqqqqqqqqqqqqqqqq))))))))))))))))))))))))))))))))))))))))))))))))",
"))))))))))))))))))))))))))))))))))))))))))))))))))))qqqqqqqqqqqqqqqqqqqqqqqq))))))))))))))))))))))))))))))))))))))))))))))))))))",
"))))))))))))))))))))))))))))))))))))))))))))))))))))qqqqqqqqqqqqqqqqqqqqqqqq))))))))))))))))))))))))))))))))))))))))))))))))))))",
"))))))))))))))))))))))))))))))))))))))))))))))))))))qqqqqqqqqqqqqqqqqqqqqqqq))))))))))))))))))))))))))))))))))))))))))))))))))))",
"))))))))))))))))))))))))))))))))))))))))))))))))))))qqqqqqqqqqqqqqqqqqqqqqqq))))))))))))))))))))))))))))))))))))))))))))))))))))",
"))))))))))))))))))))))))))))))))))))))))))))))))))))))))qqqqqqqq))))))))))))))))))))))))))))))))))))))))))))))))))))))))))))))))",
"))))))))))))))))))))))))))))))))))))))))))))))))))))))))qqqqqqqq))))))))))))))))))))))))))))))))))))))))))))))))))))))))))))))))",
"))))))))))))))))))))))))))))))))))))))))))))))))))))))))qqqqqqqq))))))))))))))))))))))))))))))))))))))))))))))))))))))))))))))))",
"))))))))))))))))))))))))))))))))))))))))))))))))))))))))qqqqqqqq))))))))))))))))))))))))))))))))))))))))))))))))))))))))))))))))",
"))))))))))))))))))))))))))))))))))))))))))))))))))))))))qqqqqqqqqqqq))))))))))))))))))))))))))))))))))))))))))))))))))))))))))))",
"))))))))))))))))))))))))))))))))))))))))))))))))))))))))76670qqqqqqq))))))))))))))))))))))))))))))))))))))))))))))))))))))))))))",
"))))))))))))))))))))))))))))))))))))))))))))))))))))))))44459qqqqqqq))))))))))))))))))))))))))))))))))))))))))))))))))))))))))))",
"))))))))))))))))))))))))))))))))))))))))))))))))))))))))ahjir90qqqqq))))))))))))))))))))))))))))))))))))))))))))))))))))))))))))",
"))))))))))))))))))))))))))))))))))))))))))))))))))))q74abZZvi57qqqqqqqqq))))))))))))))))))))))))))))))))))))))))))))))))))))))))",
"))))))))))))))))))))))))))))))))))))))))))))))))))))73>sVWWCh46qqqqqqqqq))))))))))))))))))))))))))))))))))))))))))))))))))))))))",
"))))))))))))))))))))))))))))))))))))))))))))))))))))4>;aNEEVh46qqqqqqqqq))))))))))))))))))))))))))))))))))))))))))))))))))))))))",
"))))))))))))))))))))))))))))))))))))))))))))))))))))gsacAIUMg47qqqqqqqqq))))))))))))))))))))))))))))))))))))))))))))))))))))))))",
"))))))))))))))))))))))))))))))))))))))))))))))))))))MmmASKPMg47qqqqqqqqq))))))))))))))))))))))))))))))))))))))))))))))))))))))))",
"))))))))))))))))))))))))))))))))))))))))))))))))))))LLLLKIYVh46qqqqqqqqq))))))))))))))))))))))))))))))))))))))))))))))))))))))))",
"))))))))))))))))))))))))))))))))))))))))))))))))))))HHHKLTRCh46qqqqqqqqq))))))))))))))))))))))))))))))))))))))))))))))))))))))))",
"))))))))))))))))))))))))))))))))))))))))))))))))))))DFGSABCvi57qqqqqqqqq))))))))))))))))))))))))))))))))))))))))))))))))))))))))",
"))))))))))))))))))))))))))))))))))))))))))))))))))))DHKAcafir90qqqqqqqqqqqqq))))))))))))))))))))))))))))))))))))))))))))))))))))",
"))))))))))))))))))))))))))))))))))))))))))))))))))))DHLma;:59qqqqqqqqqqqqqqq))))))))))))))))))))))))))))))))))))))))))))))))))))",
"))))))))))))))))))))))))))))))))))))))))))))))))))))DHLms:370qqqqqqqqqqqqqqq))))))))))))))))))))))))))))))))))))))))))))))))))))",
"))))))))))))))))))))))))))))))))))))))))))))))))))))DHLMg47qqqqqqqqqqqqqqqqq))))))))))))))))))))))))))))))))))))))))))))))))))))",
"))))))))))))))))))))))))))))))))))))))))))))))))DDDDDHLMg47qqqqqqqqqqqqqqqqq))))))))))))))))))))))))))))))))))))))))))))))))))))",
"))))))))))))))))))))))))))))))))))))))))))))))))DDDDDHLMg47qqqqqqqqqqqqqqqqq))))))))))))))))))))))))))))))))))))))))))))))))))))",
"))))))))))))))))))))))))))))))))))))))))))))))))DDDDDHLMg47qqqqqqqqqqqqqqqqq))))))))))))))))))))))))))))))))))))))))))))))))))))",
"))))))))))))))))))))))))))))))))))))))))))))))))DDDDDHLMg47qqqqqqqqqqqqqqqqq))))))))))))))))))))))))))))))))))))))))))))))))))))",
"))))))))))))))))))))))))))))))))))))))))))))DDDDDDDDDHLMg47qqqqqqqqqqqqqqqqq))))))))))))))))))))))))))))))))))))))))))))))))))))",
"))))))))))))))))))))))))))))))))))))))))))))DDDDDDDDDJLms:370qqqqqqqqqqqqqqq))))))))))))))))))))))))))))))))))))))))))))))))))))",
"))))))))))))))))))))))))))))))))))))))))))))DDDDDDDDDJLma;:59qqqqqqqqqqqqqqq))))))))))))))))))))))))))))))))))))))))))))))))))))",
"))))))))))))))))))))))))))))))))))))))))))))DDDDDDDDDHKAcafir90qqqqqqqqqqqqq))))))))))))))))))))))))))))))))))))))))))))))))))))",
"))))))))))))))))))))))))))))))))))))))))))))DDDDDDDDDFGSABCvi57qqqqqqqqqqqqq))))))))))))))))))))))))))))))))))))))))))))))))))))",
"))))))))))))))))))))))))))))))))))))))))))))DDDDDDDDDDDGKTRCh46qqqqqqqqqqqqq))))))))))))))))))))))))))))))))))))))))))))))))))))",
"))))))))))))))))))))))))))))))))))))))))))))DDDDDDDDDDDFHITVh46qqqqqqqqqqqqq))))))))))))))))))))))))))))))))))))))))))))))))))))",
"))))))))))))))))))))))))))))))))))))))))))))DDDDDDDDDDDDDHLMg47qqqqqqqqqqqqq))))))))))))))))))))))))))))))))))))))))))))))))))))",
"))))))))))))))))))))))))))))))))))))))))))))DDDDDDDDDDDDDHLMg47qqqqqqqqq))))))))))))))))))))))))))))))))))))))))))))))))))))))))",
"))))))))))))))))))))))))))))))))))))))))))))DDDDDDDDDDDFHITVh46qqqqqwwww))))))))))))))))))))))))))))))))))))))))))))))))))))))))",
"))))))))))))))))))))))))))))))))))))))))))))DDDDDDDDDDDGKTRCh46qqqqqwwww))))))))))))))))))))))))))))))))))))))))))))))))))))))))",
"))))))))))))))))))))))))))))))))))))))))))))DDDDDDDDDFGSABCvi57qqqq<=%%%))))))))))))))))))))))))))))))))))))))))))))))))))))))))",
"))))))))))))))))))))))))))))))))))))))))))))))))DDDDDHKAcafir90qqww=#OO+))))))))))))))))))))))))))))))))))))))))))))))))))))))))",
"))))))))))))))))))))))))))))))))))))))))))))))))DDDDDHLMa;:59qqqwee&O   ))))))))))))))))))))))))))))))))))))))))))))))))))))))))",
"))))))))))))))))))))))))))))))))))))))))))))))))DDDDDHLNd:370qqqwey&O   ))))))))))))))))))))))))))))))))))))))))))))))))))))))))",
"))))))))))))))))))))))))))))))))))))))))))))))))DDDDDKInp57qqqq<=&&$o   ))))))))))))))))))))))))))))))))))))))))))))))))))))))))",
"))))))))))))))))))))))))))))))))))))))))))))))))))))))))t90qqww=#OOo.   ))))))))))))))))))))))))))))))))))))))))))))))))))))))))",
"))))))))))))))))))))))))))))))))))))))))))))))))))))))))9qqqqww%O       ))))))))))))))))))))))))))))))))))))))))))))))))))))))))",
"))))))))))))))))))))))))))))))))))))))))))))))))))))))))0qqqqww%O       ))))))))))))))))))))))))))))))))))))))))))))))))))))))))",
"))))))))))))))))))))))))))))))))))))))))))))))))))))))))qqqqqww%+       ))))))))))))))))))))))))))))))))))))))))))))))))))))))))",
"))))))))))))))))))))))))))))))))))))))))))))))))))))qqqqqqqqqww%+       ))))))))))))))))))))))))))))))))))))))))))))))))))))))))",
"))))))))))))))))))))))))))))))))))))))))))))))))))))qqqqqqqqwee&+       ))))))))))))))))))))))))))))))))))))))))))))))))))))))))",
"))))))))))))))))))))))))))))))))))))))))))))))))))))qqqqqqqqwey&+       ))))))))))))))))))))))))))))))))))))))))))))))))))))))))",
"))))))))))))))))))))))))))))))))))))))))))))))))))))qqqqqqq<=&&$o       ))))))))))))))))))))))))))))))))))))))))))))))))))))))))",
"))))))))))))))))))))))))))))))))))))))))))))))))))))qqqqqww=#OOo.   ))))))))))))))))))))))))))))))))))))))))))))))))))))))))))))",
"))))))))))))))))))))))))))))))))))))))))))))))))))))qqqqqww%O       ))))))))))))))))))))))))))))))))))))))))))))))))))))))))))))",
"))))))))))))))))))))))))))))))))))))))))))))))))))))qqqqqww%O       ))))))))))))))))))))))))))))))))))))))))))))))))))))))))))))",
"))))))))))))))))))))))))))))))))))))))))))))))))))))qqqqqww%+       ))))))))))))))))))))))))))))))))))))))))))))))))))))))))))))",
"))))))))))))))))))))))))))))))))))))))))))))))))))))qqqqqww%+       ))))))))))))))))))))))))))))))))))))))))))))))))))))))))))))",
"))))))))))))))))))))))))))))))))))))))))))))))))))))qqqqqww%+       ))))))))))))))))))))))))))))))))))))))))))))))))))))))))))))",
"))))))))))))))))))))))))))))))))))))))))))))))))))))qqqqqww%O       ))))))))))))))))))))))))))))))))))))))))))))))))))))))))))))",
"))))))))))))))))))))))))))))))))))))))))))))))))))))qqqqqww*@       ))))))))))))))))))))))))))))))))))))))))))))))))))))))))))))",
"))))))))))))))))))))))))))))))))))))))))))))))))))))))))qqq<))))    ))))))))))))))))))))))))))))))))))))))))))))))))))))))))))))",
"))))))))))))))))))))))))))))))))))))))))))))))))))))))))qqqq))))    ))))))))))))))))))))))))))))))))))))))))))))))))))))))))))))",
"))))))))))))))))))))))))))))))))))))))))))))))))))))))))qqqq))))    ))))))))))))))))))))))))))))))))))))))))))))))))))))))))))))",
"))))))))))))))))))))))))))))))))))))))))))))))))))))))))qqqq))))    ))))))))))))))))))))))))))))))))))))))))))))))))))))))))))))",
"))))))))))))))))))))))))))))))))))))))))))))))))))))))))qqqq))))        ))))))))))))))))))))))))))))))))))))))))))))))))))))))))",
"))))))))))))))))))))))))))))))))))))))))))))))))))))))))qqqq))))        ))))))))))))))))))))))))))))))))))))))))))))))))))))))))",
"))))))))))))))))))))))))))))))))))))))))))))))))))))))))qqqq))))        ))))))))))))))))))))))))))))))))))))))))))))))))))))))))",
"))))))))))))))))))))))))))))))))))))))))))))))))))))))))qqqq))))X       ))))))))))))))))))))))))))))))))))))))))))))))))))))))))",
"))))))))))))))))))))))))))))))))))))))))))))))))))))))))qqqqqqq-))))))))))))))))))))))))))))))))))))))))))))))))))))))))))))))))",
"))))))))))))))))))))))))))))))))))))))))))))))))))))))))qqqqqqqq))))))))))))))))))))))))))))))))))))))))))))))))))))))))))))))))",
"))))))))))))))))))))))))))))))))))))))))))))))))))))))))qqqqqqqq))))))))))))))))))))))))))))))))))))))))))))))))))))))))))))))))",
"))))))))))))))))))))))))))))))))))))))))))))))))))))))))qqqqqqqq))))))))))))))))))))))))))))))))))))))))))))))))))))))))))))))))"
};
