/* XPM */
static char *result[] = {
/* columns rows colors chars-per-pixel */
"128 128 11 1 ",
"  c #163C2B",
". c #503625",
"X c #755338",
"o c #296640",
"O c #9D7658",
"+ c #509B66",
"@ c #00CCFF",
"# c gray54",
"$ c gray59",
"% c #D7F8FF",
"& c #F4FDFF",
/* pixels */
"++++++++++++oooo++++++++++++++++++++++++++++++++++++oooo++++++++++++++++++++++++++++++++++++oooo++++++++++++++++++++++++++++++++",
"++++++++++++oooo++++++++++++++++++++++++++++++++++++oooo++++++++++++++++++++++++++++++++++++oooo++++++++++++++++++++++++++++++++",
"++++++++++++oooo++++++++++++++++++++++++++++++++++++oooo++++++++++++++++++++++++++++++++++++oooo++++++++++++++++++++++++++++++++",
"++++++++++++oooo++++++++++++++++++++++++++++++++++++oooo++++++++++++++++++++++++++++++++++++oooo++++++++++++++++++++++++++++++++",
"++++++++oooo    ++++++++++++oooo    ++++++++oooooooo    ++++++++++++++++oooo++++++++++++oooo++++++++++++oooo++++++++++++++++++++",
"++++++++oooo    ++++++++++++oooo    ++++++++oooooooo    ++++++++++++++++oooo++++++++++++oooo++++++++++++oooo++++++++++++++++++++",
"++++++++oooo    ++++++++++++oooo    ++++++++oooooooo    ++++++++++++++++oooo++++++++++++oooo++++++++++++oooo++++++++++++++++++++",
"++++++++oooo    ++++++++++++oooo    ++++++++oooooooo    ++++++++++++++++oooo++++++++++++oooo++++++++++++oooo++++++++++++++++++++",
"oooooooooooo        ++++++++oooo    oooooooo        ++++++++++++++++oooo    ++++++++oooo    ++++++++oooo    ++++++++++++++++++++",
"oooooooooooo        ++++++++oooo    oooooooo        ++++++++++++++++oooo    ++++++++oooo    ++++++++oooo    ++++++++++++++++++++",
"oooooooooooo        ++++++++oooo    oooooooo        ++++++++++++++++oooo    ++++++++oooo    ++++++++oooo    ++++++++++++++++++++",
"oooooooooooo        ++++++++oooo    oooooooo        ++++++++++++++++oooo    ++++++++oooo    ++++++++oooo    ++++++++++++++++++++",
"            XXXX    oooooooo                ....        oooooooooooooooo                        oooooooo        ++++++++++++++++",
"            XXXX    oooooooo                ....        oooooooooooooooo                        oooooooo        ++++++++++++++++",
"            XXXX    oooooooo                ....        oooooooooooooooo                        oooooooo        ++++++++++++++++",
"            XXXX    oooooooo                ....        oooooooooooooooo                        oooooooo        ++++++++++++++++",
"XXXXXXXXXXXXXXXXXXXX        XXXXXXXXXXXXXXXXXXXXXXXX....                XXXXXXXXXXXXXXXX....            XXXXXXXX    ++++++++++++",
"XXXXXXXXXXXXXXXXXXXX        XXXXXXXXXXXXXXXXXXXXXXXX....                XXXXXXXXXXXXXXXX....            XXXXXXXX    ++++++++++++",
"XXXXXXXXXXXXXXXXXXXX        XXXXXXXXXXXXXXXXXXXXXXXX....                XXXXXXXXXXXXXXXX....            XXXXXXXX    ++++++++++++",
"XXXXXXXXXXXXXXXXXXXX        XXXXXXXXXXXXXXXXXXXXXXXX....                XXXXXXXXXXXXXXXX....            XXXXXXXX    ++++++++++++",
"OOOOOOOOOOOOOOOOOOOOXXXXXXXXOOOOOOOOOOOOOOOOOOOOXXXXXXXXXXXXXXXXXXXXXXXXOOOOOOOOOOOOOOOOXXXXXXXXXXXXXXXXOOOOOOOO    oooo++++++++",
"OOOOOOOOOOOOOOOOOOOOXXXXXXXXOOOOOOOOOOOOOOOOOOOOXXXXXXXXXXXXXXXXXXXXXXXXOOOOOOOOOOOOOOOOXXXXXXXXXXXXXXXXOOOOOOOO    oooo++++++++",
"OOOOOOOOOOOOOOOOOOOOXXXXXXXXOOOOOOOOOOOOOOOOOOOOXXXXXXXXXXXXXXXXXXXXXXXXOOOOOOOOOOOOOOOOXXXXXXXXXXXXXXXXOOOOOOOO    oooo++++++++",
"OOOOOOOOOOOOOOOOOOOOXXXXXXXXOOOOOOOOOOOOOOOOOOOOXXXXXXXXXXXXXXXXXXXXXXXXOOOOOOOOOOOOOOOOXXXXXXXXXXXXXXXXOOOOOOOO    oooo++++++++",
"OOOOOOOOOOOOOOOOOOOOOOOOOOOOOOOO$$$$####XXXXOOOOOOOOOOOOOOOOOOOOOOOOOOOOOOOO$$$$####OOOOOOOOOOOOOOOOOOOOOOOOOOOO    oooo++++++++",
"OOOOOOOOOOOOOOOOOOOOOOOOOOOOOOOO$$$$####XXXXOOOOOOOOOOOOOOOOOOOOOOOOOOOOOOOO$$$$####OOOOOOOOOOOOOOOOOOOOOOOOOOOO    oooo++++++++",
"OOOOOOOOOOOOOOOOOOOOOOOOOOOOOOOO$$$$####XXXXOOOOOOOOOOOOOOOOOOOOOOOOOOOOOOOO$$$$####OOOOOOOOOOOOOOOOOOOOOOOOOOOO    oooo++++++++",
"OOOOOOOOOOOOOOOOOOOOOOOOOOOOOOOO$$$$####XXXXOOOOOOOOOOOOOOOOOOOOOOOOOOOOOOOO$$$$####OOOOOOOOOOOOOOOOOOOOOOOOOOOO    oooo++++++++",
"OOOOOOOOOOOOOOOOOOOOOOOOOOOOOOOOXXXXXXXXOOOOOOOOOOOOOOOOOOOOOOOOOOOOOOOO########XXXXOOOOOOOOOOOOOOOOOOOOOOOOOOOOXXXX    ++++++++",
"OOOOOOOOOOOOOOOOOOOOOOOOOOOOOOOOXXXXXXXXOOOOOOOOOOOOOOOOOOOOOOOOOOOOOOOO########XXXXOOOOOOOOOOOOOOOOOOOOOOOOOOOOXXXX    ++++++++",
"OOOOOOOOOOOOOOOOOOOOOOOOOOOOOOOOXXXXXXXXOOOOOOOOOOOOOOOOOOOOOOOOOOOOOOOO########XXXXOOOOOOOOOOOOOOOOOOOOOOOOOOOOXXXX    ++++++++",
"OOOOOOOOOOOOOOOOOOOOOOOOOOOOOOOOXXXXXXXXOOOOOOOOOOOOOOOOOOOOOOOOOOOOOOOO########XXXXOOOOOOOOOOOOOOOOOOOOOOOOOOOOXXXX    ++++++++",
"OOOOOOOOOOOOOOOOOOOOOOOOOOOOOOOOOOOOOOOOOOOOOOOOOOOOOOOOOOOOOOOOOOOOOOOOXXXXXXXXOOOOOOOOOOOOOOOOOOOOOOOOOOOOOOOO    ++++    ++++",
"OOOOOOOOOOOOOOOOOOOOOOOOOOOOOOOOOOOOOOOOOOOOOOOOOOOOOOOOOOOOOOOOOOOOOOOOXXXXXXXXOOOOOOOOOOOOOOOOOOOOOOOOOOOOOOOO    ++++    ++++",
"OOOOOOOOOOOOOOOOOOOOOOOOOOOOOOOOOOOOOOOOOOOOOOOOOOOOOOOOOOOOOOOOOOOOOOOOXXXXXXXXOOOOOOOOOOOOOOOOOOOOOOOOOOOOOOOO    ++++    ++++",
"OOOOOOOOOOOOOOOOOOOOOOOOOOOOOOOOOOOOOOOOOOOOOOOOOOOOOOOOOOOOOOOOOOOOOOOOXXXXXXXXOOOOOOOOOOOOOOOOOOOOOOOOOOOOOOOO    ++++    ++++",
"&&&&OOOOOOOOOOOOOOOOOOOO&&&&&&&&&&&&&&&&&&&&&&&&OOOOOOOOOOOOOOOOOOOOOOOO&&&&&&&&&&&&&&&&&&&&OOOOOOOOOOOOOOOO    oooo++++++++++++",
"&&&&OOOOOOOOOOOOOOOOOOOO&&&&&&&&&&&&&&&&&&&&&&&&OOOOOOOOOOOOOOOOOOOOOOOO&&&&&&&&&&&&&&&&&&&&OOOOOOOOOOOOOOOO    oooo++++++++++++",
"&&&&OOOOOOOOOOOOOOOOOOOO&&&&&&&&&&&&&&&&&&&&&&&&OOOOOOOOOOOOOOOOOOOOOOOO&&&&&&&&&&&&&&&&&&&&OOOOOOOOOOOOOOOO    oooo++++++++++++",
"&&&&OOOOOOOOOOOOOOOOOOOO&&&&&&&&&&&&&&&&&&&&&&&&OOOOOOOOOOOOOOOOOOOOOOOO&&&&&&&&&&&&&&&&&&&&OOOOOOOOOOOOOOOO    oooo++++++++++++",
"%%%%&&&&&&&&&&&&&&&&&&&&%%%%%%%%%%%%%%%%%%%%%%%%&&&&&&&&&&&&&&&&&&&&&&&&%%%%%%%%%%%%%%%%%%%%&&&&&&&&&&&&&&&&    oooo++++++++++++",
"%%%%&&&&&&&&&&&&&&&&&&&&%%%%%%%%%%%%%%%%%%%%%%%%&&&&&&&&&&&&&&&&&&&&&&&&%%%%%%%%%%%%%%%%%%%%&&&&&&&&&&&&&&&&    oooo++++++++++++",
"%%%%&&&&&&&&&&&&&&&&&&&&%%%%%%%%%%%%%%%%%%%%%%%%&&&&&&&&&&&&&&&&&&&&&&&&%%%%%%%%%%%%%%%%%%%%&&&&&&&&&&&&&&&&    oooo++++++++++++",
"%%%%&&&&&&&&&&&&&&&&&&&&%%%%%%%%%%%%%%%%%%%%%%%%&&&&&&&&&&&&&&&&&&&&&&&&%%%%%%%%%%%%%%%%%%%%&&&&&&&&&&&&&&&&    oooo++++++++++++",
"@@@@%%%%%%%%%%%%%%%%%%%%@@@@@@@@@@@@@@@@@@@@@@@@%%%%%%%%%%%%%%%%%%%%%%%%@@@@@@@@@@@@@@@@@@@@%%%%%%%%%%%%%%%%&&&&    oooo++++++++",
"@@@@%%%%%%%%%%%%%%%%%%%%@@@@@@@@@@@@@@@@@@@@@@@@%%%%%%%%%%%%%%%%%%%%%%%%@@@@@@@@@@@@@@@@@@@@%%%%%%%%%%%%%%%%&&&&    oooo++++++++",
"@@@@%%%%%%%%%%%%%%%%%%%%@@@@@@@@@@@@@@@@@@@@@@@@%%%%%%%%%%%%%%%%%%%%%%%%@@@@@@@@@@@@@@@@@@@@%%%%%%%%%%%%%%%%&&&&    oooo++++++++",
"@@@@%%%%%%%%%%%%%%%%%%%%@@@@@@@@@@@@@@@@@@@@@@@@%%%%%%%%%%%%%%%%%%%%%%%%@@@@@@@@@@@@@@@@@@@@%%%%%%%%%%%%%%%%&&&&    oooo++++++++",
"@@@@@@@@@@@@@@@@@@@@@@@@@@@@@@@@@@@@@@@@@@@@@@@@@@@@@@@@@@@@@@@@@@@@@@@@@@@@@@@@@@@@@@@@@@@@@@@@@@@@@@@@%%%%%%%%    oooo++++++++",
"@@@@@@@@@@@@@@@@@@@@@@@@@@@@@@@@@@@@@@@@@@@@@@@@@@@@@@@@@@@@@@@@@@@@@@@@@@@@@@@@@@@@@@@@@@@@@@@@@@@@@@@@%%%%%%%%    oooo++++++++",
"@@@@@@@@@@@@@@@@@@@@@@@@@@@@@@@@@@@@@@@@@@@@@@@@@@@@@@@@@@@@@@@@@@@@@@@@@@@@@@@@@@@@@@@@@@@@@@@@@@@@@@@@%%%%%%%%    oooo++++++++",
"@@@@@@@@@@@@@@@@@@@@@@@@@@@@@@@@@@@@@@@@@@@@@@@@@@@@@@@@@@@@@@@@@@@@@@@@@@@@@@@@@@@@@@@@@@@@@@@@@@@@@@@@%%%%%%%%    oooo++++++++",
"@@@@@@@@@@@@@@@@@@@@@@@@%%%%@@@@@@@@@@@@@@@@@@@@@@@@@@@@@@@@@@@@@@@@@@@@@@@@@@@@@@@@@@@@@@@@@@@@@@@@@@@@@@@@%%%%&&&&    ++++++++",
"@@@@@@@@@@@@@@@@@@@@@@@@%%%%@@@@@@@@@@@@@@@@@@@@@@@@@@@@@@@@@@@@@@@@@@@@@@@@@@@@@@@@@@@@@@@@@@@@@@@@@@@@@@@@%%%%&&&&    ++++++++",
"@@@@@@@@@@@@@@@@@@@@@@@@%%%%@@@@@@@@@@@@@@@@@@@@@@@@@@@@@@@@@@@@@@@@@@@@@@@@@@@@@@@@@@@@@@@@@@@@@@@@@@@@@@@@%%%%&&&&    ++++++++",
"@@@@@@@@@@@@@@@@@@@@@@@@%%%%@@@@@@@@@@@@@@@@@@@@@@@@@@@@@@@@@@@@@@@@@@@@@@@@@@@@@@@@@@@@@@@@@@@@@@@@@@@@@@@@%%%%&&&&    ++++++++",
"@@@@@@@@@@@@@@@@%%%%%%%%@@@@@@@@@@@@@@@@@@@@@@@@%%%%@@@@@@@@@@@@@@@@@@@@@@@@@@@@@@@@@@@@@@@@@@@@@@@@@@@@@@@@%%%%    ++++++++++++",
"@@@@@@@@@@@@@@@@%%%%%%%%@@@@@@@@@@@@@@@@@@@@@@@@%%%%@@@@@@@@@@@@@@@@@@@@@@@@@@@@@@@@@@@@@@@@@@@@@@@@@@@@@@@@%%%%    ++++++++++++",
"@@@@@@@@@@@@@@@@%%%%%%%%@@@@@@@@@@@@@@@@@@@@@@@@%%%%@@@@@@@@@@@@@@@@@@@@@@@@@@@@@@@@@@@@@@@@@@@@@@@@@@@@@@@@%%%%    ++++++++++++",
"@@@@@@@@@@@@@@@@%%%%%%%%@@@@@@@@@@@@@@@@@@@@@@@@%%%%@@@@@@@@@@@@@@@@@@@@@@@@@@@@@@@@@@@@@@@@@@@@@@@@@@@@@@@@%%%%    ++++++++++++",
"@@@@@@@@@@@@@@@@@@@@@@@@@@@@@@@@@@@@@@@@@@@@@@@@@@@@@@@@@@@@@@@@@@@@@@@@@@@@@@@@@@@@%%%%@@@@@@@@@@@@@@@@@@@@%%%%    ++++++++++++",
"@@@@@@@@@@@@@@@@@@@@@@@@@@@@@@@@@@@@@@@@@@@@@@@@@@@@@@@@@@@@@@@@@@@@@@@@@@@@@@@@@@@@%%%%@@@@@@@@@@@@@@@@@@@@%%%%    ++++++++++++",
"@@@@@@@@@@@@@@@@@@@@@@@@@@@@@@@@@@@@@@@@@@@@@@@@@@@@@@@@@@@@@@@@@@@@@@@@@@@@@@@@@@@@%%%%@@@@@@@@@@@@@@@@@@@@%%%%    ++++++++++++",
"@@@@@@@@@@@@@@@@@@@@@@@@@@@@@@@@@@@@@@@@@@@@@@@@@@@@@@@@@@@@@@@@@@@@@@@@@@@@@@@@@@@@%%%%@@@@@@@@@@@@@@@@@@@@%%%%    ++++++++++++",
"@@@@@@@@@@@@@@@@@@@@@@@@@@@@@@@@@@@@@@@@@@@@@@@@@@@@@@@@@@@@@@@@@@@@@@@@@@@@@@@@@@@@@@@@%%%%@@@@@@@@@@@@@@@@%%%%    oooo++++++++",
"@@@@@@@@@@@@@@@@@@@@@@@@@@@@@@@@@@@@@@@@@@@@@@@@@@@@@@@@@@@@@@@@@@@@@@@@@@@@@@@@@@@@@@@@%%%%@@@@@@@@@@@@@@@@%%%%    oooo++++++++",
"@@@@@@@@@@@@@@@@@@@@@@@@@@@@@@@@@@@@@@@@@@@@@@@@@@@@@@@@@@@@@@@@@@@@@@@@@@@@@@@@@@@@@@@@%%%%@@@@@@@@@@@@@@@@%%%%    oooo++++++++",
"@@@@@@@@@@@@@@@@@@@@@@@@@@@@@@@@@@@@@@@@@@@@@@@@@@@@@@@@@@@@@@@@@@@@@@@@@@@@@@@@@@@@@@@@%%%%@@@@@@@@@@@@@@@@%%%%    oooo++++++++",
"@@@@@@@@@@@@@@@@@@@@@@@@@@@@@@@@@@@@@@@@@@@@@@@@@@@@@@@@@@@@@@@@@@@@@@@@@@@@@@@@@@@@@@@@@@@@@@@@@@@@@@@@@@@@%%%%&&&&        ++++",
"@@@@@@@@@@@@@@@@@@@@@@@@@@@@@@@@@@@@@@@@@@@@@@@@@@@@@@@@@@@@@@@@@@@@@@@@@@@@@@@@@@@@@@@@@@@@@@@@@@@@@@@@@@@@%%%%&&&&        ++++",
"@@@@@@@@@@@@@@@@@@@@@@@@@@@@@@@@@@@@@@@@@@@@@@@@@@@@@@@@@@@@@@@@@@@@@@@@@@@@@@@@@@@@@@@@@@@@@@@@@@@@@@@@@@@@%%%%&&&&        ++++",
"@@@@@@@@@@@@@@@@@@@@@@@@@@@@@@@@@@@@@@@@@@@@@@@@@@@@@@@@@@@@@@@@@@@@@@@@@@@@@@@@@@@@@@@@@@@@@@@@@@@@@@@@@@@@%%%%&&&&        ++++",
"@@@@@@@@@@@@@@@@@@@@@@@@@@@@@@@@@@@@@@@@@@@@@@@@@@@@@@@@@@@@@@@@@@@@@@@@@@@@@@@@@@@@@@@@@@@@@@@@@@@@@@@@%%%%&&&&        ++++++++",
"@@@@@@@@@@@@@@@@@@@@@@@@@@@@@@@@@@@@@@@@@@@@@@@@@@@@@@@@@@@@@@@@@@@@@@@@@@@@@@@@@@@@@@@@@@@@@@@@@@@@@@@@%%%%&&&&        ++++++++",
"@@@@@@@@@@@@@@@@@@@@@@@@@@@@@@@@@@@@@@@@@@@@@@@@@@@@@@@@@@@@@@@@@@@@@@@@@@@@@@@@@@@@@@@@@@@@@@@@@@@@@@@@%%%%&&&&        ++++++++",
"@@@@@@@@@@@@@@@@@@@@@@@@@@@@@@@@@@@@@@@@@@@@@@@@@@@@@@@@@@@@@@@@@@@@@@@@@@@@@@@@@@@@@@@@@@@@@@@@@@@@@@@@%%%%&&&&        ++++++++",
"@@@@@@@@@@@@@@@@@@@@@@@@@@@@@@@@@@@@@@@@@@@@@@@@@@@@@@@@@@@@@@@@@@@@@@@@@@@@@@@@@@@@@@@@@@@@@@@@@@@@@@@@%%%%&&&&    ++++++++++++",
"@@@@@@@@@@@@@@@@@@@@@@@@@@@@@@@@@@@@@@@@@@@@@@@@@@@@@@@@@@@@@@@@@@@@@@@@@@@@@@@@@@@@@@@@@@@@@@@@@@@@@@@@%%%%&&&&    ++++++++++++",
"@@@@@@@@@@@@@@@@@@@@@@@@@@@@@@@@@@@@@@@@@@@@@@@@@@@@@@@@@@@@@@@@@@@@@@@@@@@@@@@@@@@@@@@@@@@@@@@@@@@@@@@@%%%%&&&&    ++++++++++++",
"@@@@@@@@@@@@@@@@@@@@@@@@@@@@@@@@@@@@@@@@@@@@@@@@@@@@@@@@@@@@@@@@@@@@@@@@@@@@@@@@@@@@@@@@@@@@@@@@@@@@@@@@%%%%&&&&    ++++++++++++",
"@@@@@@@@@@@@@@@@@@@@@@@@@@@@@@@@@@@@@@@@@@@@@@@@@@@@@@@@@@@@@@@@@@@@@@@@@@@@@@@@@@@@@@@@@@@@@@@@@@@@@@@@%%%%&&&&    oooo++++++++",
"@@@@@@@@@@@@@@@@@@@@@@@@@@@@@@@@@@@@@@@@@@@@@@@@@@@@@@@@@@@@@@@@@@@@@@@@@@@@@@@@@@@@@@@@@@@@@@@@@@@@@@@@%%%%&&&&    oooo++++++++",
"@@@@@@@@@@@@@@@@@@@@@@@@@@@@@@@@@@@@@@@@@@@@@@@@@@@@@@@@@@@@@@@@@@@@@@@@@@@@@@@@@@@@@@@@@@@@@@@@@@@@@@@@%%%%&&&&    oooo++++++++",
"@@@@@@@@@@@@@@@@@@@@@@@@@@@@@@@@@@@@@@@@@@@@@@@@@@@@@@@@@@@@@@@@@@@@@@@@@@@@@@@@@@@@@@@@@@@@@@@@@@@@@@@@%%%%&&&&    oooo++++++++",
"@@@@@@@@@@@@@@@@@@@@@@@@@@@@@@@@@@@@@@@@@@@@@@@@@@@@@@@@@@@@@@@@@@@@@@@@@@@@@@@@@@@@@@@@@@@@@@@@@@@@@@@@%%%%&&&&    oooo++++++++",
"@@@@@@@@@@@@@@@@@@@@@@@@@@@@@@@@@@@@@@@@@@@@@@@@@@@@@@@@@@@@@@@@@@@@@@@@@@@@@@@@@@@@@@@@@@@@@@@@@@@@@@@@%%%%&&&&    oooo++++++++",
"@@@@@@@@@@@@@@@@@@@@@@@@@@@@@@@@@@@@@@@@@@@@@@@@@@@@@@@@@@@@@@@@@@@@@@@@@@@@@@@@@@@@@@@@@@@@@@@@@@@@@@@@%%%%&&&&    oooo++++++++",
"@@@@@@@@@@@@@@@@@@@@@@@@@@@@@@@@@@@@@@@@@@@@@@@@@@@@@@@@@@@@@@@@@@@@@@@@@@@@@@@@@@@@@@@@@@@@@@@@@@@@@@@@%%%%&&&&    oooo++++++++",
"@@@@@@@@@@@@@@@@@@@@@@@@@@@@@@@@@@@@@@@@@@@@@@@@@@@@@@@@@@@@@@@@@@@@@@@@@@@@@@@@@@@@@@@@@@@@@@@@@@@@@@@@@@@@%%%%&&&&    ++++++++",
"@@@@@@@@@@@@@@@@@@@@@@@@@@@@@@@@@@@@@@@@@@@@@@@@@@@@@@@@@@@@@@@@@@@@@@@@@@@@@@@@@@@@@@@@@@@@@@@@@@@@@@@@@@@@%%%%&&&&    ++++++++",
"@@@@@@@@@@@@@@@@@@@@@@@@@@@@@@@@@@@@@@@@@@@@@@@@@@@@@@@@@@@@@@@@@@@@@@@@@@@@@@@@@@@@@@@@@@@@@@@@@@@@@@@@@@@@%%%%&&&&    ++++++++",
"@@@@@@@@@@@@@@@@@@@@@@@@@@@@@@@@@@@@@@@@@@@@@@@@@@@@@@@@@@@@@@@@@@@@@@@@@@@@@@@@@@@@@@@@@@@@@@@@@@@@@@@@@@@@%%%%&&&&    ++++++++",
"@@@@@@@@@@@@@@@@@@@@@@@@@@@@@@@@@@@@@@@@@@@@@@@@@@@@@@@@@@@@@@@@@@@@@@@@@@@@@@@@@@@@@@@@@@@@@@@@@@@@@@@@@@@@%%%%    ++++++++++++",
"@@@@@@@@@@@@@@@@@@@@@@@@@@@@@@@@@@@@@@@@@@@@@@@@@@@@@@@@@@@@@@@@@@@@@@@@@@@@@@@@@@@@@@@@@@@@@@@@@@@@@@@@@@@@%%%%    ++++++++++++",
"@@@@@@@@@@@@@@@@@@@@@@@@@@@@@@@@@@@@@@@@@@@@@@@@@@@@@@@@@@@@@@@@@@@@@@@@@@@@@@@@@@@@@@@@@@@@@@@@@@@@@@@@@@@@%%%%    ++++++++++++",
"@@@@@@@@@@@@@@@@@@@@@@@@@@@@@@@@@@@@@@@@@@@@@@@@@@@@@@@@@@@@@@@@@@@@@@@@@@@@@@@@@@@@@@@@@@@@@@@@@@@@@@@@@@@@%%%%    ++++++++++++",
"@@@@@@@@@@@@@@@@@@@@%%%%%%%%@@@@@@@@@@@@@@@@@@@@@@@@@@@@@@@@@@@@@@@@@@@@@@@@@@@@@@@@@@@@@@@@@@@@@@@@@@@@%%%%    ++++++++++++++++",
"@@@@@@@@@@@@@@@@@@@@%%%%%%%%@@@@@@@@@@@@@@@@@@@@@@@@@@@@@@@@@@@@@@@@@@@@@@@@@@@@@@@@@@@@@@@@@@@@@@@@@@@@%%%%    ++++++++++++++++",
"@@@@@@@@@@@@@@@@@@@@%%%%%%%%@@@@@@@@@@@@@@@@@@@@@@@@@@@@@@@@@@@@@@@@@@@@@@@@@@@@@@@@@@@@@@@@@@@@@@@@@@@@%%%%    ++++++++++++++++",
"@@@@@@@@@@@@@@@@@@@@%%%%%%%%@@@@@@@@@@@@@@@@@@@@@@@@@@@@@@@@@@@@@@@@@@@@@@@@@@@@@@@@@@@@@@@@@@@@@@@@@@@@%%%%    ++++++++++++++++",
"@@@@@@@@@@@@@@@@@@@@@@@@%%%%%%%%@@@@@@@@@@@@@@@@@@@@@@@@@@@@@@@@@@@@@@@@@@@@@@@@@@@@@@@@@@@@@@@@@@@@@@@@%%%%    oooo++++++++++++",
"@@@@@@@@@@@@@@@@@@@@@@@@%%%%%%%%@@@@@@@@@@@@@@@@@@@@@@@@@@@@@@@@@@@@@@@@@@@@@@@@@@@@@@@@@@@@@@@@@@@@@@@@%%%%    oooo++++++++++++",
"@@@@@@@@@@@@@@@@@@@@@@@@%%%%%%%%@@@@@@@@@@@@@@@@@@@@@@@@@@@@@@@@@@@@@@@@@@@@@@@@@@@@@@@@@@@@@@@@@@@@@@@@%%%%    oooo++++++++++++",
"@@@@@@@@@@@@@@@@@@@@@@@@%%%%%%%%@@@@@@@@@@@@@@@@@@@@@@@@@@@@@@@@@@@@@@@@@@@@@@@@@@@@@@@@@@@@@@@@@@@@@@@@%%%%    oooo++++++++++++",
"%%%%%%%%%%%%@@@@@@@@@@@@@@@@%%%%@@@@@@@@@@@@@@@@@@@@@@@@@@@@@@@@@@@@@@@@@@@@@@@@@@@@@@@@%%%%@@@@@@@@@@@@%%%%    oooooooo++++++++",
"%%%%%%%%%%%%@@@@@@@@@@@@@@@@%%%%@@@@@@@@@@@@@@@@@@@@@@@@@@@@@@@@@@@@@@@@@@@@@@@@@@@@@@@@%%%%@@@@@@@@@@@@%%%%    oooooooo++++++++",
"%%%%%%%%%%%%@@@@@@@@@@@@@@@@%%%%@@@@@@@@@@@@@@@@@@@@@@@@@@@@@@@@@@@@@@@@@@@@@@@@@@@@@@@@%%%%@@@@@@@@@@@@%%%%    oooooooo++++++++",
"%%%%%%%%%%%%@@@@@@@@@@@@@@@@%%%%@@@@@@@@@@@@@@@@@@@@@@@@@@@@@@@@@@@@@@@@@@@@@@@@@@@@@@@@%%%%@@@@@@@@@@@@%%%%    oooooooo++++++++",
"        &&&&%%%%@@@@@@@@@@@@@@@@@@@@@@@@@@@@@@@@@@@@@@@@@@@@@@@@@@@@@@@@@@@@@@@@@@@@@@@@%%%%@@@@@@@@@@@@%%%%&&&&        ++++++++",
"        &&&&%%%%@@@@@@@@@@@@@@@@@@@@@@@@@@@@@@@@@@@@@@@@@@@@@@@@@@@@@@@@@@@@@@@@@@@@@@@@%%%%@@@@@@@@@@@@%%%%&&&&        ++++++++",
"        &&&&%%%%@@@@@@@@@@@@@@@@@@@@@@@@@@@@@@@@@@@@@@@@@@@@@@@@@@@@@@@@@@@@@@@@@@@@@@@@%%%%@@@@@@@@@@@@%%%%&&&&        ++++++++",
"        &&&&%%%%@@@@@@@@@@@@@@@@@@@@@@@@@@@@@@@@@@@@@@@@@@@@@@@@@@@@@@@@@@@@@@@@@@@@@@@@%%%%@@@@@@@@@@@@%%%%&&&&        ++++++++",
"oooooooo    %%%%@@@@@@@@@@@@@@@@@@@@@@@@@@@@@@@@@@@@@@@@@@@@@@@@@@@@@@@@@@@@@@@@@@@@%%%%%%%%@@@@@@@@@@@@%%%%        ++++++++++++",
"oooooooo    %%%%@@@@@@@@@@@@@@@@@@@@@@@@@@@@@@@@@@@@@@@@@@@@@@@@@@@@@@@@@@@@@@@@@@@@%%%%%%%%@@@@@@@@@@@@%%%%        ++++++++++++",
"oooooooo    %%%%@@@@@@@@@@@@@@@@@@@@@@@@@@@@@@@@@@@@@@@@@@@@@@@@@@@@@@@@@@@@@@@@@@@@%%%%%%%%@@@@@@@@@@@@%%%%        ++++++++++++",
"oooooooo    %%%%@@@@@@@@@@@@@@@@@@@@@@@@@@@@@@@@@@@@@@@@@@@@@@@@@@@@@@@@@@@@@@@@@@@@%%%%%%%%@@@@@@@@@@@@%%%%        ++++++++++++",
"++++++++oooo    %%%%@@@@@@@@@@@@@@@@@@@@@@@@@@@@@@@@@@@@@@@@@@@@@@@@@@@@@@@@@@@@@@@@%%%%@@@@@@@@@@@@%%%%&&&&    oooo++++++++++++",
"++++++++oooo    %%%%@@@@@@@@@@@@@@@@@@@@@@@@@@@@@@@@@@@@@@@@@@@@@@@@@@@@@@@@@@@@@@@@%%%%@@@@@@@@@@@@%%%%&&&&    oooo++++++++++++",
"++++++++oooo    %%%%@@@@@@@@@@@@@@@@@@@@@@@@@@@@@@@@@@@@@@@@@@@@@@@@@@@@@@@@@@@@@@@@%%%%@@@@@@@@@@@@%%%%&&&&    oooo++++++++++++",
"++++++++oooo    %%%%@@@@@@@@@@@@@@@@@@@@@@@@@@@@@@@@@@@@@@@@@@@@@@@@@@@@@@@@@@@@@@@@%%%%@@@@@@@@@@@@%%%%&&&&    oooo++++++++++++",
"++++++++oooo    %%%%@@@@@@@@@@@@@@@@@@@@@@@@@@@@@@@@@@@@@@@@@@@@@@@@@@@@@@@@@@@@@@@@@@@@@@@@@@@@@@@@%%%%&&&&    oooo++++++++++++",
"++++++++oooo    %%%%@@@@@@@@@@@@@@@@@@@@@@@@@@@@@@@@@@@@@@@@@@@@@@@@@@@@@@@@@@@@@@@@@@@@@@@@@@@@@@@@%%%%&&&&    oooo++++++++++++",
"++++++++oooo    %%%%@@@@@@@@@@@@@@@@@@@@@@@@@@@@@@@@@@@@@@@@@@@@@@@@@@@@@@@@@@@@@@@@@@@@@@@@@@@@@@@@%%%%&&&&    oooo++++++++++++",
"++++++++oooo    %%%%@@@@@@@@@@@@@@@@@@@@@@@@@@@@@@@@@@@@@@@@@@@@@@@@@@@@@@@@@@@@@@@@@@@@@@@@@@@@@@@@%%%%&&&&    oooo++++++++++++",
"++++++++oooo    %%%%@@@@@@@@@@@@@@@@@@@@@@@@@@@@@@@@@@@@@@@@@@@@@@@@@@@@@@@@@@@@@@@@@@@@@@@@@@@@@@@@@@@@%%%%    ++++++++++++++++",
"++++++++oooo    %%%%@@@@@@@@@@@@@@@@@@@@@@@@@@@@@@@@@@@@@@@@@@@@@@@@@@@@@@@@@@@@@@@@@@@@@@@@@@@@@@@@@@@@%%%%    ++++++++++++++++",
"++++++++oooo    %%%%@@@@@@@@@@@@@@@@@@@@@@@@@@@@@@@@@@@@@@@@@@@@@@@@@@@@@@@@@@@@@@@@@@@@@@@@@@@@@@@@@@@@%%%%    ++++++++++++++++",
"++++++++oooo    %%%%@@@@@@@@@@@@@@@@@@@@@@@@@@@@@@@@@@@@@@@@@@@@@@@@@@@@@@@@@@@@@@@@@@@@@@@@@@@@@@@@@@@@%%%%    ++++++++++++++++"
};
