/* XPM */
static char *result[] = {
/* columns rows colors chars-per-pixel */
"128 128 11 1 ",
"  c #163C2B",
". c #503625",
"X c #755338",
"o c #296640",
"O c #9D7658",
"+ c #509B66",
"@ c #00CCFF",
"# c gray54",
"$ c gray59",
"% c #D7F8FF",
"& c #F4FDFF",
/* pixels */
"++++++++++++++++++++++++++++++++++++++++++++++++++++oooo++++++++++++++++++++++++++++++++++++oooo++++++++++++++++++++++++++++++++",
"++++++++++++++++++++++++++++++++++++++++++++++++++++oooo++++++++++++++++++++++++++++++++++++oooo++++++++++++++++++++++++++++++++",
"++++++++++++++++++++++++++++++++++++++++++++++++++++oooo++++++++++++++++++++++++++++++++++++oooo++++++++++++++++++++++++++++++++",
"++++++++++++++++++++++++++++++++++++++++++++++++++++oooo++++++++++++++++++++++++++++++++++++oooo++++++++++++++++++++++++++++++++",
"++++++++++++++++++++++++++++oooo    ++++++++oooooooo    ++++++++++++++++oooo++++++++++++oooo++++++++++++oooo++++++++++++++++++++",
"++++++++++++++++++++++++++++oooo    ++++++++oooooooo    ++++++++++++++++oooo++++++++++++oooo++++++++++++oooo++++++++++++++++++++",
"++++++++++++++++++++++++++++oooo    ++++++++oooooooo    ++++++++++++++++oooo++++++++++++oooo++++++++++++oooo++++++++++++++++++++",
"++++++++++++++++++++++++++++oooo    ++++++++oooooooo    ++++++++++++++++oooo++++++++++++oooo++++++++++++oooo++++++++++++++++++++",
"++++++++++++++++++++++++++++oooo    oooooooo        ++++++++++++++++oooo    ++++++++oooo    ++++++++oooo    ++++++++++++++++++++",
"++++++++++++++++++++++++++++oooo    oooooooo        ++++++++++++++++oooo    ++++++++oooo    ++++++++oooo    ++++++++++++++++++++",
"++++++++++++++++++++++++++++oooo    oooooooo        ++++++++++++++++oooo    ++++++++oooo    ++++++++oooo    ++++++++++++++++++++",
"++++++++++++++++++++++++++++oooo    oooooooo        ++++++++++++++++oooo    ++++++++oooo    ++++++++oooo    ++++++++++++++++++++",
"++++++++++++++++++++oooooooo                ....        oooooooooooooooo                        oooooooo    oooo++++++++++++++++",
"++++++++++++++++++++oooooooo                ....        oooooooooooooooo                        oooooooo    oooo++++++++++++++++",
"++++++++++++++++++++oooooooo                ....        oooooooooooooooo                        oooooooo    oooo++++++++++++++++",
"++++++++++++++++++++oooooooo                ....        oooooooooooooooo                        oooooooo    oooo++++++++++++++++",
"++++++++++++++++++++        XXXXXXXXXXXXXXXXXXXXXXXX....                XXXXXXXXXXXXXXXX                        oooo++++++++++++",
"++++++++++++++++++++        XXXXXXXXXXXXXXXXXXXXXXXX....                XXXXXXXXXXXXXXXX                        oooo++++++++++++",
"++++++++++++++++++++        XXXXXXXXXXXXXXXXXXXXXXXX....                XXXXXXXXXXXXXXXX                        oooo++++++++++++",
"++++++++++++++++++++        XXXXXXXXXXXXXXXXXXXXXXXX....                XXXXXXXXXXXXXXXX                        oooo++++++++++++",
"++++++++++++++++    XXXXXXXXOOOOOOOOOOOOOOOOOOOOXXXXXXXXXXXXXXXXXXXXXXXXOOOOOOOO####$$$$XXXXXXXXXXXXXXXXOOOO    oooooooo++++++++",
"++++++++++++++++    XXXXXXXXOOOOOOOOOOOOOOOOOOOOXXXXXXXXXXXXXXXXXXXXXXXXOOOOOOOO####$$$$XXXXXXXXXXXXXXXXOOOO    oooooooo++++++++",
"++++++++++++++++    XXXXXXXXOOOOOOOOOOOOOOOOOOOOXXXXXXXXXXXXXXXXXXXXXXXXOOOOOOOO####$$$$XXXXXXXXXXXXXXXXOOOO    oooooooo++++++++",
"++++++++++++++++    XXXXXXXXOOOOOOOOOOOOOOOOOOOOXXXXXXXXXXXXXXXXXXXXXXXXOOOOOOOO####$$$$XXXXXXXXXXXXXXXXOOOO    oooooooo++++++++",
"++++++++++++    OOOO$$$$####XXXXOOOOOOOOOOOOOOOOOOOOOOOO####$$$$XXXXOOOOOOOOOOOOOOOOXXXXOOOOOOOOOOOOOOOOOOOOOOOO    oooo++++++++",
"++++++++++++    OOOO$$$$####XXXXOOOOOOOOOOOOOOOOOOOOOOOO####$$$$XXXXOOOOOOOOOOOOOOOOXXXXOOOOOOOOOOOOOOOOOOOOOOOO    oooo++++++++",
"++++++++++++    OOOO$$$$####XXXXOOOOOOOOOOOOOOOOOOOOOOOO####$$$$XXXXOOOOOOOOOOOOOOOOXXXXOOOOOOOOOOOOOOOOOOOOOOOO    oooo++++++++",
"++++++++++++    OOOO$$$$####XXXXOOOOOOOOOOOOOOOOOOOOOOOO####$$$$XXXXOOOOOOOOOOOOOOOOXXXXOOOOOOOOOOOOOOOOOOOOOOOO    oooo++++++++",
"++++++++++++    OOOOOOOOXXXXOOOO&&&&&&&&&&&&&&&&OOOOOOOOOOOOXXXXOOOOOOOOOOOO&&&&&&&&&&&&&&&&OOOOOOOOOOOOOOOOOOOO        ++++++++",
"++++++++++++    OOOOOOOOXXXXOOOO&&&&&&&&&&&&&&&&OOOOOOOOOOOOXXXXOOOOOOOOOOOO&&&&&&&&&&&&&&&&OOOOOOOOOOOOOOOOOOOO        ++++++++",
"++++++++++++    OOOOOOOOXXXXOOOO&&&&&&&&&&&&&&&&OOOOOOOOOOOOXXXXOOOOOOOOOOOO&&&&&&&&&&&&&&&&OOOOOOOOOOOOOOOOOOOO        ++++++++",
"++++++++++++    OOOOOOOOXXXXOOOO&&&&&&&&&&&&&&&&OOOOOOOOOOOOXXXXOOOOOOOOOOOO&&&&&&&&&&&&&&&&OOOOOOOOOOOOOOOOOOOO        ++++++++",
"++++++++oooo    OOOOOOOOOOOO&&&&%%%%%%%%%%%%%%%%&&&&&&&&&&&&OOOOOOOO&&&&&&&&%%%%%%%%%%%%%%%%&&&&&&&&&&&&&&&&&&&&    ++++    ++++",
"++++++++oooo    OOOOOOOOOOOO&&&&%%%%%%%%%%%%%%%%&&&&&&&&&&&&OOOOOOOO&&&&&&&&%%%%%%%%%%%%%%%%&&&&&&&&&&&&&&&&&&&&    ++++    ++++",
"++++++++oooo    OOOOOOOOOOOO&&&&%%%%%%%%%%%%%%%%&&&&&&&&&&&&OOOOOOOO&&&&&&&&%%%%%%%%%%%%%%%%&&&&&&&&&&&&&&&&&&&&    ++++    ++++",
"++++++++oooo    OOOOOOOOOOOO&&&&%%%%%%%%%%%%%%%%&&&&&&&&&&&&OOOOOOOO&&&&&&&&%%%%%%%%%%%%%%%%&&&&&&&&&&&&&&&&&&&&    ++++    ++++",
"++++++++oooo    &&&&%%%%&&&&%%%%@@@@@@@@@@@@@@@@%%%%%%%%%%%%&&&&&&&&%%%%%%%%@@@@@@@@@@@@@@@@%%%%%%%%%%%%%%%%    oooo++++++++++++",
"++++++++oooo    &&&&%%%%&&&&%%%%@@@@@@@@@@@@@@@@%%%%%%%%%%%%&&&&&&&&%%%%%%%%@@@@@@@@@@@@@@@@%%%%%%%%%%%%%%%%    oooo++++++++++++",
"++++++++oooo    &&&&%%%%&&&&%%%%@@@@@@@@@@@@@@@@%%%%%%%%%%%%&&&&&&&&%%%%%%%%@@@@@@@@@@@@@@@@%%%%%%%%%%%%%%%%    oooo++++++++++++",
"++++++++oooo    &&&&%%%%&&&&%%%%@@@@@@@@@@@@@@@@%%%%%%%%%%%%&&&&&&&&%%%%%%%%@@@@@@@@@@@@@@@@%%%%%%%%%%%%%%%%    oooo++++++++++++",
"++++++++    oooo    %%%%%%%%@@@@@@@@@@@@@@@@@@@@@@@@@@@@@@@@%%%%%%%%@@@@@@@@@@@@@@@@@@@@@@@@@@@@@@@@@@@@%%%%    oooo++++++++++++",
"++++++++    oooo    %%%%%%%%@@@@@@@@@@@@@@@@@@@@@@@@@@@@@@@@%%%%%%%%@@@@@@@@@@@@@@@@@@@@@@@@@@@@@@@@@@@@%%%%    oooo++++++++++++",
"++++++++    oooo    %%%%%%%%@@@@@@@@@@@@@@@@@@@@@@@@@@@@@@@@%%%%%%%%@@@@@@@@@@@@@@@@@@@@@@@@@@@@@@@@@@@@%%%%    oooo++++++++++++",
"++++++++    oooo    %%%%%%%%@@@@@@@@@@@@@@@@@@@@@@@@@@@@@@@@%%%%%%%%@@@@@@@@@@@@@@@@@@@@@@@@@@@@@@@@@@@@%%%%    oooo++++++++++++",
"++++++++++++oooo    %%%%@@@@@@@@@@@@@@@@@@@@@@@@@@@@@@@@@@@@@@@@@@@@@@@@@@@@@@@@@@@@@@@@@@@@@@@@@@@@@@@@@@@@    oooooooo++++++++",
"++++++++++++oooo    %%%%@@@@@@@@@@@@@@@@@@@@@@@@@@@@@@@@@@@@@@@@@@@@@@@@@@@@@@@@@@@@@@@@@@@@@@@@@@@@@@@@@@@@    oooooooo++++++++",
"++++++++++++oooo    %%%%@@@@@@@@@@@@@@@@@@@@@@@@@@@@@@@@@@@@@@@@@@@@@@@@@@@@@@@@@@@@@@@@@@@@@@@@@@@@@@@@@@@@    oooooooo++++++++",
"++++++++++++oooo    %%%%@@@@@@@@@@@@@@@@@@@@@@@@@@@@@@@@@@@@@@@@@@@@@@@@@@@@@@@@@@@@@@@@@@@@@@@@@@@@@@@@@@@@    oooooooo++++++++",
"++++++++++++oooo    %%%%@@@@@@@@@@@@@@@@%%%%%%%%@@@@@@@@@@@@@@@@@@@@@@@@@@@@@@@@@@@@@@@@@@@@@@@@@@@@@@@@@@@@&&&&    oooo++++++++",
"++++++++++++oooo    %%%%@@@@@@@@@@@@@@@@%%%%%%%%@@@@@@@@@@@@@@@@@@@@@@@@@@@@@@@@@@@@@@@@@@@@@@@@@@@@@@@@@@@@&&&&    oooo++++++++",
"++++++++++++oooo    %%%%@@@@@@@@@@@@@@@@%%%%%%%%@@@@@@@@@@@@@@@@@@@@@@@@@@@@@@@@@@@@@@@@@@@@@@@@@@@@@@@@@@@@&&&&    oooo++++++++",
"++++++++++++oooo    %%%%@@@@@@@@@@@@@@@@%%%%%%%%@@@@@@@@@@@@@@@@@@@@@@@@@@@@@@@@@@@@@@@@@@@@@@@@@@@@@@@@@@@@&&&&    oooo++++++++",
"++++++++oooo    &&&&%%%%@@@@@@@@@@@@%%%%%%%%@@@@@@@@@@@@@@@@@@@@@@@@@@@@@@@@@@@@@@@@@@@@@@@@@@@@@@@@@@@@@@@@%%%%        ++++++++",
"++++++++oooo    &&&&%%%%@@@@@@@@@@@@%%%%%%%%@@@@@@@@@@@@@@@@@@@@@@@@@@@@@@@@@@@@@@@@@@@@@@@@@@@@@@@@@@@@@@@@%%%%        ++++++++",
"++++++++oooo    &&&&%%%%@@@@@@@@@@@@%%%%%%%%@@@@@@@@@@@@@@@@@@@@@@@@@@@@@@@@@@@@@@@@@@@@@@@@@@@@@@@@@@@@@@@@%%%%        ++++++++",
"++++++++oooo    &&&&%%%%@@@@@@@@@@@@%%%%%%%%@@@@@@@@@@@@@@@@@@@@@@@@@@@@@@@@@@@@@@@@@@@@@@@@@@@@@@@@@@@@@@@@%%%%        ++++++++",
"++++++++oooo    &&&&%%%%@@@@@@@@@@@@%%%%@@@@@@@@@@@@@@@@@@@@@@@@@@@@@@@@@@@@@@@@@@@@%%%%%%%%@@@@@@@@@@@@@@@@%%%%    ++++++++++++",
"++++++++oooo    &&&&%%%%@@@@@@@@@@@@%%%%@@@@@@@@@@@@@@@@@@@@@@@@@@@@@@@@@@@@@@@@@@@@%%%%%%%%@@@@@@@@@@@@@@@@%%%%    ++++++++++++",
"++++++++oooo    &&&&%%%%@@@@@@@@@@@@%%%%@@@@@@@@@@@@@@@@@@@@@@@@@@@@@@@@@@@@@@@@@@@@%%%%%%%%@@@@@@@@@@@@@@@@%%%%    ++++++++++++",
"++++++++oooo    &&&&%%%%@@@@@@@@@@@@%%%%@@@@@@@@@@@@@@@@@@@@@@@@@@@@@@@@@@@@@@@@@@@@%%%%%%%%@@@@@@@@@@@@@@@@%%%%    ++++++++++++",
"++++++++    &&&&%%%%@@@@@@@@@@@@@@@@@@@@@@@@@@@@@@@@@@@@@@@@@@@@@@@@@@@@@@@@@@@@@@@@@@@@%%%%%%%%@@@@@@@@@@@@%%%%    ++++++++++++",
"++++++++    &&&&%%%%@@@@@@@@@@@@@@@@@@@@@@@@@@@@@@@@@@@@@@@@@@@@@@@@@@@@@@@@@@@@@@@@@@@@%%%%%%%%@@@@@@@@@@@@%%%%    ++++++++++++",
"++++++++    &&&&%%%%@@@@@@@@@@@@@@@@@@@@@@@@@@@@@@@@@@@@@@@@@@@@@@@@@@@@@@@@@@@@@@@@@@@@%%%%%%%%@@@@@@@@@@@@%%%%    ++++++++++++",
"++++++++    &&&&%%%%@@@@@@@@@@@@@@@@@@@@@@@@@@@@@@@@@@@@@@@@@@@@@@@@@@@@@@@@@@@@@@@@@@@@%%%%%%%%@@@@@@@@@@@@%%%%    ++++++++++++",
"++++++++++++    %%%%@@@@@@@@@@@@@@@@@@@@@@@@@@@@@@@@@@@@@@@@@@@@@@@@@@@@@@@@@@@@@@@@@@@@@@@@%%%%@@@@@@@@@@@@%%%%    oooo++++++++",
"++++++++++++    %%%%@@@@@@@@@@@@@@@@@@@@@@@@@@@@@@@@@@@@@@@@@@@@@@@@@@@@@@@@@@@@@@@@@@@@@@@@%%%%@@@@@@@@@@@@%%%%    oooo++++++++",
"++++++++++++    %%%%@@@@@@@@@@@@@@@@@@@@@@@@@@@@@@@@@@@@@@@@@@@@@@@@@@@@@@@@@@@@@@@@@@@@@@@@%%%%@@@@@@@@@@@@%%%%    oooo++++++++",
"++++++++++++    %%%%@@@@@@@@@@@@@@@@@@@@@@@@@@@@@@@@@@@@@@@@@@@@@@@@@@@@@@@@@@@@@@@@@@@@@@@@%%%%@@@@@@@@@@@@%%%%    oooo++++++++",
"++++++++++++oooo    %%%%@@@@@@@@@@@@@@@@@@@@@@@@@@@@@@@@@@@@@@@@@@@@@@@@@@@@@@@@@@@@@@@@@@@@@@@@@@@@@@@@@@@@%%%%&&&&        ++++",
"++++++++++++oooo    %%%%@@@@@@@@@@@@@@@@@@@@@@@@@@@@@@@@@@@@@@@@@@@@@@@@@@@@@@@@@@@@@@@@@@@@@@@@@@@@@@@@@@@@%%%%&&&&        ++++",
"++++++++++++oooo    %%%%@@@@@@@@@@@@@@@@@@@@@@@@@@@@@@@@@@@@@@@@@@@@@@@@@@@@@@@@@@@@@@@@@@@@@@@@@@@@@@@@@@@@%%%%&&&&        ++++",
"++++++++++++oooo    %%%%@@@@@@@@@@@@@@@@@@@@@@@@@@@@@@@@@@@@@@@@@@@@@@@@@@@@@@@@@@@@@@@@@@@@@@@@@@@@@@@@@@@@%%%%&&&&        ++++",
"++++++++++++oooo    %%%%@@@@@@@@@@@@@@@@@@@@@@@@@@@@@@@@@@@@@@@@@@@@@@@@@@@@@@@@@@@@@@@@@@@@@@@@@@@@@@@@%%%%&&&&        ++++++++",
"++++++++++++oooo    %%%%@@@@@@@@@@@@@@@@@@@@@@@@@@@@@@@@@@@@@@@@@@@@@@@@@@@@@@@@@@@@@@@@@@@@@@@@@@@@@@@@%%%%&&&&        ++++++++",
"++++++++++++oooo    %%%%@@@@@@@@@@@@@@@@@@@@@@@@@@@@@@@@@@@@@@@@@@@@@@@@@@@@@@@@@@@@@@@@@@@@@@@@@@@@@@@@%%%%&&&&        ++++++++",
"++++++++++++oooo    %%%%@@@@@@@@@@@@@@@@@@@@@@@@@@@@@@@@@@@@@@@@@@@@@@@@@@@@@@@@@@@@@@@@@@@@@@@@@@@@@@@@%%%%&&&&        ++++++++",
"++++++++++++oooo    %%%%@@@@@@@@@@@@@@@@@@@@@@@@@@@@@@@@@@@@@@@@@@@@@@@@@@@@@@@@@@@@@@@@@@@@@@@@@@@@@@@@%%%%&&&&    ++++++++++++",
"++++++++++++oooo    %%%%@@@@@@@@@@@@@@@@@@@@@@@@@@@@@@@@@@@@@@@@@@@@@@@@@@@@@@@@@@@@@@@@@@@@@@@@@@@@@@@@%%%%&&&&    ++++++++++++",
"++++++++++++oooo    %%%%@@@@@@@@@@@@@@@@@@@@@@@@@@@@@@@@@@@@@@@@@@@@@@@@@@@@@@@@@@@@@@@@@@@@@@@@@@@@@@@@%%%%&&&&    ++++++++++++",
"++++++++++++oooo    %%%%@@@@@@@@@@@@@@@@@@@@@@@@@@@@@@@@@@@@@@@@@@@@@@@@@@@@@@@@@@@@@@@@@@@@@@@@@@@@@@@@%%%%&&&&    ++++++++++++",
"++++++++++++oooo    %%%%@@@@@@@@@@@@@@@@@@@@@@@@@@@@@@@@@@@@@@@@@@@@@@@@@@@@@@@@@@@@@@@@@@@@@@@@@@@@@@@@%%%%&&&&    oooo++++++++",
"++++++++++++oooo    %%%%@@@@@@@@@@@@@@@@@@@@@@@@@@@@@@@@@@@@@@@@@@@@@@@@@@@@@@@@@@@@@@@@@@@@@@@@@@@@@@@@%%%%&&&&    oooo++++++++",
"++++++++++++oooo    %%%%@@@@@@@@@@@@@@@@@@@@@@@@@@@@@@@@@@@@@@@@@@@@@@@@@@@@@@@@@@@@@@@@@@@@@@@@@@@@@@@@%%%%&&&&    oooo++++++++",
"++++++++++++oooo    %%%%@@@@@@@@@@@@@@@@@@@@@@@@@@@@@@@@@@@@@@@@@@@@@@@@@@@@@@@@@@@@@@@@@@@@@@@@@@@@@@@@%%%%&&&&    oooo++++++++",
"++++++++oooooooo    %%%%@@@@@@@@@@@@@@@@@@@@@@@@@@@@@@@@@@@@@@@@@@@@@@@@@@@@@@@@@@@@@@@@@@@@@@@@@@@@@@@@%%%%&&&&    oooo++++++++",
"++++++++oooooooo    %%%%@@@@@@@@@@@@@@@@@@@@@@@@@@@@@@@@@@@@@@@@@@@@@@@@@@@@@@@@@@@@@@@@@@@@@@@@@@@@@@@@%%%%&&&&    oooo++++++++",
"++++++++oooooooo    %%%%@@@@@@@@@@@@@@@@@@@@@@@@@@@@@@@@@@@@@@@@@@@@@@@@@@@@@@@@@@@@@@@@@@@@@@@@@@@@@@@@%%%%&&&&    oooo++++++++",
"++++++++oooooooo    %%%%@@@@@@@@@@@@@@@@@@@@@@@@@@@@@@@@@@@@@@@@@@@@@@@@@@@@@@@@@@@@@@@@@@@@@@@@@@@@@@@@%%%%&&&&    oooo++++++++",
"++++++++oooo    %%%%@@@@@@@@@@@@@@@@@@@@@@@@@@@@@@@@@@@@@@@@@@@@@@@@@@@@@@@@@@@@@@@@@@@@@@@@@@@@@@@@@@@@@@@@%%%%&&&&    ++++++++",
"++++++++oooo    %%%%@@@@@@@@@@@@@@@@@@@@@@@@@@@@@@@@@@@@@@@@@@@@@@@@@@@@@@@@@@@@@@@@@@@@@@@@@@@@@@@@@@@@@@@@%%%%&&&&    ++++++++",
"++++++++oooo    %%%%@@@@@@@@@@@@@@@@@@@@@@@@@@@@@@@@@@@@@@@@@@@@@@@@@@@@@@@@@@@@@@@@@@@@@@@@@@@@@@@@@@@@@@@@%%%%&&&&    ++++++++",
"++++++++oooo    %%%%@@@@@@@@@@@@@@@@@@@@@@@@@@@@@@@@@@@@@@@@@@@@@@@@@@@@@@@@@@@@@@@@@@@@@@@@@@@@@@@@@@@@@@@@%%%%&&&&    ++++++++",
"++++++++    &&&&%%%%@@@@@@@@@@@@@@@@@@@@@@@@@@@@@@@@@@@@@@@@@@@@@@@@@@@@@@@@@@@@@@@@@@@@@@@@@@@@@@@@@@@@@@@@%%%%    ++++++++++++",
"++++++++    &&&&%%%%@@@@@@@@@@@@@@@@@@@@@@@@@@@@@@@@@@@@@@@@@@@@@@@@@@@@@@@@@@@@@@@@@@@@@@@@@@@@@@@@@@@@@@@@%%%%    ++++++++++++",
"++++++++    &&&&%%%%@@@@@@@@@@@@@@@@@@@@@@@@@@@@@@@@@@@@@@@@@@@@@@@@@@@@@@@@@@@@@@@@@@@@@@@@@@@@@@@@@@@@@@@@%%%%    ++++++++++++",
"++++++++    &&&&%%%%@@@@@@@@@@@@@@@@@@@@@@@@@@@@@@@@@@@@@@@@@@@@@@@@@@@@@@@@@@@@@@@@@@@@@@@@@@@@@@@@@@@@@@@@%%%%    ++++++++++++",
"++++++++oooo    %%%%@@@@@@@@@@@@@@@@@@@@@@@@@@@@@@@@@@@@@@@@@@@@@@@@@@@@@@@@@@@@@@@@@@@@@@@@@@@@@@@@@@@@%%%%    ++++++++++++++++",
"++++++++oooo    %%%%@@@@@@@@@@@@@@@@@@@@@@@@@@@@@@@@@@@@@@@@@@@@@@@@@@@@@@@@@@@@@@@@@@@@@@@@@@@@@@@@@@@@%%%%    ++++++++++++++++",
"++++++++oooo    %%%%@@@@@@@@@@@@@@@@@@@@@@@@@@@@@@@@@@@@@@@@@@@@@@@@@@@@@@@@@@@@@@@@@@@@@@@@@@@@@@@@@@@@%%%%    ++++++++++++++++",
"++++++++oooo    %%%%@@@@@@@@@@@@@@@@@@@@@@@@@@@@@@@@@@@@@@@@@@@@@@@@@@@@@@@@@@@@@@@@@@@@@@@@@@@@@@@@@@@@%%%%    ++++++++++++++++",
"++++++++oooo    %%%%@@@@@@@@@@@@@@@@@@@@@@@@@@@@@@@@@@@@@@@@@@@@@@@@@@@@@@@@@@@@@@@@@@@@@@@@@@@@@@@@@@@@%%%%    oooo++++++++++++",
"++++++++oooo    %%%%@@@@@@@@@@@@@@@@@@@@@@@@@@@@@@@@@@@@@@@@@@@@@@@@@@@@@@@@@@@@@@@@@@@@@@@@@@@@@@@@@@@@%%%%    oooo++++++++++++",
"++++++++oooo    %%%%@@@@@@@@@@@@@@@@@@@@@@@@@@@@@@@@@@@@@@@@@@@@@@@@@@@@@@@@@@@@@@@@@@@@@@@@@@@@@@@@@@@@%%%%    oooo++++++++++++",
"++++++++oooo    %%%%@@@@@@@@@@@@@@@@@@@@@@@@@@@@@@@@@@@@@@@@@@@@@@@@@@@@@@@@@@@@@@@@@@@@@@@@@@@@@@@@@@@@%%%%    oooo++++++++++++",
"++++oooooooo    %%%%@@@@@@@@@@@@@@@@@@@@@@@@@@@@@@@@@@@@@@@@@@@@@@@@@@@@@@@@@@@@@@@@@@@@@@@@@@@@@@@@@@@@%%%%    oooooooo++++++++",
"++++oooooooo    %%%%@@@@@@@@@@@@@@@@@@@@@@@@@@@@@@@@@@@@@@@@@@@@@@@@@@@@@@@@@@@@@@@@@@@@@@@@@@@@@@@@@@@@%%%%    oooooooo++++++++",
"++++oooooooo    %%%%@@@@@@@@@@@@@@@@@@@@@@@@@@@@@@@@@@@@@@@@@@@@@@@@@@@@@@@@@@@@@@@@@@@@@@@@@@@@@@@@@@@@%%%%    oooooooo++++++++",
"++++oooooooo    %%%%@@@@@@@@@@@@@@@@@@@@@@@@@@@@@@@@@@@@@@@@@@@@@@@@@@@@@@@@@@@@@@@@@@@@@@@@@@@@@@@@@@@@%%%%    oooooooo++++++++",
"++++        &&&&%%%%@@@@@@@@@@@@@@@@%%%%@@@@@@@@@@@@@@@@@@@@@@@@@@@@@@@@@@@@@@@@@@@@@@@@@@@@@@@@@@@@@@@@%%%%&&&&        ++++++++",
"++++        &&&&%%%%@@@@@@@@@@@@@@@@%%%%@@@@@@@@@@@@@@@@@@@@@@@@@@@@@@@@@@@@@@@@@@@@@@@@@@@@@@@@@@@@@@@@%%%%&&&&        ++++++++",
"++++        &&&&%%%%@@@@@@@@@@@@@@@@%%%%@@@@@@@@@@@@@@@@@@@@@@@@@@@@@@@@@@@@@@@@@@@@@@@@@@@@@@@@@@@@@@@@%%%%&&&&        ++++++++",
"++++        &&&&%%%%@@@@@@@@@@@@@@@@%%%%@@@@@@@@@@@@@@@@@@@@@@@@@@@@@@@@@@@@@@@@@@@@@@@@@@@@@@@@@@@@@@@@%%%%&&&&        ++++++++",
"++++++++        &&&&%%%%@@@@@@@@@@@@%%%%%%%%@@@@@@@@@@@@@@@@@@@@@@@@@@@@@@@@@@@@@@@@@@@@@@@@@@@@@@@@@@@@%%%%        ++++++++++++",
"++++++++        &&&&%%%%@@@@@@@@@@@@%%%%%%%%@@@@@@@@@@@@@@@@@@@@@@@@@@@@@@@@@@@@@@@@@@@@@@@@@@@@@@@@@@@@%%%%        ++++++++++++",
"++++++++        &&&&%%%%@@@@@@@@@@@@%%%%%%%%@@@@@@@@@@@@@@@@@@@@@@@@@@@@@@@@@@@@@@@@@@@@@@@@@@@@@@@@@@@@%%%%        ++++++++++++",
"++++++++        &&&&%%%%@@@@@@@@@@@@%%%%%%%%@@@@@@@@@@@@@@@@@@@@@@@@@@@@@@@@@@@@@@@@@@@@@@@@@@@@@@@@@@@@%%%%        ++++++++++++",
"++++++++oooo    &&&&%%%%@@@@@@@@@@@@@@@@@@@@@@@@@@@@@@@@@@@@@@@@@@@@@@@@@@@@@@@@@@@@@@@@@@@@@@@@@@@@%%%%&&&&    oooo++++++++++++",
"++++++++oooo    &&&&%%%%@@@@@@@@@@@@@@@@@@@@@@@@@@@@@@@@@@@@@@@@@@@@@@@@@@@@@@@@@@@@@@@@@@@@@@@@@@@@%%%%&&&&    oooo++++++++++++",
"++++++++oooo    &&&&%%%%@@@@@@@@@@@@@@@@@@@@@@@@@@@@@@@@@@@@@@@@@@@@@@@@@@@@@@@@@@@@@@@@@@@@@@@@@@@@%%%%&&&&    oooo++++++++++++",
"++++++++oooo    &&&&%%%%@@@@@@@@@@@@@@@@@@@@@@@@@@@@@@@@@@@@@@@@@@@@@@@@@@@@@@@@@@@@@@@@@@@@@@@@@@@@%%%%&&&&    oooo++++++++++++",
"++++++++oooo    &&&&%%%%@@@@@@@@@@@@@@@@@@@@@@@@@@@@@@@@@@@@@@@@@@@@@@@@@@@@@@@@@@@@@@@@@@@@@@@@@@@@%%%%&&&&    oooo++++++++++++",
"++++++++oooo    &&&&%%%%@@@@@@@@@@@@@@@@@@@@@@@@@@@@@@@@@@@@@@@@@@@@@@@@@@@@@@@@@@@@@@@@@@@@@@@@@@@@%%%%&&&&    oooo++++++++++++",
"++++++++oooo    &&&&%%%%@@@@@@@@@@@@@@@@@@@@@@@@@@@@@@@@@@@@@@@@@@@@@@@@@@@@@@@@@@@@@@@@@@@@@@@@@@@@%%%%&&&&    oooo++++++++++++",
"++++++++oooo    &&&&%%%%@@@@@@@@@@@@@@@@@@@@@@@@@@@@@@@@@@@@@@@@@@@@@@@@@@@@@@@@@@@@@@@@@@@@@@@@@@@@%%%%&&&&    oooo++++++++++++",
"++++++++oooo    %%%%@@@@@@@@@@@@@@@@@@@@@@@@@@@@@@@@@@@@@@@@@@@@@@@@@@@@@@@@@@@@@@@@@@@@@@@@@@@@@@@@@@@@%%%%&&&&    ++++++++++++",
"++++++++oooo    %%%%@@@@@@@@@@@@@@@@@@@@@@@@@@@@@@@@@@@@@@@@@@@@@@@@@@@@@@@@@@@@@@@@@@@@@@@@@@@@@@@@@@@@%%%%&&&&    ++++++++++++",
"++++++++oooo    %%%%@@@@@@@@@@@@@@@@@@@@@@@@@@@@@@@@@@@@@@@@@@@@@@@@@@@@@@@@@@@@@@@@@@@@@@@@@@@@@@@@@@@@%%%%&&&&    ++++++++++++",
"++++++++oooo    %%%%@@@@@@@@@@@@@@@@@@@@@@@@@@@@@@@@@@@@@@@@@@@@@@@@@@@@@@@@@@@@@@@@@@@@@@@@@@@@@@@@@@@@%%%%&&&&    ++++++++++++"
};
