/* XPM */
static char *result[] = {
/* columns rows colors chars-per-pixel */
"128 128 11 1 ",
"  c #163C2B",
". c #503625",
"X c #755338",
"o c #296640",
"O c #9D7658",
"+ c #509B66",
"@ c #00CCFF",
"# c gray54",
"$ c gray59",
"% c #D7F8FF",
"& c #F4FDFF",
/* pixels */
"++++++++++++++++++++++++++++++++++++++++++++++++++++++++++++++++++++++++++++++++++++++++++++++++++++++++++++++++++++++++++++++++",
"++++++++++++++++++++++++++++++++++++++++++++++++++++++++++++++++++++++++++++++++++++++++++++++++++++++++++++++++++++++++++++++++",
"++++++++++++++++++++++++++++++++++++++++++++++++++++++++++++++++++++++++++++++++++++++++++++++++++++++++++++++++++++++++++++++++",
"++++++++++++++++++++++++++++++++++++++++++++++++++++++++++++++++++++++++++++++++++++++++++++++++++++++++++++++++++++++++++++++++",
"++++++++++++oooo++++++++++++++++++++++++++++++++++++oooo++++++++++++++++++++++++++++++++++++oooo++++++++++++++++++++++++++++++++",
"++++++++++++oooo++++++++++++++++++++++++++++++++++++oooo++++++++++++++++++++++++++++++++++++oooo++++++++++++++++++++++++++++++++",
"++++++++++++oooo++++++++++++++++++++++++++++++++++++oooo++++++++++++++++++++++++++++++++++++oooo++++++++++++++++++++++++++++++++",
"++++++++++++oooo++++++++++++++++++++++++++++++++++++oooo++++++++++++++++++++++++++++++++++++oooo++++++++++++++++++++++++++++++++",
"++++++++oooo    ++++++++++++oooo    ++++++++oooooooo    ++++++++++++++++oooo++++++++++++oooo++++++++++++oooo++++++++++++oooo++++",
"++++++++oooo    ++++++++++++oooo    ++++++++oooooooo    ++++++++++++++++oooo++++++++++++oooo++++++++++++oooo++++++++++++oooo++++",
"++++++++oooo    ++++++++++++oooo    ++++++++oooooooo    ++++++++++++++++oooo++++++++++++oooo++++++++++++oooo++++++++++++oooo++++",
"++++++++oooo    ++++++++++++oooo    ++++++++oooooooo    ++++++++++++++++oooo++++++++++++oooo++++++++++++oooo++++++++++++oooo++++",
"oooooooooooo        ++++++++oooo    oooooooo        ++++++++++++++++oooo    ++++++++oooo    ++++++++oooo    ++++++++++++    ++++",
"oooooooooooo        ++++++++oooo    oooooooo        ++++++++++++++++oooo    ++++++++oooo    ++++++++oooo    ++++++++++++    ++++",
"oooooooooooo        ++++++++oooo    oooooooo        ++++++++++++++++oooo    ++++++++oooo    ++++++++oooo    ++++++++++++    ++++",
"oooooooooooo        ++++++++oooo    oooooooo        ++++++++++++++++oooo    ++++++++oooo    ++++++++oooo    ++++++++++++    ++++",
"            XXXX    oooooooo                ....        oooooooooooooooo                        oooooooo        ++++oooo        ",
"            XXXX    oooooooo                ....        oooooooooooooooo                        oooooooo        ++++oooo        ",
"            XXXX    oooooooo                ....        oooooooooooooooo                        oooooooo        ++++oooo        ",
"            XXXX    oooooooo                ....        oooooooooooooooo                        oooooooo        ++++oooo        ",
"XXXXXXXXXXXXXXXXXXXX        XXXXXXXXXXXXXXXXXXXXXXXX....                XXXXXXXXXXXXXXXX....            XXXXXXXX        XXXXXXXX",
"XXXXXXXXXXXXXXXXXXXX        XXXXXXXXXXXXXXXXXXXXXXXX....                XXXXXXXXXXXXXXXX....            XXXXXXXX        XXXXXXXX",
"XXXXXXXXXXXXXXXXXXXX        XXXXXXXXXXXXXXXXXXXXXXXX....                XXXXXXXXXXXXXXXX....            XXXXXXXX        XXXXXXXX",
"XXXXXXXXXXXXXXXXXXXX        XXXXXXXXXXXXXXXXXXXXXXXX....                XXXXXXXXXXXXXXXX....            XXXXXXXX        XXXXXXXX",
"OOOOOOOO####$$$$XXXXXXXXXXXXOOOOOOOOOOOOOOOOOOOOXXXXXXXXXXXXXXXXXXXXXXXXOOOOOOOOOOOOOOOOXXXXXXXXXXXXXXXX$$$$####XXXXXXXXOOOOOOOO",
"OOOOOOOO####$$$$XXXXXXXXXXXXOOOOOOOOOOOOOOOOOOOOXXXXXXXXXXXXXXXXXXXXXXXXOOOOOOOOOOOOOOOOXXXXXXXXXXXXXXXX$$$$####XXXXXXXXOOOOOOOO",
"OOOOOOOO####$$$$XXXXXXXXXXXXOOOOOOOOOOOOOOOOOOOOXXXXXXXXXXXXXXXXXXXXXXXXOOOOOOOOOOOOOOOOXXXXXXXXXXXXXXXX$$$$####XXXXXXXXOOOOOOOO",
"OOOOOOOO####$$$$XXXXXXXXXXXXOOOOOOOOOOOOOOOOOOOOXXXXXXXXXXXXXXXXXXXXXXXXOOOOOOOOOOOOOOOOXXXXXXXXXXXXXXXX$$$$####XXXXXXXXOOOOOOOO",
"OOOOOOOOOOOOOOOOOOOOOOOOOOOOOOOOOOOOOOOOOOOOOOOOOOOOOOOOOOOOOOOOOOOOOOOOOOOOOOOOOOOOOOOOOOOOOOOOOOOOOOOOOOOOOOOOOOOOOOOOOOOOOOOO",
"OOOOOOOOOOOOOOOOOOOOOOOOOOOOOOOOOOOOOOOOOOOOOOOOOOOOOOOOOOOOOOOOOOOOOOOOOOOOOOOOOOOOOOOOOOOOOOOOOOOOOOOOOOOOOOOOOOOOOOOOOOOOOOOO",
"OOOOOOOOOOOOOOOOOOOOOOOOOOOOOOOOOOOOOOOOOOOOOOOOOOOOOOOOOOOOOOOOOOOOOOOOOOOOOOOOOOOOOOOOOOOOOOOOOOOOOOOOOOOOOOOOOOOOOOOOOOOOOOOO",
"OOOOOOOOOOOOOOOOOOOOOOOOOOOOOOOOOOOOOOOOOOOOOOOOOOOOOOOOOOOOOOOOOOOOOOOOOOOOOOOOOOOOOOOOOOOOOOOOOOOOOOOOOOOOOOOOOOOOOOOOOOOOOOOO",
"&&&&&&&&OOOOOOOOOOOOOOOO&&&&&&&&&&&&OOOOOOOO&&&&&&&&OOOOOOOOOOOOOOOOOOOOOOOO&&&&&&&&&&&&&&&&&&&&OOOOOOOOOOOOOOOOOOOO&&&&&&&&&&&&",
"&&&&&&&&OOOOOOOOOOOOOOOO&&&&&&&&&&&&OOOOOOOO&&&&&&&&OOOOOOOOOOOOOOOOOOOOOOOO&&&&&&&&&&&&&&&&&&&&OOOOOOOOOOOOOOOOOOOO&&&&&&&&&&&&",
"&&&&&&&&OOOOOOOOOOOOOOOO&&&&&&&&&&&&OOOOOOOO&&&&&&&&OOOOOOOOOOOOOOOOOOOOOOOO&&&&&&&&&&&&&&&&&&&&OOOOOOOOOOOOOOOOOOOO&&&&&&&&&&&&",
"&&&&&&&&OOOOOOOOOOOOOOOO&&&&&&&&&&&&OOOOOOOO&&&&&&&&OOOOOOOOOOOOOOOOOOOOOOOO&&&&&&&&&&&&&&&&&&&&OOOOOOOOOOOOOOOOOOOO&&&&&&&&&&&&",
"%%%%%%%%&&&&&&&&&&&&&&&&%%%%%%%%%%%%&&&&&&&&%%%%%%%%&&&&&&&&&&&&&&&&&&&&&&&&%%%%%%%%%%%%%%%%%%%%&&&&&&&&&&&&&&&&&&&&%%%%%%%%%%%%",
"%%%%%%%%&&&&&&&&&&&&&&&&%%%%%%%%%%%%&&&&&&&&%%%%%%%%&&&&&&&&&&&&&&&&&&&&&&&&%%%%%%%%%%%%%%%%%%%%&&&&&&&&&&&&&&&&&&&&%%%%%%%%%%%%",
"%%%%%%%%&&&&&&&&&&&&&&&&%%%%%%%%%%%%&&&&&&&&%%%%%%%%&&&&&&&&&&&&&&&&&&&&&&&&%%%%%%%%%%%%%%%%%%%%&&&&&&&&&&&&&&&&&&&&%%%%%%%%%%%%",
"%%%%%%%%&&&&&&&&&&&&&&&&%%%%%%%%%%%%&&&&&&&&%%%%%%%%&&&&&&&&&&&&&&&&&&&&&&&&%%%%%%%%%%%%%%%%%%%%&&&&&&&&&&&&&&&&&&&&%%%%%%%%%%%%",
"@@@@@@@@%%%%%%%%%%%%%%%%@@@@@@@@@@@@%%%%%%%%@@@@@@@@@@@@%%%%%%%%%%%%%%%%%%%%@@@@@@@@@@@@@@@@@@@@%%%%%%%%%%%%%%%%%%%%@@@@@@@@@@@@",
"@@@@@@@@%%%%%%%%%%%%%%%%@@@@@@@@@@@@%%%%%%%%@@@@@@@@@@@@%%%%%%%%%%%%%%%%%%%%@@@@@@@@@@@@@@@@@@@@%%%%%%%%%%%%%%%%%%%%@@@@@@@@@@@@",
"@@@@@@@@%%%%%%%%%%%%%%%%@@@@@@@@@@@@%%%%%%%%@@@@@@@@@@@@%%%%%%%%%%%%%%%%%%%%@@@@@@@@@@@@@@@@@@@@%%%%%%%%%%%%%%%%%%%%@@@@@@@@@@@@",
"@@@@@@@@%%%%%%%%%%%%%%%%@@@@@@@@@@@@%%%%%%%%@@@@@@@@@@@@%%%%%%%%%%%%%%%%%%%%@@@@@@@@@@@@@@@@@@@@%%%%%%%%%%%%%%%%%%%%@@@@@@@@@@@@",
"@@@@@@@@@@@@@@@@@@@@@@@@@@@@@@@@@@@@@@@@@@@@@@@@@@@@@@@@@@@@@@@@@@@@@@@@@@@@@@@@@@@@@@@@@@@@@@@@@@@@@@@@@@@@@@@@@@@@@@@@@@@@@@@@",
"@@@@@@@@@@@@@@@@@@@@@@@@@@@@@@@@@@@@@@@@@@@@@@@@@@@@@@@@@@@@@@@@@@@@@@@@@@@@@@@@@@@@@@@@@@@@@@@@@@@@@@@@@@@@@@@@@@@@@@@@@@@@@@@@",
"@@@@@@@@@@@@@@@@@@@@@@@@@@@@@@@@@@@@@@@@@@@@@@@@@@@@@@@@@@@@@@@@@@@@@@@@@@@@@@@@@@@@@@@@@@@@@@@@@@@@@@@@@@@@@@@@@@@@@@@@@@@@@@@@",
"@@@@@@@@@@@@@@@@@@@@@@@@@@@@@@@@@@@@@@@@@@@@@@@@@@@@@@@@@@@@@@@@@@@@@@@@@@@@@@@@@@@@@@@@@@@@@@@@@@@@@@@@@@@@@@@@@@@@@@@@@@@@@@@@",
"@@@@@@@@@@@@@@@@@@@@@@@@@@@@@@@@@@@@@@@@@@@@@@@@@@@@@@@@@@@@@@@@@@@@@@@@@@@@@@@@@@@@@@@@@@@@@@@@@@@@@@@@@@@@@@@@@@@@@@@@@@@@@@@@",
"@@@@@@@@@@@@@@@@@@@@@@@@@@@@@@@@@@@@@@@@@@@@@@@@@@@@@@@@@@@@@@@@@@@@@@@@@@@@@@@@@@@@@@@@@@@@@@@@@@@@@@@@@@@@@@@@@@@@@@@@@@@@@@@@",
"@@@@@@@@@@@@@@@@@@@@@@@@@@@@@@@@@@@@@@@@@@@@@@@@@@@@@@@@@@@@@@@@@@@@@@@@@@@@@@@@@@@@@@@@@@@@@@@@@@@@@@@@@@@@@@@@@@@@@@@@@@@@@@@@",
"@@@@@@@@@@@@@@@@@@@@@@@@@@@@@@@@@@@@@@@@@@@@@@@@@@@@@@@@@@@@@@@@@@@@@@@@@@@@@@@@@@@@@@@@@@@@@@@@@@@@@@@@@@@@@@@@@@@@@@@@@@@@@@@@",
"@@@@@@@@@@@@@@@@@@@@@@@@@@@@@@@@@@@@@@@@@@@@@@@@@@@@@@@@@@@@@@@@@@@@@@@@@@@@@@@@%%%%%%%%%%%%@@@@@@@@@@@@@@@@@@@@@@@@@@@@@@@@@@@@",
"@@@@@@@@@@@@@@@@@@@@@@@@@@@@@@@@@@@@@@@@@@@@@@@@@@@@@@@@@@@@@@@@@@@@@@@@@@@@@@@@%%%%%%%%%%%%@@@@@@@@@@@@@@@@@@@@@@@@@@@@@@@@@@@@",
"@@@@@@@@@@@@@@@@@@@@@@@@@@@@@@@@@@@@@@@@@@@@@@@@@@@@@@@@@@@@@@@@@@@@@@@@@@@@@@@@%%%%%%%%%%%%@@@@@@@@@@@@@@@@@@@@@@@@@@@@@@@@@@@@",
"@@@@@@@@@@@@@@@@@@@@@@@@@@@@@@@@@@@@@@@@@@@@@@@@@@@@@@@@@@@@@@@@@@@@@@@@@@@@@@@@%%%%%%%%%%%%@@@@@@@@@@@@@@@@@@@@@@@@@@@@@@@@@@@@",
"@@@@@@@@@@@@@@@@@@@@@@@@@@@@@@@@@@@@@@@@@@@@@@@@@@@@@@@@@@@@@@@@@@@@@@@@@@@@@@@@@@@@@@@@%%%%%%%%%%%%@@@@@@@@@@@@@@@@@@@@@@@@@@@@",
"@@@@@@@@@@@@@@@@@@@@@@@@@@@@@@@@@@@@@@@@@@@@@@@@@@@@@@@@@@@@@@@@@@@@@@@@@@@@@@@@@@@@@@@@%%%%%%%%%%%%@@@@@@@@@@@@@@@@@@@@@@@@@@@@",
"@@@@@@@@@@@@@@@@@@@@@@@@@@@@@@@@@@@@@@@@@@@@@@@@@@@@@@@@@@@@@@@@@@@@@@@@@@@@@@@@@@@@@@@@%%%%%%%%%%%%@@@@@@@@@@@@@@@@@@@@@@@@@@@@",
"@@@@@@@@@@@@@@@@@@@@@@@@@@@@@@@@@@@@@@@@@@@@@@@@@@@@@@@@@@@@@@@@@@@@@@@@@@@@@@@@@@@@@@@@%%%%%%%%%%%%@@@@@@@@@@@@@@@@@@@@@@@@@@@@",
"@@@@@@@@@@@@@@@@@@@@@@@@@@@@@@@@@@@@@@@@@@@@@@@@@@@@@@@@@@@@@@@@@@@@@@@@@@@@@@@@@@@@@@@@@@@@@@@@@@@@@@@@@@@@@@@@@@@@@@@@@@@@@@@@",
"@@@@@@@@@@@@@@@@@@@@@@@@@@@@@@@@@@@@@@@@@@@@@@@@@@@@@@@@@@@@@@@@@@@@@@@@@@@@@@@@@@@@@@@@@@@@@@@@@@@@@@@@@@@@@@@@@@@@@@@@@@@@@@@@",
"@@@@@@@@@@@@@@@@@@@@@@@@@@@@@@@@@@@@@@@@@@@@@@@@@@@@@@@@@@@@@@@@@@@@@@@@@@@@@@@@@@@@@@@@@@@@@@@@@@@@@@@@@@@@@@@@@@@@@@@@@@@@@@@@",
"@@@@@@@@@@@@@@@@@@@@@@@@@@@@@@@@@@@@@@@@@@@@@@@@@@@@@@@@@@@@@@@@@@@@@@@@@@@@@@@@@@@@@@@@@@@@@@@@@@@@@@@@@@@@@@@@@@@@@@@@@@@@@@@@",
"@@@@@@@@@@@@@@@@@@@@@@@@@@@@@@@@@@@@@@@@@@@@@@@@@@@@@@@@@@@@@@@@@@@@@@@@@@@@@@@@@@@@@@@@@@@@@@@@@@@@@@@@@@@@@@@@@@@@@@@@@@@@@@@@",
"@@@@@@@@@@@@@@@@@@@@@@@@@@@@@@@@@@@@@@@@@@@@@@@@@@@@@@@@@@@@@@@@@@@@@@@@@@@@@@@@@@@@@@@@@@@@@@@@@@@@@@@@@@@@@@@@@@@@@@@@@@@@@@@@",
"@@@@@@@@@@@@@@@@@@@@@@@@@@@@@@@@@@@@@@@@@@@@@@@@@@@@@@@@@@@@@@@@@@@@@@@@@@@@@@@@@@@@@@@@@@@@@@@@@@@@@@@@@@@@@@@@@@@@@@@@@@@@@@@@",
"@@@@@@@@@@@@@@@@@@@@@@@@@@@@@@@@@@@@@@@@@@@@@@@@@@@@@@@@@@@@@@@@@@@@@@@@@@@@@@@@@@@@@@@@@@@@@@@@@@@@@@@@@@@@@@@@@@@@@@@@@@@@@@@@",
"@@@@@@@@@@@@@@@@@@@@@@@@@@@@@@@@@@@@@@@@@@@@@@@@@@@@@@@@@@@@@@@@@@@@@@@@@@@@@@@@@@@@@@@@@@@@@@@@@@@@@@@@@@@@@@@@@@@@@@@@@@@@@@@@",
"@@@@@@@@@@@@@@@@@@@@@@@@@@@@@@@@@@@@@@@@@@@@@@@@@@@@@@@@@@@@@@@@@@@@@@@@@@@@@@@@@@@@@@@@@@@@@@@@@@@@@@@@@@@@@@@@@@@@@@@@@@@@@@@@",
"@@@@@@@@@@@@@@@@@@@@@@@@@@@@@@@@@@@@@@@@@@@@@@@@@@@@@@@@@@@@@@@@@@@@@@@@@@@@@@@@@@@@@@@@@@@@@@@@@@@@@@@@@@@@@@@@@@@@@@@@@@@@@@@@",
"@@@@@@@@@@@@@@@@@@@@@@@@@@@@@@@@@@@@@@@@@@@@@@@@@@@@@@@@@@@@@@@@@@@@@@@@@@@@@@@@@@@@@@@@@@@@@@@@@@@@@@@@@@@@@@@@@@@@@@@@@@@@@@@@",
"@@@@@@@@@@@@@@@@@@@@@@@@@@@@@@@@@@@@@@@@@@@@@@@@@@@@@@@@@@@@@@@@@@@@@@@@@@@@@@@@@@@@@@@@@@@@@@@@@@@@@@@@@@@@@@@@@@@@@@@@@@@@@@@@",
"@@@@@@@@@@@@@@@@@@@@@@@@@@@@@@@@@@@@@@@@@@@@@@@@@@@@@@@@@@@@@@@@@@@@@@@@@@@@@@@@@@@@@@@@@@@@@@@@@@@@@@@@@@@@@@@@@@@@@@@@@@@@@@@@",
"@@@@@@@@@@@@@@@@@@@@@@@@@@@@@@@@@@@@@@@@@@@@@@@@@@@@@@@@@@@@@@@@@@@@@@@@@@@@@@@@@@@@@@@@@@@@@@@@@@@@@@@@@@@@@@@@@@@@@@@@@@@@@@@@",
"@@@@@@@@@@@@@@@@@@@@@@@@@@@@@@@@@@@@@@@@@@@@@@@@@@@@@@@@@@@@@@@@@@@@@@@@@@@@@@@@@@@@@@@@@@@@@@@@@@@@@@@@@@@@@@@@@@@@@@@@@@@@@@@@",
"@@@@@@@@@@@@@@@@@@@@@@@@@@@@@@@@@@@@@@@@@@@@@@@@@@@@@@@@@@@@@@@@@@@@@@@@@@@@@@@@@@@@@@@@@@@@@@@@@@@@@@@@@@@@@@@@@@@@@@@@@@@@@@@@",
"@@@@@@@@@@@@@@@@@@@@@@@@@@@@@@@@@@@@@@@@@@@@@@@@@@@@@@@@@@@@@@@@@@@@@@@@@@@@@@@@@@@@@@@@@@@@@@@@@@@@@@@@@@@@@@@@@@@@@@@@@@@@@@@@",
"@@@@@@@@@@@@@@@@@@@@@@@@@@@@@@@@@@@@@@@@@@@@@@@@@@@@@@@@@@@@@@@@@@@@@@@@@@@@@@@@@@@@@@@@@@@@@@@@@@@@@@@@@@@@@@@@@@@@@@@@@@@@@@@@",
"@@@@@@@@@@@@@@@@@@@@@@@@@@@@@@@@@@@@@@@@@@@@@@@@@@@@@@@@@@@@@@@@@@@@@@@@@@@@@@@@@@@@@@@@@@@@@@@@@@@@@@@@@@@@@@@@@@@@@@@@@@@@@@@@",
"@@@@@@@@@@@@@@@@@@@@@@@@@@@@@@@@@@@@@@@@@@@@@@@@@@@@@@@@@@@@@@@@@@@@@@@@@@@@@@@@@@@@@@@@@@@@@@@@@@@@@@@@@@@@@@@@@@@@@@@@@@@@@@@@",
"@@@@@@@@@@@@@@@@@@@@@@@@@@@@@@@@@@@@@@@@@@@@@@@@@@@@@@@@@@@@@@@@@@@@@@@@@@@@@@@@@@@@@@@@@@@@@@@@@@@@@@@@@@@@@@@@@@@@@@@@@@@@@@@@",
"@@@@@@@@@@@@@@@@@@@@@@@@@@@@@@@@@@@@@@@@@@@@@@@@@@@@@@@@@@@@@@@@@@@@@@@@@@@@@@@@@@@@@@@@@@@@@@@@@@@@@@@@@@@@@@@@@@@@@@@@@@@@@@@@",
"@@@@@@@@@@@@@@@@@@@@@@@@@@@@@@@@@@@@@@@@@@@@@@@@@@@@@@@@@@@@@@@@@@@@@@@@@@@@@@@@@@@@@@@@@@@@@@@@@@@@@@@@@@@@@@@@@@@@@@@@@@@@@@@@",
"@@@@@@@@@@@@@@@@@@@@@@@@@@@@@@@@@@@@@@@@@@@@@@@@@@@@@@@@@@@@@@@@@@@@@@@@@@@@@@@@@@@@@@@@@@@@@@@@@@@@@@@@@@@@@@@@@@@@@@@@@@@@@@@@",
"@@@@@@@@@@@@@@@@@@@@@@@@@@@@@@@@@@@@@@@@@@@@@@@@@@@@@@@@@@@@@@@@@@@@@@@@@@@@@@@@@@@@@@@@@@@@@@@@@@@@@@@@@@@@@@@@@@@@@@@@@@@@@@@@",
"@@@@@@@@@@@@@@@@@@@@@@@@@@@@@@@@@@@@@@@@@@@@@@@@@@@@@@@@@@@@@@@@@@@@@@@@@@@@@@@@@@@@@@@@@@@@@@@@@@@@@@@@@@@@@@@@@@@@@@@@@@@@@@@@",
"@@@@@@@@@@@@@@@@@@@@@@@@@@@@@@@@@@@@@@@@@@@@@@@@@@@@@@@@@@@@@@@@@@@@@@@@@@@@@@@@@@@@@@@@@@@@@@@@@@@@@@@@@@@@@@@@@@@@@@@@@@@@@@@@",
"@@@@@@@@@@@@@@@@@@@@@@@@@@@@@@@@@@@@@@@@@@@@@@@@@@@@@@@@@@@@@@@@@@@@@@@@@@@@@@@@@@@@@@@@@@@@@@@@@@@@@@@@@@@@@@@@@@@@@@@@@@@@@@@@",
"@@@@@@@@@@@@@@@@@@@@@@@@@@@@@@@@@@@@@@@@@@@@@@@@@@@@@@@@@@@@@@@@@@@@@@@@@@@@@@@@@@@@@@@@@@@@@@@@@@@@@@@@@@@@@@@@@@@@@@@@@@@@@@@@",
"@@@@@@@@@@@@@@@@@@@@@@@@@@@@@@@@@@@@@@@@@@@@@@@@@@@@@@@@@@@@@@@@@@@@@@@@@@@@@@@@@@@@@@@@@@@@@@@@@@@@@@@@@@@@@@@@@@@@@@@@@@@@@@@@",
"@@@@@@@@@@@@@@@@@@@@@@@@@@@@@@@@@@@@@@@@@@@@@@@@@@@@@@@@@@@@@@@@@@@@@@@@@@@@@@@@@@@@@@@@@@@@@@@@@@@@@@@@@@@@@@@@@@@@@@@@@@@@@@@@",
"@@@@@@@@@@@@@@@@@@@@@@@@%%%%%%%%@@@@@@@@@@@@@@@@@@@@@@@@@@@@@@@@@@@@@@@@@@@@@@@@@@@@@@@@@@@@@@@@@@@@@@@@@@@@@@@@@@@@@@@@@@@@@@@@",
"@@@@@@@@@@@@@@@@@@@@@@@@%%%%%%%%@@@@@@@@@@@@@@@@@@@@@@@@@@@@@@@@@@@@@@@@@@@@@@@@@@@@@@@@@@@@@@@@@@@@@@@@@@@@@@@@@@@@@@@@@@@@@@@@",
"@@@@@@@@@@@@@@@@@@@@@@@@%%%%%%%%@@@@@@@@@@@@@@@@@@@@@@@@@@@@@@@@@@@@@@@@@@@@@@@@@@@@@@@@@@@@@@@@@@@@@@@@@@@@@@@@@@@@@@@@@@@@@@@@",
"@@@@@@@@@@@@@@@@@@@@@@@@%%%%%%%%@@@@@@@@@@@@@@@@@@@@@@@@@@@@@@@@@@@@@@@@@@@@@@@@@@@@@@@@@@@@@@@@@@@@@@@@@@@@@@@@@@@@@@@@@@@@@@@@",
"@@@@@@@@@@@@@@@@@@@@@@@@@@@@%%%%%%%%%%%%@@@@@@@@@@@@@@@@@@@@@@@@@@@@@@@@@@@@@@@@@@@@@@@@@@@@@@@@@@@@@@@@@@@@@@@@@@@@@@@@@@@@@@@@",
"@@@@@@@@@@@@@@@@@@@@@@@@@@@@%%%%%%%%%%%%@@@@@@@@@@@@@@@@@@@@@@@@@@@@@@@@@@@@@@@@@@@@@@@@@@@@@@@@@@@@@@@@@@@@@@@@@@@@@@@@@@@@@@@@",
"@@@@@@@@@@@@@@@@@@@@@@@@@@@@%%%%%%%%%%%%@@@@@@@@@@@@@@@@@@@@@@@@@@@@@@@@@@@@@@@@@@@@@@@@@@@@@@@@@@@@@@@@@@@@@@@@@@@@@@@@@@@@@@@@",
"@@@@@@@@@@@@@@@@@@@@@@@@@@@@%%%%%%%%%%%%@@@@@@@@@@@@@@@@@@@@@@@@@@@@@@@@@@@@@@@@@@@@@@@@@@@@@@@@@@@@@@@@@@@@@@@@@@@@@@@@@@@@@@@@",
"@@@@@@@@@@@@@@@@@@@@@@@@@@@@@@@@@@@@@@@@@@@@@@@@@@@@@@@@@@@@@@@@@@@@@@@@@@@@@@@@@@@@@@@@@@@@@@@@@@@@@@@@@@@@@@@@@@@@@@@@@@@@@@@@",
"@@@@@@@@@@@@@@@@@@@@@@@@@@@@@@@@@@@@@@@@@@@@@@@@@@@@@@@@@@@@@@@@@@@@@@@@@@@@@@@@@@@@@@@@@@@@@@@@@@@@@@@@@@@@@@@@@@@@@@@@@@@@@@@@",
"@@@@@@@@@@@@@@@@@@@@@@@@@@@@@@@@@@@@@@@@@@@@@@@@@@@@@@@@@@@@@@@@@@@@@@@@@@@@@@@@@@@@@@@@@@@@@@@@@@@@@@@@@@@@@@@@@@@@@@@@@@@@@@@@",
"@@@@@@@@@@@@@@@@@@@@@@@@@@@@@@@@@@@@@@@@@@@@@@@@@@@@@@@@@@@@@@@@@@@@@@@@@@@@@@@@@@@@@@@@@@@@@@@@@@@@@@@@@@@@@@@@@@@@@@@@@@@@@@@@",
"@@@@@@@@@@@@@@@@@@@@@@@@@@@@@@@@@@@@@@@@@@@@@@@@@@@@@@@@@@@@@@@@@@@@@@@@@@@@@@@@@@@@@@@@@@@@@@@@@@@@@@@@@@@@@@@@@@@@@@@@@@@@@@@@",
"@@@@@@@@@@@@@@@@@@@@@@@@@@@@@@@@@@@@@@@@@@@@@@@@@@@@@@@@@@@@@@@@@@@@@@@@@@@@@@@@@@@@@@@@@@@@@@@@@@@@@@@@@@@@@@@@@@@@@@@@@@@@@@@@",
"@@@@@@@@@@@@@@@@@@@@@@@@@@@@@@@@@@@@@@@@@@@@@@@@@@@@@@@@@@@@@@@@@@@@@@@@@@@@@@@@@@@@@@@@@@@@@@@@@@@@@@@@@@@@@@@@@@@@@@@@@@@@@@@@",
"@@@@@@@@@@@@@@@@@@@@@@@@@@@@@@@@@@@@@@@@@@@@@@@@@@@@@@@@@@@@@@@@@@@@@@@@@@@@@@@@@@@@@@@@@@@@@@@@@@@@@@@@@@@@@@@@@@@@@@@@@@@@@@@@",
"%%%%%%%%%%%%%%%%@@@@@@@@@@@@%%%%%%%%%%%%%%%%%%%%@@@@@@@@@@@@@@@@@@@@@@@@%%%%%%%%%%%%@@@@@@@@%%%%%%%%%%%%%%%%@@@@@@@@%%%%%%%%%%%%",
"%%%%%%%%%%%%%%%%@@@@@@@@@@@@%%%%%%%%%%%%%%%%%%%%@@@@@@@@@@@@@@@@@@@@@@@@%%%%%%%%%%%%@@@@@@@@%%%%%%%%%%%%%%%%@@@@@@@@%%%%%%%%%%%%",
"%%%%%%%%%%%%%%%%@@@@@@@@@@@@%%%%%%%%%%%%%%%%%%%%@@@@@@@@@@@@@@@@@@@@@@@@%%%%%%%%%%%%@@@@@@@@%%%%%%%%%%%%%%%%@@@@@@@@%%%%%%%%%%%%",
"%%%%%%%%%%%%%%%%@@@@@@@@@@@@%%%%%%%%%%%%%%%%%%%%@@@@@@@@@@@@@@@@@@@@@@@@%%%%%%%%%%%%@@@@@@@@%%%%%%%%%%%%%%%%@@@@@@@@%%%%%%%%%%%%",
"    &&&&&&&&&&&&%%%%%%%%%%%%                &&&&%%%%%%%%%%%%%%%%%%%%%%%%&&&&&&&&&&&&%%%%%%%%                %%%%%%%%&&&&        ",
"    &&&&&&&&&&&&%%%%%%%%%%%%                &&&&%%%%%%%%%%%%%%%%%%%%%%%%&&&&&&&&&&&&%%%%%%%%                %%%%%%%%&&&&        ",
"    &&&&&&&&&&&&%%%%%%%%%%%%                &&&&%%%%%%%%%%%%%%%%%%%%%%%%&&&&&&&&&&&&%%%%%%%%                %%%%%%%%&&&&        ",
"    &&&&&&&&&&&&%%%%%%%%%%%%                &&&&%%%%%%%%%%%%%%%%%%%%%%%%&&&&&&&&&&&&%%%%%%%%                %%%%%%%%&&&&        ",
"++++            &&&&            ++++++++oooo        &&&&        &&&&&&&&            &&&&    oooo++++++++++++            oooo++++",
"++++            &&&&            ++++++++oooo        &&&&        &&&&&&&&            &&&&    oooo++++++++++++            oooo++++",
"++++            &&&&            ++++++++oooo        &&&&        &&&&&&&&            &&&&    oooo++++++++++++            oooo++++",
"++++            &&&&            ++++++++oooo        &&&&        &&&&&&&&            &&&&    oooo++++++++++++            oooo++++",
"++++    ++++oooo    ++++++++++++++++++++++++++++oooo    oooo++++        ++++++++++++    oooo++++++++++++++++oooo    ++++++++++++",
"++++    ++++oooo    ++++++++++++++++++++++++++++oooo    oooo++++        ++++++++++++    oooo++++++++++++++++oooo    ++++++++++++",
"++++    ++++oooo    ++++++++++++++++++++++++++++oooo    oooo++++        ++++++++++++    oooo++++++++++++++++oooo    ++++++++++++",
"++++    ++++oooo    ++++++++++++++++++++++++++++oooo    oooo++++        ++++++++++++    oooo++++++++++++++++oooo    ++++++++++++",
"++++++++++++++++++++++++++++++++++++++++++++++++++++++++++++++++++++++++++++++++++++++++++++++++++++++++++++++++++++++++++++++++",
"++++++++++++++++++++++++++++++++++++++++++++++++++++++++++++++++++++++++++++++++++++++++++++++++++++++++++++++++++++++++++++++++",
"++++++++++++++++++++++++++++++++++++++++++++++++++++++++++++++++++++++++++++++++++++++++++++++++++++++++++++++++++++++++++++++++",
"++++++++++++++++++++++++++++++++++++++++++++++++++++++++++++++++++++++++++++++++++++++++++++++++++++++++++++++++++++++++++++++++"
};
