/* XPM */
static char *result[] = {
/* columns rows colors chars-per-pixel */
"128 128 85 1 ",
"  c #27643F",
". c #28653F",
"X c #29683F",
"o c #2E3C4C",
"O c #313E4F",
"+ c #323F50",
"@ c #2F484C",
"# c #32404F",
"$ c #304A4D",
"% c #2B5E44",
"& c #2F514A",
"* c #2F594A",
"= c #324050",
"- c #3A4B5C",
"; c #375056",
": c #3A5756",
"> c #385E53",
", c #3E595D",
"< c #296640",
"1 c #2B6942",
"2 c #33674F",
"3 c #346C4C",
"4 c #307047",
"5 c #327349",
"6 c #3F685A",
"7 c #3A7C50",
"8 c #3F5061",
"9 c #435464",
"0 c #475768",
"q c #485769",
"w c #455B6A",
"e c #4A5B6B",
"r c #4A5F73",
"t c #446064",
"y c #486467",
"u c #4D686C",
"i c #457760",
"p c #477962",
"a c #497B63",
"s c #4B6075",
"d c #486870",
"f c #4F667C",
"g c #50677D",
"h c #52697F",
"j c #586A7C",
"k c #3F8556",
"l c #478E5D",
"z c #49915F",
"x c #498661",
"c c #4B8B62",
"v c #4E9665",
"b c #4E9864",
"n c #509B66",
"m c #529E68",
"M c #536A80",
"N c #586F85",
"B c #5A7187",
"V c #5E748A",
"C c #627586",
"Z c #60768C",
"A c #647A8D",
"S c #657C92",
"D c #697E92",
"F c #6B8197",
"G c #6C8398",
"H c #70879C",
"J c #748A9E",
"K c #758CA1",
"L c #7A8FA3",
"P c #7A91A5",
"I c #7D94A9",
"U c #8097AC",
"Y c #839AAE",
"T c #879CB1",
"R c #899FB3",
"E c #8AA0B5",
"W c #8EA5BA",
"Q c #90A6BB",
"! c #91A8BD",
"~ c #96ADC2",
"^ c #98AFC4",
"/ c #9AB1C6",
"( c #9DB3C8",
") c #A3BACF",
"_ c #A5BCD1",
/* pixels */
"nnnnnnnnnnnnnnnnnnvnnnnnvnnvnnnnnnnnnnbnnnnnnnnnnnnnnnnnnnnnnnbnnnnnnnnnnbnnnnnnnnnnnnnnnnnnnbnnnnnnbnnnnnnnnnnnnnnnnnnnnnnnnnnn",
"nnnnnnnbnnnnnnnnnnnnnnnnnnnnnnnnnbnnbnnnnnnnnnnnnnnnnbnnnbnnbnnnnnnnnnnnnnnbnnbnnnnnnnnnbnnnnnnnnnnnnnnnnbnnnbbnnnnnnnnnnnnbnnbn",
"nbnnnnnnnvnnnnnnnnnnnnnvnnnnvnnnnnnnnnnnnnbnnnnnnbnnnnnnnnnnnnnnnnnbnbnnnnnnnnnnnnnnnnnnnnnnnnnnnnnnnnnnnnnnnnnnnnbnbnnnnnnnnnnn",
"nnnnnnnnnnnnnvnnnnnnnnnnnnnnnnnnnnnnnnnnnnnnnnnnnnnnnbnnnnnnnnnnnnnnnnnnnnnnnnnnnnnnnnnnnnbnnnnbnbnnnnbnnnnnnnnnnnnnnnnnnnnnnnnn",
"nnnnnnnbnnnnnvnnnnnnnnnnnnnnnnnnnnnnnnnnnnnbnnnnnnnnnnnnnnnnnnnnnnnnbnnnnnnnnnnnnnnnnnnnnnnnnnnnnnnnnnnnnnnnnnnnnnbnnnnnnnnnnnnn",
"nnnbnnnnnbnnnnnnvnnnnbnnnnnnnnnnnnbnnnnnbnnnnnnnnnnnnnnnnnnnnnnnnnnnnnnnnnnnnnnnnnnnnnnnnnnnnnnnnbnnnnnnnnbnnnbnbnnnnnnnnnbnnbnn",
"nnnnnnnnnnnnnnnnnnnnnnnnvnnnnbnnnnnnnnnnnnnnnmnnnmnnnnnnnnnnnnnnnnnnnnnnnnnnnnnnnnnnnnmmnnnnnnnnnnnnnnnbnnbnnnnnnnnnnnnnnnnnnnnn",
"nnnnnnnnnnnnnnnnnnnnnnnnnnnnnnnnnnnnnnnnnnnbcxxxxcxxcxxxxxcxcccacxcxcxcxccxxcxxcxxcxxcaxzmnnbnnnnnnnnnnnnnnnnnnnnnnnnnnnnnnnnbnn",
"nnnnnnnnnnnnvnnnbmbmbmbmnnnnnnnnnnnnnnnnnnmc6:--:::::::::::::::::::::::::::::::::::::::6znnnnnnnnnnnnnnnnnnnnnnnnnnnnnnnnnnnnnnn",
"vnnnnnnvnnnnnnnnmbmbmbmbnnnnnnnnnnnnnnnnnnmx:+++O#O####O#O###########################oo:cmnnnnnnnnbnnnnnnnnnnnbnnnnnnnnnnbbnnnnn",
"nnnnnnnnnbnnnnnnbmbmbmbmnnnnnvnnnnnnmnnnnmmx;o++##OO##oo#oOO#ooooo##o#oo######o#####o#o:xnnnnnnnnnnnnnnnnnnnnnnnnnnnnnbnnnnnnnbn",
"nnnnnnnnnnnnnnnnmbmbmbmbnnnvnnnvcxxxcxcxxcxayqqq0000qqq00e00qq9:qqqqqq0800000000qqq:qqqyacxxccaxbnnnnnnnnnbnnnnnnnbnnnnnnnnnnnnn",
"nnvnnnnvnnnnnnnnbmbmbmbmbmbmnbmv6::::::::::yDUDJJJJJUFUGUFUUjUUUUUDUUDUUDUDUUUDUUDUUDUUCy::::::6cnnnnnnnnnnnnnnnbnnnnnnnnnnnnnnn",
"nbnnnnnnnnnvnnnnmbmbmbmbmbmbnmbx:oO+####Ooo0DW!QEEQEEREQERQEEREQTTTTQETTEERQYTTYEETTEETDq#o###o:xnmnnnnnnnnnnnnnnnnnnnnnnnnbnnnb",
"nnnnnnnnnnnnnnnvbmbmbmbmbmbmmbmc:o##oo##ooo0DQWEEWEEEEEEEEEEEEEEEETRQEEEEEEEEETEEQEEEQRU0oo##o#:xmmmnmnmnnnnnnnnnnnnnnnnnnnnnnnn",
"nnnnnnnnnnnnnnnnmbmbmbmbmbmbcxxay0000e0e000jUEEEEEEEEEEEREEEEEEEEERREEEEEEEEEEEEEEEEERTUj000qqquaxxxxxxxxxxcbnnnnvnnnnbnnnnnnnnn",
"nbnnnvnnnnnvnnnnbmbmmbmbmmbc6::ySKDDPKDDUDLUTEEEEEEEEEEEEEEEEEEEEEEEEEEEEEEEEEEEREREEEETUUDUDUUje::::::::::6cnnnnnnnnnnbnnbnnnnn",
"nnnnnnnnnnnnnnnvmbmbbmbmbmnx:oowK!~WWWWEWWEEEEEEEEEEEEEEEEEEEEEEEEEEEEEREEEEREEEEEEEEEEEEQTETTRDqoo#o####oo:xmmnnnnnnnnnnnnnnnnn",
"nnnnnnnnnnnnnnnnbmbmmbmbmmmx;oo0D!WEEWRWEEEEEEEEEEEREEREEEEEEEEEEEEEEEEEEEEEEEEEEEEEEEEEEEEERQQU0o###o##oo#:xmmmbnnnnnnnnnnnnnnn",
"nnnnnnnnnnnnnnnnmbmbbmbbcclpy00jPEEEREREEEEEEEEEEEEEEEEEEEEREEEEEEEEEEEEEEEEEEEEEEEEEEEEEEEEREEUj0qeeeueeeeuacxacnnnnnnbnnnnnbnn",
"nnnvnnnnnnnnnnnnbmnnnnbc6::yAJJLIEEEEEEEEEEEEEEEEEREEEEEREEEEEEREEEEEEEEEEEEEEEEEEEEEREEEEEEEERTUUDUTTTTTERUu::6cmnnbnnnnnnnnnnn",
"nnnnnvnnnnvnnnnnmbnnbmmx:oo0JWQEEEEEEEEEEEEEEEEEEEEEEEEEEEEEEEEEEEREEEREEEEEEEEEEEEEEEEEEEREEEEETTRR(______Teoo:ammmnnnnnnnnnnnn",
"nnnnnnnnnnnnnnnnbmbbmbmx:oo0JWWEEEEEEREEEEEEEEEEEEEEEEEREEEEEEEEEEEEEEEEEEEEEEEEEEEEEEEEEEEEEEEERQRQ(______Tu#o:cmmmnnnnnbbnnnbn",
"nnnnnnnnnnnnnnvnmbmbvxcay90jLEEEEEEEEEEEEEEEEEEEEEEEEEEEEEEEEEEEEEEEEEEEEEEEETEEREREEEEEEEEREEEERRRQ(_(____Rjeqeacccbnnnnnnnnnnn",
"nnnnnnnnvnnnnnnnnnnc6;:yAJJUUEEEEEREEEEEEREEEEEEEEEEEEEREEEREEREEEEEREEEEEEEEEEEEEEEEEEEEEREEREERREQ(__))))^ETEUe::6cnnnnnnnnbnn",
"nnnnnnnbnnnnnnnnnmmx:Oo0JWWWTTEEEEEEEEREEEEEEREEEEEEEEEEEEEEEEEEEEEEEEEEEEEEEEREEEEEEEEEEEEEEEEERQRQ(_))))))___Teoo:cnnnnnnnnnnn",
"nnnnnnnnnnnnnnnnmmnx:Oo0JWEEEEEEEEEEEEEEEEEEEEEEREEEEEEEEEEREEEEEEREEEEEEEEEEEEEEREEREEEEEEEEEEERERQ())))))(___Te#o:cnnnnnbnnnnn",
"nvnnnnnnnnnnnnnvxlli:--sJWEEEEEEEEEEEEEEEEEEEEEEEEEEEEEEEEEEEEEEEEEEEEEEEEREEEEEEEEEEEEEEEEEEEEERRRQ())))))))__Te##:cnnnnnnnnnnn",
"nnnnnvnnnnnnnnnc6::,essBUWEEEEEEEREEREEEEEEEEEEEEEEEEEEEEEEEEEREEEEEEEEEEEEEEEEEEEEEEEEEEEEREEEEEERQ()))))))___Tu##:xmnnnnnnnnnn",
"nnnvnnnnnvnnnnmx:+O-shhVUEEEEEEEEEEEEEEEEEEEEEEEEEREEEEREEEEEEEEEEEEEEEEEEEREEREEEEEEEEEEREEEERERRRQ()_())))___Te##:cmnnnnnnnnbn",
"nnnnnnnnnnnnnnnx:OO-shjCUTEEEEEEEEEEEEEEEEEEEREEEEEEEEEEEEEEEEEEEEEEEEEEEEEEEEEEEEEREEREEEEEEEEEEERQ(_))))))___Te+#:amnnnnnnnnnn",
"nnnnnnnnnnnnnnnx:++-rhgCUTEEEEEEEEEEEEEEEEEREEEEEEEEEEEEEEREEEEEEEREEEEREEEEEEEEEEEEEEEEEEEEEEEEEERE^(((())))__Te##:annnbnnnnnnn",
"nbnnnnnnnnnnnnnx:++-ujMVPRRRRWRRWRWREEREEEEEEEEEEEEEEEEEEEEEEEEEEEEEREEEEEEEEEEEEEEEEEEEEEEEEEEEEEEEQQQ^()))))_TrOO:xmnnnnnnnnnn",
"nnnnnnvnnnbnnnmx:++-rgMZIRWRRRRRRRRREEEEEEREEEEEEEEEREEEREEEEREEREEEEEEEEREEEEREEEEEEEEEEEEEEEEEEEERERTQ())))__TeOO:xmnnnnnnnnnn",
"nnnnnnnnnnnnnnml:++-rMgZIWRRRWRRRWWREEEEEEEEREEEEEEEEEEEREEEEEEEEEEEEEEEEEEEEEEEEEEEEEEEEREEREEEEEEEERRQ(_)))__TeOO:xnnnnnnnbnnn",
"nnnnnnnnnnnnnnvx:++8jZVDURWRRRWRRRRREEEEEEEEEEEEREEEEEEEEEEEEEEEEEEEEEEEEEEEEEEEEEEEREEEEEEEEEEEEEEEEERQ/_))~~(UeO+:xmnnnnnnnnnn",
"vnnnbnnnnnnnnnnx:OO9DUUURRRRRRRWRWRREEEEEEEEEEEEEEEEEREEEEEEEEEEEEEEREEEEEEEEEEEREEEEEEEEEEEEREEEEEEEERQ())~RUUDeOO:lnnnnnnnnnnn",
"nnnnnnnvvnnnnnmx:OOqJWEERRRRRWRRRRRWEEEREEEEEEEEEEEEEEEEEEEREEEEEEEEEEEEEEEEEEEEEEEEEEEREEEEEEEEEEEEEERQ())~UJKA9OO:lnnnvnnnnnnn",
"nnnnnnnnnnnnnnml:OO0JEEERR~RRRRRRRRREEEEEEEEEEEEEREEEEEEEEEEEEEEEEEEEEEEEEEREREEEEEEEEEEEREEEEEEEEEEEERQ()_~UJKZ9OO:ammnnnnnnbnn",
"nnnnnnnnnnnnnnvx:OOqU!!QRRRRRWRWWREEEEEEREEEREEEEEEEEEEEEEEEEEEREREEEEEEEEEEEEEEEEEEEEEEEEEEEEEEEEEEEERQ(_)~IKKSs98tpxlcvnnnnnnn",
"nnnnnnvnnnnnnnml:+OeT))!WEREEEEEEEEEEEEEEEEEREEEEEEEEEEEEREEEEEEEEEEEEEEEEEEEEEEREEEEEEEREEEEEEEEREEEERQ(__~UJKHDAACt::6lnnnnnnn",
"nvnnnnnnnnvnnnnx:OOeT_)(~REEEREEEEEREEEEEEEEEEEEEEEREEEREEEEREEEEEREEEEEEEEEEEEEEEEEREEEEEEEEEEEEEEEEERQ(_)^UKKKKKLA9OO:xnnnnnnn",
"nnnnnnnnnnnnnnnx:+OuT__^WREEEEEEEEEEEEEREEEEEEEEEEEEEEEEEEEEEEEEEEEEEREEEEEEEEEEEEEEEEEEEEEEEEEEEEEEEEEQ(__~UKJJKKKA9OO:xnnnnnnn",
"nnnnnnnnnnnnnnnx:OOsT__)WREEEEEEEEEEEEEEEEEEEEEEEEEREEEEEEEEEEEEEEEEEEEEREEEEREEEEEEEEEEEEEEEEEREEEEEERQ(__QLHDHJKLC9O#:xnnnnnnn",
"nnnnnnbnnnnnnnnx:OOeR__/WRREEEEEEEEREEEEEEEEEEEEEEEEEEEREEEEEEEEEEEEEEEEEEEEEEEEEEEEEEEEEEEEEEEEEEEEEETQ(__QDjNCHKLA9O#:xnnnnnnn",
"nnnnnnnnnnnnnnmx:OOeT__(WRREEEEEEEEEEEEEEEEEREEEEEEEEEEEEEREEEREEEEEEEEEEEEEEEEREEEEEREEREEEEREEEEEEEEEQ(__QDjgBGKKA9OO:xnnnnnnn",
"nnnbnnnbnnnnnnnx:OOrT_)(WTREEEEEEEEEEEREEEREEEEEEEREEEEEEEEEEEEEEEEEREEEEEEEEEEEEEEREEEEEEEEEEEEREEEEETQ(__QDjsNGLLA9++:xnnnnnnn",
"nnnnnnnnnnnnnnmx:OOrT__/~W~WEEEEEEEEEEEEEEEEEEEEEEEEEEEEEEEEEEERREEEEEEEEREEEEEEEEEEEEEEEEEEEEEEEEEEREEQ^__EDjjNGKKA9OO:xmnnvnnn",
"nnnnnnnvnnnnnnnc:OOuT__)(/(~WEEEEEEREEEEEEEEEEEREEEEREEEEEEEEEEEEEEEREEEEEEEEREERWRRWR~RRRRRRRREEREEEEEQ/__WSggBFKLA9##:cbbmbmbm",
"nnnnnnnnnnnnnnnx:OOeT_)))))(~EREEEEEEEEEEEEREEEEEEEEEEEEEEEEEREEEEEEEEEEEEEEEEEERRRRRRRRRRRRWREEEEEEEERW/__!SggBGKKA9=o:cmmbmbmb",
"vnnnnnnnnnnnnnmx:OOeT_))))_/WRREEEEEEEEEEEEEEEEEEEEEEEEEEEEEEEEEEEEEEEEEEREEEEEEWRRWWRRRRRWREEEEEEEEEEE!(__!SggBGLKS9==:xmbmbmbm",
"nnnnnnnnnnnvclxp088jE)_))))(~EWWEEEEEEEEEEEEEEEEEEEEEEEEEREEEEEEEEEEEEEEEEEEEEEERRRRRRWRRWRREEEEEEEEEEEEW~~IVMgBGKKA9o=:xbmbmbmb",
"nnnnnnnnnnnc6:>0NAAJ!_))))))(((~QEEEREEEEEEEEEEEEEEEEEEEEEEEEEEEREEEREEEEREEREEERRWRRWRRWRRRRWRREEEEEEEIGSSVNggBFKLZ9+=:lbmbbmbm",
"nbnnnnnvnnml:OO9AKKU^_)))_))_))(QRREEEEEEEEEEEEEEEEEREEEEEEEEEEEEEEEEEREEEEEEEEERRRRRRRWRRWRRRRWEEEEEEWIVggMgMMBGLKA9+=:xmmmmbmb",
"nnnnnnnnnnna:OO9ALJU^)_))))_)))(QRRERRRRRRREEEEEEEEEEEEEEEEEEEEEEEEEEEEEEEEEEEEERWWRRRRRWRRRRRRRWEEWEWWIVggggMhBGKLZ9++:xmmbbmbm",
"nnnnnnnnnnnl:O#9AKJUQ^^^~~//(_)(~WQQQQQQQQQWEEEEEEREEEEEEEEEEEEEEEEEEEEEEEEEEREERRRRRWRRRRWRRWRRIPIPPIIHVMgMMMgBGKKS9+o:lmmbmbmb",
"nnnnnnnnnnml:OO9AKKLPIIIIIIE/)))((((((((/((^WEEEEEEEEEEEEEEEEEEEEEEEEEEEEEEEEEEERRWWRRRWEEEEEEEUFVVZZBZBNhhhhggBFLLA0O=:xnmnnbnn",
"nvnnnnnnvnnx:O#9ALLJKKKKKKJI~__)))))_)))_))(WRREREEEEEEEEEEEEEEEEEEEEEEEEEEEEREERWRRWRRREEEEEWEIBhfhhhhMhhhhhggBFJLA9#O:xnnnnnnn",
"nnnnbnnnnnnx:OO9SLKKKKJKJKJI/)_))))))()))))(WREREERRERREERREEEEEEEEEEEEEEEEEEEEERRERRRWREEEEEEEIZhhhhhhhhhMMgggNFKJA9O#:xnnnnnnn",
"nnnnnnnnnnnx:OO9BGGGGKKJKJJIW/~/())))))))))(~WQ!WQWWQQW!WWWWEEEEEEEEEEEEEREEEEETUIIIIIIIIUIIIUIJBMhhhhhhhhhNZSSGPIUF0O=:xnnnnnnn",
"nnnnnnnnnnnx:+=8gBNZGLKKKJKKIIIE/)))))))))))(((/(/(/(((/(((/WEEEEEEEEEEEEEEEEEEIFZZCZZZZZZZZVZZBNhhhhhhhhhgVU!W!~^/Ie#+:lmnnnnnn",
"nnnnnnnnnnnx:++-rhhBGKKJKKKKKHKI^)))))))))))_)___________)_(QEEEEEEEEEEEEWEEEEWIBgghghghhhhgghhhhhhhhhhhMggS!______TeOO:xmnnnbnn",
"vnnnnnnnnnmx:++-rhhBGKKKKKKKKHHI/)_)))))))____)_____)__)___(!EWEEEEWEEEEEEEEW!WIZhghghhghgghhhhhhhMhhhhhgffSW__))__RrO+:xvnnnnnn",
"nnnnvnnnnnnl:++-sMhBGKLJJKHKKKKIW^~^^^^~!QQWWQQWWWWWWWW!WQQEIIPIIIPIIIIIIIPIIIIDBhghhhhhhhhhhhhhhhhhhhhMNBBG!_)))__TeO+:xnbnnnnn",
"mbmbnnnnnnnx:==-dMMBGKKKKKKKKKKPIIIIIIIPGZSZSZSSFZSSSZFFSSFFFVBFZVZZBVVVVZBVVVVBNMMMMfMMMMMdMMMMfMdMMMMNFFFI~)))))_Iso=:xnnnnnnn",
"bmbmbnnnnnmx:==-sMMBGKKKKHKKKHKKKKKKKKKFNfMfMMMMfMffMMdgMfdgfhdhMMMMMMMMMMMsMMMMMMfMMMfMfMMMMMMMMMMMMMMNGKHI/)))))_Wsoo:xnnnnnnn",
"mbmbmbnnnnnx:==-sMMNGKHKKKKKKKKHHKHKKKKGNMMMMfMdMfMfMfghfMghgghhMMMMMMM8MMMMMMMMMMMfMMMMMMMMMMMffMfMfMfNGKKI/)))___If==:xnnnnnnn",
"bmbmbmnbnnnx:+=-sMMNGKKKKKKHKKKKKKKKKKKGVNBBNNNNMMfMMMMgfMhhhghhMMMMMMMMMMMMMMMMdMMMfMfMMMMMdMMMMMMMNNMFHKKIW~/~~~~I8==:xnnnnnnn",
"mbmbnnnnnnmx:==-sfMNGKKKKKKKKKKKKHKKKKKHGGGGGGGFNMMfMgMMMMMMhhhhMMMMMMMMMffMMMfMMMMMMfMffMMMdMMMfMMNFFFGHKKKIIIPFFFN8==;cnnnnbnn",
"bmbmnnnnnnnx:==-sMMNGKKKHKKHKKHKKKKKKHKKKKKKKKKHNMfMMggMMfMfhhhhMrrMMMMMMMMMfMMMfMfMMMMMMMMfMMfMMMMBFKKKKKKKKKKFNdM8-==,xnnnnnnn",
"mbmbbnnnnnmx:==-sMMNGKKKKKKHKKHKKKKKKKKKKKKKKKKFBMMMMMMMMfMfhNhhMMMMMrMMfMfMMMfMMMMfMfMMfMfMMMMMfMdNGKKKKHKKKKHFNMMr-==>xnnnnnnn",
"bmbmnnnnnnnx:o=-sMMNFGGHIIIIIIIIKHKKKKKHKKKKGGGFNfMfgMggMMMMhhhhMMMMMMMMMMMMfMfMfMMMMMfMMMMMMMMMNNNFGKKKKKKKGGFFNMMd-==;cnnnnnnn",
"mbmbmbmbnnnx>==-sMfMNNNFI(//^~/WIKKKKKKKKKKGFMNNMMMMghhhhhhhhhhhhhhhhMhhfMMMMMgMMMMMMfMMMMMMMMMNFGFGHKKKKKKGFMNNNhhs-##:xnnnnnnn",
"bmbmbmbmnmmx:Oo-sMMMMffFW______(IKKKKKHKKKKGBdMffMgMMhgMhhhhhhhhhhhMhhhhfMfMfMgMfMfMMMMMfMfMfMMBFKKKKHKKKKKFNhhhhhhs-#O:cnnnnnnn",
"mbmbnnmnmmmx:=O-rMMMfffS~__)_)_(IKKKKKKKKKKFBMMMMfMMhhMhhhhhhhhhhhhhhhhhMfMMMMMMMMMMdMMMfMMMMfMNGKKKKKKKKKKGNhhhhhhs-oO:xmmnnnnn",
"bmbmnnnbcxxpt88rMNNBBNNSI~WW~WWIKFFGGGGGGGGFBMMfMMMghMhhhhhhhhhhMhhhhhhhMMMfggMgMMMMNBNNNNBNNNBZGKKKKKKKGFGFNhhhhhhsw99tixccbnnn",
"nbnnnnmc6::tNSSFFGGGGGGGFSSSSSFFBNNNBNNBBBBBMhhhhhhhhhhhhhhhhhhhhhhhhhhhhhhhMMgMMMfNFGGGGGGGGGGGKKKKKKKGVBBNMMhhhhhNVSZBt::6cnnn",
"nnnnnbnc;+=8ZKKKKKKKKKKGNfffffdfMMMMMMMMghhghMhhhhhhhhMhhhhhhhhhhhhhhhhMhMhhMggMMffNGKKKKKKKKKKKKKKKKKKGBfhfhMhhhhgBGPPZ8oo:xnnn",
"nnnnnnnc:=@8FKKKKKKKKKKGMMfMfMffMMMfMfMMhhhhhhhhhMMhhhhhhNhhMhhhhhhhhhhhhhhhhMMMfMMNGKKKKKKKKKKKKKKKKKKFBhhMhhMMhhgBGLLS9=o:xmnn",
"nnnnnnbx:==8ZKKKHKKKKKKGSNNMMMMMdMMfMMMMhhhhhMhhhhhhhhhhhhhhhhMhhhhMhhMhhhhhhhMgMMMNFGGGGGGGGGGGGGGGFGGFNMhhhhhMNBBVGKKS8=#>xnnn",
"nnnnnnnx>o=8SKKKKKHKKKKHGGGFNMMMMMMMfMMMMMMMMMMfhhhhhhMhhhhhhhhhhhhhMhhhMMMMMfMMMMMMMNNNNNNNNBNNBBBBBBBNMhhhhMgNSGGHKKKA8=#:cbmb",
"nnnnnnmc:==9ALKKKKKKHKKKKKKGNMfMMMMMMMMfMdfMfMMMhMhhMhhhhhhhhhhhhhhhhhhhMMMMMMMMMMMfMMMMMMMMMMfMMfMgMgMgMhhhhggBGJKJKKKA9=#:xbmm",
"nnnnmnbx:=O8SPKKKKKKKKKKKKKGBMfMMMMMfMfMMMMMMMMdhhhhhhhhhhhMhhhhhhhhhhhhMMMfMMfdMMfMfMMMMMMfMfffMffMgMMghhhhgffNGLKJHKKA9==:cnbm",
"nnnnbnmx:==8BGGGHKKKKKKHKKKGZNNNMMfMMMMMMMMMMMMMhhhhhhhhhhhhMhhhMhhhhhMhMdMMfMMMMMMMMMMfMdMMMMMMMMMMgMMghhhNVFSGPIIIPKPA9=#:xmmb",
"nbnnnnnc:==-gBBVGKKKKKKKKKKHHGGFMMdMMMMMMMMMMMfMhhhhhhhhhhhMhhhhhhhhhhhhfMMMMMdMMMMfMMMMfMMMMMdMMMfMMgMMhhhVI!!!~^^WIKKA8=#:xmnb",
"nnnnnnmx:==-sghVGKKKKHKKKKKHKKKGNMMMMMfMMMMdMMMMhhMhhhMhhhhhhhhhhhhhhhhMMMfMMMMMMfMMdMMMMMfMMMMMfMgMhMgMhffF!___(__^IKKA9=o:xbnm",
"nnnnnnnx:==-shgBGKKKKKKKKKKKKKKGNMMMMMMMMMMMMMfMhhMhhhhhMhhhhhhhMhhhhhhhMfMMMMMfdMMMfMMMfMMMMMMfgMMMhgghhffSW____(_^IKPA9=#:lmnn",
"nnnnnnbx:=#-sMhBGKKKHKKHHKKKKKKGVNNNNNNNMMMfMfMMhhhhhhhhhhhhhhhMhhMhhhhhMMfMMMMMMMfMMMMMMMfMMMMMMgMMNBBBBNNG!______~IGGB8=#:xnnn",
"mbmbnnbx:==-sMgBGKKKKKKKHKKKKKKHGGGFGGFFMMMMdMMMhhhhhhMMhhhhhhhhhhhhMMMfMfMMMMffMMMMMMMMMMfMMMffMhhNFGGGGGFP~(_(())!GBNg-==:cmbm",
"bmbmnnnx:==-sMMBGKKKKKKKKKKKHKKKKKKKKKKGNMMMMMfMhhhghhghhghhhhhhhhMhMMMMMMMffMMMMMMMMMMffMMMMMMMMfMBFKKKKKKI/______!Sggs-==:xbmb",
"mbmbnnmc:==-sMMNGKKKKKKKKKKHKKKKKKKKKKKGNMMMMMMfhhhhghghhghgfhhhMdhhMMMdMMMdMMMMMMMfMMMdMdfMMMMMfMfBGKKKKKKI/__(___!Sggs-==:cmmb",
"bmbnbmbx:==-sMMNFGGGHKHKKKKKKKKKKKKKKKKHVNNNNNNNBBBBBBBBBBBBBBBBBhFBMMMMMMMMMMMMffMMMMMMMMMMNBNBBBBVGKKKKHKI!^~~!!!YVghs-==:lmmb",
"mbmbnnmc:+=-sMgMMNBZGKKKKKKHKKKHKKKKKKKHGGGGGFGGGGGGGGGGGGGGGGFGGGGFNgMMMMMMfMMMMMMMMMMMMMMNFFGGGGGGHKKKKKKKIIIPGSSVNgMs-==:xbnn",
"bmbmnnbc:O=-sgMMMfMNGKKKKKKKKKKKKKHKKKHKKKKKKKKKKKKKKKKKKKKKKKKKKKKGBgMMMMMMfMMdfMMMfMfMMMMBFKKKKKKKKKKKKKKKKKKFNggMgMMs-=+:xbnn",
"mbmbnnnx:==-dMMMMfMNGKKKKKKKKKKKKKKKKKKKKHKKKKHKKKKKKKKKKKKKKKKKKKKGBdMMMMMMMMfMMMMMMMMMMfMBGKKKKKKKKKKKKKKKKKKGBgghMMMs-=+:cmnn",
"bmbmnnnx:==-sMMhMMMNFHGGGGGGHKHKKKKKIIIIIIIIIIIIKKKKKKKKKHKKKKKKKKKGFMBBMNNNMMMMMdMMMfMfMMfMFFFGGGGGGGGGGGGGGGFFNghMgMMs-=O:xmnn",
"mbmbmmmc:==-shMhhhMMNBBBBBBVGPKKKJHIW^~~~~^~^^^WIKGKKKKKKHKKKKKKKKKHGGGGGGGFNhhhhhhhhhhhhhhhNBBBBBBBBBBBBBBNNBBNMMMgMMMM-==;xmnn",
"bmbmbmbx:O=-rNMMhhhhhhghhgfBGKKKKKKI^__________/IKKKKKKKKKKKKKKKKKKKPKKKKKJGBhhhhhhhhhhhhhhhhghhhMMfgMMfffMMMMfMMMgMMMM8-==:xmnn",
"mbmbnnmx:OO-rMMMhhhhhhhhgfhBGKKKKKLI/__________^IKKKKKKKKKKKKKKKKKKKKKKKKLJGBhhhhhhhhhhhhhhhhhhhMgMMMMMfMMfMMMffMgMMMMMr-==:lnnn",
"bmbmnbnl:$$:wsssghhMMhhhMMhNFGGGGFFJE!W!!W!WWWWEPGFGGGGGGGGGGGGGGGGGGGGGGGGFNhhhhhhhhhhhhhhhhhhhgMMgfgMMgMMMfMMMgMMgMMMf-=O:xnnn",
"bmbmnnnc3%%*;--9sMMhhhhhMMMMNBBBBBBVASSSSSSSSSFVBBBBBBBBBBBBBBBVNBBBBBBBNBBNMhhhhhhhhhhhhhhhNhhhhhhhMgMggMMgfMfMMMhhhMMr-==:xnnn",
"mbmbnnml5..%$+O-sMMhhhhhggMgffMghfhghggggfgfgfggMMgfhgghghhhhhhhfMMgMfMfhgghhhhhNhhhhhhhhhhMhhhhhhMMMMMMMMgMMMMMMghhMMMr-==:xnnn",
"bmbmbmml5.1%$+O-sMhhhhhhMMgMMMMfhhhhhhhgggggMgMggMMMMfMMhghghhhhMMMffMMgMgMhhhhNhhhhhhhNhhhhhhhhhhMgMggMMgMMMfMfMhMMMMMM-=O;xmnn",
"mbbbbzlk4..%$=+-sMMhhhhMMgMMggMMhhhhhhhhMMMMMggMMMgMMMMfhhhhhhhhfgMMMgMhMhhhhhhjhhhhhhhhhhhhhhhhhhMgMMgMMfMfMMMMgMggddd,;@@>lmnn",
"bmmz7554<<1%$==-sMMMMffMMhhhhhhhhhhhhhhhhhhhhhhhggMghhhhhhhhhhhhMMMMggMhhhhhhhhhhhhhhhhhhhhhhhhhhhhhhhhhhhMhMMffMMMf8--;*%%3lnnn",
"mbbl5   <<.%$+=9sMMMMMMMhhhhhhhMhhhhhhhhhMhhhhhhMMMMhhhhhMhhMhhhMggMMMhhhhhhhhhhhhhhhhhhhhhhhhhhhMhhMhhhhhhhfMMMMMMr-++$%<<5lnnn",
"bmml5 ...1<%$++-sMMMMfMfhhhMhhhhhhhhhhhhhhhhhMMhMggMhMhhhMhhhhhhMMgghhMhhhhhhhhhhhhhhhhhhhhhhhhhhMhhhhhhhhhhMMMMMMMr-++$%<<5cnnn",
"mbml5....<<%&$$;8sdsfMMMhhhhhhhhhhhhhhNhhhhhhhhhMMgMhhhhhhhhhhhhgMMMhhhhhhhhhhhhhhhhhhhhhhhhhhhhhhhhhhhhMhhhfMMMsrfw;$@&%<<5cnnn",
"bmml51 1<<<<%%%*:--8fMMMhhhhhhhhhhhhhNhhhMhhhhhhhhhhMhhhhhhhhhMhhMhhhMhhhhhhhhhhhhhhhhhhNhhhhhhhhhhhhhMhhhhhhhMf8--;*%%%<.<5knnn",
"bmnl5  <<<<<1.<%$==-sMMMhhMhMhhhhhhhhhhhhhhhhhhhhhhhhhhhhhhhMhhhhhhhhhhhhhhhhhhhhhhhhNhhhhhhhhhhhhhhMhhhhhhhMMMr-==@<<<<<<.4bnnn",
"mmnl5 1<<<.<..X%$==-sMMMhhhhhhhhhhhhhhhhMhhhhMhhhhhhhhhMhhMhhhhhhhhhMhhhhhNhhhhhhhhhhhhhhhhhhhhhhhMhhhhhhhhhMNMM-=O@%<<<   4lmnn",
"bmnl5  X<<<<<<<<&$$8wdsdhhhhhMhhhhhhhhhhhhhhhhhhMhhhhhhhhhhhhhhhhhhhhhhhhhhhhhhhhhhhhhhhhhhhMhhhhhhhhhhhhhhhddd,;$$&<<<14447vnnn",
"nnnl5..<<<<<<<<<<%%*---8fMMMMMMMMgMMgMhhhhhhhhhhMMfMfMMfMMfMfMMfhhhhgMgMMgfMMfMMhhhhhhMgMhhhhhhhgMgMhhhhMMMf8--;*<*%<..4kllzbnbm",
"nnml5  <<<<<<<<<<<<%$+=-rMMMMMMMgMMMMMhMMMMMMMMhMMMMMMMMMMMMMMMMMMMMMMMMMMMMMMMMMMMMMMMMMMMMMMMMMMMMMMMMMMMr-+=@%<<<.  5lmmmbnmb",
"nnbl5  .<<<<<<.<<<<%$++-rMMMMMMMMMMMMMMMhMMMMMMMMMMMMMMMMMMMMMMMMMMMMMMMMMMMgMMMhMMhMMMMMMMMhMMMMMMgMMMMMMNr-==$<<<<.. 4lmbmbmbm",
"nnml75441<<<<<<<<<<<&$$;tddddddddddddddddddddddddddddddddddddddddddddddddddddddddddduddddddddddddddddddddddt;$$&%<<1444kzmmbmbmb",
"nnnbbllk4.<<<<<<<<<<%%%<2222222232222222222222222222322222223222323222222223222222222222222222222222222222221%%%<<<4kczzbmbmbmbm",
"nnnnbmml5  <<<<<<<<<<<<<....   <X.<<....  .. XX   ..X.<< .....<<.<..<<...<<.<<..........   X 1..<<......<< <.<<<<<<5knnnbbmbmbmb",
"nnnnmmbl4   <<<<<<<<<<<<.....<< ............1  X................................ .. .X.. .. .   .......    <<<<<<  4vbnnmbbmbmbm",
"nnnnbmbb75541<<<<<<<<<<<<<<<<<<<<<<<<<<<<<<< 1X.<<<<<<<<<<<<<<<<<<<<<<<<<<<<<<<<1 1<<<<<<<<<X1X<<<<<<<<<<<<<<<<14347vnnnbmmbmbmb",
"nnnvnnnbvkzk4.<.<<<<<<<<<<<<<<<<<<<<<<1.<<<<<<<<<<<<<<<<<<<<<<<<<<<<<<<<<<<<<<<<<<<1.<<<<<<<<<<<<<<<<<<<<<<<<< 4klzzbbmbmbmbmbmb",
"bnnnnnnnmmmz4. .................  . .. ....   <<..... .........<..........<<<... <  . ............ ... ... ..  5lmmnmmbmbmbmbmbm",
"nnnnnnnnnnmk5  . .<<..<..<.<<<..<<<<.. < ... <<<....... ..<<.<.<..<<.....<<<<<..< <<.... .....<............< < 5lmmnbmmbmbmbmbmb",
"nnnnnnnnnmmzk444545554554545455455555555555555555555555555554545545554554445455455555555555555555555555555555547znmbmbbmbmbmbmbm",
"nnnnnnnnnnnnvllcllllvkvlkvkclvkvlllllllclllllllllllcllllcllllllclllllllckzlclzkbvllllllvlllllllclllclllllllllllzbnbnmbmbmbmbmbmb",
"nnnnvnnnnnnnbnnnnmmnnmbnmmmnnnnnnnnmbmmnbmnmnnnmbmmnbmnmnnnnmnnmnnnmmnnnmnnnnnnnmnbnnnbnbmnmnnnnmbmmbmmnmmbmnmnmnnnnbmbmbmbmbmbm",
"nnnvnnnnnnnnnnnmnnnnnnmnmnnnnnnnmmnmmmnnmnnnmmnmmmnnmnnnnmnmnmnnnnmnmnnmmmnmmnnnnnnnnnnnmnnnmmmmmnnnnnnnmbbmnnmbbnnnmbmbmbmbmbmb",
"nnnnnnnnnbnnnnnnnnnnnnnnnnnnnnnnbmbmbbnnnnnnbmbmbbnnnnnnnnnnnbnnnnnnnnnnnnnnnnnnnnnnnnnnnnnnbmbbmbnnnnnnmbmmbnmbmnnnbmbmbmbmbmbm"
};
