/* XPM */
static char *pl_front_pet_21713905268[] = {
/* columns rows colors chars-per-pixel */
"128 128 15 1 ",
"  c None",
". c black",
"X c #493025",
"o c #543025",
"O c #6B3E30",
"+ c #7C4737",
"@ c #B45F1F",
"# c #DA7326",
"$ c #DE8543",
"% c #FF8F59",
"& c #FFA477",
"* c #FFC279",
"= c #FFD29B",
"- c #F2F1DB",
"; c #FFFFEA",
/* pixels */
"                                                                                                                                ",
"                                                                                                                                ",
"                                                                                                                                ",
"                                                                                                                                ",
"                                                                                                                                ",
"                                                                                                                                ",
"                                                                                                                                ",
"                                                                                                                                ",
"                                                                                                                                ",
"                                                                                                                                ",
"                                                                                                                                ",
"                                                                                                                                ",
"                                                                                                                                ",
"                                                                                                                                ",
"                                                                                                                                ",
"                                                                                                                                ",
"                                                                                                                                ",
"                                                                                                                                ",
"                                                                                                                                ",
"                                                                                                                                ",
"                                                                                                                                ",
"                                                                                                                                ",
"                                                                                                                                ",
"                                                                                                                                ",
"                                                    ############                                                                ",
"                                                    ############                                                                ",
"                                                    ############                                                                ",
"                                                    ############                                                                ",
"                                            ############$$$$################                                                    ",
"                                            ############$$$$################                                                    ",
"                                            ############$$$$################                                                    ",
"                                            ############$$$$################                                                    ",
"                                        ########$$$$$$$$####$$$$####$$$$########                                                ",
"                                        ########$$$$$$$$####$$$$####$$$$########                                                ",
"                                        ########$$$$$$$$####$$$$####$$$$########                                                ",
"                                        ########$$$$$$$$####$$$$####$$$$########                                                ",
"                                        ####$$$$$$$$####$$$$$$$$####$$$$$$$$########                                            ",
"                                        ####$$$$$$$$####$$$$$$$$####$$$$$$$$########                                            ",
"                                        ####$$$$$$$$####$$$$$$$$####$$$$$$$$########                                            ",
"                                        ####$$$$$$$$####$$$$$$$$####$$$$$$$$########                                            ",
"                                    ####$$$$$$$$####@@@@####$$$$############$$$$####                                            ",
"                                    ####$$$$$$$$####@@@@####$$$$############$$$$####                                            ",
"                                    ####$$$$$$$$####@@@@####$$$$############$$$$####                                            ",
"                                    ####$$$$$$$$####@@@@####$$$$############$$$$####                                            ",
"                                    @@@@$$$$####@@@@****@@@@####@@@@****@@@@####@@@@                                            ",
"                                    @@@@$$$$####@@@@****@@@@####@@@@****@@@@####@@@@                                            ",
"                                    @@@@$$$$####@@@@****@@@@####@@@@****@@@@####@@@@                                            ",
"                                    @@@@$$$$####@@@@****@@@@####@@@@****@@@@####@@@@                                            ",
"                                    @@@@####@@@@****====****@@@@****====****@@@@@@@@                                            ",
"                                    @@@@####@@@@****====****@@@@****====****@@@@@@@@                                            ",
"                                    @@@@####@@@@****====****@@@@****====****@@@@@@@@                                            ",
"                                    @@@@####@@@@****====****@@@@****====****@@@@@@@@                                            ",
"                                        @@@@****============****============@@@@                                                ",
"                                        @@@@****============****============@@@@                                                ",
"                                        @@@@****============****============@@@@                                                ",
"                                        @@@@****============****============@@@@                                                ",
"                                        ****================================****                                                ",
"                                        ****================================****                                                ",
"                                        ****================================****                                                ",
"                                        ****================================****                                                ",
"                                    ********====........========........====********                                            ",
"                                    ********====........========........====********                                            ",
"                                    ********====........========........====********                                            ",
"                                    ********====........========........====********                                            ",
"                                        ****%%%%&&&&================&&&&%%%%****                                                ",
"                                        ****%%%%&&&&================&&&&%%%%****                                                ",
"                                        ****%%%%&&&&================&&&&%%%%****                                                ",
"                                        ****%%%%&&&&================&&&&%%%%****                                                ",
"                                                ********========********                                                        ",
"                                                ********========********                                                        ",
"                                                ********========********                                                        ",
"                                                ********========********                                                        ",
"                                                        ********                                                                ",
"                                                        ********                                                                ",
"                                                        ********                                                                ",
"                                                        ********                                                                ",
"                                                ------------------------                                                        ",
"                                                ------------------------                                                        ",
"                                                ------------------------                                                        ",
"                                                ------------------------                                                        ",
"                                            --------;;;;;;;;XXXX;;;;--------                                                    ",
"                                            --------;;;;;;;;XXXX;;;;--------                                                    ",
"                                            --------;;;;;;;;XXXX;;;;--------                                                    ",
"                                            --------;;;;;;;;XXXX;;;;--------                                                    ",
"                                            ----;;;;;;;;;;;;----;;;;;;;;====****                                                ",
"                                            ----;;;;;;;;;;;;----;;;;;;;;====****                                                ",
"                                            ----;;;;;;;;;;;;----;;;;;;;;====****                                                ",
"                                            ----;;;;;;;;;;;;----;;;;;;;;====****                                                ",
"                                        ----;;;;----;;;;;;;;XXXX;;;;****========****                                            ",
"                                        ----;;;;----;;;;;;;;XXXX;;;;****========****                                            ",
"                                        ----;;;;----;;;;;;;;XXXX;;;;****========****                                            ",
"                                        ----;;;;----;;;;;;;;XXXX;;;;****========****                                            ",
"                                        ----;;;;----;;;;--------;;;;----************                                            ",
"                                        ----;;;;----;;;;--------;;;;----************                                            ",
"                                        ----;;;;----;;;;--------;;;;----************                                            ",
"                                        ----;;;;----;;;;--------;;;;----************                                            ",
"                                        ****====OOOOOOOOOOOOOOOOOOOOOOOO                                                        ",
"                                        ****====OOOOOOOOOOOOOOOOOOOOOOOO                                                        ",
"                                        ****====OOOOOOOOOOOOOOOOOOOOOOOO                                                        ",
"                                        ****====OOOOOOOOOOOOOOOOOOOOOOOO                                                        ",
"                                    ****========XXXXXXXXXXXXXXXXXXXXXXXX                                                        ",
"                                    ****========XXXXXXXXXXXXXXXXXXXXXXXX                                                        ",
"                                    ****========XXXXXXXXXXXXXXXXXXXXXXXX                                                        ",
"                                    ****========XXXXXXXXXXXXXXXXXXXXXXXX                                                        ",
"                                    ****====OOOOOOOO++++OOOOOOOO++++OOOOOOOO                                                    ",
"                                    ****====OOOOOOOO++++OOOOOOOO++++OOOOOOOO                                                    ",
"                                    ****====OOOOOOOO++++OOOOOOOO++++OOOOOOOO                                                    ",
"                                    ****====OOOOOOOO++++OOOOOOOO++++OOOOOOOO                                                    ",
"                                    ********OOOO++++++++OOOOOOOO++++++++OOOO                                                    ",
"                                    ********OOOO++++++++OOOOOOOO++++++++OOOO                                                    ",
"                                    ********OOOO++++++++OOOOOOOO++++++++OOOO                                                    ",
"                                    ********OOOO++++++++OOOOOOOO++++++++OOOO                                                    ",
"                                            OOOOooooooooOOOOOOOOooooooooOOOO                                                    ",
"                                            OOOOooooooooOOOOOOOOooooooooOOOO                                                    ",
"                                            OOOOooooooooOOOOOOOOooooooooOOOO                                                    ",
"                                            OOOOooooooooOOOOOOOOooooooooOOOO                                                    ",
"                                            OOOOOOOOOOOO        OOOOOOOOOOOO                                                    ",
"                                            OOOOOOOOOOOO        OOOOOOOOOOOO                                                    ",
"                                            OOOOOOOOOOOO        OOOOOOOOOOOO                                                    ",
"                                            OOOOOOOOOOOO        OOOOOOOOOOOO                                                    ",
"                                                XXXXXXXX        XXXXXXXX                                                        ",
"                                                XXXXXXXX        XXXXXXXX                                                        ",
"                                                XXXXXXXX        XXXXXXXX                                                        ",
"                                                XXXXXXXX        XXXXXXXX                                                        ",
"                                                XXXXXXXX        XXXXXXXX                                                        ",
"                                                XXXXXXXX        XXXXXXXX                                                        ",
"                                                XXXXXXXX        XXXXXXXX                                                        ",
"                                                XXXXXXXX        XXXXXXXX                                                        "
};
