/* XPM */
static char *_cd1af4e5e494b39b4a62c6a21af48deHj4cpzwtkcu3qjnF[] = {
/* columns rows colors chars-per-pixel */
"32 32 9 1 ",
"  c #163C2B",
". c #562B03",
"X c #755338",
"o c #296640",
"O c #E4603F",
"+ c #509B66",
"@ c #FF9900",
"# c #FF921E",
"$ c #FFDFAE",
/* pixels */
"++++++++++++++++++++++++++++++++",
"++++++++++++++++++++++++++++++++",
"++++++++++++++++++++++++++++++++",
"++++++++++++++++++++++++++++++++",
"++++++++++++++++++++++++++++++++",
"++++++++++++++++++++++++++++++++",
"++++++++++++++++++++++++++++++++",
"+++++++++++++++o++++++++++++++++",
"++++++++++o +oo ++oo++++++++++++",
"++++++++++oo .......o+++++++++++",
"+++++++++o  .O@O@@OO.o++++++++++",
"++++++++o X.@@@@@@@@@.++++++++++",
"++++++++o .O@..@@@..@O.+++++++++",
"++++++++ X.@@.$.O.$.@@.+++++++++",
"++++++++ .O@@.@...$.@@O.++++++++",
"++++++++o.@@O.O@@O@.O@@.++++++++",
"++++++++o.@@O.@@@@@OOO@.++++++++",
"++++++++ .@..OO@OO@@@.@.++++++++",
"+++++++++.@O...@..@O..O.++++++++",
"++++++++o ...##.@@@@O..+++++++++",
"++++++++o .OO.#O@@@O..o+++++++++",
"+++++++++o .@O...... o++++++++++",
"++++++++++o .@$@$. oo+++++++++++",
"+++++++++++o+....oo+++++++++++++",
"++++++++++++++++++++++++++++++++",
"++++++++++++++++++++++++++++++++",
"++++++++++++++++++++++++++++++++",
"++++++++++++++++++++++++++++++++",
"++++++++++++++++++++++++++++++++",
"++++++++++++++++++++++++++++++++",
"++++++++++++++++++++++++++++++++",
"++++++++++++++++++++++++++++++++"
};
