/* XPM */
static char *_e1d0db5249145a9c0744677d25c686fIKnatCNhSLIaNblE[] = {
/* columns rows colors chars-per-pixel */
"128 128 9 1 ",
"  c None",
". c #524036",
"X c #9C5B26",
"o c #BB8049",
"O c #C7925E",
"+ c #D4A369",
"@ c #F19393",
"# c #E5D4C3",
"$ c #F0EBE6",
/* pixels */
"                                                                                                                                ",
"                                                                                                                                ",
"                                                                                                                                ",
"                                                                                                                                ",
"                                                                                                                                ",
"                                                                                                                                ",
"                                                                                                                                ",
"                                                                                                                                ",
"                                                                                                                                ",
"                                                                                                                                ",
"                                                                                                                                ",
"                                                                                                                                ",
"                                                                                                                                ",
"                                                                                                                                ",
"                                                                                                                                ",
"                                                                                                                                ",
"                                                                                                                                ",
"                                                                                                                                ",
"                                                                                                                                ",
"                                                                                                                                ",
"                                                                                                                                ",
"                                                                                                                                ",
"                                                                                                                                ",
"                                                                                                                                ",
"                                                                                                                                ",
"                                                                                                                                ",
"                                                                                                                                ",
"                                                                                                                                ",
"                                                                                                                                ",
"                                                                                                                                ",
"                                                                                                                                ",
"                                                                                                                                ",
"                                                                                                                                ",
"                                                                                                                                ",
"                                                                                                                                ",
"                                                                                                                                ",
"                                                                                                                                ",
"                                                                                                                                ",
"                                                                                                                                ",
"                                                                                                                                ",
"                        ....                    ....                                                                            ",
"                        ....                    ....                                                                            ",
"                        ....                    ....                                                                            ",
"                        ....                    ....                                                                            ",
"                    ....oooo....            ....++++....                                                                        ",
"                    ....oooo....            ....++++....                                                                        ",
"                    ....oooo....            ....++++....                                                                        ",
"                    ....oooo....            ....++++....                                                                        ",
"                    ....ooooOOOO............++++####OOOO....                    ................                                ",
"                    ....ooooOOOO............++++####OOOO....                    ................                                ",
"                    ....ooooOOOO............++++####OOOO....                    ................                                ",
"                    ....ooooOOOO............++++####OOOO....                    ................                                ",
"                    ........OOOOOOOOOOOOOOOOOOOO++++OOOO....                ....++++########$$$$....                            ",
"                    ........OOOOOOOOOOOOOOOOOOOO++++OOOO....                ....++++########$$$$....                            ",
"                    ........OOOOOOOOOOOOOOOOOOOO++++OOOO....                ....++++########$$$$....                            ",
"                    ........OOOOOOOOOOOOOOOOOOOO++++OOOO....                ....++++########$$$$....                            ",
"                    ....####OOOO++++OOOO####OOOOOOOOoooo....            ....++++OOOOoooooooo++++$$$$....                        ",
"                    ....####OOOO++++OOOO####OOOOOOOOoooo....            ....++++OOOOoooooooo++++$$$$....                        ",
"                    ....####OOOO++++OOOO####OOOOOOOOoooo....            ....++++OOOOoooooooo++++$$$$....                        ",
"                    ....####OOOO++++OOOO####OOOOOOOOoooo....            ....++++OOOOoooooooo++++$$$$....                        ",
"                ....XXXX....OOOO++++OOOO....XXXXOOOOOOOOXXXX................................XXXXOOOO####....                    ",
"                ....XXXX....OOOO++++OOOO....XXXXOOOOOOOOXXXX................................XXXXOOOO####....                    ",
"                ....XXXX....OOOO++++OOOO....XXXXOOOOOOOOXXXX................................XXXXOOOO####....                    ",
"                ....XXXX....OOOO++++OOOO....XXXXOOOOOOOOXXXX................................XXXXOOOO####....                    ",
"                ....OOOO++++++++++++++++++++####++++OOOOoooo....ooooooooOOOOOOOOOOOOooooXXXX....XXXX####....                    ",
"                ....OOOO++++++++++++++++++++####++++OOOOoooo....ooooooooOOOOOOOOOOOOooooXXXX....XXXX####....                    ",
"                ....OOOO++++++++++++++++++++####++++OOOOoooo....ooooooooOOOOOOOOOOOOooooXXXX....XXXX####....                    ",
"                ....OOOO++++++++++++++++++++####++++OOOOoooo....ooooooooOOOOOOOOOOOOooooXXXX....XXXX####....                    ",
"                ....####....++++++++########$$$$####OOOOooooXXXXOOOO++++++++++++OOOOOOOOOOOOXXXXoooo++++....                    ",
"                ....####....++++++++########$$$$####OOOOooooXXXXOOOO++++++++++++OOOOOOOOOOOOXXXXoooo++++....                    ",
"                ....####....++++++++########$$$$####OOOOooooXXXXOOOO++++++++++++OOOOOOOOOOOOXXXXoooo++++....                    ",
"                ....####....++++++++########$$$$####OOOOooooXXXXOOOO++++++++++++OOOOOOOOOOOOXXXXoooo++++....                    ",
"                ....####XXXX++++####XXXX++++$$$$$$$$####ooooOOOO++++++++++++++++++++++++OOOOoooo....OOOO....                    ",
"                ....####XXXX++++####XXXX++++$$$$$$$$####ooooOOOO++++++++++++++++++++++++OOOOoooo....OOOO....                    ",
"                ....####XXXX++++####XXXX++++$$$$$$$$####ooooOOOO++++++++++++++++++++++++OOOOoooo....OOOO....                    ",
"                ....####XXXX++++####XXXX++++$$$$$$$$####ooooOOOO++++++++++++++++++++++++OOOOoooo....OOOO....                    ",
"                ....++++............########$$$$$$$$####OOOO++++++++++++++++++++++++++++++++++++........                        ",
"                ....++++............########$$$$$$$$####OOOO++++++++++++++++++++++++++++++++++++........                        ",
"                ....++++............########$$$$$$$$####OOOO++++++++++++++++++++++++++++++++++++........                        ",
"                ....++++............########$$$$$$$$####OOOO++++++++++++++++++++++++++++++++++++........                        ",
"                    ....####@@@@####$$$$$$$$$$$$####OOOO++++++++++++++++++++++++++++++++++++++++....                            ",
"                    ....####@@@@####$$$$$$$$$$$$####OOOO++++++++++++++++++++++++++++++++++++++++....                            ",
"                    ....####@@@@####$$$$$$$$$$$$####OOOO++++++++++++++++++++++++++++++++++++++++....                            ",
"                    ....####@@@@####$$$$$$$$$$$$####OOOO++++++++++++++++++++++++++++++++++++++++....                            ",
"                        ....$$$$$$$$$$$$$$$$####OOOO++++++++++++++++OOOOOOOOOOOO++++++++++++OOOO....                            ",
"                        ....$$$$$$$$$$$$$$$$####OOOO++++++++++++++++OOOOOOOOOOOO++++++++++++OOOO....                            ",
"                        ....$$$$$$$$$$$$$$$$####OOOO++++++++++++++++OOOOOOOOOOOO++++++++++++OOOO....                            ",
"                        ....$$$$$$$$$$$$$$$$####OOOO++++++++++++++++OOOOOOOOOOOO++++++++++++OOOO....                            ",
"                            ........$$$$####++++++++++++++++OOOOOOOO########OOOO++++++++++++oooo....                            ",
"                            ........$$$$####++++++++++++++++OOOOOOOO########OOOO++++++++++++oooo....                            ",
"                            ........$$$$####++++++++++++++++OOOOOOOO########OOOO++++++++++++oooo....                            ",
"                            ........$$$$####++++++++++++++++OOOOOOOO########OOOO++++++++++++oooo....                            ",
"                                ........++++++++++++++++OOOOOOOO............####OOOO++++++++........                            ",
"                                ........++++++++++++++++OOOOOOOO............####OOOO++++++++........                            ",
"                                ........++++++++++++++++OOOOOOOO............####OOOO++++++++........                            ",
"                                ........++++++++++++++++OOOOOOOO............####OOOO++++++++........                            ",
"                                ....XXXX....++++++++++++OOOO....    ............OOOO++++++++....                                ",
"                                ....XXXX....++++++++++++OOOO....    ............OOOO++++++++....                                ",
"                                ....XXXX....++++++++++++OOOO....    ............OOOO++++++++....                                ",
"                                ....XXXX....++++++++++++OOOO....    ............OOOO++++++++....                                ",
"                                ....XXXXXXXX....++++OOOO....        ....XXXX........++++++++....                                ",
"                                ....XXXXXXXX....++++OOOO....        ....XXXX........++++++++....                                ",
"                                ....XXXXXXXX....++++OOOO....        ....XXXX........++++++++....                                ",
"                                ....XXXXXXXX....++++OOOO....        ....XXXX........++++++++....                                ",
"                                ....XXXX........OOOOOOOO....        ....XXXX........++++OOOO....                                ",
"                                ....XXXX........OOOOOOOO....        ....XXXX........++++OOOO....                                ",
"                                ....XXXX........OOOOOOOO....        ....XXXX........++++OOOO....                                ",
"                                ....XXXX........OOOOOOOO....        ....XXXX........++++OOOO....                                ",
"                                ....OOOO........XXXXOOOO....        ....OOOO........XXXXOOOO....                                ",
"                                ....OOOO........XXXXOOOO....        ....OOOO........XXXXOOOO....                                ",
"                                ....OOOO........XXXXOOOO....        ....OOOO........XXXXOOOO....                                ",
"                                ....OOOO........XXXXOOOO....        ....OOOO........XXXXOOOO....                                ",
"                                ........    ....$$$$####....        ........    ....$$$$####....                                ",
"                                ........    ....$$$$####....        ........    ....$$$$####....                                ",
"                                ........    ....$$$$####....        ........    ....$$$$####....                                ",
"                                ........    ....$$$$####....        ........    ....$$$$####....                                ",
"                                            ............                        ............                                    ",
"                                            ............                        ............                                    ",
"                                            ............                        ............                                    ",
"                                            ............                        ............                                    ",
"                                                                                                                                ",
"                                                                                                                                ",
"                                                                                                                                ",
"                                                                                                                                ",
"                                                                                                                                ",
"                                                                                                                                ",
"                                                                                                                                ",
"                                                                                                                                "
};
