/* XPM */
static char *cat_left1713722405[] = {
/* columns rows colors chars-per-pixel */
"128 128 6 1 ",
"  c None",
". c #562B03",
"X c #683404",
"o c #E4603F",
"O c #FF9900",
"+ c #FFDFAE",
/* pixels */
"                                                                                                                                ",
"                                                                                                                                ",
"                                                                                                                                ",
"                                                                                                                                ",
"                                                                                                                                ",
"                                                                                                                                ",
"                                                                                                                                ",
"                                                                                                                                ",
"                                                                                                                                ",
"                                                                                                                                ",
"                                                                                                                                ",
"                                                                                                                                ",
"                                                                                                                                ",
"                                                                                                                                ",
"                                                                                                                                ",
"                                                                                                                                ",
"                                                                                                                                ",
"                                                                                                                                ",
"                                                                                                                                ",
"                                                                                                                                ",
"                                                                                                                                ",
"                                                                                                                                ",
"                                                                                                                                ",
"                                                                                                                                ",
"                                                                                                                                ",
"                                                                                                                                ",
"                                                                                                                                ",
"                                                                                                                                ",
"                                                                                    ........                                    ",
"                                                                                    ........                                    ",
"                                                                                    ........                                    ",
"                                                                                    ........                                    ",
"                                    ........                                    ....OOOO++++....                                ",
"                                    ........                                    ....OOOO++++....                                ",
"                                    ........                                    ....OOOO++++....                                ",
"                                    ........                                    ....OOOO++++....                                ",
"                                    ....++++....        ........                ........ooooOOOO....                            ",
"                                    ....++++....        ........                ........ooooOOOO....                            ",
"                                    ....++++....        ........                ........ooooOOOO....                            ",
"                                    ....++++....        ........                ........ooooOOOO....                            ",
"                                    ....OOOO....    ....++++....                        ....++++....                            ",
"                                    ....OOOO....    ....++++....                        ....++++....                            ",
"                                    ....OOOO....    ....++++....                        ....++++....                            ",
"                                    ....OOOO....    ....++++....                        ....++++....                            ",
"                                    ....oooooooo........++++....                        ....OOOO....                            ",
"                                    ....oooooooo........++++....                        ....OOOO....                            ",
"                                    ....oooooooo........++++....                        ....OOOO....                            ",
"                                    ....oooooooo........++++....                        ....OOOO....                            ",
"                                ....OOOOOOOOOOOOOOOOooooOOOO....                        ....++++....                            ",
"                                ....OOOOOOOOOOOOOOOOooooOOOO....                        ....++++....                            ",
"                                ....OOOOOOOOOOOOOOOOooooOOOO....                        ....++++....                            ",
"                                ....OOOOOOOOOOOOOOOOooooOOOO....                        ....++++....                            ",
"                            ....OOOOooooOOOOooooOOOOOOOOoooo....                    ....ooooOOOO....                            ",
"                            ....OOOOooooOOOOooooOOOOOOOOoooo....                    ....ooooOOOO....                            ",
"                            ....OOOOooooOOOOooooOOOOOOOOoooo....                    ....ooooOOOO....                            ",
"                            ....OOOOooooOOOOooooOOOOOOOOoooo....                    ....ooooOOOO....                            ",
"                            ....OOOOXXXXOOOOXXXXOOOOOOOOOOOOoooo....................ooooOOOOoooo....                            ",
"                            ....OOOOXXXXOOOOXXXXOOOOOOOOOOOOoooo....................ooooOOOOoooo....                            ",
"                            ....OOOOXXXXOOOOXXXXOOOOOOOOOOOOoooo....................ooooOOOOoooo....                            ",
"                            ....OOOOXXXXOOOOXXXXOOOOOOOOOOOOoooo....................ooooOOOOoooo....                            ",
"                            ....ooooXXXXOOOOXXXXooooOOOOOOOOOOOO....OOOOooooOOOOooooOOOOOOOO....                                ",
"                            ....ooooXXXXOOOOXXXXooooOOOOOOOOOOOO....OOOOooooOOOOooooOOOOOOOO....                                ",
"                            ....ooooXXXXOOOOXXXXooooOOOOOOOOOOOO....OOOOooooOOOOooooOOOOOOOO....                                ",
"                            ....ooooXXXXOOOOXXXXooooOOOOOOOOOOOO....OOOOooooOOOOooooOOOOOOOO....                                ",
"                            ....OOOO++++oooo++++OOOOOOOOOOOOoooo....OOOOooooOOOOooooOOOOoooo....                                ",
"                            ....OOOO++++oooo++++OOOOOOOOOOOOoooo....OOOOooooOOOOooooOOOOoooo....                                ",
"                            ....OOOO++++oooo++++OOOOOOOOOOOOoooo....OOOOooooOOOOooooOOOOoooo....                                ",
"                            ....OOOO++++oooo++++OOOOOOOOOOOOoooo....OOOOooooOOOOooooOOOOoooo....                                ",
"                                ....++++++++++++++++OOOOoooo....ooooOOOOOOOOOOOOOOOOOOOO....                                    ",
"                                ....++++++++++++++++OOOOoooo....ooooOOOOOOOOOOOOOOOOOOOO....                                    ",
"                                ....++++++++++++++++OOOOoooo....ooooOOOOOOOOOOOOOOOOOOOO....                                    ",
"                                ....++++++++++++++++OOOOoooo....ooooOOOOOOOOOOOOOOOOOOOO....                                    ",
"                                    ................ooooOOOOOOOOOOOOOOOOOOOOOOOOooooOOOO....                                    ",
"                                    ................ooooOOOOOOOOOOOOOOOOOOOOOOOOooooOOOO....                                    ",
"                                    ................ooooOOOOOOOOOOOOOOOOOOOOOOOOooooOOOO....                                    ",
"                                    ................ooooOOOOOOOOOOOOOOOOOOOOOOOOooooOOOO....                                    ",
"                                                ........OOOOOOOOOOOOooooooooooooooooOOOO....                                    ",
"                                                ........OOOOOOOOOOOOooooooooooooooooOOOO....                                    ",
"                                                ........OOOOOOOOOOOOooooooooooooooooOOOO....                                    ",
"                                                ........OOOOOOOOOOOOooooooooooooooooOOOO....                                    ",
"                                                ....oooo....OOOOoooo................++++....                                    ",
"                                                ....oooo....OOOOoooo................++++....                                    ",
"                                                ....oooo....OOOOoooo................++++....                                    ",
"                                                ....oooo....OOOOoooo................++++....                                    ",
"                                                ....++++....OOOO....    ....oooo....++++....                                    ",
"                                                ....++++....OOOO....    ....oooo....++++....                                    ",
"                                                ....++++....OOOO....    ....oooo....++++....                                    ",
"                                                ....++++....OOOO....    ....oooo....++++....                                    ",
"                                                    ........++++....    ........++++OOOO....                                    ",
"                                                    ........++++....    ........++++OOOO....                                    ",
"                                                    ........++++....    ........++++OOOO....                                    ",
"                                                    ........++++....    ........++++OOOO....                                    ",
"                                                        ........            ............                                        ",
"                                                        ........            ............                                        ",
"                                                        ........            ............                                        ",
"                                                        ........            ............                                        ",
"                                                                                                                                ",
"                                                                                                                                ",
"                                                                                                                                ",
"                                                                                                                                ",
"                                                                                                                                ",
"                                                                                                                                ",
"                                                                                                                                ",
"                                                                                                                                ",
"                                                                                                                                ",
"                                                                                                                                ",
"                                                                                                                                ",
"                                                                                                                                ",
"                                                                                                                                ",
"                                                                                                                                ",
"                                                                                                                                ",
"                                                                                                                                ",
"                                                                                                                                ",
"                                                                                                                                ",
"                                                                                                                                ",
"                                                                                                                                ",
"                                                                                                                                ",
"                                                                                                                                ",
"                                                                                                                                ",
"                                                                                                                                ",
"                                                                                                                                ",
"                                                                                                                                ",
"                                                                                                                                ",
"                                                                                                                                ",
"                                                                                                                                ",
"                                                                                                                                ",
"                                                                                                                                ",
"                                                                                                                                "
};
