/* XPM */
static char *cat_sleep1713722510[] = {
/* columns rows colors chars-per-pixel */
"128 128 6 1 ",
"  c None",
". c #562B03",
"X c #E4603F",
"o c #FF9900",
"O c #FF921E",
"+ c #FFDFAE",
/* pixels */
"                                                                                                                                ",
"                                                                                                                                ",
"                                                                                                                                ",
"                                                                                                                                ",
"                                                                                                                                ",
"                                                                                                                                ",
"                                                                                                                                ",
"                                                                                                                                ",
"                                                                                                                                ",
"                                                                                                                                ",
"                                                                                                                                ",
"                                                                                                                                ",
"                                                                                                                                ",
"                                                                                                                                ",
"                                                                                                                                ",
"                                                                                                                                ",
"                                                                                                                                ",
"                                                                                                                                ",
"                                                                                                                                ",
"                                                                                                                                ",
"                                                                                                                                ",
"                                                                                                                                ",
"                                                                                                                                ",
"                                                                                                                                ",
"                                                                                                                                ",
"                                                                                                                                ",
"                                                                                                                                ",
"                                                                                                                                ",
"                                                                                                                                ",
"                                                                                                                                ",
"                                                                                                                                ",
"                                                                                                                                ",
"                                                                                                                                ",
"                                                                                                                                ",
"                                                                                                                                ",
"                                                                                                                                ",
"                                                    ............................                                                ",
"                                                    ............................                                                ",
"                                                    ............................                                                ",
"                                                    ............................                                                ",
"                                                ....XXXXooooXXXXooooooooXXXXXXXX....                                            ",
"                                                ....XXXXooooXXXXooooooooXXXXXXXX....                                            ",
"                                                ....XXXXooooXXXXooooooooXXXXXXXX....                                            ",
"                                                ....XXXXooooXXXXooooooooXXXXXXXX....                                            ",
"                                            ....oooooooooooooooooooooooooooooooooooo....                                        ",
"                                            ....oooooooooooooooooooooooooooooooooooo....                                        ",
"                                            ....oooooooooooooooooooooooooooooooooooo....                                        ",
"                                            ....oooooooooooooooooooooooooooooooooooo....                                        ",
"                                        ....XXXXoooo........oooooooooooo........ooooXXXX....                                    ",
"                                        ....XXXXoooo........oooooooooooo........ooooXXXX....                                    ",
"                                        ....XXXXoooo........oooooooooooo........ooooXXXX....                                    ",
"                                        ....XXXXoooo........oooooooooooo........ooooXXXX....                                    ",
"                                        ....oooooooo....++++....XXXX....++++....oooooooo....                                    ",
"                                        ....oooooooo....++++....XXXX....++++....oooooooo....                                    ",
"                                        ....oooooooo....++++....XXXX....++++....oooooooo....                                    ",
"                                        ....oooooooo....++++....XXXX....++++....oooooooo....                                    ",
"                                    ....XXXXoooooooo....oooo............++++....ooooooooXXXX....                                ",
"                                    ....XXXXoooooooo....oooo............++++....ooooooooXXXX....                                ",
"                                    ....XXXXoooooooo....oooo............++++....ooooooooXXXX....                                ",
"                                    ....XXXXoooooooo....oooo............++++....ooooooooXXXX....                                ",
"                                    ....ooooooooXXXX....XXXXooooooooXXXXoooo....XXXXoooooooo....                                ",
"                                    ....ooooooooXXXX....XXXXooooooooXXXXoooo....XXXXoooooooo....                                ",
"                                    ....ooooooooXXXX....XXXXooooooooXXXXoooo....XXXXoooooooo....                                ",
"                                    ....ooooooooXXXX....XXXXooooooooXXXXoooo....XXXXoooooooo....                                ",
"                                    ....ooooooooXXXX....ooooooooooooooooooooXXXXXXXXXXXXoooo....                                ",
"                                    ....ooooooooXXXX....ooooooooooooooooooooXXXXXXXXXXXXoooo....                                ",
"                                    ....ooooooooXXXX....ooooooooooooooooooooXXXXXXXXXXXXoooo....                                ",
"                                    ....ooooooooXXXX....ooooooooooooooooooooXXXXXXXXXXXXoooo....                                ",
"                                    ....oooo........XXXXXXXXooooXXXXXXXXoooooooooooo....oooo....                                ",
"                                    ....oooo........XXXXXXXXooooXXXXXXXXoooooooooooo....oooo....                                ",
"                                    ....oooo........XXXXXXXXooooXXXXXXXXoooooooooooo....oooo....                                ",
"                                    ....oooo........XXXXXXXXooooXXXXXXXXoooooooooooo....oooo....                                ",
"                                    ....ooooXXXX............oooo........ooooXXXX........XXXX....                                ",
"                                    ....ooooXXXX............oooo........ooooXXXX........XXXX....                                ",
"                                    ....ooooXXXX............oooo........ooooXXXX........XXXX....                                ",
"                                    ....ooooXXXX............oooo........ooooXXXX........XXXX....                                ",
"                                        ............OOOOOOOO....ooooooooooooooooXXXX........                                    ",
"                                        ............OOOOOOOO....ooooooooooooooooXXXX........                                    ",
"                                        ............OOOOOOOO....ooooooooooooooooXXXX........                                    ",
"                                        ............OOOOOOOO....ooooooooooooooooXXXX........                                    ",
"                                        ....XXXXXXXX....OOOOXXXXooooooooooooXXXX........                                        ",
"                                        ....XXXXXXXX....OOOOXXXXooooooooooooXXXX........                                        ",
"                                        ....XXXXXXXX....OOOOXXXXooooooooooooXXXX........                                        ",
"                                        ....XXXXXXXX....OOOOXXXXooooooooooooXXXX........                                        ",
"                                            ....ooooXXXX........................                                                ",
"                                            ....ooooXXXX........................                                                ",
"                                            ....ooooXXXX........................                                                ",
"                                            ....ooooXXXX........................                                                ",
"                                                ....oooo++++oooo++++....                                                        ",
"                                                ....oooo++++oooo++++....                                                        ",
"                                                ....oooo++++oooo++++....                                                        ",
"                                                ....oooo++++oooo++++....                                                        ",
"                                                    ................                                                            ",
"                                                    ................                                                            ",
"                                                    ................                                                            ",
"                                                    ................                                                            ",
"                                                                                                                                ",
"                                                                                                                                ",
"                                                                                                                                ",
"                                                                                                                                ",
"                                                                                                                                ",
"                                                                                                                                ",
"                                                                                                                                ",
"                                                                                                                                ",
"                                                                                                                                ",
"                                                                                                                                ",
"                                                                                                                                ",
"                                                                                                                                ",
"                                                                                                                                ",
"                                                                                                                                ",
"                                                                                                                                ",
"                                                                                                                                ",
"                                                                                                                                ",
"                                                                                                                                ",
"                                                                                                                                ",
"                                                                                                                                ",
"                                                                                                                                ",
"                                                                                                                                ",
"                                                                                                                                ",
"                                                                                                                                ",
"                                                                                                                                ",
"                                                                                                                                ",
"                                                                                                                                ",
"                                                                                                                                ",
"                                                                                                                                ",
"                                                                                                                                ",
"                                                                                                                                ",
"                                                                                                                                "
};
