/* XPM */
static char *cat_heart_11713722403[] = {
/* columns rows colors chars-per-pixel */
"128 128 10 1 ",
"  c None",
". c #562B03",
"X c #9A0000",
"o c #FE0000",
"O c #E4603F",
"+ c #FE4A4B",
"@ c #FF9900",
"# c #FF921E",
"$ c #FF9796",
"% c #FFDFAE",
/* pixels */
"                                                                                                                                ",
"                                                                                                                                ",
"                                                                                                                                ",
"                                                                                                                                ",
"                                                                                                                                ",
"                                                                                                                                ",
"                                                                                                                                ",
"                                                                                                                                ",
"                                                                                                    XXXXXXXX    XXXXXXXX        ",
"                                                                                                    XXXXXXXX    XXXXXXXX        ",
"                                                                                                    XXXXXXXX    XXXXXXXX        ",
"                                                                                                    XXXXXXXX    XXXXXXXX        ",
"                                                                                                XXXX$$$$++++XXXX$$$$++++XXXX    ",
"                                                                                                XXXX$$$$++++XXXX$$$$++++XXXX    ",
"                                                                                                XXXX$$$$++++XXXX$$$$++++XXXX    ",
"                                                                                                XXXX$$$$++++XXXX$$$$++++XXXX    ",
"                                                                                                XXXXoooo++++$$$$++++ooooXXXX    ",
"                                                                                                XXXXoooo++++$$$$++++ooooXXXX    ",
"                                                                                                XXXXoooo++++$$$$++++ooooXXXX    ",
"                                                                                                XXXXoooo++++$$$$++++ooooXXXX    ",
"                                                                                                    XXXXoooo++++ooooXXXX        ",
"                                                                                                    XXXXoooo++++ooooXXXX        ",
"                                                                                                    XXXXoooo++++ooooXXXX        ",
"                                                                                                    XXXXoooo++++ooooXXXX        ",
"                                                                                                        XXXXooooXXXX            ",
"                                                                                                        XXXXooooXXXX            ",
"                                                                                                        XXXXooooXXXX            ",
"                                                                                                        XXXXooooXXXX            ",
"                                                                                                            XXXX                ",
"                                                                                                            XXXX                ",
"                                                                                                            XXXX                ",
"                                                                                                            XXXX                ",
"                                                                                                                                ",
"                                                                                                                                ",
"                                                                                                                                ",
"                                                                                                                                ",
"                                                    ............................                                                ",
"                                                    ............................                                                ",
"                                                    ............................                                                ",
"                                                    ............................                                                ",
"                                                ....OOOO@@@@OOOO@@@@@@@@OOOOOOOO....                                            ",
"                                                ....OOOO@@@@OOOO@@@@@@@@OOOOOOOO....                                            ",
"                                                ....OOOO@@@@OOOO@@@@@@@@OOOOOOOO....                                            ",
"                                                ....OOOO@@@@OOOO@@@@@@@@OOOOOOOO....                                            ",
"                                            ....@@@@@@@@@@@@@@@@@@@@@@@@@@@@@@@@@@@@....                                        ",
"                                            ....@@@@@@@@@@@@@@@@@@@@@@@@@@@@@@@@@@@@....                                        ",
"                                            ....@@@@@@@@@@@@@@@@@@@@@@@@@@@@@@@@@@@@....                                        ",
"                                            ....@@@@@@@@@@@@@@@@@@@@@@@@@@@@@@@@@@@@....                                        ",
"                                        ....OOOO@@@@........@@@@@@@@@@@@........@@@@OOOO....                                    ",
"                                        ....OOOO@@@@........@@@@@@@@@@@@........@@@@OOOO....                                    ",
"                                        ....OOOO@@@@........@@@@@@@@@@@@........@@@@OOOO....                                    ",
"                                        ....OOOO@@@@........@@@@@@@@@@@@........@@@@OOOO....                                    ",
"                                        ....@@@@@@@@....%%%%....OOOO....%%%%....@@@@@@@@....                                    ",
"                                        ....@@@@@@@@....%%%%....OOOO....%%%%....@@@@@@@@....                                    ",
"                                        ....@@@@@@@@....%%%%....OOOO....%%%%....@@@@@@@@....                                    ",
"                                        ....@@@@@@@@....%%%%....OOOO....%%%%....@@@@@@@@....                                    ",
"                                    ....OOOO@@@@@@@@....@@@@............%%%%....@@@@@@@@OOOO....                                ",
"                                    ....OOOO@@@@@@@@....@@@@............%%%%....@@@@@@@@OOOO....                                ",
"                                    ....OOOO@@@@@@@@....@@@@............%%%%....@@@@@@@@OOOO....                                ",
"                                    ....OOOO@@@@@@@@....@@@@............%%%%....@@@@@@@@OOOO....                                ",
"                                    ....@@@@@@@@OOOO....OOOO@@@@@@@@OOOO@@@@....OOOO@@@@@@@@....                                ",
"                                    ....@@@@@@@@OOOO....OOOO@@@@@@@@OOOO@@@@....OOOO@@@@@@@@....                                ",
"                                    ....@@@@@@@@OOOO....OOOO@@@@@@@@OOOO@@@@....OOOO@@@@@@@@....                                ",
"                                    ....@@@@@@@@OOOO....OOOO@@@@@@@@OOOO@@@@....OOOO@@@@@@@@....                                ",
"                                    ....@@@@@@@@OOOO....@@@@@@@@@@@@@@@@@@@@OOOOOOOOOOOO@@@@....                                ",
"                                    ....@@@@@@@@OOOO....@@@@@@@@@@@@@@@@@@@@OOOOOOOOOOOO@@@@....                                ",
"                                    ....@@@@@@@@OOOO....@@@@@@@@@@@@@@@@@@@@OOOOOOOOOOOO@@@@....                                ",
"                                    ....@@@@@@@@OOOO....@@@@@@@@@@@@@@@@@@@@OOOOOOOOOOOO@@@@....                                ",
"                                    ....@@@@........OOOOOOOO@@@@OOOOOOOO@@@@@@@@@@@@....@@@@....                                ",
"                                    ....@@@@........OOOOOOOO@@@@OOOOOOOO@@@@@@@@@@@@....@@@@....                                ",
"                                    ....@@@@........OOOOOOOO@@@@OOOOOOOO@@@@@@@@@@@@....@@@@....                                ",
"                                    ....@@@@........OOOOOOOO@@@@OOOOOOOO@@@@@@@@@@@@....@@@@....                                ",
"                                    ....@@@@OOOO............@@@@........@@@@OOOO........OOOO....                                ",
"                                    ....@@@@OOOO............@@@@........@@@@OOOO........OOOO....                                ",
"                                    ....@@@@OOOO............@@@@........@@@@OOOO........OOOO....                                ",
"                                    ....@@@@OOOO............@@@@........@@@@OOOO........OOOO....                                ",
"                                        ............########....@@@@@@@@@@@@@@@@OOOO........                                    ",
"                                        ............########....@@@@@@@@@@@@@@@@OOOO........                                    ",
"                                        ............########....@@@@@@@@@@@@@@@@OOOO........                                    ",
"                                        ............########....@@@@@@@@@@@@@@@@OOOO........                                    ",
"                                        ....OOOOOOOO....####OOOO@@@@@@@@@@@@OOOO........                                        ",
"                                        ....OOOOOOOO....####OOOO@@@@@@@@@@@@OOOO........                                        ",
"                                        ....OOOOOOOO....####OOOO@@@@@@@@@@@@OOOO........                                        ",
"                                        ....OOOOOOOO....####OOOO@@@@@@@@@@@@OOOO........                                        ",
"                                            ....@@@@OOOO........................                                                ",
"                                            ....@@@@OOOO........................                                                ",
"                                            ....@@@@OOOO........................                                                ",
"                                            ....@@@@OOOO........................                                                ",
"                                                ....@@@@%%%%@@@@%%%%....                                                        ",
"                                                ....@@@@%%%%@@@@%%%%....                                                        ",
"                                                ....@@@@%%%%@@@@%%%%....                                                        ",
"                                                ....@@@@%%%%@@@@%%%%....                                                        ",
"                                                    ................                                                            ",
"                                                    ................                                                            ",
"                                                    ................                                                            ",
"                                                    ................                                                            ",
"                                                                                                                                ",
"                                                                                                                                ",
"                                                                                                                                ",
"                                                                                                                                ",
"                                                                                                                                ",
"                                                                                                                                ",
"                                                                                                                                ",
"                                                                                                                                ",
"                                                                                                                                ",
"                                                                                                                                ",
"                                                                                                                                ",
"                                                                                                                                ",
"                                                                                                                                ",
"                                                                                                                                ",
"                                                                                                                                ",
"                                                                                                                                ",
"                                                                                                                                ",
"                                                                                                                                ",
"                                                                                                                                ",
"                                                                                                                                ",
"                                                                                                                                ",
"                                                                                                                                ",
"                                                                                                                                ",
"                                                                                                                                ",
"                                                                                                                                ",
"                                                                                                                                ",
"                                                                                                                                ",
"                                                                                                                                ",
"                                                                                                                                ",
"                                                                                                                                ",
"                                                                                                                                ",
"                                                                                                                                "
};
