/* XPM */
static char *cat_up_11713722510[] = {
/* columns rows colors chars-per-pixel */
"128 128 5 1 ",
"  c None",
". c #562B03",
"X c #E4603F",
"o c #FF9900",
"O c #FFDFAE",
/* pixels */
"                                                                                                                                ",
"                                                                                                                                ",
"                                                                                                                                ",
"                                                                                                                                ",
"                                                                                                                                ",
"                                                                                                                                ",
"                                                                                                                                ",
"                                                                                                                                ",
"                                                                                                                                ",
"                                                                                                                                ",
"                                                                                                                                ",
"                                                                                                                                ",
"                                                                                                                                ",
"                                                                                                                                ",
"                                                                                                                                ",
"                                                                                                                                ",
"                                            ........                    ........                                                ",
"                                            ........                    ........                                                ",
"                                            ........                    ........                                                ",
"                                            ........                    ........                                                ",
"                                            ....OOOO....            ....OOOO....                                                ",
"                                            ....OOOO....            ....OOOO....                                                ",
"                                            ....OOOO....            ....OOOO....                                                ",
"                                            ....OOOO....            ....OOOO....                                                ",
"                                            ....OOOOXXXX............XXXXOOOO....                                                ",
"                                            ....OOOOXXXX............XXXXOOOO....                                                ",
"                                            ....OOOOXXXX............XXXXOOOO....                                                ",
"                                            ....OOOOXXXX............XXXXOOOO....                                                ",
"                                            ....ooooXXXXooooooooooooXXXXoooo....                                                ",
"                                            ....ooooXXXXooooooooooooXXXXoooo....                                                ",
"                                            ....ooooXXXXooooooooooooXXXXoooo....                                                ",
"                                            ....ooooXXXXooooooooooooXXXXoooo....                                                ",
"                                    ........XXXXooooooooooooooooooooooooooooXXXX........                                        ",
"                                    ........XXXXooooooooooooooooooooooooooooXXXX........                                        ",
"                                    ........XXXXooooooooooooooooooooooooooooXXXX........                                        ",
"                                    ........XXXXooooooooooooooooooooooooooooXXXX........                                        ",
"                                        ....oooooooooooooooooooooooooooooooooooo....                                            ",
"                                        ....oooooooooooooooooooooooooooooooooooo....                                            ",
"                                        ....oooooooooooooooooooooooooooooooooooo....                                            ",
"                                        ....oooooooooooooooooooooooooooooooooooo....                                            ",
"                                    ........oooooooo........oooooooooooooooooooo........                                        ",
"                                    ........oooooooo........oooooooooooooooooooo........                                        ",
"                                    ........oooooooo........oooooooooooooooooooo........                                        ",
"                                    ........oooooooo........oooooooooooooooooooo........                                        ",
"                                        ....XXXXXXXX....OOOO....XXXXXXXX....XXXX....                                            ",
"                                        ....XXXXXXXX....OOOO....XXXXXXXX....XXXX....                                            ",
"                                        ....XXXXXXXX....OOOO....XXXXXXXX....XXXX....                                            ",
"                                        ....XXXXXXXX....OOOO....XXXXXXXX....XXXX....                                            ",
"                                            ............oooooooo....XXXX........                                                ",
"                                            ............oooooooo....XXXX........                                                ",
"                                            ............oooooooo....XXXX........                                                ",
"                                            ............oooooooo....XXXX........                                                ",
"                                                ....XXXX....OOOO....oooo....                                                    ",
"                                                ....XXXX....OOOO....oooo....                                                    ",
"                                                ....XXXX....OOOO....oooo....                                                    ",
"                                                ....XXXX....OOOO....oooo....                                                    ",
"                                            ....XXXXoooo....oooo....ooooXXXX....                                                ",
"                                            ....XXXXoooo....oooo....ooooXXXX....                                                ",
"                                            ....XXXXoooo....oooo....ooooXXXX....                                                ",
"                                            ....XXXXoooo....oooo....ooooXXXX....                                                ",
"                                            ....oooooooo....OOOO....oooooooo....                                                ",
"                                            ....oooooooo....OOOO....oooooooo....                                                ",
"                                            ....oooooooo....OOOO....oooooooo....                                                ",
"                                            ....oooooooo....OOOO....oooooooo....                                                ",
"                                            ....oooooooo....oooo....oooooooo....                                                ",
"                                            ....oooooooo....oooo....oooooooo....                                                ",
"                                            ....oooooooo....oooo....oooooooo....                                                ",
"                                            ....oooooooo....oooo....oooooooo....                                                ",
"                                            ....ooooooooXXXXooooXXXXoooooooo....                                                ",
"                                            ....ooooooooXXXXooooXXXXoooooooo....                                                ",
"                                            ....ooooooooXXXXooooXXXXoooooooo....                                                ",
"                                            ....ooooooooXXXXooooXXXXoooooooo....                                                ",
"                                            ....oooooooooooooooooooooooooooo....                                                ",
"                                            ....oooooooooooooooooooooooooooo....                                                ",
"                                            ....oooooooooooooooooooooooooooo....                                                ",
"                                            ....oooooooooooooooooooooooooooo....                                                ",
"                                            ....XXXXoooooooo....ooooooooXXXX....                                                ",
"                                            ....XXXXoooooooo....ooooooooXXXX....                                                ",
"                                            ....XXXXoooooooo....ooooooooXXXX....                                                ",
"                                            ....XXXXoooooooo....ooooooooXXXX....                                                ",
"                                                ....ooooXXXX....XXXXoooo....                                                    ",
"                                                ....ooooXXXX....XXXXoooo....                                                    ",
"                                                ....ooooXXXX....XXXXoooo....                                                    ",
"                                                ....ooooXXXX....XXXXoooo....                                                    ",
"                                                ....OOOO....    ....OOOO....                                                    ",
"                                                ....OOOO....    ....OOOO....                                                    ",
"                                                ....OOOO....    ....OOOO....                                                    ",
"                                                ....OOOO....    ....OOOO....                                                    ",
"                                                ....OOOO....    ....OOOO....                                                    ",
"                                                ....OOOO....    ....OOOO....                                                    ",
"                                                ....OOOO....    ....OOOO....                                                    ",
"                                                ....OOOO....    ....OOOO....                                                    ",
"                                                    ........    ........                                                        ",
"                                                    ........    ........                                                        ",
"                                                    ........    ........                                                        ",
"                                                    ........    ........                                                        ",
"                                                                                                                                ",
"                                                                                                                                ",
"                                                                                                                                ",
"                                                                                                                                ",
"                                                                                                                                ",
"                                                                                                                                ",
"                                                                                                                                ",
"                                                                                                                                ",
"                                                                                                                                ",
"                                                                                                                                ",
"                                                                                                                                ",
"                                                                                                                                ",
"                                                                                                                                ",
"                                                                                                                                ",
"                                                                                                                                ",
"                                                                                                                                ",
"                                                                                                                                ",
"                                                                                                                                ",
"                                                                                                                                ",
"                                                                                                                                ",
"                                                                                                                                ",
"                                                                                                                                ",
"                                                                                                                                ",
"                                                                                                                                ",
"                                                                                                                                ",
"                                                                                                                                ",
"                                                                                                                                ",
"                                                                                                                                ",
"                                                                                                                                ",
"                                                                                                                                ",
"                                                                                                                                ",
"                                                                                                                                "
};
