/* XPM */
static char *cat_righ_21713722406[] = {
/* columns rows colors chars-per-pixel */
"128 128 6 1 ",
"  c None",
". c #562B03",
"X c #683404",
"o c #E4603F",
"O c #FF9900",
"+ c #FFDFAE",
/* pixels */
"                                                                                                                                ",
"                                                                                                                                ",
"                                                                                                                                ",
"                                                                                                                                ",
"                                                                                                                                ",
"                                                                                                                                ",
"                                                                                                                                ",
"                                                                                                                                ",
"                                                                                                                                ",
"                                                                                                                                ",
"                                                                                                                                ",
"                                                                                                                                ",
"                                                                                                                                ",
"                                                                                                                                ",
"                                                                                                                                ",
"                                                                                                                                ",
"                                                                                                                                ",
"                                                                                                                                ",
"                                                                                                                                ",
"                                                                                                                                ",
"                                                                                                                                ",
"                                                                                                                                ",
"                                                                                                                                ",
"                                                                                                                                ",
"                                                                                                                                ",
"                                                                                                                                ",
"                                                                                                                                ",
"                                                                                                                                ",
"                                    ........                                                                                    ",
"                                    ........                                                                                    ",
"                                    ........                                                                                    ",
"                                    ........                                                                                    ",
"                                ....++++OOOO....                                        ........                                ",
"                                ....++++OOOO....                                        ........                                ",
"                                ....++++OOOO....                                        ........                                ",
"                                ....++++OOOO....                                        ........                                ",
"                            ....OOOOoooo........                    ........        ....++++....                                ",
"                            ....OOOOoooo........                    ........        ....++++....                                ",
"                            ....OOOOoooo........                    ........        ....++++....                                ",
"                            ....OOOOoooo........                    ........        ....++++....                                ",
"                            ....++++....                            ....++++....    ....OOOO....                                ",
"                            ....++++....                            ....++++....    ....OOOO....                                ",
"                            ....++++....                            ....++++....    ....OOOO....                                ",
"                            ....++++....                            ....++++....    ....OOOO....                                ",
"                            ....OOOO....                            ....++++........oooooooo....                                ",
"                            ....OOOO....                            ....++++........oooooooo....                                ",
"                            ....OOOO....                            ....++++........oooooooo....                                ",
"                            ....OOOO....                            ....++++........oooooooo....                                ",
"                            ....++++....                            ....OOOOooooOOOOOOOOOOOOOOOO....                            ",
"                            ....++++....                            ....OOOOooooOOOOOOOOOOOOOOOO....                            ",
"                            ....++++....                            ....OOOOooooOOOOOOOOOOOOOOOO....                            ",
"                            ....++++....                            ....OOOOooooOOOOOOOOOOOOOOOO....                            ",
"                            ....OOOOoooo....                        ....ooooOOOOOOOOooooOOOOooooOOOO....                        ",
"                            ....OOOOoooo....                        ....ooooOOOOOOOOooooOOOOooooOOOO....                        ",
"                            ....OOOOoooo....                        ....ooooOOOOOOOOooooOOOOooooOOOO....                        ",
"                            ....OOOOoooo....                        ....ooooOOOOOOOOooooOOOOooooOOOO....                        ",
"                            ....ooooOOOOoooo........................ooooOOOOOOOOOOOOXXXXOOOOXXXXOOOO....                        ",
"                            ....ooooOOOOoooo........................ooooOOOOOOOOOOOOXXXXOOOOXXXXOOOO....                        ",
"                            ....ooooOOOOoooo........................ooooOOOOOOOOOOOOXXXXOOOOXXXXOOOO....                        ",
"                            ....ooooOOOOoooo........................ooooOOOOOOOOOOOOXXXXOOOOXXXXOOOO....                        ",
"                                ....OOOOOOOOooooooooOOOOooooOOOO....OOOOOOOOOOOOooooXXXXOOOOXXXXoooo....                        ",
"                                ....OOOOOOOOooooooooOOOOooooOOOO....OOOOOOOOOOOOooooXXXXOOOOXXXXoooo....                        ",
"                                ....OOOOOOOOooooooooOOOOooooOOOO....OOOOOOOOOOOOooooXXXXOOOOXXXXoooo....                        ",
"                                ....OOOOOOOOooooooooOOOOooooOOOO....OOOOOOOOOOOOooooXXXXOOOOXXXXoooo....                        ",
"                                ....ooooOOOOooooooooOOOOooooOOOO....ooooOOOOOOOOOOOO++++oooo++++OOOO....                        ",
"                                ....ooooOOOOooooooooOOOOooooOOOO....ooooOOOOOOOOOOOO++++oooo++++OOOO....                        ",
"                                ....ooooOOOOooooooooOOOOooooOOOO....ooooOOOOOOOOOOOO++++oooo++++OOOO....                        ",
"                                ....ooooOOOOooooooooOOOOooooOOOO....ooooOOOOOOOOOOOO++++oooo++++OOOO....                        ",
"                                    ....OOOOOOOOOOOOOOOOOOOOOOOOoooo....ooooOOOO++++++++++++++++....                            ",
"                                    ....OOOOOOOOOOOOOOOOOOOOOOOOoooo....ooooOOOO++++++++++++++++....                            ",
"                                    ....OOOOOOOOOOOOOOOOOOOOOOOOoooo....ooooOOOO++++++++++++++++....                            ",
"                                    ....OOOOOOOOOOOOOOOOOOOOOOOOoooo....ooooOOOO++++++++++++++++....                            ",
"                                        ....OOOOooooOOOOOOOOOOOOOOOOOOOOOOOOoooo................                                ",
"                                        ....OOOOooooOOOOOOOOOOOOOOOOOOOOOOOOoooo................                                ",
"                                        ....OOOOooooOOOOOOOOOOOOOOOOOOOOOOOOoooo................                                ",
"                                        ....OOOOooooOOOOOOOOOOOOOOOOOOOOOOOOoooo................                                ",
"                                        ....OOOOooooooooooooooooOOOOOOOOOOOO........                                            ",
"                                        ....OOOOooooooooooooooooOOOOOOOOOOOO........                                            ",
"                                        ....OOOOooooooooooooooooOOOOOOOOOOOO........                                            ",
"                                        ....OOOOooooooooooooooooOOOOOOOOOOOO........                                            ",
"                                        ....++++................ooooOOOO....oooo....                                            ",
"                                        ....++++................ooooOOOO....oooo....                                            ",
"                                        ....++++................ooooOOOO....oooo....                                            ",
"                                        ....++++................ooooOOOO....oooo....                                            ",
"                                        ....++++....oooo....    ....OOOO....++++....                                            ",
"                                        ....++++....oooo....    ....OOOO....++++....                                            ",
"                                        ....++++....oooo....    ....OOOO....++++....                                            ",
"                                        ....++++....oooo....    ....OOOO....++++....                                            ",
"                                        ....OOOO++++........    ....++++........                                                ",
"                                        ....OOOO++++........    ....++++........                                                ",
"                                        ....OOOO++++........    ....++++........                                                ",
"                                        ....OOOO++++........    ....++++........                                                ",
"                                            ............            ........                                                    ",
"                                            ............            ........                                                    ",
"                                            ............            ........                                                    ",
"                                            ............            ........                                                    ",
"                                                                                                                                ",
"                                                                                                                                ",
"                                                                                                                                ",
"                                                                                                                                ",
"                                                                                                                                ",
"                                                                                                                                ",
"                                                                                                                                ",
"                                                                                                                                ",
"                                                                                                                                ",
"                                                                                                                                ",
"                                                                                                                                ",
"                                                                                                                                ",
"                                                                                                                                ",
"                                                                                                                                ",
"                                                                                                                                ",
"                                                                                                                                ",
"                                                                                                                                ",
"                                                                                                                                ",
"                                                                                                                                ",
"                                                                                                                                ",
"                                                                                                                                ",
"                                                                                                                                ",
"                                                                                                                                ",
"                                                                                                                                ",
"                                                                                                                                ",
"                                                                                                                                ",
"                                                                                                                                ",
"                                                                                                                                ",
"                                                                                                                                ",
"                                                                                                                                ",
"                                                                                                                                ",
"                                                                                                                                "
};
