/* XPM */
static char *cat_right1713722475[] = {
/* columns rows colors chars-per-pixel */
"128 128 6 1 ",
"  c None",
". c #562B03",
"X c #683404",
"o c #E4603F",
"O c #FF9900",
"+ c #FFDFAE",
/* pixels */
"                                                                                                                                ",
"                                                                                                                                ",
"                                                                                                                                ",
"                                                                                                                                ",
"                                                                                                                                ",
"                                                                                                                                ",
"                                                                                                                                ",
"                                                                                                                                ",
"                                                                                                                                ",
"                                                                                                                                ",
"                                                                                                                                ",
"                                                                                                                                ",
"                                                                                                                                ",
"                                                                                                                                ",
"                                                                                                                                ",
"                                                                                                                                ",
"                                                                                                                                ",
"                                                                                                                                ",
"                                                                                                                                ",
"                                                                                                                                ",
"                                                                                                                                ",
"                                                                                                                                ",
"                                                                                                                                ",
"                                                                                                                                ",
"                                                                                                                                ",
"                                                                                                                                ",
"                                                                                                                                ",
"                                                                                                                                ",
"                            ........                                                                                            ",
"                            ........                                                                                            ",
"                            ........                                                                                            ",
"                            ........                                                                                            ",
"                        ....OOOO++++....                                                ........                                ",
"                        ....OOOO++++....                                                ........                                ",
"                        ....OOOO++++....                                                ........                                ",
"                        ....OOOO++++....                                                ........                                ",
"                            ....ooooOOOO....                        ........        ....++++....                                ",
"                            ....ooooOOOO....                        ........        ....++++....                                ",
"                            ....ooooOOOO....                        ........        ....++++....                                ",
"                            ....ooooOOOO....                        ........        ....++++....                                ",
"                                ....++++....                        ....++++....    ....OOOO....                                ",
"                                ....++++....                        ....++++....    ....OOOO....                                ",
"                                ....++++....                        ....++++....    ....OOOO....                                ",
"                                ....++++....                        ....++++....    ....OOOO....                                ",
"                                ....OOOO....                        ....++++........oooooooo....                                ",
"                                ....OOOO....                        ....++++........oooooooo....                                ",
"                                ....OOOO....                        ....++++........oooooooo....                                ",
"                                ....OOOO....                        ....++++........oooooooo....                                ",
"                                ....++++....                        ....OOOOooooOOOOOOOOOOOOOOOO....                            ",
"                                ....++++....                        ....OOOOooooOOOOOOOOOOOOOOOO....                            ",
"                                ....++++....                        ....OOOOooooOOOOOOOOOOOOOOOO....                            ",
"                                ....++++....                        ....OOOOooooOOOOOOOOOOOOOOOO....                            ",
"                                ....OOOOoooo....                    ....ooooOOOOOOOOooooOOOOooooOOOO....                        ",
"                                ....OOOOoooo....                    ....ooooOOOOOOOOooooOOOOooooOOOO....                        ",
"                                ....OOOOoooo....                    ....ooooOOOOOOOOooooOOOOooooOOOO....                        ",
"                                ....OOOOoooo....                    ....ooooOOOOOOOOooooOOOOooooOOOO....                        ",
"                                ....ooooOOOOoooo....................ooooOOOOOOOOOOOOXXXXOOOOXXXXOOOO....                        ",
"                                ....ooooOOOOoooo....................ooooOOOOOOOOOOOOXXXXOOOOXXXXOOOO....                        ",
"                                ....ooooOOOOoooo....................ooooOOOOOOOOOOOOXXXXOOOOXXXXOOOO....                        ",
"                                ....ooooOOOOoooo....................ooooOOOOOOOOOOOOXXXXOOOOXXXXOOOO....                        ",
"                                    ....OOOOOOOOooooOOOOooooOOOO....OOOOOOOOOOOOooooXXXXOOOOXXXXoooo....                        ",
"                                    ....OOOOOOOOooooOOOOooooOOOO....OOOOOOOOOOOOooooXXXXOOOOXXXXoooo....                        ",
"                                    ....OOOOOOOOooooOOOOooooOOOO....OOOOOOOOOOOOooooXXXXOOOOXXXXoooo....                        ",
"                                    ....OOOOOOOOooooOOOOooooOOOO....OOOOOOOOOOOOooooXXXXOOOOXXXXoooo....                        ",
"                                    ....ooooOOOOooooOOOOooooOOOO....ooooOOOOOOOOOOOO++++oooo++++OOOO....                        ",
"                                    ....ooooOOOOooooOOOOooooOOOO....ooooOOOOOOOOOOOO++++oooo++++OOOO....                        ",
"                                    ....ooooOOOOooooOOOOooooOOOO....ooooOOOOOOOOOOOO++++oooo++++OOOO....                        ",
"                                    ....ooooOOOOooooOOOOooooOOOO....ooooOOOOOOOOOOOO++++oooo++++OOOO....                        ",
"                                        ....OOOOOOOOOOOOOOOOOOOOoooo....ooooOOOO++++++++++++++++....                            ",
"                                        ....OOOOOOOOOOOOOOOOOOOOoooo....ooooOOOO++++++++++++++++....                            ",
"                                        ....OOOOOOOOOOOOOOOOOOOOoooo....ooooOOOO++++++++++++++++....                            ",
"                                        ....OOOOOOOOOOOOOOOOOOOOoooo....ooooOOOO++++++++++++++++....                            ",
"                                        ....OOOOooooOOOOOOOOOOOOOOOOOOOOOOOOoooo................                                ",
"                                        ....OOOOooooOOOOOOOOOOOOOOOOOOOOOOOOoooo................                                ",
"                                        ....OOOOooooOOOOOOOOOOOOOOOOOOOOOOOOoooo................                                ",
"                                        ....OOOOooooOOOOOOOOOOOOOOOOOOOOOOOOoooo................                                ",
"                                        ....OOOOooooooooooooooooOOOOOOOOOOOO........                                            ",
"                                        ....OOOOooooooooooooooooOOOOOOOOOOOO........                                            ",
"                                        ....OOOOooooooooooooooooOOOOOOOOOOOO........                                            ",
"                                        ....OOOOooooooooooooooooOOOOOOOOOOOO........                                            ",
"                                        ....++++................ooooOOOO....oooo....                                            ",
"                                        ....++++................ooooOOOO....oooo....                                            ",
"                                        ....++++................ooooOOOO....oooo....                                            ",
"                                        ....++++................ooooOOOO....oooo....                                            ",
"                                        ....++++....oooo....    ....OOOO....++++....                                            ",
"                                        ....++++....oooo....    ....OOOO....++++....                                            ",
"                                        ....++++....oooo....    ....OOOO....++++....                                            ",
"                                        ....++++....oooo....    ....OOOO....++++....                                            ",
"                                        ....OOOO++++........    ....++++........                                                ",
"                                        ....OOOO++++........    ....++++........                                                ",
"                                        ....OOOO++++........    ....++++........                                                ",
"                                        ....OOOO++++........    ....++++........                                                ",
"                                            ............            ........                                                    ",
"                                            ............            ........                                                    ",
"                                            ............            ........                                                    ",
"                                            ............            ........                                                    ",
"                                                                                                                                ",
"                                                                                                                                ",
"                                                                                                                                ",
"                                                                                                                                ",
"                                                                                                                                ",
"                                                                                                                                ",
"                                                                                                                                ",
"                                                                                                                                ",
"                                                                                                                                ",
"                                                                                                                                ",
"                                                                                                                                ",
"                                                                                                                                ",
"                                                                                                                                ",
"                                                                                                                                ",
"                                                                                                                                ",
"                                                                                                                                ",
"                                                                                                                                ",
"                                                                                                                                ",
"                                                                                                                                ",
"                                                                                                                                ",
"                                                                                                                                ",
"                                                                                                                                ",
"                                                                                                                                ",
"                                                                                                                                ",
"                                                                                                                                ",
"                                                                                                                                ",
"                                                                                                                                ",
"                                                                                                                                ",
"                                                                                                                                ",
"                                                                                                                                ",
"                                                                                                                                ",
"                                                                                                                                "
};
