/* XPM */
static char *cat_left_walk_11713722406[] = {
/* columns rows colors chars-per-pixel */
"128 128 5 1 ",
"  c None",
". c #562B03",
"X c #E4603F",
"o c #FF9900",
"O c #FFDFAE",
/* pixels */
"                                                                                                                                ",
"                                                                                                                                ",
"                                                                                                                                ",
"                                                                                                                                ",
"                                                                                                                                ",
"                                                                                                                                ",
"                                                                                                                                ",
"                                                                                                                                ",
"                                                                                                                                ",
"                                                                                                                                ",
"                                                                                                                                ",
"                                                                                                                                ",
"                                                                                                                                ",
"                                                                                                                                ",
"                                                                                                                                ",
"                                                                                                                                ",
"                                                                                                                                ",
"                                                                                                                                ",
"                                                                                                                                ",
"                                                                                                                                ",
"                                                                                                                                ",
"                                                                                                                                ",
"                                                                                                                                ",
"                                                                                                                                ",
"                                                                                                                                ",
"                                                                                                                                ",
"                                                                                                                                ",
"                                                                                                                                ",
"                                                                                            ........                            ",
"                                                                                            ........                            ",
"                                                                                            ........                            ",
"                                                                                            ........                            ",
"                                ........                                                ....OOOOoooo....                        ",
"                                ........                                                ....OOOOoooo....                        ",
"                                ........                                                ....OOOOoooo....                        ",
"                                ........                                                ....OOOOoooo....                        ",
"                                ....OOOO....        ........                        ....ooooXXXX........                        ",
"                                ....OOOO....        ........                        ....ooooXXXX........                        ",
"                                ....OOOO....        ........                        ....ooooXXXX........                        ",
"                                ....OOOO....        ........                        ....ooooXXXX........                        ",
"                                ....oooo....    ....OOOO....                        ....OOOO....                                ",
"                                ....oooo....    ....OOOO....                        ....OOOO....                                ",
"                                ....oooo....    ....OOOO....                        ....OOOO....                                ",
"                                ....oooo....    ....OOOO....                        ....OOOO....                                ",
"                                ....XXXXXXXX........OOOO....                        ....oooo....                                ",
"                                ....XXXXXXXX........OOOO....                        ....oooo....                                ",
"                                ....XXXXXXXX........OOOO....                        ....oooo....                                ",
"                                ....XXXXXXXX........OOOO....                        ....oooo....                                ",
"                            ....ooooooooooooooooXXXXoooo....                        ....OOOO....                                ",
"                            ....ooooooooooooooooXXXXoooo....                        ....OOOO....                                ",
"                            ....ooooooooooooooooXXXXoooo....                        ....OOOO....                                ",
"                            ....ooooooooooooooooXXXXoooo....                        ....OOOO....                                ",
"                        ....ooooXXXXooooXXXXooooooooXXXX....                    ....XXXXoooo....                                ",
"                        ....ooooXXXXooooXXXXooooooooXXXX....                    ....XXXXoooo....                                ",
"                        ....ooooXXXXooooXXXXooooooooXXXX....                    ....XXXXoooo....                                ",
"                        ....ooooXXXXooooXXXXooooooooXXXX....                    ....XXXXoooo....                                ",
"                        ....oooo....oooo....ooooooooooooXXXX....................XXXXooooXXXX....                                ",
"                        ....oooo....oooo....ooooooooooooXXXX....................XXXXooooXXXX....                                ",
"                        ....oooo....oooo....ooooooooooooXXXX....................XXXXooooXXXX....                                ",
"                        ....oooo....oooo....ooooooooooooXXXX....................XXXXooooXXXX....                                ",
"                        ....XXXX....oooo....XXXXoooooooooooo....ooooXXXXooooXXXXoooooooo....                                    ",
"                        ....XXXX....oooo....XXXXoooooooooooo....ooooXXXXooooXXXXoooooooo....                                    ",
"                        ....XXXX....oooo....XXXXoooooooooooo....ooooXXXXooooXXXXoooooooo....                                    ",
"                        ....XXXX....oooo....XXXXoooooooooooo....ooooXXXXooooXXXXoooooooo....                                    ",
"                        ....ooooOOOOXXXXOOOOooooooooooooXXXX....ooooXXXXooooXXXXooooXXXX....                                    ",
"                        ....ooooOOOOXXXXOOOOooooooooooooXXXX....ooooXXXXooooXXXXooooXXXX....                                    ",
"                        ....ooooOOOOXXXXOOOOooooooooooooXXXX....ooooXXXXooooXXXXooooXXXX....                                    ",
"                        ....ooooOOOOXXXXOOOOooooooooooooXXXX....ooooXXXXooooXXXXooooXXXX....                                    ",
"                            ....OOOOOOOOOOOOOOOOooooXXXX....XXXXoooooooooooooooooooo....                                        ",
"                            ....OOOOOOOOOOOOOOOOooooXXXX....XXXXoooooooooooooooooooo....                                        ",
"                            ....OOOOOOOOOOOOOOOOooooXXXX....XXXXoooooooooooooooooooo....                                        ",
"                            ....OOOOOOOOOOOOOOOOooooXXXX....XXXXoooooooooooooooooooo....                                        ",
"                                ................XXXXooooooooooooooooooooooooXXXXoooo....                                        ",
"                                ................XXXXooooooooooooooooooooooooXXXXoooo....                                        ",
"                                ................XXXXooooooooooooooooooooooooXXXXoooo....                                        ",
"                                ................XXXXooooooooooooooooooooooooXXXXoooo....                                        ",
"                                            ........ooooooooooooXXXXXXXXXXXXXXXXoooo....                                        ",
"                                            ........ooooooooooooXXXXXXXXXXXXXXXXoooo....                                        ",
"                                            ........ooooooooooooXXXXXXXXXXXXXXXXoooo....                                        ",
"                                            ........ooooooooooooXXXXXXXXXXXXXXXXoooo....                                        ",
"                                            ....XXXXoooooooo................OOOOooooXXXX....                                    ",
"                                            ....XXXXoooooooo................OOOOooooXXXX....                                    ",
"                                            ....XXXXoooooooo................OOOOooooXXXX....                                    ",
"                                            ....XXXXoooooooo................OOOOooooXXXX....                                    ",
"                                        ....OOOOOOOO....oooooooo............OOOO....XXXX....                                    ",
"                                        ....OOOOOOOO....oooooooo............OOOO....XXXX....                                    ",
"                                        ....OOOOOOOO....oooooooo............OOOO....XXXX....                                    ",
"                                        ....OOOOOOOO....oooooooo............OOOO....XXXX....                                    ",
"                                        ....OOOO....    ....OOOO........OOOOoooo....OOOO....                                    ",
"                                        ....OOOO....    ....OOOO........OOOOoooo....OOOO....                                    ",
"                                        ....OOOO....    ....OOOO........OOOOoooo....OOOO....                                    ",
"                                        ....OOOO....    ....OOOO........OOOOoooo....OOOO....                                    ",
"                                            ....        ........        ................                                        ",
"                                            ....        ........        ................                                        ",
"                                            ....        ........        ................                                        ",
"                                            ....        ........        ................                                        ",
"                                                                                                                                ",
"                                                                                                                                ",
"                                                                                                                                ",
"                                                                                                                                ",
"                                                                                                                                ",
"                                                                                                                                ",
"                                                                                                                                ",
"                                                                                                                                ",
"                                                                                                                                ",
"                                                                                                                                ",
"                                                                                                                                ",
"                                                                                                                                ",
"                                                                                                                                ",
"                                                                                                                                ",
"                                                                                                                                ",
"                                                                                                                                ",
"                                                                                                                                ",
"                                                                                                                                ",
"                                                                                                                                ",
"                                                                                                                                ",
"                                                                                                                                ",
"                                                                                                                                ",
"                                                                                                                                ",
"                                                                                                                                ",
"                                                                                                                                ",
"                                                                                                                                ",
"                                                                                                                                ",
"                                                                                                                                ",
"                                                                                                                                ",
"                                                                                                                                ",
"                                                                                                                                ",
"                                                                                                                                "
};
