/* XPM */
static char *cat_up_walk_21713722529[] = {
/* columns rows colors chars-per-pixel */
"128 128 5 1 ",
"  c None",
". c #562B03",
"X c #E4603F",
"o c #FF9900",
"O c #FFDFAE",
/* pixels */
"                                                                                                                                ",
"                                                                                                                                ",
"                                                                                                                                ",
"                                                                                                                                ",
"                                                                                                                                ",
"                                                                                                                                ",
"                                                                                                                                ",
"                                                                                                                                ",
"                                                                                                                                ",
"                                                                                                                                ",
"                                                                                                                                ",
"                                                                                                                                ",
"                                                                                                                                ",
"                                                                                                                                ",
"                                                                                                                                ",
"                                                                                                                                ",
"                                                                                                                                ",
"                                                                                                                                ",
"                                                                                                                                ",
"                                                                                                                                ",
"                                            ........                    ........                                                ",
"                                            ........                    ........                                                ",
"                                            ........                    ........                                                ",
"                                            ........                    ........                                                ",
"                                            ....OOOO....            ....OOOO....                                                ",
"                                            ....OOOO....            ....OOOO....                                                ",
"                                            ....OOOO....            ....OOOO....                                                ",
"                                            ....OOOO....            ....OOOO....                                                ",
"                                            ....OOOOXXXX............XXXXOOOO....                                                ",
"                                            ....OOOOXXXX............XXXXOOOO....                                                ",
"                                            ....OOOOXXXX............XXXXOOOO....                                                ",
"                                            ....OOOOXXXX............XXXXOOOO....                                                ",
"                                            ....ooooXXXXooooooooooooXXXXoooo....                                                ",
"                                            ....ooooXXXXooooooooooooXXXXoooo....                                                ",
"                                            ....ooooXXXXooooooooooooXXXXoooo....                                                ",
"                                            ....ooooXXXXooooooooooooXXXXoooo....                                                ",
"                                    ........XXXXooooooooooooooooooooooooooooXXXX........                                        ",
"                                    ........XXXXooooooooooooooooooooooooooooXXXX........                                        ",
"                                    ........XXXXooooooooooooooooooooooooooooXXXX........                                        ",
"                                    ........XXXXooooooooooooooooooooooooooooXXXX........                                        ",
"                                        ....oooooooooooooooooooooooooooooooooooo....                                            ",
"                                        ....oooooooooooooooooooooooooooooooooooo....                                            ",
"                                        ....oooooooooooooooooooooooooooooooooooo....                                            ",
"                                        ....oooooooooooooooooooooooooooooooooooo....                                            ",
"                                    ........oooooooooooooooo........oooooooooooo........                                        ",
"                                    ........oooooooooooooooo........oooooooooooo........                                        ",
"                                    ........oooooooooooooooo........oooooooooooo........                                        ",
"                                    ........oooooooooooooooo........oooooooooooo........                                        ",
"                                        ....XXXX....XXXX....OOOO....XXXX....XXXX....                                            ",
"                                        ....XXXX....XXXX....OOOO....XXXX....XXXX....                                            ",
"                                        ....XXXX....XXXX....OOOO....XXXX....XXXX....                                            ",
"                                        ....XXXX....XXXX....OOOO....XXXX....XXXX....                                            ",
"                                            ........XXXX....oooo....XXXX........                                                ",
"                                            ........XXXX....oooo....XXXX........                                                ",
"                                            ........XXXX....oooo....XXXX........                                                ",
"                                            ........XXXX....oooo....XXXX........                                                ",
"                                                ....XXXX....OOOO....oooo....                                                    ",
"                                                ....XXXX....OOOO....oooo....                                                    ",
"                                                ....XXXX....OOOO....oooo....                                                    ",
"                                                ....XXXX....OOOO....oooo....                                                    ",
"                                            ....XXXXoooo....oooo....ooooXXXX....                                                ",
"                                            ....XXXXoooo....oooo....ooooXXXX....                                                ",
"                                            ....XXXXoooo....oooo....ooooXXXX....                                                ",
"                                            ....XXXXoooo....oooo....ooooXXXX....                                                ",
"                                            ....oooooooo....OOOO....oooooooo....                                                ",
"                                            ....oooooooo....OOOO....oooooooo....                                                ",
"                                            ....oooooooo....OOOO....oooooooo....                                                ",
"                                            ....oooooooo....OOOO....oooooooo....                                                ",
"                                            ....oooooooo....oooo....oooooooo....                                                ",
"                                            ....oooooooo....oooo....oooooooo....                                                ",
"                                            ....oooooooo....oooo....oooooooo....                                                ",
"                                            ....oooooooo....oooo....oooooooo....                                                ",
"                                            ....ooooooooXXXXooooXXXXoooooooo....                                                ",
"                                            ....ooooooooXXXXooooXXXXoooooooo....                                                ",
"                                            ....ooooooooXXXXooooXXXXoooooooo....                                                ",
"                                            ....ooooooooXXXXooooXXXXoooooooo....                                                ",
"                                            ....oooooooooooooooooooooooooooo....                                                ",
"                                            ....oooooooooooooooooooooooooooo....                                                ",
"                                            ....oooooooooooooooooooooooooooo....                                                ",
"                                            ....oooooooooooooooooooooooooooo....                                                ",
"                                            ....XXXXoooooooo....ooooooooXXXX....                                                ",
"                                            ....XXXXoooooooo....ooooooooXXXX....                                                ",
"                                            ....XXXXoooooooo....ooooooooXXXX....                                                ",
"                                            ....XXXXoooooooo....ooooooooXXXX....                                                ",
"                                            ....OOOOOOOOXXXX....XXXXXXXX....                                                    ",
"                                            ....OOOOOOOOXXXX....XXXXXXXX....                                                    ",
"                                            ....OOOOOOOOXXXX....XXXXXXXX....                                                    ",
"                                            ....OOOOOOOOXXXX....XXXXXXXX....                                                    ",
"                                            ....OOOOoooo....    ............                                                    ",
"                                            ....OOOOoooo....    ............                                                    ",
"                                            ....OOOOoooo....    ............                                                    ",
"                                            ....OOOOoooo....    ............                                                    ",
"                                                ............                                                                    ",
"                                                ............                                                                    ",
"                                                ............                                                                    ",
"                                                ............                                                                    ",
"                                                                                                                                ",
"                                                                                                                                ",
"                                                                                                                                ",
"                                                                                                                                ",
"                                                                                                                                ",
"                                                                                                                                ",
"                                                                                                                                ",
"                                                                                                                                ",
"                                                                                                                                ",
"                                                                                                                                ",
"                                                                                                                                ",
"                                                                                                                                ",
"                                                                                                                                ",
"                                                                                                                                ",
"                                                                                                                                ",
"                                                                                                                                ",
"                                                                                                                                ",
"                                                                                                                                ",
"                                                                                                                                ",
"                                                                                                                                ",
"                                                                                                                                ",
"                                                                                                                                ",
"                                                                                                                                ",
"                                                                                                                                ",
"                                                                                                                                ",
"                                                                                                                                ",
"                                                                                                                                ",
"                                                                                                                                ",
"                                                                                                                                ",
"                                                                                                                                ",
"                                                                                                                                ",
"                                                                                                                                "
};
