/* XPM */
static char *pl_pet_heart_11713724175[] = {
/* columns rows colors chars-per-pixel */
"128 128 14 1 ",
"  c None",
". c #37241C",
"X c #493025",
"o c #543025",
"O c #60362B",
"+ c #6B3E30",
"@ c #B45F1F",
"# c #DA7326",
"$ c #DE8543",
"% c #FFAE4A",
"& c #FFC279",
"* c #FFD29B",
"= c #F2F1DB",
"- c #FFFFEA",
/* pixels */
"                                                                                                                                ",
"                                                                                                                                ",
"                                                                                                                                ",
"                                                                                                                                ",
"                                                                                                                                ",
"                                                                                                                                ",
"                                                                                                                                ",
"                                                                                                                                ",
"                                                                                                                                ",
"                                                                                                                                ",
"                                                                                                                                ",
"                                                                                                                                ",
"                                                                                                                                ",
"                                                                                                                                ",
"                                                                                                                                ",
"                                                                                                                                ",
"                                                                                                                                ",
"                                                                                                                                ",
"                                                                                                                                ",
"                                                                                                                                ",
"                                                                                                                                ",
"                                                                                                                                ",
"                                                                                                                                ",
"                                                                                                                                ",
"                                                            ############                                                        ",
"                                                            ############                                                        ",
"                                                            ############                                                        ",
"                                                            ############                                                        ",
"                                                ################$$$$############                                                ",
"                                                ################$$$$############                                                ",
"                                                ################$$$$############                                                ",
"                                                ################$$$$############                                                ",
"                                            ########$$$$####$$$$$$$$$$$$$$$$########                                            ",
"                                            ########$$$$####$$$$$$$$$$$$$$$$########                                            ",
"                                            ########$$$$####$$$$$$$$$$$$$$$$########                                            ",
"                                            ########$$$$####$$$$$$$$$$$$$$$$########                                            ",
"                                        ########$$$$$$$$####$$$$$$$$$$$$$$$$$$$$####                                            ",
"                                        ########$$$$$$$$####$$$$$$$$$$$$$$$$$$$$####                                            ",
"                                        ########$$$$$$$$####$$$$$$$$$$$$$$$$$$$$####                                            ",
"                                        ########$$$$$$$$####$$$$$$$$$$$$$$$$$$$$####                                            ",
"                                        ########$$$$############$$$$$$$$####$$$$$$$$####                                        ",
"                                        ########$$$$############$$$$$$$$####$$$$$$$$####                                        ",
"                                        ########$$$$############$$$$$$$$####$$$$$$$$####                                        ",
"                                        ########$$$$############$$$$$$$$####$$$$$$$$####                                        ",
"                                        @@@@####$$$$####@@@@########$$$$########$$$$@@@@                                        ",
"                                        @@@@####$$$$####@@@@########$$$$########$$$$@@@@                                        ",
"                                        @@@@####$$$$####@@@@########$$$$########$$$$@@@@                                        ",
"                                        @@@@####$$$$####@@@@########$$$$########$$$$@@@@                                        ",
"                                        @@@@@@@@####@@@@@@@@@@@@############@@@@####@@@@                                        ",
"                                        @@@@@@@@####@@@@@@@@@@@@############@@@@####@@@@                                        ",
"                                        @@@@@@@@####@@@@@@@@@@@@############@@@@####@@@@                                        ",
"                                        @@@@@@@@####@@@@@@@@@@@@############@@@@####@@@@                                        ",
"                                            @@@@@@@@@@@@@@@@@@@@@@@@####@@@@@@@@@@@@                                            ",
"                                            @@@@@@@@@@@@@@@@@@@@@@@@####@@@@@@@@@@@@                                            ",
"                                            @@@@@@@@@@@@@@@@@@@@@@@@####@@@@@@@@@@@@                                            ",
"                                            @@@@@@@@@@@@@@@@@@@@@@@@####@@@@@@@@@@@@                                            ",
"                                            @@@@@@@@@@@@@@@@@@@@@@@@@@@@@@@@@@@@@@@@                                            ",
"                                            @@@@@@@@@@@@@@@@@@@@@@@@@@@@@@@@@@@@@@@@                                            ",
"                                            @@@@@@@@@@@@@@@@@@@@@@@@@@@@@@@@@@@@@@@@                                            ",
"                                            @@@@@@@@@@@@@@@@@@@@@@@@@@@@@@@@@@@@@@@@                                            ",
"                                        &&&&&&&&@@@@@@@@@@@@@@@@@@@@@@@@@@@@@@@@@@@@&&&&                                        ",
"                                        &&&&&&&&@@@@@@@@@@@@@@@@@@@@@@@@@@@@@@@@@@@@&&&&                                        ",
"                                        &&&&&&&&@@@@@@@@@@@@@@@@@@@@@@@@@@@@@@@@@@@@&&&&                                        ",
"                                        &&&&&&&&@@@@@@@@@@@@@@@@@@@@@@@@@@@@@@@@@@@@&&&&                                        ",
"                                            &&&&@@@@@@@@@@@@@@@@@@@@@@@@@@@@@@@@&&&&                                            ",
"                                            &&&&@@@@@@@@@@@@@@@@@@@@@@@@@@@@@@@@&&&&                                            ",
"                                            &&&&@@@@@@@@@@@@@@@@@@@@@@@@@@@@@@@@&&&&                                            ",
"                                            &&&&@@@@@@@@@@@@@@@@@@@@@@@@@@@@@@@@&&&&                                            ",
"                                                    &&&&@@@@@@@@@@@@@@@@&&&&                                                    ",
"                                                    &&&&@@@@@@@@@@@@@@@@&&&&                                                    ",
"                                                    &&&&@@@@@@@@@@@@@@@@&&&&                                                    ",
"                                                    &&&&@@@@@@@@@@@@@@@@&&&&                                                    ",
"                                                            &&&&&&&&                                                            ",
"                                                            &&&&&&&&                                                            ",
"                                                            &&&&&&&&                                                            ",
"                                                            &&&&&&&&                                                            ",
"                                                        ====================                                                    ",
"                                                        ====================                                                    ",
"                                                        ====================                                                    ",
"                                                        ====================                                                    ",
"                                                ========----------------========                                                ",
"                                                ========----------------========                                                ",
"                                                ========----------------========                                                ",
"                                                ========----------------========                                                ",
"                                                ========----------------====----====                                            ",
"                                                ========----------------====----====                                            ",
"                                                ========----------------====----====                                            ",
"                                                ========----------------====----====                                            ",
"                                            ====----====----------------====********&&&&                                        ",
"                                            ====----====----------------====********&&&&                                        ",
"                                            ====----====----------------====********&&&&                                        ",
"                                            ====----====----------------====********&&&&                                        ",
"                                            &&&&****====----========----========&&&&&&&&                                        ",
"                                            &&&&****====----========----========&&&&&&&&                                        ",
"                                            &&&&****====----========----========&&&&&&&&                                        ",
"                                            &&&&****====----========----========&&&&&&&&                                        ",
"                                            &&&&&&&&++++++++++++++++++++++++++++                                                ",
"                                            &&&&&&&&++++++++++++++++++++++++++++                                                ",
"                                            &&&&&&&&++++++++++++++++++++++++++++                                                ",
"                                            &&&&&&&&++++++++++++++++++++++++++++                                                ",
"                                            &&&&XXXXXXXXXXXXXXXXXXXXXXXXXXXXXXXX                                                ",
"                                            &&&&XXXXXXXXXXXXXXXXXXXXXXXXXXXXXXXX                                                ",
"                                            &&&&XXXXXXXXXXXXXXXXXXXXXXXXXXXXXXXX                                                ",
"                                            &&&&XXXXXXXXXXXXXXXXXXXXXXXXXXXXXXXX                                                ",
"                                                ++++++++++++++++++++++++++++++++                                                ",
"                                                ++++++++++++++++++++++++++++++++                                                ",
"                                                ++++++++++++++++++++++++++++++++                                                ",
"                                                ++++++++++++++++++++++++++++++++                                                ",
"                                                ooooOOOOOOOOOOOOOOOOOOOOOOOOoooo                                                ",
"                                                ooooOOOOOOOOOOOOOOOOOOOOOOOOoooo                                                ",
"                                                ooooOOOOOOOOOOOOOOOOOOOOOOOOoooo                                                ",
"                                                ooooOOOOOOOOOOOOOOOOOOOOOOOOoooo                                                ",
"                                                oooooooooooo        oooooooooooo                                                ",
"                                                oooooooooooo        oooooooooooo                                                ",
"                                                oooooooooooo        oooooooooooo                                                ",
"                                                oooooooooooo        oooooooooooo                                                ",
"                                                    %%%%%%%%        %%%%%%%%                                                    ",
"                                                    %%%%%%%%        %%%%%%%%                                                    ",
"                                                    %%%%%%%%        %%%%%%%%                                                    ",
"                                                    %%%%%%%%        %%%%%%%%                                                    ",
"                                                    XXXX....        ....XXXX                                                    ",
"                                                    XXXX....        ....XXXX                                                    ",
"                                                    XXXX....        ....XXXX                                                    ",
"                                                    XXXX....        ....XXXX                                                    ",
"                                                    XXXXXXXX        XXXXXXXX                                                    ",
"                                                    XXXXXXXX        XXXXXXXX                                                    ",
"                                                    XXXXXXXX        XXXXXXXX                                                    ",
"                                                    XXXXXXXX        XXXXXXXX                                                    "
};
