/* XPM */
static char *result[] = {
/* columns rows colors chars-per-pixel */
"128 128 6 1 ",
"  c #163C2B",
". c #296640",
"X c #509B66",
"o c #00CCFF",
"O c #D7F8FF",
"+ c #F4FDFF",
/* pixels */
"XXXXXXXX....    OOOOoooooooooooooooooooooooooooooooooooooooooooooooooooooooooooooooooooooooooooooooooooooooooooooooooooooooooooo",
"XXXXXXXX....    OOOOoooooooooooooooooooooooooooooooooooooooooooooooooooooooooooooooooooooooooooooooooooooooooooooooooooooooooooo",
"XXXXXXXX....    OOOOoooooooooooooooooooooooooooooooooooooooooooooooooooooooooooooooooooooooooooooooooooooooooooooooooooooooooooo",
"XXXXXXXX....    OOOOoooooooooooooooooooooooooooooooooooooooooooooooooooooooooooooooooooooooooooooooooooooooooooooooooooooooooooo",
"XXXX        ++++OOOOoooooooooooooooooooooooooooooooooooooooooooooooooooooooooooooooooooooooooooooooooooooooooooooooooooooooooooo",
"XXXX        ++++OOOOoooooooooooooooooooooooooooooooooooooooooooooooooooooooooooooooooooooooooooooooooooooooooooooooooooooooooooo",
"XXXX        ++++OOOOoooooooooooooooooooooooooooooooooooooooooooooooooooooooooooooooooooooooooooooooooooooooooooooooooooooooooooo",
"XXXX        ++++OOOOoooooooooooooooooooooooooooooooooooooooooooooooooooooooooooooooooooooooooooooooooooooooooooooooooooooooooooo",
"XXXXXXXX        ++++OOOOoooooooooooooooooooooooooooooooooooooooooooooooooooooooooooooooooooooooooooooooooooooooooooooooooooooooo",
"XXXXXXXX        ++++OOOOoooooooooooooooooooooooooooooooooooooooooooooooooooooooooooooooooooooooooooooooooooooooooooooooooooooooo",
"XXXXXXXX        ++++OOOOoooooooooooooooooooooooooooooooooooooooooooooooooooooooooooooooooooooooooooooooooooooooooooooooooooooooo",
"XXXXXXXX        ++++OOOOoooooooooooooooooooooooooooooooooooooooooooooooooooooooooooooooooooooooooooooooooooooooooooooooooooooooo",
"XXXXXXXXXXXX    ++++OOOOooooooooooooooooooooOOOOoooooooooooooooooooooooooooooooooooooooooooooooooooooooooooooooooooooooooooooooo",
"XXXXXXXXXXXX    ++++OOOOooooooooooooooooooooOOOOoooooooooooooooooooooooooooooooooooooooooooooooooooooooooooooooooooooooooooooooo",
"XXXXXXXXXXXX    ++++OOOOooooooooooooooooooooOOOOoooooooooooooooooooooooooooooooooooooooooooooooooooooooooooooooooooooooooooooooo",
"XXXXXXXXXXXX    ++++OOOOooooooooooooooooooooOOOOoooooooooooooooooooooooooooooooooooooooooooooooooooooooooooooooooooooooooooooooo",
"XXXXXXXX....    ++++OOOOooooooooooooooooooooOOOOoooooooooooooooooooooooooooooooooooooooooooooooooooooooooooooooooooooooooooooooo",
"XXXXXXXX....    ++++OOOOooooooooooooooooooooOOOOoooooooooooooooooooooooooooooooooooooooooooooooooooooooooooooooooooooooooooooooo",
"XXXXXXXX....    ++++OOOOooooooooooooooooooooOOOOoooooooooooooooooooooooooooooooooooooooooooooooooooooooooooooooooooooooooooooooo",
"XXXXXXXX....    ++++OOOOooooooooooooooooooooOOOOoooooooooooooooooooooooooooooooooooooooooooooooooooooooooooooooooooooooooooooooo",
"XXXXXXXX    ++++OOOOooooooooooooooooooooooooOOOOoooooooooooooooooooooooooooooooooooooooooooooooooooooooooooooooooooooooooooooooo",
"XXXXXXXX    ++++OOOOooooooooooooooooooooooooOOOOoooooooooooooooooooooooooooooooooooooooooooooooooooooooooooooooooooooooooooooooo",
"XXXXXXXX    ++++OOOOooooooooooooooooooooooooOOOOoooooooooooooooooooooooooooooooooooooooooooooooooooooooooooooooooooooooooooooooo",
"XXXXXXXX    ++++OOOOooooooooooooooooooooooooOOOOoooooooooooooooooooooooooooooooooooooooooooooooooooooooooooooooooooooooooooooooo",
"XXXXXXXXXXXX    OOOOooooooooooooooooooooOOOOoooooooooooooooooooooooooooooooooooooooooooooooooooooooooooooooooooooooooooooooooooo",
"XXXXXXXXXXXX    OOOOooooooooooooooooooooOOOOoooooooooooooooooooooooooooooooooooooooooooooooooooooooooooooooooooooooooooooooooooo",
"XXXXXXXXXXXX    OOOOooooooooooooooooooooOOOOoooooooooooooooooooooooooooooooooooooooooooooooooooooooooooooooooooooooooooooooooooo",
"XXXXXXXXXXXX    OOOOooooooooooooooooooooOOOOoooooooooooooooooooooooooooooooooooooooooooooooooooooooooooooooooooooooooooooooooooo",
"XXXXXXXX....    OOOOoooooooooooooooooooooooooooooooooooooooooooooooooooooooooooooooooooooooooooooooooooooooooooooooooooooooooooo",
"XXXXXXXX....    OOOOoooooooooooooooooooooooooooooooooooooooooooooooooooooooooooooooooooooooooooooooooooooooooooooooooooooooooooo",
"XXXXXXXX....    OOOOoooooooooooooooooooooooooooooooooooooooooooooooooooooooooooooooooooooooooooooooooooooooooooooooooooooooooooo",
"XXXXXXXX....    OOOOoooooooooooooooooooooooooooooooooooooooooooooooooooooooooooooooooooooooooooooooooooooooooooooooooooooooooooo",
"XXXXXXXX    ++++OOOOoooooooooooooooooooooooooooooooooooooooooooooooooooooooooooooooooooooooooooooooooooooooooooooooooooooooooooo",
"XXXXXXXX    ++++OOOOoooooooooooooooooooooooooooooooooooooooooooooooooooooooooooooooooooooooooooooooooooooooooooooooooooooooooooo",
"XXXXXXXX    ++++OOOOoooooooooooooooooooooooooooooooooooooooooooooooooooooooooooooooooooooooooooooooooooooooooooooooooooooooooooo",
"XXXXXXXX    ++++OOOOoooooooooooooooooooooooooooooooooooooooooooooooooooooooooooooooooooooooooooooooooooooooooooooooooooooooooooo",
"XXXXXXXXXXXX    ++++OOOOoooooooooooooooooooooooooooooooooooooooooooooooooooooooooooooooooooooooooooooooooooooooooooooooooooooooo",
"XXXXXXXXXXXX    ++++OOOOoooooooooooooooooooooooooooooooooooooooooooooooooooooooooooooooooooooooooooooooooooooooooooooooooooooooo",
"XXXXXXXXXXXX    ++++OOOOoooooooooooooooooooooooooooooooooooooooooooooooooooooooooooooooooooooooooooooooooooooooooooooooooooooooo",
"XXXXXXXXXXXX    ++++OOOOoooooooooooooooooooooooooooooooooooooooooooooooooooooooooooooooooooooooooooooooooooooooooooooooooooooooo",
"XXXXXXXXXXXX....    OOOOoooooooooooooooooooooooooooooooooooooooooooooooooooooooooooooooooooooooooooooooooooooooooooooooooooooooo",
"XXXXXXXXXXXX....    OOOOoooooooooooooooooooooooooooooooooooooooooooooooooooooooooooooooooooooooooooooooooooooooooooooooooooooooo",
"XXXXXXXXXXXX....    OOOOoooooooooooooooooooooooooooooooooooooooooooooooooooooooooooooooooooooooooooooooooooooooooooooooooooooooo",
"XXXXXXXXXXXX....    OOOOoooooooooooooooooooooooooooooooooooooooooooooooooooooooooooooooooooooooooooooooooooooooooooooooooooooooo",
"XXXXXXXXXXXX....    OOOOoooooooooooooooooooooooooooooooooooooooooooooooooooooooooooooooooooooooooooooooooooooooooooooooooooooooo",
"XXXXXXXXXXXX....    OOOOoooooooooooooooooooooooooooooooooooooooooooooooooooooooooooooooooooooooooooooooooooooooooooooooooooooooo",
"XXXXXXXXXXXX....    OOOOoooooooooooooooooooooooooooooooooooooooooooooooooooooooooooooooooooooooooooooooooooooooooooooooooooooooo",
"XXXXXXXXXXXX....    OOOOoooooooooooooooooooooooooooooooooooooooooooooooooooooooooooooooooooooooooooooooooooooooooooooooooooooooo",
"XXXXXXXXXXXX....    OOOOoooooooooooooooooooooooooooooooooooooooooooooooooooooooooooooooooooooooooooooooooooooooooooooooooooooooo",
"XXXXXXXXXXXX....    OOOOoooooooooooooooooooooooooooooooooooooooooooooooooooooooooooooooooooooooooooooooooooooooooooooooooooooooo",
"XXXXXXXXXXXX....    OOOOoooooooooooooooooooooooooooooooooooooooooooooooooooooooooooooooooooooooooooooooooooooooooooooooooooooooo",
"XXXXXXXXXXXX....    OOOOoooooooooooooooooooooooooooooooooooooooooooooooooooooooooooooooooooooooooooooooooooooooooooooooooooooooo",
"XXXXXXXX....    ++++OOOOoooooooooooooooooooooooooooooooooooooooooooooooooooooooooooooooooooooooooooooooooooooooooooooooooooooooo",
"XXXXXXXX....    ++++OOOOoooooooooooooooooooooooooooooooooooooooooooooooooooooooooooooooooooooooooooooooooooooooooooooooooooooooo",
"XXXXXXXX....    ++++OOOOoooooooooooooooooooooooooooooooooooooooooooooooooooooooooooooooooooooooooooooooooooooooooooooooooooooooo",
"XXXXXXXX....    ++++OOOOoooooooooooooooooooooooooooooooooooooooooooooooooooooooooooooooooooooooooooooooooooooooooooooooooooooooo",
"XXXXXXXX....    ++++OOOOoooooooooooooooooooooooooooooooooooooooooooooooooooooooooooooooooooooooooooooooooooooooooooooooooooooooo",
"XXXXXXXX....    ++++OOOOoooooooooooooooooooooooooooooooooooooooooooooooooooooooooooooooooooooooooooooooooooooooooooooooooooooooo",
"XXXXXXXX....    ++++OOOOoooooooooooooooooooooooooooooooooooooooooooooooooooooooooooooooooooooooooooooooooooooooooooooooooooooooo",
"XXXXXXXX....    ++++OOOOoooooooooooooooooooooooooooooooooooooooooooooooooooooooooooooooooooooooooooooooooooooooooooooooooooooooo",
"XXXXXXXX    ++++OOOOoooooooooooooooooooooooooooooooooooooooooooooooooooooooooooooooooooooooooooooooooooooooooooooooooooooooooooo",
"XXXXXXXX    ++++OOOOoooooooooooooooooooooooooooooooooooooooooooooooooooooooooooooooooooooooooooooooooooooooooooooooooooooooooooo",
"XXXXXXXX    ++++OOOOoooooooooooooooooooooooooooooooooooooooooooooooooooooooooooooooooooooooooooooooooooooooooooooooooooooooooooo",
"XXXXXXXX    ++++OOOOoooooooooooooooooooooooooooooooooooooooooooooooooooooooooooooooooooooooooooooooooooooooooooooooooooooooooooo",
"XXXXXXXXXXXX    OOOOoooooooooooooooooooooooooooooooooooooooooooooooooooooooooooooooooooooooooooooooooooooooooooooooooooooooooooo",
"XXXXXXXXXXXX    OOOOoooooooooooooooooooooooooooooooooooooooooooooooooooooooooooooooooooooooooooooooooooooooooooooooooooooooooooo",
"XXXXXXXXXXXX    OOOOoooooooooooooooooooooooooooooooooooooooooooooooooooooooooooooooooooooooooooooooooooooooooooooooooooooooooooo",
"XXXXXXXXXXXX    OOOOoooooooooooooooooooooooooooooooooooooooooooooooooooooooooooooooooooooooooooooooooooooooooooooooooooooooooooo",
"XXXXXXXXXXXX....    OOOOoooooooooooooooooooooooooooooooooooooooooooooooooooooooooooooooooooooooooooooooooooooooooooooooooooooooo",
"XXXXXXXXXXXX....    OOOOoooooooooooooooooooooooooooooooooooooooooooooooooooooooooooooooooooooooooooooooooooooooooooooooooooooooo",
"XXXXXXXXXXXX....    OOOOoooooooooooooooooooooooooooooooooooooooooooooooooooooooooooooooooooooooooooooooooooooooooooooooooooooooo",
"XXXXXXXXXXXX....    OOOOoooooooooooooooooooooooooooooooooooooooooooooooooooooooooooooooooooooooooooooooooooooooooooooooooooooooo",
"XXXXXXXXXXXX....    OOOOoooooooooooooooooooooooooooooooooooooooooooooooooooooooooooooooooooooooooooooooooooooooooooooooooooooooo",
"XXXXXXXXXXXX....    OOOOoooooooooooooooooooooooooooooooooooooooooooooooooooooooooooooooooooooooooooooooooooooooooooooooooooooooo",
"XXXXXXXXXXXX....    OOOOoooooooooooooooooooooooooooooooooooooooooooooooooooooooooooooooooooooooooooooooooooooooooooooooooooooooo",
"XXXXXXXXXXXX....    OOOOoooooooooooooooooooooooooooooooooooooooooooooooooooooooooooooooooooooooooooooooooooooooooooooooooooooooo",
"XXXX    ........    OOOOoooooooooooooooooooooooooooooooooooooooooooooooooooooooooooooooooooooooooooooooooooooooooooooooooooooooo",
"XXXX    ........    OOOOoooooooooooooooooooooooooooooooooooooooooooooooooooooooooooooooooooooooooooooooooooooooooooooooooooooooo",
"XXXX    ........    OOOOoooooooooooooooooooooooooooooooooooooooooooooooooooooooooooooooooooooooooooooooooooooooooooooooooooooooo",
"XXXX    ........    OOOOoooooooooooooooooooooooooooooooooooooooooooooooooooooooooooooooooooooooooooooooooooooooooooooooooooooooo",
"XXXXXXXX        ++++OOOOoooooooooooooooooooooooooooooooooooooooooooooooooooooooooooooooooooooooooooooooooooooooooooooooooooooooo",
"XXXXXXXX        ++++OOOOoooooooooooooooooooooooooooooooooooooooooooooooooooooooooooooooooooooooooooooooooooooooooooooooooooooooo",
"XXXXXXXX        ++++OOOOoooooooooooooooooooooooooooooooooooooooooooooooooooooooooooooooooooooooooooooooooooooooooooooooooooooooo",
"XXXXXXXX        ++++OOOOoooooooooooooooooooooooooooooooooooooooooooooooooooooooooooooooooooooooooooooooooooooooooooooooooooooooo",
"XXXXXXXXXXXX    ++++OOOOoooooooooooooooooooooooooooooooooooooooooooooooooooooooooooooooooooooooooooooooooooooooooooooooooooooooo",
"XXXXXXXXXXXX    ++++OOOOoooooooooooooooooooooooooooooooooooooooooooooooooooooooooooooooooooooooooooooooooooooooooooooooooooooooo",
"XXXXXXXXXXXX    ++++OOOOoooooooooooooooooooooooooooooooooooooooooooooooooooooooooooooooooooooooooooooooooooooooooooooooooooooooo",
"XXXXXXXXXXXX    ++++OOOOoooooooooooooooooooooooooooooooooooooooooooooooooooooooooooooooooooooooooooooooooooooooooooooooooooooooo",
"XXXXXXXX....    OOOOooooooooooooooooooooooooOOOOoooooooooooooooooooooooooooooooooooooooooooooooooooooooooooooooooooooooooooooooo",
"XXXXXXXX....    OOOOooooooooooooooooooooooooOOOOoooooooooooooooooooooooooooooooooooooooooooooooooooooooooooooooooooooooooooooooo",
"XXXXXXXX....    OOOOooooooooooooooooooooooooOOOOoooooooooooooooooooooooooooooooooooooooooooooooooooooooooooooooooooooooooooooooo",
"XXXXXXXX....    OOOOooooooooooooooooooooooooOOOOoooooooooooooooooooooooooooooooooooooooooooooooooooooooooooooooooooooooooooooooo",
"XXXXXXXX    ++++OOOOooooooooooooooooooooooooOOOOoooooooooooooooooooooooooooooooooooooooooooooooooooooooooooooooooooooooooooooooo",
"XXXXXXXX    ++++OOOOooooooooooooooooooooooooOOOOoooooooooooooooooooooooooooooooooooooooooooooooooooooooooooooooooooooooooooooooo",
"XXXXXXXX    ++++OOOOooooooooooooooooooooooooOOOOoooooooooooooooooooooooooooooooooooooooooooooooooooooooooooooooooooooooooooooooo",
"XXXXXXXX    ++++OOOOooooooooooooooooooooooooOOOOoooooooooooooooooooooooooooooooooooooooooooooooooooooooooooooooooooooooooooooooo",
"XXXXXXXX....    OOOOooooooooooooooooooooooooOOOOOOOOoooooooooooooooooooooooooooooooooooooooooooooooooooooooooooooooooooooooooooo",
"XXXXXXXX....    OOOOooooooooooooooooooooooooOOOOOOOOoooooooooooooooooooooooooooooooooooooooooooooooooooooooooooooooooooooooooooo",
"XXXXXXXX....    OOOOooooooooooooooooooooooooOOOOOOOOoooooooooooooooooooooooooooooooooooooooooooooooooooooooooooooooooooooooooooo",
"XXXXXXXX....    OOOOooooooooooooooooooooooooOOOOOOOOoooooooooooooooooooooooooooooooooooooooooooooooooooooooooooooooooooooooooooo",
"XXXXXXXX....    OOOOooooooooooooooooooooooooooooOOOOoooooooooooooooooooooooooooooooooooooooooooooooooooooooooooooooooooooooooooo",
"XXXXXXXX....    OOOOooooooooooooooooooooooooooooOOOOoooooooooooooooooooooooooooooooooooooooooooooooooooooooooooooooooooooooooooo",
"XXXXXXXX....    OOOOooooooooooooooooooooooooooooOOOOoooooooooooooooooooooooooooooooooooooooooooooooooooooooooooooooooooooooooooo",
"XXXXXXXX....    OOOOooooooooooooooooooooooooooooOOOOoooooooooooooooooooooooooooooooooooooooooooooooooooooooooooooooooooooooooooo",
"XXXX........    OOOOooooooooooooooooooooooooooooOOOOoooooooooooooooooooooooooooooooooooooooooooooooooooooooooooooooooooooooooooo",
"XXXX........    OOOOooooooooooooooooooooooooooooOOOOoooooooooooooooooooooooooooooooooooooooooooooooooooooooooooooooooooooooooooo",
"XXXX........    OOOOooooooooooooooooooooooooooooOOOOoooooooooooooooooooooooooooooooooooooooooooooooooooooooooooooooooooooooooooo",
"XXXX........    OOOOooooooooooooooooooooooooooooOOOOoooooooooooooooooooooooooooooooooooooooooooooooooooooooooooooooooooooooooooo",
"XXXX        ++++OOOOooooooooooooooooooooooooooooooooooooooooooooooooooooooooooooooooooooooooooooooooooooooooooooooooOOOOOOOOOOOO",
"XXXX        ++++OOOOooooooooooooooooooooooooooooooooooooooooooooooooooooooooooooooooooooooooooooooooooooooooooooooooOOOOOOOOOOOO",
"XXXX        ++++OOOOooooooooooooooooooooooooooooooooooooooooooooooooooooooooooooooooooooooooooooooooooooooooooooooooOOOOOOOOOOOO",
"XXXX        ++++OOOOooooooooooooooooooooooooooooooooooooooooooooooooooooooooooooooooooooooooooooooooooooooooooooooooOOOOOOOOOOOO",
"XXXXXXXX        ++++OOOOooooooooooooooooooooooooooooooooooooooooooooooooooooooooooooOOOOOOOOooooooooooooooooooooOOOO            ",
"XXXXXXXX        ++++OOOOooooooooooooooooooooooooooooooooooooooooooooooooooooooooooooOOOOOOOOooooooooooooooooooooOOOO            ",
"XXXXXXXX        ++++OOOOooooooooooooooooooooooooooooooooooooooooooooooooooooooooooooOOOOOOOOooooooooooooooooooooOOOO            ",
"XXXXXXXX        ++++OOOOooooooooooooooooooooooooooooooooooooooooooooooooooooooooooooOOOOOOOOooooooooooooooooooooOOOO            ",
"XXXXXXXX....    ++++OOOOooooooooooooooooooooooooooooooooooooooooooooooooooooooooooooOOOOooooooooooooooooooooOOOO    XXXXXXXXXXXX",
"XXXXXXXX....    ++++OOOOooooooooooooooooooooooooooooooooooooooooooooooooooooooooooooOOOOooooooooooooooooooooOOOO    XXXXXXXXXXXX",
"XXXXXXXX....    ++++OOOOooooooooooooooooooooooooooooooooooooooooooooooooooooooooooooOOOOooooooooooooooooooooOOOO    XXXXXXXXXXXX",
"XXXXXXXX....    ++++OOOOooooooooooooooooooooooooooooooooooooooooooooooooooooooooooooOOOOooooooooooooooooooooOOOO    XXXXXXXXXXXX",
"XXXXXXXX....    ++++OOOOooooooooooooooooooooooooooooooooooooooooooooooooooooooooooooOOOOooooooooooooooooOOOO    ....XXXXXXXXXXXX",
"XXXXXXXX....    ++++OOOOooooooooooooooooooooooooooooooooooooooooooooooooooooooooooooOOOOooooooooooooooooOOOO    ....XXXXXXXXXXXX",
"XXXXXXXX....    ++++OOOOooooooooooooooooooooooooooooooooooooooooooooooooooooooooooooOOOOooooooooooooooooOOOO    ....XXXXXXXXXXXX",
"XXXXXXXX....    ++++OOOOooooooooooooooooooooooooooooooooooooooooooooooooooooooooooooOOOOooooooooooooooooOOOO    ....XXXXXXXXXXXX",
"XXXXXXXX....    OOOOooooooooooooooooooooooooooooooooooooooooooooooooooooooooooooooooooooooooooooooooooooOOOO    ....XXXXXXXXXXXX",
"XXXXXXXX....    OOOOooooooooooooooooooooooooooooooooooooooooooooooooooooooooooooooooooooooooooooooooooooOOOO    ....XXXXXXXXXXXX",
"XXXXXXXX....    OOOOooooooooooooooooooooooooooooooooooooooooooooooooooooooooooooooooooooooooooooooooooooOOOO    ....XXXXXXXXXXXX",
"XXXXXXXX....    OOOOooooooooooooooooooooooooooooooooooooooooooooooooooooooooooooooooooooooooooooooooooooOOOO    ....XXXXXXXXXXXX"
};
