/* XPM */
static char *result[] = {
/* columns rows colors chars-per-pixel */
"128 128 10 1 ",
"  c #163C2B",
". c #755338",
"X c #296640",
"o c #9D7658",
"O c #509B66",
"+ c #00CCFF",
"@ c gray54",
"# c gray59",
"$ c #D7F8FF",
"% c #F4FDFF",
/* pixels */
"OOOOOOOOOOOOXXXX    $$$$++++++++++++++++++++++++++++++++++++++++++++++++++++++++++++++++++++++++++++++++$$$$    OOOOOOOOOOOOOOOO",
"OOOOOOOOOOOOXXXX    $$$$++++++++++++++++++++++++++++++++++++++++++++++++++++++++++++++++++++++++++++++++$$$$    OOOOOOOOOOOOOOOO",
"OOOOOOOOOOOOXXXX    $$$$++++++++++++++++++++++++++++++++++++++++++++++++++++++++++++++++++++++++++++++++$$$$    OOOOOOOOOOOOOOOO",
"OOOOOOOOOOOOXXXX    $$$$++++++++++++++++++++++++++++++++++++++++++++++++++++++++++++++++++++++++++++++++$$$$    OOOOOOOOOOOOOOOO",
"OOOOOOOOOOOOXXXX    $$$$++++++++++++++++++++++++++++++++++++++++++++++++++++++++++++++++++++++++++++$$$$%%%%    OOOOOOOOOOOOOOOO",
"OOOOOOOOOOOOXXXX    $$$$++++++++++++++++++++++++++++++++++++++++++++++++++++++++++++++++++++++++++++$$$$%%%%    OOOOOOOOOOOOOOOO",
"OOOOOOOOOOOOXXXX    $$$$++++++++++++++++++++++++++++++++++++++++++++++++++++++++++++++++++++++++++++$$$$%%%%    OOOOOOOOOOOOOOOO",
"OOOOOOOOOOOOXXXX    $$$$++++++++++++++++++++++++++++++++++++++++++++++++++++++++++++++++++++++++++++$$$$%%%%    OOOOOOOOOOOOOOOO",
"OOOOOOOOOOOOXXXX    $$$$++++++++++++++++++++++++++++++++++++++++++++++++++++++++++++++++++++++++++++$$$$%%%%        XXXXXXXXXXXX",
"OOOOOOOOOOOOXXXX    $$$$++++++++++++++++++++++++++++++++++++++++++++++++++++++++++++++++++++++++++++$$$$%%%%        XXXXXXXXXXXX",
"OOOOOOOOOOOOXXXX    $$$$++++++++++++++++++++++++++++++++++++++++++++++++++++++++++++++++++++++++++++$$$$%%%%        XXXXXXXXXXXX",
"OOOOOOOOOOOOXXXX    $$$$++++++++++++++++++++++++++++++++++++++++++++++++++++++++++++++++++++++++++++$$$$%%%%        XXXXXXXXXXXX",
"XXXXXXXXXXXX        $$$$++++++++++++++++++++++++++++++++++++++++++++++++++++++++++++$$$$++++++++++++$$$$%%%%........            ",
"XXXXXXXXXXXX        $$$$++++++++++++++++++++++++++++++++++++++++++++++++++++++++++++$$$$++++++++++++$$$$%%%%........            ",
"XXXXXXXXXXXX        $$$$++++++++++++++++++++++++++++++++++++++++++++++++++++++++++++$$$$++++++++++++$$$$%%%%........            ",
"XXXXXXXXXXXX        $$$$++++++++++++++++++++++++++++++++++++++++++++++++++++++++++++$$$$++++++++++++$$$$%%%%........            ",
"                %%%%$$$$++++++++++++++++++++++++++++++++++++++++++++++++++++++++++++++++$$$$++++++++++++$$$$....oooo............",
"                %%%%$$$$++++++++++++++++++++++++++++++++++++++++++++++++++++++++++++++++$$$$++++++++++++$$$$....oooo............",
"                %%%%$$$$++++++++++++++++++++++++++++++++++++++++++++++++++++++++++++++++$$$$++++++++++++$$$$....oooo............",
"                %%%%$$$$++++++++++++++++++++++++++++++++++++++++++++++++++++++++++++++++$$$$++++++++++++$$$$....oooo............",
"........oooo....$$$$++++++++++++++++++++++++++++++++++++++++++++++++++++++++++++++++++++++++++++++++++++$$$$....oooooooooooooooo",
"........oooo....$$$$++++++++++++++++++++++++++++++++++++++++++++++++++++++++++++++++++++++++++++++++++++$$$$....oooooooooooooooo",
"........oooo....$$$$++++++++++++++++++++++++++++++++++++++++++++++++++++++++++++++++++++++++++++++++++++$$$$....oooooooooooooooo",
"........oooo....$$$$++++++++++++++++++++++++++++++++++++++++++++++++++++++++++++++++++++++++++++++++++++$$$$....oooooooooooooooo",
"oooooooooooo....$$$$++++++++++++++++++++++++++++++++++++++++++++++++++++++++++++++++++++++++++++++++++++%%%%....oooooooo@@@@####",
"oooooooooooo....$$$$++++++++++++++++++++++++++++++++++++++++++++++++++++++++++++++++++++++++++++++++++++%%%%....oooooooo@@@@####",
"oooooooooooo....$$$$++++++++++++++++++++++++++++++++++++++++++++++++++++++++++++++++++++++++++++++++++++%%%%....oooooooo@@@@####",
"oooooooooooo....$$$$++++++++++++++++++++++++++++++++++++++++++++++++++++++++++++++++++++++++++++++++++++%%%%....oooooooo@@@@####",
"oooooooooooo....%%%%++++++++++++++++++++++++++++++++++++++++++++++++++++++++++++++++++++++++++++++++++++%%%%....oooooooo........",
"oooooooooooo....%%%%++++++++++++++++++++++++++++++++++++++++++++++++++++++++++++++++++++++++++++++++++++%%%%....oooooooo........",
"oooooooooooo....%%%%++++++++++++++++++++++++++++++++++++++++++++++++++++++++++++++++++++++++++++++++++++%%%%....oooooooo........",
"oooooooooooo....%%%%++++++++++++++++++++++++++++++++++++++++++++++++++++++++++++++++++++++++++++++++++++%%%%....oooooooo........",
"oooooooooooo....%%%%++++++++$$$$++++++++++++++++++++++++++++++++++++++++++++++++++++++++++++++++++++++++$$$$%%%%oooooooooooooooo",
"oooooooooooo....%%%%++++++++$$$$++++++++++++++++++++++++++++++++++++++++++++++++++++++++++++++++++++++++$$$$%%%%oooooooooooooooo",
"oooooooooooo....%%%%++++++++$$$$++++++++++++++++++++++++++++++++++++++++++++++++++++++++++++++++++++++++$$$$%%%%oooooooooooooooo",
"oooooooooooo....%%%%++++++++$$$$++++++++++++++++++++++++++++++++++++++++++++++++++++++++++++++++++++++++$$$$%%%%oooooooooooooooo",
"oooooooooooo%%%%$$$$++++$$$$++++++++++++++++++++++++++++++++++++++++++++++++++++++++++++++++++++++++++++$$$$%%%%%%%%%%%%%%%%%%%%",
"oooooooooooo%%%%$$$$++++$$$$++++++++++++++++++++++++++++++++++++++++++++++++++++++++++++++++++++++++++++$$$$%%%%%%%%%%%%%%%%%%%%",
"oooooooooooo%%%%$$$$++++$$$$++++++++++++++++++++++++++++++++++++++++++++++++++++++++++++++++++++++++++++$$$$%%%%%%%%%%%%%%%%%%%%",
"oooooooooooo%%%%$$$$++++$$$$++++++++++++++++++++++++++++++++++++++++++++++++++++++++++++++++++++++++++++$$$$%%%%%%%%%%%%%%%%%%%%",
"%%%%%%%%%%%%%%%%$$$$++++++++++++++++++++++++++++++++++++++++++++++++++++++++++++++++++++++++++++++++++++++++$$$$$$$$$$$$$$$$$$$$",
"%%%%%%%%%%%%%%%%$$$$++++++++++++++++++++++++++++++++++++++++++++++++++++++++++++++++++++++++++++++++++++++++$$$$$$$$$$$$$$$$$$$$",
"%%%%%%%%%%%%%%%%$$$$++++++++++++++++++++++++++++++++++++++++++++++++++++++++++++++++++++++++++++++++++++++++$$$$$$$$$$$$$$$$$$$$",
"%%%%%%%%%%%%%%%%$$$$++++++++++++++++++++++++++++++++++++++++++++++++++++++++++++++++++++++++++++++++++++++++$$$$$$$$$$$$$$$$$$$$",
"$$$$$$$$$$$$$$$$++++++++++++++++++++++++++++++++++++++++++++++++++++++++++++++++++++++++++++++++++++++++++++++++++++++++++++++++",
"$$$$$$$$$$$$$$$$++++++++++++++++++++++++++++++++++++++++++++++++++++++++++++++++++++++++++++++++++++++++++++++++++++++++++++++++",
"$$$$$$$$$$$$$$$$++++++++++++++++++++++++++++++++++++++++++++++++++++++++++++++++++++++++++++++++++++++++++++++++++++++++++++++++",
"$$$$$$$$$$$$$$$$++++++++++++++++++++++++++++++++++++++++++++++++++++++++++++++++++++++++++++++++++++++++++++++++++++++++++++++++",
"++++++++++++++++++++++++++++++++++++++++$$$$$$$$++++++++++++++++++++++++++++++++$$$$++++++++++++++++++++$$$$++++++++++++++++++++",
"++++++++++++++++++++++++++++++++++++++++$$$$$$$$++++++++++++++++++++++++++++++++$$$$++++++++++++++++++++$$$$++++++++++++++++++++",
"++++++++++++++++++++++++++++++++++++++++$$$$$$$$++++++++++++++++++++++++++++++++$$$$++++++++++++++++++++$$$$++++++++++++++++++++",
"++++++++++++++++++++++++++++++++++++++++$$$$$$$$++++++++++++++++++++++++++++++++$$$$++++++++++++++++++++$$$$++++++++++++++++++++",
"++++++++++++++++++++++++++++++++++++$$$$$$$$++++++++++++++++++++++++++++++++++++++++$$$$++++++++++++++++++++$$$$++++++++++++++++",
"++++++++++++++++++++++++++++++++++++$$$$$$$$++++++++++++++++++++++++++++++++++++++++$$$$++++++++++++++++++++$$$$++++++++++++++++",
"++++++++++++++++++++++++++++++++++++$$$$$$$$++++++++++++++++++++++++++++++++++++++++$$$$++++++++++++++++++++$$$$++++++++++++++++",
"++++++++++++++++++++++++++++++++++++$$$$$$$$++++++++++++++++++++++++++++++++++++++++$$$$++++++++++++++++++++$$$$++++++++++++++++",
"++++++++++++++++++++++++++++++++++++$$$$++++++++++++++++++++++++++++++++++++++++++++++++++++++++++++++++++++++++++++++++++++++++",
"++++++++++++++++++++++++++++++++++++$$$$++++++++++++++++++++++++++++++++++++++++++++++++++++++++++++++++++++++++++++++++++++++++",
"++++++++++++++++++++++++++++++++++++$$$$++++++++++++++++++++++++++++++++++++++++++++++++++++++++++++++++++++++++++++++++++++++++",
"++++++++++++++++++++++++++++++++++++$$$$++++++++++++++++++++++++++++++++++++++++++++++++++++++++++++++++++++++++++++++++++++++++",
"++++++++++++++++++++++++++++++++++++++++++++++++++++++++++++++++++++++++++++++++++++++++++++++++++++++++++++++++++++++++++++++++",
"++++++++++++++++++++++++++++++++++++++++++++++++++++++++++++++++++++++++++++++++++++++++++++++++++++++++++++++++++++++++++++++++",
"++++++++++++++++++++++++++++++++++++++++++++++++++++++++++++++++++++++++++++++++++++++++++++++++++++++++++++++++++++++++++++++++",
"++++++++++++++++++++++++++++++++++++++++++++++++++++++++++++++++++++++++++++++++++++++++++++++++++++++++++++++++++++++++++++++++",
"++++++++++++++++++++++++++++++++++++++++++++++++++++++++++++++++++++++++++++++++++++++++++++++++++++++++++++++++++++++++++++++++",
"++++++++++++++++++++++++++++++++++++++++++++++++++++++++++++++++++++++++++++++++++++++++++++++++++++++++++++++++++++++++++++++++",
"++++++++++++++++++++++++++++++++++++++++++++++++++++++++++++++++++++++++++++++++++++++++++++++++++++++++++++++++++++++++++++++++",
"++++++++++++++++++++++++++++++++++++++++++++++++++++++++++++++++++++++++++++++++++++++++++++++++++++++++++++++++++++++++++++++++",
"++++++++++++++++++++++++++++++++++++++++++++++++++++++++++++++++++++++++++++++++++++++++++++++++++++++++++++++++++++++++++++++++",
"++++++++++++++++++++++++++++++++++++++++++++++++++++++++++++++++++++++++++++++++++++++++++++++++++++++++++++++++++++++++++++++++",
"++++++++++++++++++++++++++++++++++++++++++++++++++++++++++++++++++++++++++++++++++++++++++++++++++++++++++++++++++++++++++++++++",
"++++++++++++++++++++++++++++++++++++++++++++++++++++++++++++++++++++++++++++++++++++++++++++++++++++++++++++++++++++++++++++++++",
"++++++++++++++++++++++++++++++++++++++++++++++++++++++++++++++++++++++++++++++++++++++++++++++++++++++++++++++++++++++++++++++++",
"++++++++++++++++++++++++++++++++++++++++++++++++++++++++++++++++++++++++++++++++++++++++++++++++++++++++++++++++++++++++++++++++",
"++++++++++++++++++++++++++++++++++++++++++++++++++++++++++++++++++++++++++++++++++++++++++++++++++++++++++++++++++++++++++++++++",
"++++++++++++++++++++++++++++++++++++++++++++++++++++++++++++++++++++++++++++++++++++++++++++++++++++++++++++++++++++++++++++++++",
"++++++++++++++++++++++++++++++++++++++++++++++++++++++++++++++++++++++++++++++++++++++++++++++++++++++++++++++++++++++++++++++++",
"++++++++++++++++++++++++++++++++++++++++++++++++++++++++++++++++++++++++++++++++++++++++++++++++++++++++++++++++++++++++++++++++",
"++++++++++++++++++++++++++++++++++++++++++++++++++++++++++++++++++++++++++++++++++++++++++++++++++++++++++++++++++++++++++++++++",
"++++++++++++++++++++++++++++++++++++++++++++++++++++++++++++++++++++++++++++++++++++++++++++++++++++++++++++++++++++++++++++++++",
"++++++++++++++++++++++++++++++++++++++++++++++++++++++++++++++++++++++++++++++++++++++++++++++++++++++++++++++++++++++++++++++++",
"++++++++++++++++++++++++++++++++++++++++++++++++++++++++++++++++++++++++++++++++++++++++++++++++++++++++++++++++++++++++++++++++",
"++++++++++++++++++++++++++++++++++++++++++++++++++++++++++++++++++++++++++++++++++++++++++++++++++++++++++++++++++++++++++++++++",
"++++++++++++++++++++++++++++++++++++++++++++++++++++++++++++++++++++++++++++++++++++++++++++++++++++++++++++++++++++++++++++++++",
"++++++++++++++++++++++++++++++++++++++++++++++++++++++++++++++++++++++++++++++++++++++++++++++++++++++++++++++++++++++++++++++++",
"++++++++++++++++++++++++++++++++++++++++++++++++++++++++++++++++++++++++++++++++++++++++++++++++++++++++++++++++++++++++++++++++",
"++++++++++++++++++++++++++++++++++++++++++++++++++++++++++++++++++++++++++++++++++++++++++++++++++++++++++++++++++++++++++++++++",
"++++++++++++++++++++++++++++++++++++++++++++++++++++++++++++++++++++++++++++++++++++++++++++++++++++++++++++++++++++++++++++++++",
"++++++++++++++++++++++++++++++++++++$$$$++++++++++++++++++++++++++++++++++++++++++++++++$$$$++++++++++++++++++++++++++++++++++++",
"++++++++++++++++++++++++++++++++++++$$$$++++++++++++++++++++++++++++++++++++++++++++++++$$$$++++++++++++++++++++++++++++++++++++",
"++++++++++++++++++++++++++++++++++++$$$$++++++++++++++++++++++++++++++++++++++++++++++++$$$$++++++++++++++++++++++++++++++++++++",
"++++++++++++++++++++++++++++++++++++$$$$++++++++++++++++++++++++++++++++++++++++++++++++$$$$++++++++++++++++++++++++++++++++++++",
"++++++++$$$$++++++++++++++++++++++++$$$$$$$$++++++++++++++++++++++++++++++++++++++++$$$$$$$$++++++++++++++++++++++++++++++++++++",
"++++++++$$$$++++++++++++++++++++++++$$$$$$$$++++++++++++++++++++++++++++++++++++++++$$$$$$$$++++++++++++++++++++++++++++++++++++",
"++++++++$$$$++++++++++++++++++++++++$$$$$$$$++++++++++++++++++++++++++++++++++++++++$$$$$$$$++++++++++++++++++++++++++++++++++++",
"++++++++$$$$++++++++++++++++++++++++$$$$$$$$++++++++++++++++++++++++++++++++++++++++$$$$$$$$++++++++++++++++++++++++++++++++++++",
"++++++++++++$$$$++++++++++++++++++++++++$$$$$$$$++++++++++++++++++++++++++++$$$$$$$$$$$$++++++++++++++++++++++++++++++++++++++++",
"++++++++++++$$$$++++++++++++++++++++++++$$$$$$$$++++++++++++++++++++++++++++$$$$$$$$$$$$++++++++++++++++++++++++++++++++++++++++",
"++++++++++++$$$$++++++++++++++++++++++++$$$$$$$$++++++++++++++++++++++++++++$$$$$$$$$$$$++++++++++++++++++++++++++++++++++++++++",
"++++++++++++$$$$++++++++++++++++++++++++$$$$$$$$++++++++++++++++++++++++++++$$$$$$$$$$$$++++++++++++++++++++++++++++++++++++++++",
"++++++++++++++++++++++++++++++++++++++++++++++++++++++++++++++++++++++++++++++++++++++++++++++++++++++++++++++++++++++++++++++++",
"++++++++++++++++++++++++++++++++++++++++++++++++++++++++++++++++++++++++++++++++++++++++++++++++++++++++++++++++++++++++++++++++",
"++++++++++++++++++++++++++++++++++++++++++++++++++++++++++++++++++++++++++++++++++++++++++++++++++++++++++++++++++++++++++++++++",
"++++++++++++++++++++++++++++++++++++++++++++++++++++++++++++++++++++++++++++++++++++++++++++++++++++++++++++++++++++++++++++++++",
"$$$$$$$$$$$$++++++++++++++++++++++++++++++++++++++++++++++++++++++++++++++++++++++++++++++++++++++++++++++++++++++++$$$$$$$$$$$$",
"$$$$$$$$$$$$++++++++++++++++++++++++++++++++++++++++++++++++++++++++++++++++++++++++++++++++++++++++++++++++++++++++$$$$$$$$$$$$",
"$$$$$$$$$$$$++++++++++++++++++++++++++++++++++++++++++++++++++++++++++++++++++++++++++++++++++++++++++++++++++++++++$$$$$$$$$$$$",
"$$$$$$$$$$$$++++++++++++++++++++++++++++++++++++++++++++++++++++++++++++++++++++++++++++++++++++++++++++++++++++++++$$$$$$$$$$$$",
"        %%%%$$$$++++++++++++++++++++++++++++++++++++++++++++++++++++++++++++++++++++++++++++++++++++$$$$++++++++$$$$%%%%        ",
"        %%%%$$$$++++++++++++++++++++++++++++++++++++++++++++++++++++++++++++++++++++++++++++++++++++$$$$++++++++$$$$%%%%        ",
"        %%%%$$$$++++++++++++++++++++++++++++++++++++++++++++++++++++++++++++++++++++++++++++++++++++$$$$++++++++$$$$%%%%        ",
"        %%%%$$$$++++++++++++++++++++++++++++++++++++++++++++++++++++++++++++++++++++++++++++++++++++$$$$++++++++$$$$%%%%        ",
"XXXXXXXX    $$$$++++++++++++++++++++++++++++++++++++++++++++++++++++++++++++++++++++++++++++++++$$$$++++++++$$$$%%%%    OOOOOOOO",
"XXXXXXXX    $$$$++++++++++++++++++++++++++++++++++++++++++++++++++++++++++++++++++++++++++++++++$$$$++++++++$$$$%%%%    OOOOOOOO",
"XXXXXXXX    $$$$++++++++++++++++++++++++++++++++++++++++++++++++++++++++++++++++++++++++++++++++$$$$++++++++$$$$%%%%    OOOOOOOO",
"XXXXXXXX    $$$$++++++++++++++++++++++++++++++++++++++++++++++++++++++++++++++++++++++++++++++++$$$$++++++++$$$$%%%%    OOOOOOOO",
"OOOOOOOOXXXX    $$$$++++$$$$++++++++++++++++++++++++++++++++++++++++++++++++++++++++++++++++++++++++++++++++$$$$    XXXXOOOOOOOO",
"OOOOOOOOXXXX    $$$$++++$$$$++++++++++++++++++++++++++++++++++++++++++++++++++++++++++++++++++++++++++++++++$$$$    XXXXOOOOOOOO",
"OOOOOOOOXXXX    $$$$++++$$$$++++++++++++++++++++++++++++++++++++++++++++++++++++++++++++++++++++++++++++++++$$$$    XXXXOOOOOOOO",
"OOOOOOOOXXXX    $$$$++++$$$$++++++++++++++++++++++++++++++++++++++++++++++++++++++++++++++++++++++++++++++++$$$$    XXXXOOOOOOOO",
"OOOOOOOOXXXX    $$$$++++++++$$$$++++++++++++++++++++++++++++++++++++++++++++++++++++++++++++++++++++++++++++$$$$    XXXXOOOOOOOO",
"OOOOOOOOXXXX    $$$$++++++++$$$$++++++++++++++++++++++++++++++++++++++++++++++++++++++++++++++++++++++++++++$$$$    XXXXOOOOOOOO",
"OOOOOOOOXXXX    $$$$++++++++$$$$++++++++++++++++++++++++++++++++++++++++++++++++++++++++++++++++++++++++++++$$$$    XXXXOOOOOOOO",
"OOOOOOOOXXXX    $$$$++++++++$$$$++++++++++++++++++++++++++++++++++++++++++++++++++++++++++++++++++++++++++++$$$$    XXXXOOOOOOOO",
"OOOOOOOOXXXX    $$$$++++++++++++++++++++++++++++++++++++++++++++++++++++++++++++++++++++++++++++++++++++++++$$$$    XXXXOOOOOOOO",
"OOOOOOOOXXXX    $$$$++++++++++++++++++++++++++++++++++++++++++++++++++++++++++++++++++++++++++++++++++++++++$$$$    XXXXOOOOOOOO",
"OOOOOOOOXXXX    $$$$++++++++++++++++++++++++++++++++++++++++++++++++++++++++++++++++++++++++++++++++++++++++$$$$    XXXXOOOOOOOO",
"OOOOOOOOXXXX    $$$$++++++++++++++++++++++++++++++++++++++++++++++++++++++++++++++++++++++++++++++++++++++++$$$$    XXXXOOOOOOOO"
};
