/* XPM */
static char *_001[] = {
/* columns rows colors chars-per-pixel */
"32 32 5 1 ",
"  c #163C2B",
". c #755338",
"X c #296640",
"o c #9D7658",
"O c #509B66",
/* pixels */
"OOOOOOOOOOOOOOOOOOOOOOOOOOOOOOOO",
"OOOOOOOOOOOOOOOOOOOOOOOOOOOOOOOO",
"OOOOOOOOOOOOOOOOOOOOOOOOOOOOOOOO",
"OOOOOOOOOOOOOOOOOOOOOOOOOOOOOOOO",
"OOOOOOOOOOOOOOOOOOOOOOOOOOOOOOOO",
"OOOOOOOOOOOOOOOOOOOOOOOOOOOOOOOO",
"OOOOOOOOOOOOOOOOOOOOOOOOOOOOOOOO",
"OOOOOOOOOOOOOOOXOOOOOOOOOOOOOOOO",
"OOOOOOOOOOX OXX OOXXOOOOOOOOOOOO",
"OOOOOOOOOOXX   . X  XOOOOOOOOOOO",
"OOOOOOOOOX  ...o. .. XOOOOOOOOOO",
"OOOOOOOOX ..ooooo.oo. OOOOOOOOOO",
"OOOOOOOOX .ooooooooo. OOOOOOOOOO",
"OOOOOOOO .oooooooooo XOOOOOOOOOO",
"OOOOOOOO .oooooooooo. XOOOOOOOOO",
"OOOOOOOOX ooooooooooo XOOOOOOOOO",
"OOOOOOOOX ooooooooooo. OOOOOOOOO",
"OOOOOOOO .oooooooooo. XOOOOOOOOO",
"OOOOOOOOO oooooooooo XOOOOOOOOOO",
"OOOOOOOOX .ooooooooo  XOOOOOOOOO",
"OOOOOOOOX .oooooooo.. XOOOOOOOOO",
"OOOOOOOOOX .  .  ..  XOOOOOOOOOO",
"OOOOOOOOOOX XX XX  XXOOOOOOOOOOO",
"OOOOOOOOOOOXOOXOOXXOOOOOOOOOOOOO",
"OOOOOOOOOOOOOOOOOOOOOOOOOOOOOOOO",
"OOOOOOOOOOOOOOOOOOOOOOOOOOOOOOOO",
"OOOOOOOOOOOOOOOOOOOOOOOOOOOOOOOO",
"OOOOOOOOOOOOOOOOOOOOOOOOOOOOOOOO",
"OOOOOOOOOOOOOOOOOOOOOOOOOOOOOOOO",
"OOOOOOOOOOOOOOOOOOOOOOOOOOOOOOOO",
"OOOOOOOOOOOOOOOOOOOOOOOOOOOOOOOO",
"OOOOOOOOOOOOOOOOOOOOOOOOOOOOOOOO"
};
