/* XPM */
static char *result[] = {
/* columns rows colors chars-per-pixel */
"128 128 8 1 ",
"  c #524036",
". c #9C5B26",
"X c #BB8049",
"o c #C7925E",
"O c #D4A369",
"+ c #E5D4C3",
"@ c #F0EBE6",
"# c None",
/* pixels */
"################################################################################################################################",
"################################################################################################################################",
"################################################################################################################################",
"################################################################################################################################",
"################################################################################################################################",
"################################################################################################################################",
"################################################################################################################################",
"################################################################################################################################",
"################################################################################################################################",
"################################################################################################################################",
"################################################################################################################################",
"################################################################################################################################",
"################################################################################################################################",
"################################################################################################################################",
"################################################################################################################################",
"################################################################################################################################",
"################################################################################################################################",
"################################################################################################################################",
"################################################################################################################################",
"################################################################################################################################",
"####################################################    ####################    ################################################",
"####################################################    ####################    ################################################",
"####################################################    ####################    ################################################",
"####################################################    ####################    ################################################",
"################################################    OOOO    ############    OOOO    ############################################",
"################################################    OOOO    ############    OOOO    ############################################",
"################################################    OOOO    ############    OOOO    ############################################",
"################################################    OOOO    ############    OOOO    ############################################",
"############################################    ooooOOOOOOOO            OOOOOOOOoooo    ########################################",
"############################################    ooooOOOOOOOO            OOOOOOOOoooo    ########################################",
"############################################    ooooOOOOOOOO            OOOOOOOOoooo    ########################################",
"############################################    ooooOOOOOOOO            OOOOOOOOoooo    ########################################",
"############################################    XXXXOOOOooooooooXXXXooooooooOOOOXXXX    ########################################",
"############################################    XXXXOOOOooooooooXXXXooooooooOOOOXXXX    ########################################",
"############################################    XXXXOOOOooooooooXXXXooooooooOOOOXXXX    ########################################",
"############################################    XXXXOOOOooooooooXXXXooooooooOOOOXXXX    ########################################",
"############################################    ooooOOOOOOOOooooXXXXooooOOOOOOOOoooo    ########################################",
"############################################    ooooOOOOOOOOooooXXXXooooOOOOOOOOoooo    ########################################",
"############################################    ooooOOOOOOOOooooXXXXooooOOOOOOOOoooo    ########################################",
"############################################    ooooOOOOOOOOooooXXXXooooOOOOOOOOoooo    ########################################",
"########################################    ooooOOOOOOOOOOOOOOOOooooOOOOOOOOOOOOOOOOoooo    ####################################",
"########################################    ooooOOOOOOOOOOOOOOOOooooOOOOOOOOOOOOOOOOoooo    ####################################",
"########################################    ooooOOOOOOOOOOOOOOOOooooOOOOOOOOOOOOOOOOoooo    ####################################",
"########################################    ooooOOOOOOOOOOOOOOOOooooOOOOOOOOOOOOOOOOoooo    ####################################",
"########################################    ooooOOOOOOOOOOOOOOOOooooOOOOOOOOOOOOOOOOoooo    ####################################",
"########################################    ooooOOOOOOOOOOOOOOOOooooOOOOOOOOOOOOOOOOoooo    ####################################",
"########################################    ooooOOOOOOOOOOOOOOOOooooOOOOOOOOOOOOOOOOoooo    ####################################",
"########################################    ooooOOOOOOOOOOOOOOOOooooOOOOOOOOOOOOOOOOoooo    ####################################",
"########################################    XXXXooooOOOOOOOOOOOOooooOOOOOOOOOOOOooooXXXX    ####################################",
"########################################    XXXXooooOOOOOOOOOOOOooooOOOOOOOOOOOOooooXXXX    ####################################",
"########################################    XXXXooooOOOOOOOOOOOOooooOOOOOOOOOOOOooooXXXX    ####################################",
"########################################    XXXXooooOOOOOOOOOOOOooooOOOOOOOOOOOOooooXXXX    ####################################",
"########################################    XXXXooooOOOOOOOOooooXXXXooooOOOOOOOOooooXXXX    ####################################",
"########################################    XXXXooooOOOOOOOOooooXXXXooooOOOOOOOOooooXXXX    ####################################",
"########################################    XXXXooooOOOOOOOOooooXXXXooooOOOOOOOOooooXXXX    ####################################",
"########################################    XXXXooooOOOOOOOOooooXXXXooooOOOOOOOOooooXXXX    ####################################",
"############################################    ooooooooXXXXXXXXXXXXXXXXXXXXoooooooo    ########################################",
"############################################    ooooooooXXXXXXXXXXXXXXXXXXXXoooooooo    ########################################",
"############################################    ooooooooXXXXXXXXXXXXXXXXXXXXoooooooo    ########################################",
"############################################    ooooooooXXXXXXXXXXXXXXXXXXXXoooooooo    ########################################",
"############################################    ....ooooOOOOooooXXXXooooOOOOoooo....    ########################################",
"############################################    ....ooooOOOOooooXXXXooooOOOOoooo....    ########################################",
"############################################    ....ooooOOOOooooXXXXooooOOOOoooo....    ########################################",
"############################################    ....ooooOOOOooooXXXXooooOOOOoooo....    ########################################",
"############################################    ooooOOOOOOOOOOOOooooOOOOOOOOOOOOoooo    ########################################",
"############################################    ooooOOOOOOOOOOOOooooOOOOOOOOOOOOoooo    ########################################",
"############################################    ooooOOOOOOOOOOOOooooOOOOOOOOOOOOoooo    ########################################",
"############################################    ooooOOOOOOOOOOOOooooOOOOOOOOOOOOoooo    ########################################",
"############################################    ooooooooOOOO        OOOOOOOOoooooooo    ########################################",
"############################################    ooooooooOOOO        OOOOOOOOoooooooo    ########################################",
"############################################    ooooooooOOOO        OOOOOOOOoooooooo    ########################################",
"############################################    ooooooooOOOO        OOOOOOOOoooooooo    ########################################",
"############################################    OOOOOOOO    ++++@@@@    OOOOOOOOOOOO    ########################################",
"############################################    OOOOOOOO    ++++@@@@    OOOOOOOOOOOO    ########################################",
"############################################    OOOOOOOO    ++++@@@@    OOOOOOOOOOOO    ########################################",
"############################################    OOOOOOOO    ++++@@@@    OOOOOOOOOOOO    ########################################",
"############################################    ooooOOOO    ++++@@@@    OOOOOOOOoooo    ########################################",
"############################################    ooooOOOO    ++++@@@@    OOOOOOOOoooo    ########################################",
"############################################    ooooOOOO    ++++@@@@    OOOOOOOOoooo    ########################################",
"############################################    ooooOOOO    ++++@@@@    OOOOOOOOoooo    ########################################",
"############################################    OOOOOOOO    ++++@@@@++++    OOOOOOOO    ########################################",
"############################################    OOOOOOOO    ++++@@@@++++    OOOOOOOO    ########################################",
"############################################    OOOOOOOO    ++++@@@@++++    OOOOOOOO    ########################################",
"############################################    OOOOOOOO    ++++@@@@++++    OOOOOOOO    ########################################",
"############################################    OOOOOOOO    ++++++++++++    OOOOOOOO    ########################################",
"############################################    OOOOOOOO    ++++++++++++    OOOOOOOO    ########################################",
"############################################    OOOOOOOO    ++++++++++++    OOOOOOOO    ########################################",
"############################################    OOOOOOOO    ++++++++++++    OOOOOOOO    ########################################",
"############################################    OOOOOOOO    OOOO++++OOOO    OOOOOOOO    ########################################",
"############################################    OOOOOOOO    OOOO++++OOOO    OOOOOOOO    ########################################",
"############################################    OOOOOOOO    OOOO++++OOOO    OOOOOOOO    ########################################",
"############################################    OOOOOOOO    OOOO++++OOOO    OOOOOOOO    ########################################",
"############################################    oooo++++    ooooOOOOoooo    ++++oooo    ########################################",
"############################################    oooo++++    ooooOOOOoooo    ++++oooo    ########################################",
"############################################    oooo++++    ooooOOOOoooo    ++++oooo    ########################################",
"############################################    oooo++++    ooooOOOOoooo    ++++oooo    ########################################",
"############################################    XXXX++++    XXXXooooXXXX    ++++XXXX    ########################################",
"############################################    XXXX++++    XXXXooooXXXX    ++++XXXX    ########################################",
"############################################    XXXX++++    XXXXooooXXXX    ++++XXXX    ########################################",
"############################################    XXXX++++    XXXXooooXXXX    ++++XXXX    ########################################",
"############################################    oooo++++@@@@    XXXX    @@@@++++oooo    ########################################",
"############################################    oooo++++@@@@    XXXX    @@@@++++oooo    ########################################",
"############################################    oooo++++@@@@    XXXX    @@@@++++oooo    ########################################",
"############################################    oooo++++@@@@    XXXX    @@@@++++oooo    ########################################",
"############################################    oooooooo++++            ++++oooooooo    ########################################",
"############################################    oooooooo++++            ++++oooooooo    ########################################",
"############################################    oooooooo++++            ++++oooooooo    ########################################",
"############################################    oooooooo++++            ++++oooooooo    ########################################",
"################################################    XXXX++++    ####    ++++XXXX    ############################################",
"################################################    XXXX++++    ####    ++++XXXX    ############################################",
"################################################    XXXX++++    ####    ++++XXXX    ############################################",
"################################################    XXXX++++    ####    ++++XXXX    ############################################",
"################################################    ++++++++    ####    ++++++++    ############################################",
"################################################    ++++++++    ####    ++++++++    ############################################",
"################################################    ++++++++    ####    ++++++++    ############################################",
"################################################    ++++++++    ####    ++++++++    ############################################",
"####################################################        ############        ################################################",
"####################################################        ############        ################################################",
"####################################################        ############        ################################################",
"####################################################        ############        ################################################",
"################################################################################################################################",
"################################################################################################################################",
"################################################################################################################################",
"################################################################################################################################",
"################################################################################################################################",
"################################################################################################################################",
"################################################################################################################################",
"################################################################################################################################"
};
