/* XPM */
static char *result[] = {
/* columns rows colors chars-per-pixel */
"128 128 8 1 ",
"  c #524036",
". c #9C5B26",
"X c #BB8049",
"o c #C7925E",
"O c #D4A369",
"+ c #E5D4C3",
"@ c #F0EBE6",
"# c None",
/* pixels */
"################################################################################################################################",
"################################################################################################################################",
"################################################################################################################################",
"################################################################################################################################",
"################################################################################################################################",
"################################################################################################################################",
"################################################################################################################################",
"################################################################################################################################",
"################################################################################################################################",
"################################################################################################################################",
"################################################################################################################################",
"################################################################################################################################",
"################################################################################################################################",
"################################################################################################################################",
"################################################################################################################################",
"################################################################################################################################",
"################################################################################################################################",
"################################################################################################################################",
"################################################################################################################################",
"################################################################################################################################",
"################################################################################################################################",
"################################################################################################################################",
"################################################################################################################################",
"################################################################################################################################",
"################################################################################################################################",
"################################################################################################################################",
"################################################################################################################################",
"################################################################################################################################",
"################################################################################################################################",
"################################################################################################################################",
"################################################################################################################################",
"################################################################################################################################",
"################################################################    ####################    ####################################",
"################################################################    ####################    ####################################",
"################################################################    ####################    ####################################",
"################################################################    ####################    ####################################",
"############################################################    OOOO    ############    XXXX    ################################",
"############################################################    OOOO    ############    XXXX    ################################",
"############################################################    OOOO    ############    XXXX    ################################",
"############################################################    OOOO    ############    XXXX    ################################",
"########################################################    oooo++++OOOO            ooooXXXX    ################################",
"########################################################    oooo++++OOOO            ooooXXXX    ################################",
"########################################################    oooo++++OOOO            ooooXXXX    ################################",
"########################################################    oooo++++OOOO            ooooXXXX    ################################",
"########################################################    ooooOOOOoooooooooooooooooooo        ################################",
"########################################################    ooooOOOOoooooooooooooooooooo        ################################",
"########################################################    ooooOOOOoooooooooooooooooooo        ################################",
"########################################################    ooooOOOOoooooooooooooooooooo        ################################",
"########################################################    XXXXoooooooo++++ooooOOOOoooo++++    ################################",
"########################################################    XXXXoooooooo++++ooooOOOOoooo++++    ################################",
"########################################################    XXXXoooooooo++++ooooOOOOoooo++++    ################################",
"########################################################    XXXXoooooooo++++ooooOOOOoooo++++    ################################",
"####################################################    ....oooooooo....    ooooOOOOoooo    ....    ############################",
"####################################################    ....oooooooo....    ooooOOOOoooo    ....    ############################",
"####################################################    ....oooooooo....    ooooOOOOoooo    ....    ############################",
"####################################################    ....oooooooo....    ooooOOOOoooo    ....    ############################",
"####################################################    XXXXooooOOOO++++OOOOOOOOOOOOOOOOOOOOoooo    ############################",
"####################################################    XXXXooooOOOO++++OOOOOOOOOOOOOOOOOOOOoooo    ############################",
"####################################################    XXXXooooOOOO++++OOOOOOOOOOOOOOOOOOOOoooo    ############################",
"####################################################    XXXXooooOOOO++++OOOOOOOOOOOOOOOOOOOOoooo    ############################",
"####################################################    XXXXoooo++++@@@@++++++++OOOOOOOO    ++++    ############################",
"####################################################    XXXXoooo++++@@@@++++++++OOOOOOOO    ++++    ############################",
"####################################################    XXXXoooo++++@@@@++++++++OOOOOOOO    ++++    ############################",
"####################################################    XXXXoooo++++@@@@++++++++OOOOOOOO    ++++    ############################",
"####################################################    XXXX++++@@@@@@@@OOOO....++++OOOO....++++    ############################",
"####################################################    XXXX++++@@@@@@@@OOOO....++++OOOO....++++    ############################",
"####################################################    XXXX++++@@@@@@@@OOOO....++++OOOO....++++    ############################",
"####################################################    XXXX++++@@@@@@@@OOOO....++++OOOO....++++    ############################",
"################################################    oooooooo++++@@@@@@@@++++++++            OOOO    ############################",
"################################################    oooooooo++++@@@@@@@@++++++++            OOOO    ############################",
"################################################    oooooooo++++@@@@@@@@++++++++            OOOO    ############################",
"################################################    oooooooo++++@@@@@@@@++++++++            OOOO    ############################",
"############################################    ooooOOOOOOOOoooo++++@@@@@@@@@@@@++++++++++++    ################################",
"############################################    ooooOOOOOOOOoooo++++@@@@@@@@@@@@++++++++++++    ################################",
"############################################    ooooOOOOOOOOoooo++++@@@@@@@@@@@@++++++++++++    ################################",
"############################################    ooooOOOOOOOOoooo++++@@@@@@@@@@@@++++++++++++    ################################",
"########################################    ooooOOOOOOOOOOOOOOOOoooo++++@@@@@@@@@@@@@@@@    ####################################",
"########################################    ooooOOOOOOOOOOOOOOOOoooo++++@@@@@@@@@@@@@@@@    ####################################",
"########################################    ooooOOOOOOOOOOOOOOOOoooo++++@@@@@@@@@@@@@@@@    ####################################",
"########################################    ooooOOOOOOOOOOOOOOOOoooo++++@@@@@@@@@@@@@@@@    ####################################",
"####################################    ooooOOOOOOOOOOOOOOOOOOOOOOOOoooo++++@@@@@@@@@@@@    ####################################",
"####################################    ooooOOOOOOOOOOOOOOOOOOOOOOOOoooo++++@@@@@@@@@@@@    ####################################",
"####################################    ooooOOOOOOOOOOOOOOOOOOOOOOOOoooo++++@@@@@@@@@@@@    ####################################",
"####################################    ooooOOOOOOOOOOOOOOOOOOOOOOOOoooo++++@@@@@@@@@@@@    ####################################",
"################################    XXXXooooOOOOOOOOOOOOOOOOOOOOOOOOOOOOoooo++++@@@@        ####################################",
"################################    XXXXooooOOOOOOOOOOOOOOOOOOOOOOOOOOOOoooo++++@@@@        ####################################",
"################################    XXXXooooOOOOOOOOOOOOOOOOOOOOOOOOOOOOoooo++++@@@@        ####################################",
"################################    XXXXooooOOOOOOOOOOOOOOOOOOOOOOOOOOOOoooo++++@@@@        ####################################",
"################################    XXXXOOOOOOOOOOOOOOOOooooooooOOOOOOOOOOOOoooooooo        ####################################",
"################################    XXXXOOOOOOOOOOOOOOOOooooooooOOOOOOOOOOOOoooooooo        ####################################",
"################################    XXXXOOOOOOOOOOOOOOOOooooooooOOOOOOOOOOOOoooooooo        ####################################",
"################################    XXXXOOOOOOOOOOOOOOOOooooooooOOOOOOOOOOOOoooooooo        ####################################",
"########################        ....ooooOOOOOOOOOOOOOOOOoooo++++ooooOOOOOOOOOOOO    ....    ####################################",
"########################        ....ooooOOOOOOOOOOOOOOOOoooo++++ooooOOOOOOOOOOOO    ....    ####################################",
"########################        ....ooooOOOOOOOOOOOOOOOOoooo++++ooooOOOOOOOOOOOO    ....    ####################################",
"########################        ....ooooOOOOOOOOOOOOOOOOoooo++++ooooOOOOOOOOOOOO    ....    ####################################",
"####################    XXXXXXXXXXXXooooOOOOOOOOOOOOOOOOoooo++++ooooooooOOOO        ....    ####################################",
"####################    XXXXXXXXXXXXooooOOOOOOOOOOOOOOOOoooo++++ooooooooOOOO        ....    ####################################",
"####################    XXXXXXXXXXXXooooOOOOOOOOOOOOOOOOoooo++++ooooooooOOOO        ....    ####################################",
"####################    XXXXXXXXXXXXooooOOOOOOOOOOOOOOOOoooo++++ooooooooOOOO        ....    ####################################",
"################    ++++OOOO........ooooooooOOOOOOOOOOOOXXXX    ....ooooOOOO        ....    ####################################",
"################    ++++OOOO........ooooooooOOOOOOOOOOOOXXXX    ....ooooOOOO        ....    ####################################",
"################    ++++OOOO........ooooooooOOOOOOOOOOOOXXXX    ....ooooOOOO        ....    ####################################",
"################    ++++OOOO........ooooooooOOOOOOOOOOOOXXXX    ....ooooOOOO        ....    ####################################",
"################    ++++++++++++    XXXXooooooooOOOOOOOOXXXX        oooooooo        ....    ####################################",
"################    ++++++++++++    XXXXooooooooOOOOOOOOXXXX        oooooooo        ....    ####################################",
"################    ++++++++++++    XXXXooooooooOOOOOOOOXXXX        oooooooo        ....    ####################################",
"################    ++++++++++++    XXXXooooooooOOOOOOOOXXXX        oooooooo        ....    ####################################",
"####################    @@@@@@@@        XXXXoooooooo....            oooo....        XXXX    ####################################",
"####################    @@@@@@@@        XXXXoooooooo....            oooo....        XXXX    ####################################",
"####################    @@@@@@@@        XXXXoooooooo....            oooo....        XXXX    ####################################",
"####################    @@@@@@@@        XXXXoooooooo....            oooo....        XXXX    ####################################",
"########################        ########    XXXXOOOO@@@@@@@@        @@@@@@@@    ####        ####################################",
"########################        ########    XXXXOOOO@@@@@@@@        @@@@@@@@    ####        ####################################",
"########################        ########    XXXXOOOO@@@@@@@@        @@@@@@@@    ####        ####################################",
"########################        ########    XXXXOOOO@@@@@@@@        @@@@@@@@    ####        ####################################",
"############################################                    ####            ################################################",
"############################################                    ####            ################################################",
"############################################                    ####            ################################################",
"############################################                    ####            ################################################",
"################################################################################################################################",
"################################################################################################################################",
"################################################################################################################################",
"################################################################################################################################",
"################################################################################################################################",
"################################################################################################################################",
"################################################################################################################################",
"################################################################################################################################"
};
