/* XPM */
static char *result[] = {
/* columns rows colors chars-per-pixel */
"128 128 10 1 ",
"  c #334251",
". c #345A52",
"X c #296640",
"o c #407167",
"O c #52697F",
"+ c #509B66",
"@ c #4A8277",
"# c #748BA0",
"$ c #8AA0B5",
"% c #A2B9CE",
/* pixels */
"++++++++++++++++++++++++++++++++++++++++++++++++++++++++++++++++++++++++++++++++++++++++++++++++++++++++++++++++++++++++++++++++",
"++++++++++++++++++++++++++++++++++++++++++++++++++++++++++++++++++++++++++++++++++++++++++++++++++++++++++++++++++++++++++++++++",
"++++++++++++++++++++++++++++++++++++++++++++++++++++++++++++++++++++++++++++++++++++++++++++++++++++++++++++++++++++++++++++++++",
"++++++++++++++++++++++++++++++++++++++++++++++++++++++++++++++++++++++++++++++++++++++++++++++++++++++++++++++++++++++++++++++++",
"++++++++++++++++++++++++++++++++++++++++++++++++++++++++++++++++++++++++++++++++++++++++++++++++++++++++++++++++++++++++++++++++",
"++++++++++++++++++++++++++++++++++++++++++++++++++++++++++++++++++++++++++++++++++++++++++++++++++++++++++++++++++++++++++++++++",
"++++++++++++++++++++++++++++++++++++++++++++++++++++++++++++++++++++++++++++++++++++++++++++++++++++++++++++++++++++++++++++++++",
"++++++++++++++++++++++++++++++++++++++++++++++++++++++++++++++++++++++++++++++++++++++++++++++++++++++++++++++++++++++++++++++++",
"++++++++++++++++++++++++++++++++++++++++++++........                ................    ++++++++++++++++++++++++++++++++++++++++",
"++++++++++++++++++++++++++++++++++++++++++++........                ................    ++++++++++++++++++++++++++++++++++++++++",
"++++++++++++++++++++++++++++++++++++++++++++........                ................    ++++++++++++++++++++++++++++++++++++++++",
"++++++++++++++++++++++++++++++++++++++++++++........                ................    ++++++++++++++++++++++++++++++++++++++++",
"++++++++++++++++++++++++++++++++............oooooooooooo$$$$$$$$$$$$@@@@@@@@oooooooo$$$$........++++++++++++++++++++++++++++++++",
"++++++++++++++++++++++++++++++++............oooooooooooo$$$$$$$$$$$$@@@@@@@@oooooooo$$$$........++++++++++++++++++++++++++++++++",
"++++++++++++++++++++++++++++++++............oooooooooooo$$$$$$$$$$$$@@@@@@@@oooooooo$$$$........++++++++++++++++++++++++++++++++",
"++++++++++++++++++++++++++++++++............oooooooooooo$$$$$$$$$$$$@@@@@@@@oooooooo$$$$........++++++++++++++++++++++++++++++++",
"++++++++++++++++++++++++++++....oooooooooooooooooooooooo$$$$$$$$$$$$$$$$@@@@@@@@$$$$$$$$@@@@@@@@............++++++++++++++++++++",
"++++++++++++++++++++++++++++....oooooooooooooooooooooooo$$$$$$$$$$$$$$$$@@@@@@@@$$$$$$$$@@@@@@@@............++++++++++++++++++++",
"++++++++++++++++++++++++++++....oooooooooooooooooooooooo$$$$$$$$$$$$$$$$@@@@@@@@$$$$$$$$@@@@@@@@............++++++++++++++++++++",
"++++++++++++++++++++++++++++....oooooooooooooooooooooooo$$$$$$$$$$$$$$$$@@@@@@@@$$$$$$$$@@@@@@@@............++++++++++++++++++++",
"++++++++++++++++++++++++....oooooooooooo@@@@@@@@@@@@oooo$$$$$$$$$$$$$$$$$$$$$$$$$$$$$$$$$$$$@@@@@@@@@@@@@@@@....++++++++++++++++",
"++++++++++++++++++++++++....oooooooooooo@@@@@@@@@@@@oooo$$$$$$$$$$$$$$$$$$$$$$$$$$$$$$$$$$$$@@@@@@@@@@@@@@@@....++++++++++++++++",
"++++++++++++++++++++++++....oooooooooooo@@@@@@@@@@@@oooo$$$$$$$$$$$$$$$$$$$$$$$$$$$$$$$$$$$$@@@@@@@@@@@@@@@@....++++++++++++++++",
"++++++++++++++++++++++++....oooooooooooo@@@@@@@@@@@@oooo$$$$$$$$$$$$$$$$$$$$$$$$$$$$$$$$$$$$@@@@@@@@@@@@@@@@....++++++++++++++++",
"++++++++++++++++++++....oooooooo@@@@oooo@@@@@@@@oooo$$$$$$$$$$$$$$$$$$$$$$$$$$$$$$$$$$$$$$$$oooooooo@@@@@@@@@@@@....++++++++++++",
"++++++++++++++++++++....oooooooo@@@@oooo@@@@@@@@oooo$$$$$$$$$$$$$$$$$$$$$$$$$$$$$$$$$$$$$$$$oooooooo@@@@@@@@@@@@....++++++++++++",
"++++++++++++++++++++....oooooooo@@@@oooo@@@@@@@@oooo$$$$$$$$$$$$$$$$$$$$$$$$$$$$$$$$$$$$$$$$oooooooo@@@@@@@@@@@@....++++++++++++",
"++++++++++++++++++++....oooooooo@@@@oooo@@@@@@@@oooo$$$$$$$$$$$$$$$$$$$$$$$$$$$$$$$$$$$$$$$$oooooooo@@@@@@@@@@@@....++++++++++++",
"++++++++++++++++....oooooooooooo@@@@@@@@@@@@oooo$$$$$$$$$$$$$$$$$$$$$$$$$$$$$$$$$$$$$$$$$$$$$$$$oooooooo@@@@@@@@....++++++++++++",
"++++++++++++++++....oooooooooooo@@@@@@@@@@@@oooo$$$$$$$$$$$$$$$$$$$$$$$$$$$$$$$$$$$$$$$$$$$$$$$$oooooooo@@@@@@@@....++++++++++++",
"++++++++++++++++....oooooooooooo@@@@@@@@@@@@oooo$$$$$$$$$$$$$$$$$$$$$$$$$$$$$$$$$$$$$$$$$$$$$$$$oooooooo@@@@@@@@....++++++++++++",
"++++++++++++++++....oooooooooooo@@@@@@@@@@@@oooo$$$$$$$$$$$$$$$$$$$$$$$$$$$$$$$$$$$$$$$$$$$$$$$$oooooooo@@@@@@@@....++++++++++++",
"++++++++++++++++....oooooooooooo@@@@@@@@oooo$$$$$$$$$$$$$$$$$$$$$$$$$$$$$$$$$$$$$$$$$$$$$$$$$$$$$$$$oooo@@@@@@@@....++++++++++++",
"++++++++++++++++....oooooooooooo@@@@@@@@oooo$$$$$$$$$$$$$$$$$$$$$$$$$$$$$$$$$$$$$$$$$$$$$$$$$$$$$$$$oooo@@@@@@@@....++++++++++++",
"++++++++++++++++....oooooooooooo@@@@@@@@oooo$$$$$$$$$$$$$$$$$$$$$$$$$$$$$$$$$$$$$$$$$$$$$$$$$$$$$$$$oooo@@@@@@@@....++++++++++++",
"++++++++++++++++....oooooooooooo@@@@@@@@oooo$$$$$$$$$$$$$$$$$$$$$$$$$$$$$$$$$$$$$$$$$$$$$$$$$$$$$$$$oooo@@@@@@@@....++++++++++++",
"++++++++++++++++....oooooooo@@@@@@@@oooo$$$$$$$$$$$$$$$$$$$$$$$$$$$$$$$$$$$$$$$$$$$$$$$$$$$$$$$$$$$$$$$$@@@@####....++++++++++++",
"++++++++++++++++....oooooooo@@@@@@@@oooo$$$$$$$$$$$$$$$$$$$$$$$$$$$$$$$$$$$$$$$$$$$$$$$$$$$$$$$$$$$$$$$$@@@@####....++++++++++++",
"++++++++++++++++....oooooooo@@@@@@@@oooo$$$$$$$$$$$$$$$$$$$$$$$$$$$$$$$$$$$$$$$$$$$$$$$$$$$$$$$$$$$$$$$$@@@@####....++++++++++++",
"++++++++++++++++....oooooooo@@@@@@@@oooo$$$$$$$$$$$$$$$$$$$$$$$$$$$$$$$$$$$$$$$$$$$$$$$$$$$$$$$$$$$$$$$$@@@@####....++++++++++++",
"++++++++++++++++....oooooooooooo@@@@oooo$$$$$$$$$$$$$$$$$$$$$$$$$$$$$$$$$$$$$$$$$$$$$$$$$$$$$$$$$$$$$$$$@@@@########    ++++++++",
"++++++++++++++++....oooooooooooo@@@@oooo$$$$$$$$$$$$$$$$$$$$$$$$$$$$$$$$$$$$$$$$$$$$$$$$$$$$$$$$$$$$$$$$@@@@########    ++++++++",
"++++++++++++++++....oooooooooooo@@@@oooo$$$$$$$$$$$$$$$$$$$$$$$$$$$$$$$$$$$$$$$$$$$$$$$$$$$$$$$$$$$$$$$$@@@@########    ++++++++",
"++++++++++++++++....oooooooooooo@@@@oooo$$$$$$$$$$$$$$$$$$$$$$$$$$$$$$$$$$$$$$$$$$$$$$$$$$$$$$$$$$$$$$$$@@@@########    ++++++++",
"++++++++++++++++....oooooooo$$$$oooooooooooo$$$$$$$$$$$$$$$$$$$$$$$$$$$$$$$$$$$$$$$$$$$$$$$$$$$$$$$$$$$$%%%%OOOO####    ++++++++",
"++++++++++++++++....oooooooo$$$$oooooooooooo$$$$$$$$$$$$$$$$$$$$$$$$$$$$$$$$$$$$$$$$$$$$$$$$$$$$$$$$$$$$%%%%OOOO####    ++++++++",
"++++++++++++++++....oooooooo$$$$oooooooooooo$$$$$$$$$$$$$$$$$$$$$$$$$$$$$$$$$$$$$$$$$$$$$$$$$$$$$$$$$$$$%%%%OOOO####    ++++++++",
"++++++++++++++++....oooooooo$$$$oooooooooooo$$$$$$$$$$$$$$$$$$$$$$$$$$$$$$$$$$$$$$$$$$$$$$$$$$$$$$$$$$$$%%%%OOOO####    ++++++++",
"++++++++++++++++....oooo%%%%$$$$$$$$oooooooooooooooo$$$$$$$$$$$$$$$$$$$$$$$$$$$$$$$$$$$$$$$$$$$$$$$$$$$$%%%%OOOO####    ++++++++",
"++++++++++++++++....oooo%%%%$$$$$$$$oooooooooooooooo$$$$$$$$$$$$$$$$$$$$$$$$$$$$$$$$$$$$$$$$$$$$$$$$$$$$%%%%OOOO####    ++++++++",
"++++++++++++++++....oooo%%%%$$$$$$$$oooooooooooooooo$$$$$$$$$$$$$$$$$$$$$$$$$$$$$$$$$$$$$$$$$$$$$$$$$$$$%%%%OOOO####    ++++++++",
"++++++++++++++++....oooo%%%%$$$$$$$$oooooooooooooooo$$$$$$$$$$$$$$$$$$$$$$$$$$$$$$$$$$$$$$$$$$$$$$$$$$$$%%%%OOOO####    ++++++++",
"++++++++++++++++....oooooooo%%%%$$$$$$$$oooo@@@@@@@@oooooooooooooooooooooooo$$$$$$$$$$$$$$$$$$$$$$$$$$$$OOOOOOOO####    ++++++++",
"++++++++++++++++....oooooooo%%%%$$$$$$$$oooo@@@@@@@@oooooooooooooooooooooooo$$$$$$$$$$$$$$$$$$$$$$$$$$$$OOOOOOOO####    ++++++++",
"++++++++++++++++....oooooooo%%%%$$$$$$$$oooo@@@@@@@@oooooooooooooooooooooooo$$$$$$$$$$$$$$$$$$$$$$$$$$$$OOOOOOOO####    ++++++++",
"++++++++++++++++....oooooooo%%%%$$$$$$$$oooo@@@@@@@@oooooooooooooooooooooooo$$$$$$$$$$$$$$$$$$$$$$$$$$$$OOOOOOOO####    ++++++++",
"++++++++++++++++........oooooooooooooooo@@@@@@@@@@@@@@@@@@@@@@@@@@@@@@@@@@@@oooooooooooo$$$$$$$$OOOOOOOOOOOOOOOO####    ++++++++",
"++++++++++++++++........oooooooooooooooo@@@@@@@@@@@@@@@@@@@@@@@@@@@@@@@@@@@@oooooooooooo$$$$$$$$OOOOOOOOOOOOOOOO####    ++++++++",
"++++++++++++++++........oooooooooooooooo@@@@@@@@@@@@@@@@@@@@@@@@@@@@@@@@@@@@oooooooooooo$$$$$$$$OOOOOOOOOOOOOOOO####    ++++++++",
"++++++++++++++++........oooooooooooooooo@@@@@@@@@@@@@@@@@@@@@@@@@@@@@@@@@@@@oooooooooooo$$$$$$$$OOOOOOOOOOOOOOOO####    ++++++++",
"++++++++++++....oooooooo........oooooooooooooooooooooooooooooooooooo@@@@@@@@@@@@........OOOOOOOOOOOOOOOOOOOO%%%%%%%%    ++++++++",
"++++++++++++....oooooooo........oooooooooooooooooooooooooooooooooooo@@@@@@@@@@@@........OOOOOOOOOOOOOOOOOOOO%%%%%%%%    ++++++++",
"++++++++++++....oooooooo........oooooooooooooooooooooooooooooooooooo@@@@@@@@@@@@........OOOOOOOOOOOOOOOOOOOO%%%%%%%%    ++++++++",
"++++++++++++....oooooooo........oooooooooooooooooooooooooooooooooooo@@@@@@@@@@@@........OOOOOOOOOOOOOOOOOOOO%%%%%%%%    ++++++++",
"++++++++++++....oooo@@@@oooooooo....................oooooooo....................OOOOOOOOOOOOOOOOOOOOOOOO####%%%%%%%%    ++++++++",
"++++++++++++....oooo@@@@oooooooo....................oooooooo....................OOOOOOOOOOOOOOOOOOOOOOOO####%%%%%%%%    ++++++++",
"++++++++++++....oooo@@@@oooooooo....................oooooooo....................OOOOOOOOOOOOOOOOOOOOOOOO####%%%%%%%%    ++++++++",
"++++++++++++....oooo@@@@oooooooo....................oooooooo....................OOOOOOOOOOOOOOOOOOOOOOOO####%%%%%%%%    ++++++++",
"++++++++++++....oooo@@@@@@@@oooo@@@@############OOOO........ooooooooooooooooooooOOOOOOOOOOOOOOOOOOOO############OOOO....++++++++",
"++++++++++++....oooo@@@@@@@@oooo@@@@############OOOO........ooooooooooooooooooooOOOOOOOOOOOOOOOOOOOO############OOOO....++++++++",
"++++++++++++....oooo@@@@@@@@oooo@@@@############OOOO........ooooooooooooooooooooOOOOOOOOOOOOOOOOOOOO############OOOO....++++++++",
"++++++++++++....oooo@@@@@@@@oooo@@@@############OOOO........ooooooooooooooooooooOOOOOOOOOOOOOOOOOOOO############OOOO....++++++++",
"++++++++++++....oooo@@@@%%%%@@@@@@@@########OOOO....oooooooooooooooo@@@@oooo@@@@OOOOOOOOOOOOOOOO############OOOOOOOO....++++++++",
"++++++++++++....oooo@@@@%%%%@@@@@@@@########OOOO....oooooooooooooooo@@@@oooo@@@@OOOOOOOOOOOOOOOO############OOOOOOOO....++++++++",
"++++++++++++....oooo@@@@%%%%@@@@@@@@########OOOO....oooooooooooooooo@@@@oooo@@@@OOOOOOOOOOOOOOOO############OOOOOOOO....++++++++",
"++++++++++++....oooo@@@@%%%%@@@@@@@@########OOOO....oooooooooooooooo@@@@oooo@@@@OOOOOOOOOOOOOOOO############OOOOOOOO....++++++++",
"++++++++    ####oooo@@@@OOOO@@@@OOOOOOOOOOOO....oooooooooooo@@@@OOOOOOOO@@@@OOOOOOOO####################OOOOOOOO@@@@@@@@....++++",
"++++++++    ####oooo@@@@OOOO@@@@OOOOOOOOOOOO....oooooooooooo@@@@OOOOOOOO@@@@OOOOOOOO####################OOOOOOOO@@@@@@@@....++++",
"++++++++    ####oooo@@@@OOOO@@@@OOOOOOOOOOOO....oooooooooooo@@@@OOOOOOOO@@@@OOOOOOOO####################OOOOOOOO@@@@@@@@....++++",
"++++++++    ####oooo@@@@OOOO@@@@OOOOOOOOOOOO....oooooooooooo@@@@OOOOOOOO@@@@OOOOOOOO####################OOOOOOOO@@@@@@@@....++++",
"++++++++    ####oooo########OOOOOOOOOOOOOOOOOOOOoooooooo@@@@OOOOOOOOOOOOOOOOOOOOOOOOOOOOOOOOOOOOOOOOOOOOOOOO@@@@@@@@oooo....++++",
"++++++++    ####oooo########OOOOOOOOOOOOOOOOOOOOoooooooo@@@@OOOOOOOOOOOOOOOOOOOOOOOOOOOOOOOOOOOOOOOOOOOOOOOO@@@@@@@@oooo....++++",
"++++++++    ####oooo########OOOOOOOOOOOOOOOOOOOOoooooooo@@@@OOOOOOOOOOOOOOOOOOOOOOOOOOOOOOOOOOOOOOOOOOOOOOOO@@@@@@@@oooo....++++",
"++++++++    ####oooo########OOOOOOOOOOOOOOOOOOOOoooooooo@@@@OOOOOOOOOOOOOOOOOOOOOOOOOOOOOOOOOOOOOOOOOOOOOOOO@@@@@@@@oooo....++++",
"++++++++    OOOO################OOOOOOOOOOOOOOOOOOOOoooo@@@@OOOOOOOOOOOOOOOOOOOOOOOOOOOOOOOOOOOOOOOOOOOO@@@@@@@@oooooooo....++++",
"++++++++    OOOO################OOOOOOOOOOOOOOOOOOOOoooo@@@@OOOOOOOOOOOOOOOOOOOOOOOOOOOOOOOOOOOOOOOOOOOO@@@@@@@@oooooooo....++++",
"++++++++    OOOO################OOOOOOOOOOOOOOOOOOOOoooo@@@@OOOOOOOOOOOOOOOOOOOOOOOOOOOOOOOOOOOOOOOOOOOO@@@@@@@@oooooooo....++++",
"++++++++    OOOO################OOOOOOOOOOOOOOOOOOOOoooo@@@@OOOOOOOOOOOOOOOOOOOOOOOOOOOOOOOOOOOOOOOOOOOO@@@@@@@@oooooooo....++++",
"++++++++    OOOO########################OOOOOOOOOOOOOOOOOOOOOOOOOOOOOOOOOOOOooooOOOOOOOOOOOOOOOOOOOO####ooooooooooooOOOO    ++++",
"++++++++    OOOO########################OOOOOOOOOOOOOOOOOOOOOOOOOOOOOOOOOOOOooooOOOOOOOOOOOOOOOOOOOO####ooooooooooooOOOO    ++++",
"++++++++    OOOO########################OOOOOOOOOOOOOOOOOOOOOOOOOOOOOOOOOOOOooooOOOOOOOOOOOOOOOOOOOO####ooooooooooooOOOO    ++++",
"++++++++    OOOO########################OOOOOOOOOOOOOOOOOOOOOOOOOOOOOOOOOOOOooooOOOOOOOOOOOOOOOOOOOO####ooooooooooooOOOO    ++++",
"++++++++....oooooooo@@@@############################################ooooooooooooooooOOOOOOOO################ooooOOOOOOOO    ++++",
"++++++++....oooooooo@@@@############################################ooooooooooooooooOOOOOOOO################ooooOOOOOOOO    ++++",
"++++++++....oooooooo@@@@############################################ooooooooooooooooOOOOOOOO################ooooOOOOOOOO    ++++",
"++++++++....oooooooo@@@@############################################ooooooooooooooooOOOOOOOO################ooooOOOOOOOO    ++++",
"++++++++....oooooooooooo@@@@@@@@####%%%%%%%%%%%%################@@@@@@@@@@@@OOOOOOOOOOOOOOOOOOOOOOOOOOOOOOOOOOOOOOOOOOOO    ++++",
"++++++++....oooooooooooo@@@@@@@@####%%%%%%%%%%%%################@@@@@@@@@@@@OOOOOOOOOOOOOOOOOOOOOOOOOOOOOOOOOOOOOOOOOOOO    ++++",
"++++++++....oooooooooooo@@@@@@@@####%%%%%%%%%%%%################@@@@@@@@@@@@OOOOOOOOOOOOOOOOOOOOOOOOOOOOOOOOOOOOOOOOOOOO    ++++",
"++++++++....oooooooooooo@@@@@@@@####%%%%%%%%%%%%################@@@@@@@@@@@@OOOOOOOOOOOOOOOOOOOOOOOOOOOOOOOOOOOOOOOOOOOO    ++++",
"++++++++XXXX....oooooooooooooooo@@@@@@@@@@@@OOOOOOOOOOOOOOOOOOOOOOOOOOOOOOOOOOOOOOOOOOOOOOOOOOOOOOOOOOOOOOOOOOOOOOOOOOOO    ++++",
"++++++++XXXX....oooooooooooooooo@@@@@@@@@@@@OOOOOOOOOOOOOOOOOOOOOOOOOOOOOOOOOOOOOOOOOOOOOOOOOOOOOOOOOOOOOOOOOOOOOOOOOOOO    ++++",
"++++++++XXXX....oooooooooooooooo@@@@@@@@@@@@OOOOOOOOOOOOOOOOOOOOOOOOOOOOOOOOOOOOOOOOOOOOOOOOOOOOOOOOOOOOOOOOOOOOOOOOOOOO    ++++",
"++++++++XXXX....oooooooooooooooo@@@@@@@@@@@@OOOOOOOOOOOOOOOOOOOOOOOOOOOOOOOOOOOOOOOOOOOOOOOOOOOOOOOOOOOOOOOOOOOOOOOOOOOO    ++++",
"++++XXXXXXXX....ooooooooooooooooooooooooooooooooOOOOOOOOOOOOOOOOOOOOOOOOOOOOOOOOOOOOOOOOOOOOOOOOOOOOOOOOOOOOOOOOOOOO    XXXX++++",
"++++XXXXXXXX....ooooooooooooooooooooooooooooooooOOOOOOOOOOOOOOOOOOOOOOOOOOOOOOOOOOOOOOOOOOOOOOOOOOOOOOOOOOOOOOOOOOOO    XXXX++++",
"++++XXXXXXXX....ooooooooooooooooooooooooooooooooOOOOOOOOOOOOOOOOOOOOOOOOOOOOOOOOOOOOOOOOOOOOOOOOOOOOOOOOOOOOOOOOOOOO    XXXX++++",
"++++XXXXXXXX....ooooooooooooooooooooooooooooooooOOOOOOOOOOOOOOOOOOOOOOOOOOOOOOOOOOOOOOOOOOOOOOOOOOOOOOOOOOOOOOOOOOOO    XXXX++++",
"++++XXXXXXXXXXXX....ooooooooooooooooooooooooooooooooooooooooOOOOOOOOOOOOOOOOOOOOOOOOOOOOOOOOOOOOOOOOOOOOOOOOOOOO    XXXXXXXX++++",
"++++XXXXXXXXXXXX....ooooooooooooooooooooooooooooooooooooooooOOOOOOOOOOOOOOOOOOOOOOOOOOOOOOOOOOOOOOOOOOOOOOOOOOOO    XXXXXXXX++++",
"++++XXXXXXXXXXXX....ooooooooooooooooooooooooooooooooooooooooOOOOOOOOOOOOOOOOOOOOOOOOOOOOOOOOOOOOOOOOOOOOOOOOOOOO    XXXXXXXX++++",
"++++XXXXXXXXXXXX....ooooooooooooooooooooooooooooooooooooooooOOOOOOOOOOOOOOOOOOOOOOOOOOOOOOOOOOOOOOOOOOOOOOOOOOOO    XXXXXXXX++++",
"++++XXXXXXXXXXXXXXXX................................OOOOOOOOOOOOOOOOOOOOOOOOOOOOOOOOOOOOOOOOOOOOOOOOOOOOOOOO    XXXXXXXX++++++++",
"++++XXXXXXXXXXXXXXXX................................OOOOOOOOOOOOOOOOOOOOOOOOOOOOOOOOOOOOOOOOOOOOOOOOOOOOOOOO    XXXXXXXX++++++++",
"++++XXXXXXXXXXXXXXXX................................OOOOOOOOOOOOOOOOOOOOOOOOOOOOOOOOOOOOOOOOOOOOOOOOOOOOOOOO    XXXXXXXX++++++++",
"++++XXXXXXXXXXXXXXXX................................OOOOOOOOOOOOOOOOOOOOOOOOOOOOOOOOOOOOOOOOOOOOOOOOOOOOOOOO    XXXXXXXX++++++++",
"++++++++XXXXXXXXXXXXXXXXXXXXXXXXXXXXXXXXXXXXXXXXXXXXXXXXXXXXXXXXXXXXXXXXXXXXXXXXXXXXXXXXXXXXXXXXXXXXXXXXXXXXXXXXXXXX++++++++++++",
"++++++++XXXXXXXXXXXXXXXXXXXXXXXXXXXXXXXXXXXXXXXXXXXXXXXXXXXXXXXXXXXXXXXXXXXXXXXXXXXXXXXXXXXXXXXXXXXXXXXXXXXXXXXXXXXX++++++++++++",
"++++++++XXXXXXXXXXXXXXXXXXXXXXXXXXXXXXXXXXXXXXXXXXXXXXXXXXXXXXXXXXXXXXXXXXXXXXXXXXXXXXXXXXXXXXXXXXXXXXXXXXXXXXXXXXXX++++++++++++",
"++++++++XXXXXXXXXXXXXXXXXXXXXXXXXXXXXXXXXXXXXXXXXXXXXXXXXXXXXXXXXXXXXXXXXXXXXXXXXXXXXXXXXXXXXXXXXXXXXXXXXXXXXXXXXXXX++++++++++++",
"++++++++++++XXXXXXXXXXXXXXXXXXXXXXXXXXXXXXXXXXXXXXXXXXXXXXXXXXXXXXXXXXXXXXXXXXXXXXXXXXXXXXXXXXXXXXXXXXXXXXXXXXXX++++++++++++++++",
"++++++++++++XXXXXXXXXXXXXXXXXXXXXXXXXXXXXXXXXXXXXXXXXXXXXXXXXXXXXXXXXXXXXXXXXXXXXXXXXXXXXXXXXXXXXXXXXXXXXXXXXXXX++++++++++++++++",
"++++++++++++XXXXXXXXXXXXXXXXXXXXXXXXXXXXXXXXXXXXXXXXXXXXXXXXXXXXXXXXXXXXXXXXXXXXXXXXXXXXXXXXXXXXXXXXXXXXXXXXXXXX++++++++++++++++",
"++++++++++++XXXXXXXXXXXXXXXXXXXXXXXXXXXXXXXXXXXXXXXXXXXXXXXXXXXXXXXXXXXXXXXXXXXXXXXXXXXXXXXXXXXXXXXXXXXXXXXXXXXX++++++++++++++++",
"++++++++++++++++++++++++++++++++++++++++++++++++++++++++++++++++++++++++++++++++++++++++++++++++++++++++++++++++++++++++++++++++",
"++++++++++++++++++++++++++++++++++++++++++++++++++++++++++++++++++++++++++++++++++++++++++++++++++++++++++++++++++++++++++++++++",
"++++++++++++++++++++++++++++++++++++++++++++++++++++++++++++++++++++++++++++++++++++++++++++++++++++++++++++++++++++++++++++++++",
"++++++++++++++++++++++++++++++++++++++++++++++++++++++++++++++++++++++++++++++++++++++++++++++++++++++++++++++++++++++++++++++++"
};
