/* XPM */
static char *_004[] = {
/* columns rows colors chars-per-pixel */
"32 32 10 1 ",
"  c #334251",
". c #345A52",
"X c #296640",
"o c #407167",
"O c #52697F",
"+ c #509B66",
"@ c #4A8277",
"# c #748BA0",
"$ c #8AA0B5",
"% c #A2B9CE",
/* pixels */
"++++++++++++++++++++++++++++++++",
"++++++++++++++++++++++++++++++++",
"+++++++++++..    .... ++++++++++",
"++++++++...ooo$$$@@oo$..++++++++",
"+++++++.oooooo$$$$@@$$@@...+++++",
"++++++.ooo@@@o$$$$$$$$$@@@@.++++",
"+++++.oo@o@@o$$$$$$$$$$oo@@@.+++",
"++++.ooo@@@o$$$$$$$$$$$$oo@@.+++",
"++++.ooo@@o$$$$$$$$$$$$$$o@@.+++",
"++++.oo@@o$$$$$$$$$$$$$$$$@#.+++",
"++++.ooo@o$$$$$$$$$$$$$$$$@## ++",
"++++.oo$ooo$$$$$$$$$$$$$$$%O# ++",
"++++.o%$$oooo$$$$$$$$$$$$$%O# ++",
"++++.oo%$$o@@oooooo$$$$$$$OO# ++",
"++++..oooo@@@@@@@@@ooo$$OOOO# ++",
"+++.oo..ooooooooo@@@..OOOOO%% ++",
"+++.o@oo.....oo.....OOOOOO#%% ++",
"+++.o@@o@###O..oooooOOOOO###O.++",
"+++.o@%@@##O.oooo@o@OOOO###OO.++",
"++ #o@O@OOO.ooo@OO@OO#####OO@@.+",
"++ #o##OOOOOoo@OOOOOOOOOOOO@@o.+",
"++ O####OOOOOo@OOOOOOOOOOO@@oo.+",
"++ O######OOOOOOOOOoOOOOO#oooO +",
"++.oo@###########ooooOO####oOO +",
"++.ooo@@#%%%####@@@OOOOOOOOOOO +",
"++X.oooo@@@OOOOOOOOOOOOOOOOOOO +",
"+XX.ooooooooOOOOOOOOOOOOOOOOO X+",
"+XXX.ooooooooooOOOOOOOOOOOOO XX+",
"+XXXX........OOOOOOOOOOOOOO XX++",
"++XXXXXXXXXXXXXXXXXXXXXXXXXXX+++",
"+++XXXXXXXXXXXXXXXXXXXXXXXXX++++",
"++++++++++++++++++++++++++++++++"
};
