/* XPM */
static char *result[] = {
/* columns rows colors chars-per-pixel */
"128 128 20 1 ",
"  c black",
". c #37241C",
"X c #493025",
"o c #543025",
"O c #60362B",
"+ c #603F31",
"@ c #6B3E30",
"# c #7C4737",
"$ c #B45F1F",
"% c #DA7326",
"& c #DE8543",
"* c #FFAE4A",
"= c #FFC279",
"- c #FFC57D",
"; c #FFB08A",
": c #FFBC9B",
"> c #FFD29B",
", c #F2F1DB",
"< c #FFFFEA",
"1 c None",
/* pixels */
"11111111111111111111111111111111111111111111111111111111111111111111111111111111111111111111111111111111111111111111111111111111",
"11111111111111111111111111111111111111111111111111111111111111111111111111111111111111111111111111111111111111111111111111111111",
"11111111111111111111111111111111111111111111111111111111111111111111111111111111111111111111111111111111111111111111111111111111",
"11111111111111111111111111111111111111111111111111111111111111111111111111111111111111111111111111111111111111111111111111111111",
"11111111111111111111111111111111111111111111111111111111111111111111111111111111111111111111111111111111111111111111111111111111",
"11111111111111111111111111111111111111111111111111111111111111111111111111111111111111111111111111111111111111111111111111111111",
"11111111111111111111111111111111111111111111111111111111111111111111111111111111111111111111111111111111111111111111111111111111",
"11111111111111111111111111111111111111111111111111111111111111111111111111111111111111111111111111111111111111111111111111111111",
"11111111111111111111111111111111111111111111111111111111111111111111111111111111111111111111111111111111111111111111111111111111",
"11111111111111111111111111111111111111111111111111111111111111111111111111111111111111111111111111111111111111111111111111111111",
"11111111111111111111111111111111111111111111111111111111111111111111111111111111111111111111111111111111111111111111111111111111",
"11111111111111111111111111111111111111111111111111111111111111111111111111111111111111111111111111111111111111111111111111111111",
"11111111111111111111111111111111111111111111111111111111111111111111111111111111111111111111111111111111111111111111111111111111",
"11111111111111111111111111111111111111111111111111111111111111111111111111111111111111111111111111111111111111111111111111111111",
"11111111111111111111111111111111111111111111111111111111111111111111111111111111111111111111111111111111111111111111111111111111",
"11111111111111111111111111111111111111111111111111111111111111111111111111111111111111111111111111111111111111111111111111111111",
"11111111111111111111111111111111111111111111111111111111%%%%%%%%%%%%111111111111111111111111111111111111111111111111111111111111",
"11111111111111111111111111111111111111111111111111111111%%%%%%%%%%%%111111111111111111111111111111111111111111111111111111111111",
"11111111111111111111111111111111111111111111111111111111%%%%%%%%%%%%111111111111111111111111111111111111111111111111111111111111",
"11111111111111111111111111111111111111111111111111111111%%%%%%%%%%%%111111111111111111111111111111111111111111111111111111111111",
"111111111111111111111111111111111111111111111111%%%%%%%%%%%%&&&&%%%%%%%%%%%%%%%%111111111111111111111111111111111111111111111111",
"111111111111111111111111111111111111111111111111%%%%%%%%%%%%&&&&%%%%%%%%%%%%%%%%111111111111111111111111111111111111111111111111",
"111111111111111111111111111111111111111111111111%%%%%%%%%%%%&&&&%%%%%%%%%%%%%%%%111111111111111111111111111111111111111111111111",
"111111111111111111111111111111111111111111111111%%%%%%%%%%%%&&&&%%%%%%%%%%%%%%%%111111111111111111111111111111111111111111111111",
"11111111111111111111111111111111111111111111%%%%%%%%&&&&&&&&%%%%&&&&%%%%&&&&%%%%%%%%11111111111111111111111111111111111111111111",
"11111111111111111111111111111111111111111111%%%%%%%%&&&&&&&&%%%%&&&&%%%%&&&&%%%%%%%%11111111111111111111111111111111111111111111",
"11111111111111111111111111111111111111111111%%%%%%%%&&&&&&&&%%%%&&&&%%%%&&&&%%%%%%%%11111111111111111111111111111111111111111111",
"11111111111111111111111111111111111111111111%%%%%%%%&&&&&&&&%%%%&&&&%%%%&&&&%%%%%%%%11111111111111111111111111111111111111111111",
"11111111111111111111111111111111111111111111%%%%&&&&&&&&%%%%&&&&&&&&%%%%&&&&&&&&%%%%%%%%1111111111111111111111111111111111111111",
"11111111111111111111111111111111111111111111%%%%&&&&&&&&%%%%&&&&&&&&%%%%&&&&&&&&%%%%%%%%1111111111111111111111111111111111111111",
"11111111111111111111111111111111111111111111%%%%&&&&&&&&%%%%&&&&&&&&%%%%&&&&&&&&%%%%%%%%1111111111111111111111111111111111111111",
"11111111111111111111111111111111111111111111%%%%&&&&&&&&%%%%&&&&&&&&%%%%&&&&&&&&%%%%%%%%1111111111111111111111111111111111111111",
"1111111111111111111111111111111111111111%%%%&&&&&&&&%%%%$$$$%%%%&&&&%%%%%%%%%%%%&&&&%%%%1111111111111111111111111111111111111111",
"1111111111111111111111111111111111111111%%%%&&&&&&&&%%%%$$$$%%%%&&&&%%%%%%%%%%%%&&&&%%%%1111111111111111111111111111111111111111",
"1111111111111111111111111111111111111111%%%%&&&&&&&&%%%%$$$$%%%%&&&&%%%%%%%%%%%%&&&&%%%%1111111111111111111111111111111111111111",
"1111111111111111111111111111111111111111%%%%&&&&&&&&%%%%$$$$%%%%&&&&%%%%%%%%%%%%&&&&%%%%1111111111111111111111111111111111111111",
"1111111111111111111111111111111111111111$$$$&&&&%%%%$$$$====$$$$%%%%$$$$====$$$$%%%%$$$$1111111111111111111111111111111111111111",
"1111111111111111111111111111111111111111$$$$&&&&%%%%$$$$====$$$$%%%%$$$$====$$$$%%%%$$$$1111111111111111111111111111111111111111",
"1111111111111111111111111111111111111111$$$$&&&&%%%%$$$$====$$$$%%%%$$$$====$$$$%%%%$$$$1111111111111111111111111111111111111111",
"1111111111111111111111111111111111111111$$$$&&&&%%%%$$$$====$$$$%%%%$$$$====$$$$%%%%$$$$1111111111111111111111111111111111111111",
"1111111111111111111111111111111111111111$$$$%%%%$$$$====>>>>====$$$$====>>>>====$$$$$$$$1111111111111111111111111111111111111111",
"1111111111111111111111111111111111111111$$$$%%%%$$$$====>>>>====$$$$====>>>>====$$$$$$$$1111111111111111111111111111111111111111",
"1111111111111111111111111111111111111111$$$$%%%%$$$$====>>>>====$$$$====>>>>====$$$$$$$$1111111111111111111111111111111111111111",
"1111111111111111111111111111111111111111$$$$%%%%$$$$====>>>>====$$$$====>>>>====$$$$$$$$1111111111111111111111111111111111111111",
"11111111111111111111111111111111111111111111$$$$====>>>>>>>>>>>>====>>>>>>>>>>>>$$$$11111111111111111111111111111111111111111111",
"11111111111111111111111111111111111111111111$$$$====>>>>>>>>>>>>====>>>>>>>>>>>>$$$$11111111111111111111111111111111111111111111",
"11111111111111111111111111111111111111111111$$$$====>>>>>>>>>>>>====>>>>>>>>>>>>$$$$11111111111111111111111111111111111111111111",
"11111111111111111111111111111111111111111111$$$$====>>>>>>>>>>>>====>>>>>>>>>>>>$$$$11111111111111111111111111111111111111111111",
"11111111111111111111111111111111111111111111====>>>>    >>>>>>>>>>>>>>>>    >>>>====11111111111111111111111111111111111111111111",
"11111111111111111111111111111111111111111111====>>>>    >>>>>>>>>>>>>>>>    >>>>====11111111111111111111111111111111111111111111",
"11111111111111111111111111111111111111111111====>>>>    >>>>>>>>>>>>>>>>    >>>>====11111111111111111111111111111111111111111111",
"11111111111111111111111111111111111111111111====>>>>    >>>>>>>>>>>>>>>>    >>>>====11111111111111111111111111111111111111111111",
"1111111111111111111111111111111111111111========>>>>    >>>>>>>>>>>>>>>>    >>>>========1111111111111111111111111111111111111111",
"1111111111111111111111111111111111111111========>>>>    >>>>>>>>>>>>>>>>    >>>>========1111111111111111111111111111111111111111",
"1111111111111111111111111111111111111111========>>>>    >>>>>>>>>>>>>>>>    >>>>========1111111111111111111111111111111111111111",
"1111111111111111111111111111111111111111========>>>>    >>>>>>>>>>>>>>>>    >>>>========1111111111111111111111111111111111111111",
"11111111111111111111111111111111111111111111====;;;;::::>>>>>>>>>>>>>>>>::::;;;;====11111111111111111111111111111111111111111111",
"11111111111111111111111111111111111111111111====;;;;::::>>>>>>>>>>>>>>>>::::;;;;====11111111111111111111111111111111111111111111",
"11111111111111111111111111111111111111111111====;;;;::::>>>>>>>>>>>>>>>>::::;;;;====11111111111111111111111111111111111111111111",
"11111111111111111111111111111111111111111111====;;;;::::>>>>>>>>>>>>>>>>::::;;;;====11111111111111111111111111111111111111111111",
"1111111111111111111111111111111111111111111111111111========>>>>>>>>========1111111111111111111111111111111111111111111111111111",
"1111111111111111111111111111111111111111111111111111========>>>>>>>>========1111111111111111111111111111111111111111111111111111",
"1111111111111111111111111111111111111111111111111111========>>>>>>>>========1111111111111111111111111111111111111111111111111111",
"1111111111111111111111111111111111111111111111111111========>>>>>>>>========1111111111111111111111111111111111111111111111111111",
"111111111111111111111111111111111111111111111111111111111111========111111111111111111111111111111111111111111111111111111111111",
"111111111111111111111111111111111111111111111111111111111111========111111111111111111111111111111111111111111111111111111111111",
"111111111111111111111111111111111111111111111111111111111111========111111111111111111111111111111111111111111111111111111111111",
"111111111111111111111111111111111111111111111111111111111111========111111111111111111111111111111111111111111111111111111111111",
"1111111111111111111111111111111111111111111111111111,,,,,,,,,,,,,,,,,,,,11111111111111111111111111111111111111111111111111111111",
"1111111111111111111111111111111111111111111111111111,,,,,,,,,,,,,,,,,,,,11111111111111111111111111111111111111111111111111111111",
"1111111111111111111111111111111111111111111111111111,,,,,,,,,,,,,,,,,,,,11111111111111111111111111111111111111111111111111111111",
"1111111111111111111111111111111111111111111111111111,,,,,,,,,,,,,,,,,,,,11111111111111111111111111111111111111111111111111111111",
"111111111111111111111111111111111111111111111111,,,,,,,,<<<<XXXX<<<<<<<<,,,,1111111111111111111111111111111111111111111111111111",
"111111111111111111111111111111111111111111111111,,,,,,,,<<<<XXXX<<<<<<<<,,,,1111111111111111111111111111111111111111111111111111",
"111111111111111111111111111111111111111111111111,,,,,,,,<<<<XXXX<<<<<<<<,,,,1111111111111111111111111111111111111111111111111111",
"111111111111111111111111111111111111111111111111,,,,,,,,<<<<XXXX<<<<<<<<,,,,1111111111111111111111111111111111111111111111111111",
"111111111111111111111111111111111111111111111111,,,,<<<<<<<<,,,,<<<<<<<<,,,,1111111111111111111111111111111111111111111111111111",
"111111111111111111111111111111111111111111111111,,,,<<<<<<<<,,,,<<<<<<<<,,,,1111111111111111111111111111111111111111111111111111",
"111111111111111111111111111111111111111111111111,,,,<<<<<<<<,,,,<<<<<<<<,,,,1111111111111111111111111111111111111111111111111111",
"111111111111111111111111111111111111111111111111,,,,<<<<<<<<,,,,<<<<<<<<,,,,1111111111111111111111111111111111111111111111111111",
"11111111111111111111111111111111111111111111,,,,<<<<,,,,<<<<XXXX<<<<<<<<,,,,,,,,111111111111111111111111111111111111111111111111",
"11111111111111111111111111111111111111111111,,,,<<<<,,,,<<<<XXXX<<<<<<<<,,,,,,,,111111111111111111111111111111111111111111111111",
"11111111111111111111111111111111111111111111,,,,<<<<,,,,<<<<XXXX<<<<<<<<,,,,,,,,111111111111111111111111111111111111111111111111",
"11111111111111111111111111111111111111111111,,,,<<<<,,,,<<<<XXXX<<<<<<<<,,,,,,,,111111111111111111111111111111111111111111111111",
"11111111111111111111111111111111111111111111>>>>,,,,,,,,,,,,,,,,,,,,<<<<,,,,====111111111111111111111111111111111111111111111111",
"11111111111111111111111111111111111111111111>>>>,,,,,,,,,,,,,,,,,,,,<<<<,,,,====111111111111111111111111111111111111111111111111",
"11111111111111111111111111111111111111111111>>>>,,,,,,,,,,,,,,,,,,,,<<<<,,,,====111111111111111111111111111111111111111111111111",
"11111111111111111111111111111111111111111111>>>>,,,,,,,,,,,,,,,,,,,,<<<<,,,,====111111111111111111111111111111111111111111111111",
"11111111111111111111111111111111111111111111====>>>>@@@@@@@@@@@@@@@@@@@@@@@@>>>>====11111111111111111111111111111111111111111111",
"11111111111111111111111111111111111111111111====>>>>@@@@@@@@@@@@@@@@@@@@@@@@>>>>====11111111111111111111111111111111111111111111",
"11111111111111111111111111111111111111111111====>>>>@@@@@@@@@@@@@@@@@@@@@@@@>>>>====11111111111111111111111111111111111111111111",
"11111111111111111111111111111111111111111111====>>>>@@@@@@@@@@@@@@@@@@@@@@@@>>>>====11111111111111111111111111111111111111111111",
"11111111111111111111111111111111111111111111========XXXXXXXXXXXXXXXXXXXXXXXX@@@@====11111111111111111111111111111111111111111111",
"11111111111111111111111111111111111111111111========XXXXXXXXXXXXXXXXXXXXXXXX@@@@====11111111111111111111111111111111111111111111",
"11111111111111111111111111111111111111111111========XXXXXXXXXXXXXXXXXXXXXXXX@@@@====11111111111111111111111111111111111111111111",
"11111111111111111111111111111111111111111111========XXXXXXXXXXXXXXXXXXXXXXXX@@@@====11111111111111111111111111111111111111111111",
"11111111111111111111111111111111111111111111====@@@@@@@@####@@@@@@@@########@@@@111111111111111111111111111111111111111111111111",
"11111111111111111111111111111111111111111111====@@@@@@@@####@@@@@@@@########@@@@111111111111111111111111111111111111111111111111",
"11111111111111111111111111111111111111111111====@@@@@@@@####@@@@@@@@########@@@@111111111111111111111111111111111111111111111111",
"11111111111111111111111111111111111111111111====@@@@@@@@####@@@@@@@@########@@@@111111111111111111111111111111111111111111111111",
"111111111111111111111111111111111111111111111111ooooooooOOOOoooo@@@@@@@@####@@@@111111111111111111111111111111111111111111111111",
"111111111111111111111111111111111111111111111111ooooooooOOOOoooo@@@@@@@@####@@@@111111111111111111111111111111111111111111111111",
"111111111111111111111111111111111111111111111111ooooooooOOOOoooo@@@@@@@@####@@@@111111111111111111111111111111111111111111111111",
"111111111111111111111111111111111111111111111111ooooooooOOOOoooo@@@@@@@@####@@@@111111111111111111111111111111111111111111111111",
"111111111111111111111111111111111111111111111111ooooooooOOOOoooo1111@@@@@@@@@@@@111111111111111111111111111111111111111111111111",
"111111111111111111111111111111111111111111111111ooooooooOOOOoooo1111@@@@@@@@@@@@111111111111111111111111111111111111111111111111",
"111111111111111111111111111111111111111111111111ooooooooOOOOoooo1111@@@@@@@@@@@@111111111111111111111111111111111111111111111111",
"111111111111111111111111111111111111111111111111ooooooooOOOOoooo1111@@@@@@@@@@@@111111111111111111111111111111111111111111111111",
"1111111111111111111111111111111111111111111111111111oooooooo11111111@@@@@@@@1111111111111111111111111111111111111111111111111111",
"1111111111111111111111111111111111111111111111111111oooooooo11111111@@@@@@@@1111111111111111111111111111111111111111111111111111",
"1111111111111111111111111111111111111111111111111111oooooooo11111111@@@@@@@@1111111111111111111111111111111111111111111111111111",
"1111111111111111111111111111111111111111111111111111oooooooo11111111@@@@@@@@1111111111111111111111111111111111111111111111111111",
"1111111111111111111111111111111111111111111111111111****----11111111========1111111111111111111111111111111111111111111111111111",
"1111111111111111111111111111111111111111111111111111****----11111111========1111111111111111111111111111111111111111111111111111",
"1111111111111111111111111111111111111111111111111111****----11111111========1111111111111111111111111111111111111111111111111111",
"1111111111111111111111111111111111111111111111111111****----11111111========1111111111111111111111111111111111111111111111111111",
"1111111111111111111111111111111111111111111111111111........11111111XXXXXXXX1111111111111111111111111111111111111111111111111111",
"1111111111111111111111111111111111111111111111111111........11111111XXXXXXXX1111111111111111111111111111111111111111111111111111",
"1111111111111111111111111111111111111111111111111111........11111111XXXXXXXX1111111111111111111111111111111111111111111111111111",
"1111111111111111111111111111111111111111111111111111........11111111XXXXXXXX1111111111111111111111111111111111111111111111111111",
"1111111111111111111111111111111111111111111111111111XXXXXXXX11111111XXXXXXXX1111111111111111111111111111111111111111111111111111",
"1111111111111111111111111111111111111111111111111111XXXXXXXX11111111XXXXXXXX1111111111111111111111111111111111111111111111111111",
"1111111111111111111111111111111111111111111111111111XXXXXXXX11111111XXXXXXXX1111111111111111111111111111111111111111111111111111",
"1111111111111111111111111111111111111111111111111111XXXXXXXX11111111XXXXXXXX1111111111111111111111111111111111111111111111111111",
"11111111111111111111111111111111111111111111111111111111111111111111++++++++1111111111111111111111111111111111111111111111111111",
"11111111111111111111111111111111111111111111111111111111111111111111++++++++1111111111111111111111111111111111111111111111111111",
"11111111111111111111111111111111111111111111111111111111111111111111++++++++1111111111111111111111111111111111111111111111111111",
"11111111111111111111111111111111111111111111111111111111111111111111++++++++1111111111111111111111111111111111111111111111111111"
};
