/* XPM */
static char *result[] = {
/* columns rows colors chars-per-pixel */
"128 128 16 1 ",
"  c black",
". c #493025",
"X c #543025",
"o c #6B3E30",
"O c #7C4737",
"+ c #B45F1F",
"@ c #DA7326",
"# c #DE8543",
"$ c #FFAE4A",
"% c #FFC279",
"& c #FFC57D",
"* c #FFBC9B",
"= c #FFD29B",
"- c #F2F1DB",
"; c #FFFFEA",
": c None",
/* pixels */
"::::::::::::::::::::::::::::::::::::::::::::::::::::::::::::::::::::::::::::::::::::::::::::::::::::::::::::::::::::::::::::::::",
"::::::::::::::::::::::::::::::::::::::::::::::::::::::::::::::::::::::::::::::::::::::::::::::::::::::::::::::::::::::::::::::::",
"::::::::::::::::::::::::::::::::::::::::::::::::::::::::::::::::::::::::::::::::::::::::::::::::::::::::::::::::::::::::::::::::",
"::::::::::::::::::::::::::::::::::::::::::::::::::::::::::::::::::::::::::::::::::::::::::::::::::::::::::::::::::::::::::::::::",
"::::::::::::::::::::::::::::::::::::::::::::::::::::::::::::::::::::::::::::::::::::::::::::::::::::::::::::::::::::::::::::::::",
"::::::::::::::::::::::::::::::::::::::::::::::::::::::::::::::::::::::::::::::::::::::::::::::::::::::::::::::::::::::::::::::::",
"::::::::::::::::::::::::::::::::::::::::::::::::::::::::::::::::::::::::::::::::::::::::::::::::::::::::::::::::::::::::::::::::",
"::::::::::::::::::::::::::::::::::::::::::::::::::::::::::::::::::::::::::::::::::::::::::::::::::::::::::::::::::::::::::::::::",
"::::::::::::::::::::::::::::::::::::::::::::::::::::::::::::::::::::::::::::::::::::::::::::::::::::::::::::::::::::::::::::::::",
"::::::::::::::::::::::::::::::::::::::::::::::::::::::::::::::::::::::::::::::::::::::::::::::::::::::::::::::::::::::::::::::::",
"::::::::::::::::::::::::::::::::::::::::::::::::::::::::::::::::::::::::::::::::::::::::::::::::::::::::::::::::::::::::::::::::",
"::::::::::::::::::::::::::::::::::::::::::::::::::::::::::::::::::::::::::::::::::::::::::::::::::::::::::::::::::::::::::::::::",
"::::::::::::::::::::::::::::::::::::::::::::::::::::::::::::::::::::::::::::::::::::::::::::::::::::::::::::::::::::::::::::::::",
"::::::::::::::::::::::::::::::::::::::::::::::::::::::::::::::::::::::::::::::::::::::::::::::::::::::::::::::::::::::::::::::::",
"::::::::::::::::::::::::::::::::::::::::::::::::::::::::::::::::::::::::::::::::::::::::::::::::::::::::::::::::::::::::::::::::",
"::::::::::::::::::::::::::::::::::::::::::::::::::::::::::::::::::::::::::::::::::::::::::::::::::::::::::::::::::::::::::::::::",
"::::::::::::::::::::::::::::::::::::::::::::::::::::::::::::::::::::::::::::::::::::::::::::::::::::::::::::::::::::::::::::::::",
"::::::::::::::::::::::::::::::::::::::::::::::::::::::::::::::::::::::::::::::::::::::::::::::::::::::::::::::::::::::::::::::::",
"::::::::::::::::::::::::::::::::::::::::::::::::::::::::::::::::::::::::::::::::::::::::::::::::::::::::::::::::::::::::::::::::",
"::::::::::::::::::::::::::::::::::::::::::::::::::::::::::::::::::::::::::::::::::::::::::::::::::::::::::::::::::::::::::::::::",
"::::::::::::::::::::::::::::::::::::::::::::::::::::@@@@@@@@@@@@@@@@@@@@@@@@::::::::::::::::::::::::::::::::::::::::::::::::::::",
"::::::::::::::::::::::::::::::::::::::::::::::::::::@@@@@@@@@@@@@@@@@@@@@@@@::::::::::::::::::::::::::::::::::::::::::::::::::::",
"::::::::::::::::::::::::::::::::::::::::::::::::::::@@@@@@@@@@@@@@@@@@@@@@@@::::::::::::::::::::::::::::::::::::::::::::::::::::",
"::::::::::::::::::::::::::::::::::::::::::::::::::::@@@@@@@@@@@@@@@@@@@@@@@@::::::::::::::::::::::::::::::::::::::::::::::::::::",
"::::::::::::::::::::::::::::::::::::::::::::::::@@@@@@@@####@@@@########@@@@@@@@::::::::::::::::::::::::::::::::::::::::::::::::",
"::::::::::::::::::::::::::::::::::::::::::::::::@@@@@@@@####@@@@########@@@@@@@@::::::::::::::::::::::::::::::::::::::::::::::::",
"::::::::::::::::::::::::::::::::::::::::::::::::@@@@@@@@####@@@@########@@@@@@@@::::::::::::::::::::::::::::::::::::::::::::::::",
"::::::::::::::::::::::::::::::::::::::::::::::::@@@@@@@@####@@@@########@@@@@@@@::::::::::::::::::::::::::::::::::::::::::::::::",
"::::::::::::::::::::::::::::::::::::::::::::@@@@@@@@########################@@@@####::::::::::::::::::::::::::::::::::::::::::::",
"::::::::::::::::::::::::::::::::::::::::::::@@@@@@@@########################@@@@####::::::::::::::::::::::::::::::::::::::::::::",
"::::::::::::::::::::::::::::::::::::::::::::@@@@@@@@########################@@@@####::::::::::::::::::::::::::::::::::::::::::::",
"::::::::::::::::::::::::::::::::::::::::::::@@@@@@@@########################@@@@####::::::::::::::::::::::::::::::::::::::::::::",
"::::::::::::::::::::::::::::::::::::::::@@@@@@@@########@@@@########@@@@####@@@@########::::::::::::::::::::::::::::::::::::::::",
"::::::::::::::::::::::::::::::::::::::::@@@@@@@@########@@@@########@@@@####@@@@########::::::::::::::::::::::::::::::::::::::::",
"::::::::::::::::::::::::::::::::::::::::@@@@@@@@########@@@@########@@@@####@@@@########::::::::::::::::::::::::::::::::::::::::",
"::::::::::::::::::::::::::::::::::::::::@@@@@@@@########@@@@########@@@@####@@@@########::::::::::::::::::::::::::::::::::::::::",
"::::::::::::::::::::::::::::::::::::::::@@@@########@@@@@@@@@@@@####@@@@@@@@@@@@@@@@####::::::::::::::::::::::::::::::::::::::::",
"::::::::::::::::::::::::::::::::::::::::@@@@########@@@@@@@@@@@@####@@@@@@@@@@@@@@@@####::::::::::::::::::::::::::::::::::::::::",
"::::::::::::::::::::::::::::::::::::::::@@@@########@@@@@@@@@@@@####@@@@@@@@@@@@@@@@####::::::::::::::::::::::::::::::::::::::::",
"::::::::::::::::::::::::::::::::::::::::@@@@########@@@@@@@@@@@@####@@@@@@@@@@@@@@@@####::::::::::::::::::::::::::::::::::::::::",
"::::::::::::::::::::::::::::::::::::::::@@@@########@@@@@@@@@@@@@@@@++++++++@@@@@@@@@@@@::::::::::::::::::::::::::::::::::::::::",
"::::::::::::::::::::::::::::::::::::::::@@@@########@@@@@@@@@@@@@@@@++++++++@@@@@@@@@@@@::::::::::::::::::::::::::::::::::::::::",
"::::::::::::::::::::::::::::::::::::::::@@@@########@@@@@@@@@@@@@@@@++++++++@@@@@@@@@@@@::::::::::::::::::::::::::::::::::::::::",
"::::::::::::::::::::::::::::::::::::::::@@@@########@@@@@@@@@@@@@@@@++++++++@@@@@@@@@@@@::::::::::::::::::::::::::::::::::::::::",
"::::::::::::::::::::::::::::::::::::::::++++####@@@@++++++++@@@@++++====%%%%++++@@@@@@@@::::::::::::::::::::::::::::::::::::::::",
"::::::::::::::::::::::::::::::::::::::::++++####@@@@++++++++@@@@++++====%%%%++++@@@@@@@@::::::::::::::::::::::::::::::::::::::::",
"::::::::::::::::::::::::::::::::::::::::++++####@@@@++++++++@@@@++++====%%%%++++@@@@@@@@::::::::::::::::::::::::::::::::::::::::",
"::::::::::::::::::::::::::::::::::::::::++++####@@@@++++++++@@@@++++====%%%%++++@@@@@@@@::::::::::::::::::::::::::::::::::::::::",
"::::::::::::::::::::::::::::::::::::::::++++@@@@++++++++%%%%++++====    ========++++::::::::::::::::::::::::::::::::::::::::::::",
"::::::::::::::::::::::::::::::::::::::::++++@@@@++++++++%%%%++++====    ========++++::::::::::::::::::::::::::::::::::::::::::::",
"::::::::::::::::::::::::::::::::::::::::++++@@@@++++++++%%%%++++====    ========++++::::::::::::::::::::::::::::::::::::::::::::",
"::::::::::::::::::::::::::::::::::::::::++++@@@@++++++++%%%%++++====    ========++++::::::::::::::::::::::::::::::::::::::::::::",
"::::::::::::::::::::::::::::::::::::::::::::++++++++%%%%============    ========::::::::::::::::::::::::::::::::::::::::::::::::",
"::::::::::::::::::::::::::::::::::::::::::::++++++++%%%%============    ========::::::::::::::::::::::::::::::::::::::::::::::::",
"::::::::::::::::::::::::::::::::::::::::::::++++++++%%%%============    ========::::::::::::::::::::::::::::::::::::::::::::::::",
"::::::::::::::::::::::::::::::::::::::::::::++++++++%%%%============    ========::::::::::::::::::::::::::::::::::::::::::::::::",
"::::::::::::::::::::::::::::::::::::::::::::++++++++%%%%========********========::::::::::::::::::::::::::::::::::::::::::::::::",
"::::::::::::::::::::::::::::::::::::::::::::++++++++%%%%========********========::::::::::::::::::::::::::::::::::::::::::::::::",
"::::::::::::::::::::::::::::::::::::::::::::++++++++%%%%========********========::::::::::::::::::::::::::::::::::::::::::::::::",
"::::::::::::::::::::::::::::::::::::::::::::++++++++%%%%========********========::::::::::::::::::::::::::::::::::::::::::::::::",
"::::::::::::::::::::::::::::::::::::::::::::::::::::%%%%%%%%================::::::::::::::::::::::::::::::::::::::::::::::::::::",
"::::::::::::::::::::::::::::::::::::::::::::::::::::%%%%%%%%================::::::::::::::::::::::::::::::::::::::::::::::::::::",
"::::::::::::::::::::::::::::::::::::::::::::::::::::%%%%%%%%================::::::::::::::::::::::::::::::::::::::::::::::::::::",
"::::::::::::::::::::::::::::::::::::::::::::::::::::%%%%%%%%================::::::::::::::::::::::::::::::::::::::::::::::::::::",
"::::::::::::::::::::::::::::::::::::::::::::::::::::::::%%%%%%%%::::::::::::::::::::::::::::::::::::::::::::::::::::::::::::::::",
"::::::::::::::::::::::::::::::::::::::::::::::::::::::::%%%%%%%%::::::::::::::::::::::::::::::::::::::::::::::::::::::::::::::::",
"::::::::::::::::::::::::::::::::::::::::::::::::::::::::%%%%%%%%::::::::::::::::::::::::::::::::::::::::::::::::::::::::::::::::",
"::::::::::::::::::::::::::::::::::::::::::::::::::::::::%%%%%%%%::::::::::::::::::::::::::::::::::::::::::::::::::::::::::::::::",
"::::::::::::::::::::::::::::::::::::::::::::::::::::::::------------::::::::::::::::::::::::::::::::::::::::::::::::::::::::::::",
"::::::::::::::::::::::::::::::::::::::::::::::::::::::::------------::::::::::::::::::::::::::::::::::::::::::::::::::::::::::::",
"::::::::::::::::::::::::::::::::::::::::::::::::::::::::------------::::::::::::::::::::::::::::::::::::::::::::::::::::::::::::",
"::::::::::::::::::::::::::::::::::::::::::::::::::::::::------------::::::::::::::::::::::::::::::::::::::::::::::::::::::::::::",
"::::::::::::::::::::::::::::::::::::::::::::::::::::----;;;;----;;;;....::::::::::::::::::::::::::::::::::::::::::::::::::::::::",
"::::::::::::::::::::::::::::::::::::::::::::::::::::----;;;;----;;;;....::::::::::::::::::::::::::::::::::::::::::::::::::::::::",
"::::::::::::::::::::::::::::::::::::::::::::::::::::----;;;;----;;;;....::::::::::::::::::::::::::::::::::::::::::::::::::::::::",
"::::::::::::::::::::::::::::::::::::::::::::::::::::----;;;;----;;;;....::::::::::::::::::::::::::::::::::::::::::::::::::::::::",
"::::::::::::::::::::::::::::::::::::::::::::::::::::----;;;;----;;;;----::::::::::::::::::::::::::::::::::::::::::::::::::::::::",
"::::::::::::::::::::::::::::::::::::::::::::::::::::----;;;;----;;;;----::::::::::::::::::::::::::::::::::::::::::::::::::::::::",
"::::::::::::::::::::::::::::::::::::::::::::::::::::----;;;;----;;;;----::::::::::::::::::::::::::::::::::::::::::::::::::::::::",
"::::::::::::::::::::::::::::::::::::::::::::::::::::----;;;;----;;;;----::::::::::::::::::::::::::::::::::::::::::::::::::::::::",
"::::::::::::::::::::::::::::::::::::::::::::::::::::----;;;;--------....::::::::::::::::::::::::::::::::::::::::::::::::::::::::",
"::::::::::::::::::::::::::::::::::::::::::::::::::::----;;;;--------....::::::::::::::::::::::::::::::::::::::::::::::::::::::::",
"::::::::::::::::::::::::::::::::::::::::::::::::::::----;;;;--------....::::::::::::::::::::::::::::::::::::::::::::::::::::::::",
"::::::::::::::::::::::::::::::::::::::::::::::::::::----;;;;--------....::::::::::::::::::::::::::::::::::::::::::::::::::::::::",
"::::::::::::::::::::::::::::::::::::::::::::::::::::--------;;;;%%%%----::::::::::::::::::::::::::::::::::::::::::::::::::::::::",
"::::::::::::::::::::::::::::::::::::::::::::::::::::--------;;;;%%%%----::::::::::::::::::::::::::::::::::::::::::::::::::::::::",
"::::::::::::::::::::::::::::::::::::::::::::::::::::--------;;;;%%%%----::::::::::::::::::::::::::::::::::::::::::::::::::::::::",
"::::::::::::::::::::::::::::::::::::::::::::::::::::--------;;;;%%%%----::::::::::::::::::::::::::::::::::::::::::::::::::::::::",
"::::::::::::::::::::::::::::::::::::::::::::::::%%%%oooooooo%%%%====%%%%%%%%::::::::::::::::::::::::::::::::::::::::::::::::::::",
"::::::::::::::::::::::::::::::::::::::::::::::::%%%%oooooooo%%%%====%%%%%%%%::::::::::::::::::::::::::::::::::::::::::::::::::::",
"::::::::::::::::::::::::::::::::::::::::::::::::%%%%oooooooo%%%%====%%%%%%%%::::::::::::::::::::::::::::::::::::::::::::::::::::",
"::::::::::::::::::::::::::::::::::::::::::::::::%%%%oooooooo%%%%====%%%%%%%%::::::::::::::::::::::::::::::::::::::::::::::::::::",
"::::::::::::::::::::::::::::::::::::::::::::::::%%%%............%%%%========%%%%::::::::::::::::::::::::::::::::::::::::::::::::",
"::::::::::::::::::::::::::::::::::::::::::::::::%%%%............%%%%========%%%%::::::::::::::::::::::::::::::::::::::::::::::::",
"::::::::::::::::::::::::::::::::::::::::::::::::%%%%............%%%%========%%%%::::::::::::::::::::::::::::::::::::::::::::::::",
"::::::::::::::::::::::::::::::::::::::::::::::::%%%%............%%%%========%%%%::::::::::::::::::::::::::::::::::::::::::::::::",
"::::::::::::::::::::::::::::::::::::::::::::::::%%%%ooooOOOOOOOOoooo%%%%%%%%::::::::::::::::::::::::::::::::::::::::::::::::::::",
"::::::::::::::::::::::::::::::::::::::::::::::::%%%%ooooOOOOOOOOoooo%%%%%%%%::::::::::::::::::::::::::::::::::::::::::::::::::::",
"::::::::::::::::::::::::::::::::::::::::::::::::%%%%ooooOOOOOOOOoooo%%%%%%%%::::::::::::::::::::::::::::::::::::::::::::::::::::",
"::::::::::::::::::::::::::::::::::::::::::::::::%%%%ooooOOOOOOOOoooo%%%%%%%%::::::::::::::::::::::::::::::::::::::::::::::::::::",
"::::::::::::::::::::::::::::::::::::::::::::::::ooooooooOOOOooooooooXXXX::::::::::::::::::::::::::::::::::::::::::::::::::::::::",
"::::::::::::::::::::::::::::::::::::::::::::::::ooooooooOOOOooooooooXXXX::::::::::::::::::::::::::::::::::::::::::::::::::::::::",
"::::::::::::::::::::::::::::::::::::::::::::::::ooooooooOOOOooooooooXXXX::::::::::::::::::::::::::::::::::::::::::::::::::::::::",
"::::::::::::::::::::::::::::::::::::::::::::::::ooooooooOOOOooooooooXXXX::::::::::::::::::::::::::::::::::::::::::::::::::::::::",
"::::::::::::::::::::::::::::::::::::::::::::::::ooooooooOOOOooooXXXXXXXXXXXX::::::::::::::::::::::::::::::::::::::::::::::::::::",
"::::::::::::::::::::::::::::::::::::::::::::::::ooooooooOOOOooooXXXXXXXXXXXX::::::::::::::::::::::::::::::::::::::::::::::::::::",
"::::::::::::::::::::::::::::::::::::::::::::::::ooooooooOOOOooooXXXXXXXXXXXX::::::::::::::::::::::::::::::::::::::::::::::::::::",
"::::::::::::::::::::::::::::::::::::::::::::::::ooooooooOOOOooooXXXXXXXXXXXX::::::::::::::::::::::::::::::::::::::::::::::::::::",
"::::::::::::::::::::::::::::::::::::::::::::::::oooooooooooo::::XXXXXXXXXXXX::::::::::::::::::::::::::::::::::::::::::::::::::::",
"::::::::::::::::::::::::::::::::::::::::::::::::oooooooooooo::::XXXXXXXXXXXX::::::::::::::::::::::::::::::::::::::::::::::::::::",
"::::::::::::::::::::::::::::::::::::::::::::::::oooooooooooo::::XXXXXXXXXXXX::::::::::::::::::::::::::::::::::::::::::::::::::::",
"::::::::::::::::::::::::::::::::::::::::::::::::oooooooooooo::::XXXXXXXXXXXX::::::::::::::::::::::::::::::::::::::::::::::::::::",
"::::::::::::::::::::::::::::::::::::::::::::::::%%%%%%%%::::::::::::$$$$&&&&::::::::::::::::::::::::::::::::::::::::::::::::::::",
"::::::::::::::::::::::::::::::::::::::::::::::::%%%%%%%%::::::::::::$$$$&&&&::::::::::::::::::::::::::::::::::::::::::::::::::::",
"::::::::::::::::::::::::::::::::::::::::::::::::%%%%%%%%::::::::::::$$$$&&&&::::::::::::::::::::::::::::::::::::::::::::::::::::",
"::::::::::::::::::::::::::::::::::::::::::::::::%%%%%%%%::::::::::::$$$$&&&&::::::::::::::::::::::::::::::::::::::::::::::::::::",
"::::::::::::::::::::::::::::::::::::::::::::........::::::::::::::::........::::::::::::::::::::::::::::::::::::::::::::::::::::",
"::::::::::::::::::::::::::::::::::::::::::::........::::::::::::::::........::::::::::::::::::::::::::::::::::::::::::::::::::::",
"::::::::::::::::::::::::::::::::::::::::::::........::::::::::::::::........::::::::::::::::::::::::::::::::::::::::::::::::::::",
"::::::::::::::::::::::::::::::::::::::::::::........::::::::::::::::........::::::::::::::::::::::::::::::::::::::::::::::::::::",
"::::::::::::::::::::::::::::::::::::::::::::........::::::::::::::::........::::::::::::::::::::::::::::::::::::::::::::::::::::",
"::::::::::::::::::::::::::::::::::::::::::::........::::::::::::::::........::::::::::::::::::::::::::::::::::::::::::::::::::::",
"::::::::::::::::::::::::::::::::::::::::::::........::::::::::::::::........::::::::::::::::::::::::::::::::::::::::::::::::::::",
"::::::::::::::::::::::::::::::::::::::::::::........::::::::::::::::........::::::::::::::::::::::::::::::::::::::::::::::::::::",
"::::::::::::::::::::::::::::::::::::::::::::....::::::::::::::::::::............::::::::::::::::::::::::::::::::::::::::::::::::",
"::::::::::::::::::::::::::::::::::::::::::::....::::::::::::::::::::............::::::::::::::::::::::::::::::::::::::::::::::::",
"::::::::::::::::::::::::::::::::::::::::::::....::::::::::::::::::::............::::::::::::::::::::::::::::::::::::::::::::::::",
"::::::::::::::::::::::::::::::::::::::::::::....::::::::::::::::::::............::::::::::::::::::::::::::::::::::::::::::::::::"
};
