/* XPM */
static char *result[] = {
/* columns rows colors chars-per-pixel */
"128 128 8 1 ",
"  c #163C2B",
". c #755338",
"X c #296640",
"o c #9D7658",
"O c #509B66",
"+ c #00CCFF",
"@ c #D7F8FF",
"# c #F4FDFF",
/* pixels */
"OOOOOOOOXXXX    @@@@++++++++++++++++++++++++++++++++++++++++++++++++++++++++++++@@@@++++++++++++++++++++@@@@    OOOOOOOOOOOOOOOO",
"OOOOOOOOXXXX    @@@@++++++++++++++++++++++++++++++++++++++++++++++++++++++++++++@@@@++++++++++++++++++++@@@@    OOOOOOOOOOOOOOOO",
"OOOOOOOOXXXX    @@@@++++++++++++++++++++++++++++++++++++++++++++++++++++++++++++@@@@++++++++++++++++++++@@@@    OOOOOOOOOOOOOOOO",
"OOOOOOOOXXXX    @@@@++++++++++++++++++++++++++++++++++++++++++++++++++++++++++++@@@@++++++++++++++++++++@@@@    OOOOOOOOOOOOOOOO",
"OOOO        ####@@@@++++++++++++++++++++++++++++++++++++++++++++++++++++++++++++@@@@++++++++++++++++@@@@####    OOOOOOOOOOOOOOOO",
"OOOO        ####@@@@++++++++++++++++++++++++++++++++++++++++++++++++++++++++++++@@@@++++++++++++++++@@@@####    OOOOOOOOOOOOOOOO",
"OOOO        ####@@@@++++++++++++++++++++++++++++++++++++++++++++++++++++++++++++@@@@++++++++++++++++@@@@####    OOOOOOOOOOOOOOOO",
"OOOO        ####@@@@++++++++++++++++++++++++++++++++++++++++++++++++++++++++++++@@@@++++++++++++++++@@@@####    OOOOOOOOOOOOOOOO",
"OOOOOOOO        ####@@@@++++++++++++++++++++++++++++++++++++++++++++++++++++++++@@@@++++++++++++++++@@@@####    OOOOOOOOOOOOOOOO",
"OOOOOOOO        ####@@@@++++++++++++++++++++++++++++++++++++++++++++++++++++++++@@@@++++++++++++++++@@@@####    OOOOOOOOOOOOOOOO",
"OOOOOOOO        ####@@@@++++++++++++++++++++++++++++++++++++++++++++++++++++++++@@@@++++++++++++++++@@@@####    OOOOOOOOOOOOOOOO",
"OOOOOOOO        ####@@@@++++++++++++++++++++++++++++++++++++++++++++++++++++++++@@@@++++++++++++++++@@@@####    OOOOOOOOOOOOOOOO",
"OOOOOOOOOOOO    ####@@@@++++++++++++++++++++@@@@++++++++++++++++++++++++++++++++++++++++++++++++++++@@@@####        XXXXXXXXXXXX",
"OOOOOOOOOOOO    ####@@@@++++++++++++++++++++@@@@++++++++++++++++++++++++++++++++++++++++++++++++++++@@@@####        XXXXXXXXXXXX",
"OOOOOOOOOOOO    ####@@@@++++++++++++++++++++@@@@++++++++++++++++++++++++++++++++++++++++++++++++++++@@@@####        XXXXXXXXXXXX",
"OOOOOOOOOOOO    ####@@@@++++++++++++++++++++@@@@++++++++++++++++++++++++++++++++++++++++++++++++++++@@@@####        XXXXXXXXXXXX",
"OOOOOOOOXXXX    ####@@@@++++++++++++++++++++@@@@++++++++++++++++++++++++++++++++++++++++++++++++++++@@@@####........            ",
"OOOOOOOOXXXX    ####@@@@++++++++++++++++++++@@@@++++++++++++++++++++++++++++++++++++++++++++++++++++@@@@####........            ",
"OOOOOOOOXXXX    ####@@@@++++++++++++++++++++@@@@++++++++++++++++++++++++++++++++++++++++++++++++++++@@@@####........            ",
"OOOOOOOOXXXX    ####@@@@++++++++++++++++++++@@@@++++++++++++++++++++++++++++++++++++++++++++++++++++@@@@####........            ",
"OOOOOOOO    ####@@@@++++++++++++++++++++++++@@@@++++++++++++++++++++++++++++++++++++++++++++++++++++++++@@@@....oooo............",
"OOOOOOOO    ####@@@@++++++++++++++++++++++++@@@@++++++++++++++++++++++++++++++++++++++++++++++++++++++++@@@@....oooo............",
"OOOOOOOO    ####@@@@++++++++++++++++++++++++@@@@++++++++++++++++++++++++++++++++++++++++++++++++++++++++@@@@....oooo............",
"OOOOOOOO    ####@@@@++++++++++++++++++++++++@@@@++++++++++++++++++++++++++++++++++++++++++++++++++++++++@@@@....oooo............",
"OOOOOOOOOOOO    @@@@++++++++++++++++++++@@@@++++++++++++++++++++++++++++++++++++++++++++++++++++++++++++@@@@....oooooooooooooooo",
"OOOOOOOOOOOO    @@@@++++++++++++++++++++@@@@++++++++++++++++++++++++++++++++++++++++++++++++++++++++++++@@@@....oooooooooooooooo",
"OOOOOOOOOOOO    @@@@++++++++++++++++++++@@@@++++++++++++++++++++++++++++++++++++++++++++++++++++++++++++@@@@....oooooooooooooooo",
"OOOOOOOOOOOO    @@@@++++++++++++++++++++@@@@++++++++++++++++++++++++++++++++++++++++++++++++++++++++++++@@@@....oooooooooooooooo",
"OOOOOOOOXXXX    @@@@++++++++++++++++++++++++++++++++++++++++++++++++++++++++++++++++++++++++++++++++++++@@@@....oooooooooooooooo",
"OOOOOOOOXXXX    @@@@++++++++++++++++++++++++++++++++++++++++++++++++++++++++++++++++++++++++++++++++++++@@@@....oooooooooooooooo",
"OOOOOOOOXXXX    @@@@++++++++++++++++++++++++++++++++++++++++++++++++++++++++++++++++++++++++++++++++++++@@@@....oooooooooooooooo",
"OOOOOOOOXXXX    @@@@++++++++++++++++++++++++++++++++++++++++++++++++++++++++++++++++++++++++++++++++++++@@@@....oooooooooooooooo",
"OOOOOOOO    ####@@@@++++++++++++++++++++++++++++++++++++++++++++++++++++++++++++++++++++++++++++++++++++@@@@####oooooooooooooooo",
"OOOOOOOO    ####@@@@++++++++++++++++++++++++++++++++++++++++++++++++++++++++++++++++++++++++++++++++++++@@@@####oooooooooooooooo",
"OOOOOOOO    ####@@@@++++++++++++++++++++++++++++++++++++++++++++++++++++++++++++++++++++++++++++++++++++@@@@####oooooooooooooooo",
"OOOOOOOO    ####@@@@++++++++++++++++++++++++++++++++++++++++++++++++++++++++++++++++++++++++++++++++++++@@@@####oooooooooooooooo",
"OOOOOOOOOOOO    ####@@@@++++++++++++++++++++++++++++++++++++++++++++++++++++++++++++++++++++++++++++++++@@@@####################",
"OOOOOOOOOOOO    ####@@@@++++++++++++++++++++++++++++++++++++++++++++++++++++++++++++++++++++++++++++++++@@@@####################",
"OOOOOOOOOOOO    ####@@@@++++++++++++++++++++++++++++++++++++++++++++++++++++++++++++++++++++++++++++++++@@@@####################",
"OOOOOOOOOOOO    ####@@@@++++++++++++++++++++++++++++++++++++++++++++++++++++++++++++++++++++++++++++++++@@@@####################",
"OOOOOOOOOOOOXXXX    @@@@++++++++++++++++++++++++++++++++++++++++++++++++++++++++++++@@@@++++++++++++++++++++@@@@@@@@@@@@@@@@@@@@",
"OOOOOOOOOOOOXXXX    @@@@++++++++++++++++++++++++++++++++++++++++++++++++++++++++++++@@@@++++++++++++++++++++@@@@@@@@@@@@@@@@@@@@",
"OOOOOOOOOOOOXXXX    @@@@++++++++++++++++++++++++++++++++++++++++++++++++++++++++++++@@@@++++++++++++++++++++@@@@@@@@@@@@@@@@@@@@",
"OOOOOOOOOOOOXXXX    @@@@++++++++++++++++++++++++++++++++++++++++++++++++++++++++++++@@@@++++++++++++++++++++@@@@@@@@@@@@@@@@@@@@",
"OOOOOOOOOOOOXXXX    @@@@++++++++++++++++++++++++++++++++++++++++++++++++++++++++++++@@@@@@@@++++++++++++++++++++++++++++++++++++",
"OOOOOOOOOOOOXXXX    @@@@++++++++++++++++++++++++++++++++++++++++++++++++++++++++++++@@@@@@@@++++++++++++++++++++++++++++++++++++",
"OOOOOOOOOOOOXXXX    @@@@++++++++++++++++++++++++++++++++++++++++++++++++++++++++++++@@@@@@@@++++++++++++++++++++++++++++++++++++",
"OOOOOOOOOOOOXXXX    @@@@++++++++++++++++++++++++++++++++++++++++++++++++++++++++++++@@@@@@@@++++++++++++++++++++++++++++++++++++",
"OOOOOOOOOOOOXXXX    @@@@++++++++++++++++++++++++++++++++++++++++++++++++++++++++++++++++@@@@@@@@++++++++++++++++++++++++++++++++",
"OOOOOOOOOOOOXXXX    @@@@++++++++++++++++++++++++++++++++++++++++++++++++++++++++++++++++@@@@@@@@++++++++++++++++++++++++++++++++",
"OOOOOOOOOOOOXXXX    @@@@++++++++++++++++++++++++++++++++++++++++++++++++++++++++++++++++@@@@@@@@++++++++++++++++++++++++++++++++",
"OOOOOOOOOOOOXXXX    @@@@++++++++++++++++++++++++++++++++++++++++++++++++++++++++++++++++@@@@@@@@++++++++++++++++++++++++++++++++",
"OOOOOOOOXXXX    ####@@@@++++++++++++++++++++++++++++++++++++++++++++++++++++++++++++++++++++++++++++++++++++++++++++++++++++++++",
"OOOOOOOOXXXX    ####@@@@++++++++++++++++++++++++++++++++++++++++++++++++++++++++++++++++++++++++++++++++++++++++++++++++++++++++",
"OOOOOOOOXXXX    ####@@@@++++++++++++++++++++++++++++++++++++++++++++++++++++++++++++++++++++++++++++++++++++++++++++++++++++++++",
"OOOOOOOOXXXX    ####@@@@++++++++++++++++++++++++++++++++++++++++++++++++++++++++++++++++++++++++++++++++++++++++++++++++++++++++",
"OOOOOOOOXXXX    ####@@@@++++++++++++++++++++++++++++++++++++++++++++++++++++++++++++++++++++++++++++++++++++++++++++++++++++++++",
"OOOOOOOOXXXX    ####@@@@++++++++++++++++++++++++++++++++++++++++++++++++++++++++++++++++++++++++++++++++++++++++++++++++++++++++",
"OOOOOOOOXXXX    ####@@@@++++++++++++++++++++++++++++++++++++++++++++++++++++++++++++++++++++++++++++++++++++++++++++++++++++++++",
"OOOOOOOOXXXX    ####@@@@++++++++++++++++++++++++++++++++++++++++++++++++++++++++++++++++++++++++++++++++++++++++++++++++++++++++",
"OOOOOOOO    ####@@@@++++++++++++++++++++++++++++++++++++++++++++++++++++++++++++++++++++++++++++++++++++++++++++++++++++++++++++",
"OOOOOOOO    ####@@@@++++++++++++++++++++++++++++++++++++++++++++++++++++++++++++++++++++++++++++++++++++++++++++++++++++++++++++",
"OOOOOOOO    ####@@@@++++++++++++++++++++++++++++++++++++++++++++++++++++++++++++++++++++++++++++++++++++++++++++++++++++++++++++",
"OOOOOOOO    ####@@@@++++++++++++++++++++++++++++++++++++++++++++++++++++++++++++++++++++++++++++++++++++++++++++++++++++++++++++",
"OOOOOOOOOOOO    @@@@++++++++++++++++++++++++++++++++++++++++++++++++++++++++++++++++++++++++++++++++++++++++++++++++++++++++++++",
"OOOOOOOOOOOO    @@@@++++++++++++++++++++++++++++++++++++++++++++++++++++++++++++++++++++++++++++++++++++++++++++++++++++++++++++",
"OOOOOOOOOOOO    @@@@++++++++++++++++++++++++++++++++++++++++++++++++++++++++++++++++++++++++++++++++++++++++++++++++++++++++++++",
"OOOOOOOOOOOO    @@@@++++++++++++++++++++++++++++++++++++++++++++++++++++++++++++++++++++++++++++++++++++++++++++++++++++++++++++",
"OOOOOOOOOOOOXXXX    @@@@++++++++++++++++++++++++++++++++++++++++++++++++++++++++++++++++++++++++++++++++++++++++++++++++++++++++",
"OOOOOOOOOOOOXXXX    @@@@++++++++++++++++++++++++++++++++++++++++++++++++++++++++++++++++++++++++++++++++++++++++++++++++++++++++",
"OOOOOOOOOOOOXXXX    @@@@++++++++++++++++++++++++++++++++++++++++++++++++++++++++++++++++++++++++++++++++++++++++++++++++++++++++",
"OOOOOOOOOOOOXXXX    @@@@++++++++++++++++++++++++++++++++++++++++++++++++++++++++++++++++++++++++++++++++++++++++++++++++++++++++",
"OOOOOOOOOOOOXXXX    @@@@++++++++++++++++++++++++++++++++++++++++++++++++++++++++++++++++++++++++++++++++++++++++++++++++++++++++",
"OOOOOOOOOOOOXXXX    @@@@++++++++++++++++++++++++++++++++++++++++++++++++++++++++++++++++++++++++++++++++++++++++++++++++++++++++",
"OOOOOOOOOOOOXXXX    @@@@++++++++++++++++++++++++++++++++++++++++++++++++++++++++++++++++++++++++++++++++++++++++++++++++++++++++",
"OOOOOOOOOOOOXXXX    @@@@++++++++++++++++++++++++++++++++++++++++++++++++++++++++++++++++++++++++++++++++++++++++++++++++++++++++",
"OOOO    XXXXXXXX    @@@@++++++++++++++++++++++++++++++++++++++++++++++++++++++++++++++++++++++++++++++++++++++++++++++++++++++++",
"OOOO    XXXXXXXX    @@@@++++++++++++++++++++++++++++++++++++++++++++++++++++++++++++++++++++++++++++++++++++++++++++++++++++++++",
"OOOO    XXXXXXXX    @@@@++++++++++++++++++++++++++++++++++++++++++++++++++++++++++++++++++++++++++++++++++++++++++++++++++++++++",
"OOOO    XXXXXXXX    @@@@++++++++++++++++++++++++++++++++++++++++++++++++++++++++++++++++++++++++++++++++++++++++++++++++++++++++",
"OOOOOOOO        ####@@@@++++++++++++++++++++++++++++++++++++++++++++++++++++++++++++++++++++++++++++++++++++++++++++++++++++++++",
"OOOOOOOO        ####@@@@++++++++++++++++++++++++++++++++++++++++++++++++++++++++++++++++++++++++++++++++++++++++++++++++++++++++",
"OOOOOOOO        ####@@@@++++++++++++++++++++++++++++++++++++++++++++++++++++++++++++++++++++++++++++++++++++++++++++++++++++++++",
"OOOOOOOO        ####@@@@++++++++++++++++++++++++++++++++++++++++++++++++++++++++++++++++++++++++++++++++++++++++++++++++++++++++",
"OOOOOOOOOOOO    ####@@@@++++++++++++++++++++++++++++++++++++++++++++++++++++++++++++++++++++++++++++++++++++++++++++++++++++++++",
"OOOOOOOOOOOO    ####@@@@++++++++++++++++++++++++++++++++++++++++++++++++++++++++++++++++++++++++++++++++++++++++++++++++++++++++",
"OOOOOOOOOOOO    ####@@@@++++++++++++++++++++++++++++++++++++++++++++++++++++++++++++++++++++++++++++++++++++++++++++++++++++++++",
"OOOOOOOOOOOO    ####@@@@++++++++++++++++++++++++++++++++++++++++++++++++++++++++++++++++++++++++++++++++++++++++++++++++++++++++",
"OOOOOOOOXXXX    @@@@++++++++++++++++++++++++@@@@++++++++++++++++++++++++++++++++++++++++++++++++++++++++++++++++++++++++++++++++",
"OOOOOOOOXXXX    @@@@++++++++++++++++++++++++@@@@++++++++++++++++++++++++++++++++++++++++++++++++++++++++++++++++++++++++++++++++",
"OOOOOOOOXXXX    @@@@++++++++++++++++++++++++@@@@++++++++++++++++++++++++++++++++++++++++++++++++++++++++++++++++++++++++++++++++",
"OOOOOOOOXXXX    @@@@++++++++++++++++++++++++@@@@++++++++++++++++++++++++++++++++++++++++++++++++++++++++++++++++++++++++++++++++",
"OOOOOOOO    ####@@@@++++++++++++++++++++++++@@@@++++++++++++++++++++++++++++++++++++++++++++++++++++++++++++++++++++++++++++++++",
"OOOOOOOO    ####@@@@++++++++++++++++++++++++@@@@++++++++++++++++++++++++++++++++++++++++++++++++++++++++++++++++++++++++++++++++",
"OOOOOOOO    ####@@@@++++++++++++++++++++++++@@@@++++++++++++++++++++++++++++++++++++++++++++++++++++++++++++++++++++++++++++++++",
"OOOOOOOO    ####@@@@++++++++++++++++++++++++@@@@++++++++++++++++++++++++++++++++++++++++++++++++++++++++++++++++++++++++++++++++",
"OOOOOOOOXXXX    @@@@++++++++++++++++++++++++@@@@@@@@++++++++++++++++++++++++++++++++++++++++++++++++++++++++++++++++++++++++++++",
"OOOOOOOOXXXX    @@@@++++++++++++++++++++++++@@@@@@@@++++++++++++++++++++++++++++++++++++++++++++++++++++++++++++++++++++++++++++",
"OOOOOOOOXXXX    @@@@++++++++++++++++++++++++@@@@@@@@++++++++++++++++++++++++++++++++++++++++++++++++++++++++++++++++++++++++++++",
"OOOOOOOOXXXX    @@@@++++++++++++++++++++++++@@@@@@@@++++++++++++++++++++++++++++++++++++++++++++++++++++++++++++++++++++++++++++",
"OOOOOOOOXXXX    @@@@++++++++++++++++++++++++++++@@@@++++++++++++++++++++++++++++++++++++++++++++++++++++++++++++++++++++++++++++",
"OOOOOOOOXXXX    @@@@++++++++++++++++++++++++++++@@@@++++++++++++++++++++++++++++++++++++++++++++++++++++++++++++++++++++++++++++",
"OOOOOOOOXXXX    @@@@++++++++++++++++++++++++++++@@@@++++++++++++++++++++++++++++++++++++++++++++++++++++++++++++++++++++++++++++",
"OOOOOOOOXXXX    @@@@++++++++++++++++++++++++++++@@@@++++++++++++++++++++++++++++++++++++++++++++++++++++++++++++++++++++++++++++",
"OOOOXXXXXXXX    @@@@++++++++++++++++++++++++++++@@@@++++++++++++++++++++++++++++++++++++++++++++++++++++++++++++++++++++++++++++",
"OOOOXXXXXXXX    @@@@++++++++++++++++++++++++++++@@@@++++++++++++++++++++++++++++++++++++++++++++++++++++++++++++++++++++++++++++",
"OOOOXXXXXXXX    @@@@++++++++++++++++++++++++++++@@@@++++++++++++++++++++++++++++++++++++++++++++++++++++++++++++++++++++++++++++",
"OOOOXXXXXXXX    @@@@++++++++++++++++++++++++++++@@@@++++++++++++++++++++++++++++++++++++++++++++++++++++++++++++++++++++++++++++",
"OOOO        ####@@@@++++++++++++++++++++++++++++++++++++++++++++++++++++++++++++++++++++++++++++++++++++++++++++++++@@@@@@@@@@@@",
"OOOO        ####@@@@++++++++++++++++++++++++++++++++++++++++++++++++++++++++++++++++++++++++++++++++++++++++++++++++@@@@@@@@@@@@",
"OOOO        ####@@@@++++++++++++++++++++++++++++++++++++++++++++++++++++++++++++++++++++++++++++++++++++++++++++++++@@@@@@@@@@@@",
"OOOO        ####@@@@++++++++++++++++++++++++++++++++++++++++++++++++++++++++++++++++++++++++++++++++++++++++++++++++@@@@@@@@@@@@",
"OOOOOOOO        ####@@@@++++++++++++++++++++++++++++++++++++++++++++++++++++++++++++@@@@@@@@++++++++++++++++++++@@@@            ",
"OOOOOOOO        ####@@@@++++++++++++++++++++++++++++++++++++++++++++++++++++++++++++@@@@@@@@++++++++++++++++++++@@@@            ",
"OOOOOOOO        ####@@@@++++++++++++++++++++++++++++++++++++++++++++++++++++++++++++@@@@@@@@++++++++++++++++++++@@@@            ",
"OOOOOOOO        ####@@@@++++++++++++++++++++++++++++++++++++++++++++++++++++++++++++@@@@@@@@++++++++++++++++++++@@@@            ",
"OOOOOOOOXXXX    ####@@@@++++++++++++++++++++++++++++++++++++++++++++++++++++++++++++@@@@++++++++++++++++++++@@@@    OOOOOOOOOOOO",
"OOOOOOOOXXXX    ####@@@@++++++++++++++++++++++++++++++++++++++++++++++++++++++++++++@@@@++++++++++++++++++++@@@@    OOOOOOOOOOOO",
"OOOOOOOOXXXX    ####@@@@++++++++++++++++++++++++++++++++++++++++++++++++++++++++++++@@@@++++++++++++++++++++@@@@    OOOOOOOOOOOO",
"OOOOOOOOXXXX    ####@@@@++++++++++++++++++++++++++++++++++++++++++++++++++++++++++++@@@@++++++++++++++++++++@@@@    OOOOOOOOOOOO",
"OOOOOOOOXXXX    ####@@@@++++++++++++++++++++++++++++++++++++++++++++++++++++++++++++@@@@++++++++++++++++@@@@    XXXXOOOOOOOOOOOO",
"OOOOOOOOXXXX    ####@@@@++++++++++++++++++++++++++++++++++++++++++++++++++++++++++++@@@@++++++++++++++++@@@@    XXXXOOOOOOOOOOOO",
"OOOOOOOOXXXX    ####@@@@++++++++++++++++++++++++++++++++++++++++++++++++++++++++++++@@@@++++++++++++++++@@@@    XXXXOOOOOOOOOOOO",
"OOOOOOOOXXXX    ####@@@@++++++++++++++++++++++++++++++++++++++++++++++++++++++++++++@@@@++++++++++++++++@@@@    XXXXOOOOOOOOOOOO",
"OOOOOOOOXXXX    @@@@++++++++++++++++++++++++++++++++++++++++++++++++++++++++++++++++++++++++++++++++++++@@@@    XXXXOOOOOOOOOOOO",
"OOOOOOOOXXXX    @@@@++++++++++++++++++++++++++++++++++++++++++++++++++++++++++++++++++++++++++++++++++++@@@@    XXXXOOOOOOOOOOOO",
"OOOOOOOOXXXX    @@@@++++++++++++++++++++++++++++++++++++++++++++++++++++++++++++++++++++++++++++++++++++@@@@    XXXXOOOOOOOOOOOO",
"OOOOOOOOXXXX    @@@@++++++++++++++++++++++++++++++++++++++++++++++++++++++++++++++++++++++++++++++++++++@@@@    XXXXOOOOOOOOOOOO"
};
