/* XPM */
static char *result[] = {
/* columns rows colors chars-per-pixel */
"128 128 6 1 ",
"  c #163C2B",
". c #296640",
"X c #509B66",
"o c #00CCFF",
"O c #D7F8FF",
"+ c #F4FDFF",
/* pixels */
"XXXXXXXX....    OOOOooooooooooooooooooooooooooooooooooooooooooooooooooooooooooooooooooooooooooooooooooooooooOOOO    ....XXXXXXXX",
"XXXXXXXX....    OOOOooooooooooooooooooooooooooooooooooooooooooooooooooooooooooooooooooooooooooooooooooooooooOOOO    ....XXXXXXXX",
"XXXXXXXX....    OOOOooooooooooooooooooooooooooooooooooooooooooooooooooooooooooooooooooooooooooooooooooooooooOOOO    ....XXXXXXXX",
"XXXXXXXX....    OOOOooooooooooooooooooooooooooooooooooooooooooooooooooooooooooooooooooooooooooooooooooooooooOOOO    ....XXXXXXXX",
"XXXX        ++++OOOOooooooooooooooooooooooooooooooooooooooooooooooooooooooooooooooooooooooooooooooooooooooooOOOO++++    ....XXXX",
"XXXX        ++++OOOOooooooooooooooooooooooooooooooooooooooooooooooooooooooooooooooooooooooooooooooooooooooooOOOO++++    ....XXXX",
"XXXX        ++++OOOOooooooooooooooooooooooooooooooooooooooooooooooooooooooooooooooooooooooooooooooooooooooooOOOO++++    ....XXXX",
"XXXX        ++++OOOOooooooooooooooooooooooooooooooooooooooooooooooooooooooooooooooooooooooooooooooooooooooooOOOO++++    ....XXXX",
"XXXXXXXX        ++++OOOOooooooooooooooooooooooooooooooooooooooooooooooooooooooooooooooooooooooooooooooooooooooooOOOO++++    XXXX",
"XXXXXXXX        ++++OOOOooooooooooooooooooooooooooooooooooooooooooooooooooooooooooooooooooooooooooooooooooooooooOOOO++++    XXXX",
"XXXXXXXX        ++++OOOOooooooooooooooooooooooooooooooooooooooooooooooooooooooooooooooooooooooooooooooooooooooooOOOO++++    XXXX",
"XXXXXXXX        ++++OOOOooooooooooooooooooooooooooooooooooooooooooooooooooooooooooooooooooooooooooooooooooooooooOOOO++++    XXXX",
"XXXXXXXXXXXX    ++++OOOOooooooooooooooooooooooooooooooooooooooooooooooooooooooooooooooooooooooooooooooooooooooooOOOO    XXXXXXXX",
"XXXXXXXXXXXX    ++++OOOOooooooooooooooooooooooooooooooooooooooooooooooooooooooooooooooooooooooooooooooooooooooooOOOO    XXXXXXXX",
"XXXXXXXXXXXX    ++++OOOOooooooooooooooooooooooooooooooooooooooooooooooooooooooooooooooooooooooooooooooooooooooooOOOO    XXXXXXXX",
"XXXXXXXXXXXX    ++++OOOOooooooooooooooooooooooooooooooooooooooooooooooooooooooooooooooooooooooooooooooooooooooooOOOO    XXXXXXXX",
"XXXXXXXX....    ++++OOOOooooooooooooOOOOooooooooooooooooooooooooooooooooooooooooooooooooooooOOOOooooooooooooOOOO    XXXXXXXXXXXX",
"XXXXXXXX....    ++++OOOOooooooooooooOOOOooooooooooooooooooooooooooooooooooooooooooooooooooooOOOOooooooooooooOOOO    XXXXXXXXXXXX",
"XXXXXXXX....    ++++OOOOooooooooooooOOOOooooooooooooooooooooooooooooooooooooooooooooooooooooOOOOooooooooooooOOOO    XXXXXXXXXXXX",
"XXXXXXXX....    ++++OOOOooooooooooooOOOOooooooooooooooooooooooooooooooooooooooooooooooooooooOOOOooooooooooooOOOO    XXXXXXXXXXXX",
"XXXXXXXX    ++++OOOOooooooooooooooooOOOOOOOOooooooooooooooooooooooooooooooooooooooooooooooooooooooooooooooooOOOO    ....XXXXXXXX",
"XXXXXXXX    ++++OOOOooooooooooooooooOOOOOOOOooooooooooooooooooooooooooooooooooooooooooooooooooooooooooooooooOOOO    ....XXXXXXXX",
"XXXXXXXX    ++++OOOOooooooooooooooooOOOOOOOOooooooooooooooooooooooooooooooooooooooooooooooooooooooooooooooooOOOO    ....XXXXXXXX",
"XXXXXXXX    ++++OOOOooooooooooooooooOOOOOOOOooooooooooooooooooooooooooooooooooooooooooooooooooooooooooooooooOOOO    ....XXXXXXXX",
"XXXXXXXXXXXX    OOOOooooooooooooooooooooOOOOooooooooooooooooooooooooooooooooooooooooooooooooooooooooooooooooOOOO    ....XXXXXXXX",
"XXXXXXXXXXXX    OOOOooooooooooooooooooooOOOOooooooooooooooooooooooooooooooooooooooooooooooooooooooooooooooooOOOO    ....XXXXXXXX",
"XXXXXXXXXXXX    OOOOooooooooooooooooooooOOOOooooooooooooooooooooooooooooooooooooooooooooooooooooooooooooooooOOOO    ....XXXXXXXX",
"XXXXXXXXXXXX    OOOOooooooooooooooooooooOOOOooooooooooooooooooooooooooooooooooooooooooooooooooooooooooooooooOOOO    ....XXXXXXXX",
"XXXXXXXXXXXX    OOOOooooooooooooooooooooooooooooooooooooooooooooooooooooooooooooooooooooooooooooooooooooooooOOOO++++    XXXXXXXX",
"XXXXXXXXXXXX    OOOOooooooooooooooooooooooooooooooooooooooooooooooooooooooooooooooooooooooooooooooooooooooooOOOO++++    XXXXXXXX",
"XXXXXXXXXXXX    OOOOooooooooooooooooooooooooooooooooooooooooooooooooooooooooooooooooooooooooooooooooooooooooOOOO++++    XXXXXXXX",
"XXXXXXXXXXXX    OOOOooooooooooooooooooooooooooooooooooooooooooooooooooooooooooooooooooooooooooooooooooooooooOOOO++++    XXXXXXXX",
"XXXXXXXX....    OOOOooooooooooooooooooooooooooooooooooooooooooooooooooooooooooooooooooooooooooooooooooooOOOO++++    XXXX    XXXX",
"XXXXXXXX....    OOOOooooooooooooooooooooooooooooooooooooooooooooooooooooooooooooooooooooooooooooooooooooOOOO++++    XXXX    XXXX",
"XXXXXXXX....    OOOOooooooooooooooooooooooooooooooooooooooooooooooooooooooooooooooooooooooooooooooooooooOOOO++++    XXXX    XXXX",
"XXXXXXXX....    OOOOooooooooooooooooooooooooooooooooooooooooooooooooooooooooooooooooooooooooooooooooooooOOOO++++    XXXX    XXXX",
"XXXXXXXX....    ++++OOOOooooooooooooooooooooooooooooooooooooooooooooooooooooooooooooooooooooooooooooooooOOOO    ....XXXXXXXXXXXX",
"XXXXXXXX....    ++++OOOOooooooooooooooooooooooooooooooooooooooooooooooooooooooooooooooooooooooooooooooooOOOO    ....XXXXXXXXXXXX",
"XXXXXXXX....    ++++OOOOooooooooooooooooooooooooooooooooooooooooooooooooooooooooooooooooooooooooooooooooOOOO    ....XXXXXXXXXXXX",
"XXXXXXXX....    ++++OOOOooooooooooooooooooooooooooooooooooooooooooooooooooooooooooooooooooooooooooooooooOOOO    ....XXXXXXXXXXXX",
"XXXXXXXX    ....    OOOOooooooooooooooooooooooooooooooooooooooooooooooooooooooooooooooooooooooooooooooooOOOO    ....XXXXXXXXXXXX",
"XXXXXXXX    ....    OOOOooooooooooooooooooooooooooooooooooooooooooooooooooooooooooooooooooooooooooooooooOOOO    ....XXXXXXXXXXXX",
"XXXXXXXX    ....    OOOOooooooooooooooooooooooooooooooooooooooooooooooooooooooooooooooooooooooooooooooooOOOO    ....XXXXXXXXXXXX",
"XXXXXXXX    ....    OOOOooooooooooooooooooooooooooooooooooooooooooooooooooooooooooooooooooooooooooooooooOOOO    ....XXXXXXXXXXXX",
"XXXXXXXXXXXX....    OOOOooooooooooooooooooooooooooooooooooooooooooooooooooooooooooooooooooooooooooooooooOOOO    ........XXXXXXXX",
"XXXXXXXXXXXX....    OOOOooooooooooooooooooooooooooooooooooooooooooooooooooooooooooooooooooooooooooooooooOOOO    ........XXXXXXXX",
"XXXXXXXXXXXX....    OOOOooooooooooooooooooooooooooooooooooooooooooooooooooooooooooooooooooooooooooooooooOOOO    ........XXXXXXXX",
"XXXXXXXXXXXX....    OOOOooooooooooooooooooooooooooooooooooooooooooooooooooooooooooooooooooooooooooooooooOOOO    ........XXXXXXXX",
"XXXXXXXXXXXX....    OOOOooooooooooooooooooooooooooooooooooooooooooooooooooooooooooooooooooooooooooooooooOOOO++++    ....XXXXXXXX",
"XXXXXXXXXXXX....    OOOOooooooooooooooooooooooooooooooooooooooooooooooooooooooooooooooooooooooooooooooooOOOO++++    ....XXXXXXXX",
"XXXXXXXXXXXX....    OOOOooooooooooooooooooooooooooooooooooooooooooooooooooooooooooooooooooooooooooooooooOOOO++++    ....XXXXXXXX",
"XXXXXXXXXXXX....    OOOOooooooooooooooooooooooooooooooooooooooooooooooooooooooooooooooooooooooooooooooooOOOO++++    ....XXXXXXXX",
"XXXXXXXX....    ++++OOOOooooooooooooooooooooooooooooooooooooooooooooooooooooooooooooooooooooooooooooooooooooOOOO        XXXXXXXX",
"XXXXXXXX....    ++++OOOOooooooooooooooooooooooooooooooooooooooooooooooooooooooooooooooooooooooooooooooooooooOOOO        XXXXXXXX",
"XXXXXXXX....    ++++OOOOooooooooooooooooooooooooooooooooooooooooooooooooooooooooooooooooooooooooooooooooooooOOOO        XXXXXXXX",
"XXXXXXXX....    ++++OOOOooooooooooooooooooooooooooooooooooooooooooooooooooooooooooooooooooooooooooooooooooooOOOO        XXXXXXXX",
"XXXXXXXX....    ++++OOOOooooooooooooooooooooooooooooooooooooooooooooooooooooooooooooooooooooooooooooooooooooOOOO    XXXXXXXXXXXX",
"XXXXXXXX....    ++++OOOOooooooooooooooooooooooooooooooooooooooooooooooooooooooooooooooooooooooooooooooooooooOOOO    XXXXXXXXXXXX",
"XXXXXXXX....    ++++OOOOooooooooooooooooooooooooooooooooooooooooooooooooooooooooooooooooooooooooooooooooooooOOOO    XXXXXXXXXXXX",
"XXXXXXXX....    ++++OOOOooooooooooooooooooooooooooooooooooooooooooooooooooooooooooooooooooooooooooooooooooooOOOO    XXXXXXXXXXXX",
"XXXXXXXX    ++++OOOOooooooooooooooooooooooooooooooooooooooooooooooooooooooooooooooooooooooooooooooooooooooooOOOO    XXXXXXXXXXXX",
"XXXXXXXX    ++++OOOOooooooooooooooooooooooooooooooooooooooooooooooooooooooooooooooooooooooooooooooooooooooooOOOO    XXXXXXXXXXXX",
"XXXXXXXX    ++++OOOOooooooooooooooooooooooooooooooooooooooooooooooooooooooooooooooooooooooooooooooooooooooooOOOO    XXXXXXXXXXXX",
"XXXXXXXX    ++++OOOOooooooooooooooooooooooooooooooooooooooooooooooooooooooooooooooooooooooooooooooooooooooooOOOO    XXXXXXXXXXXX",
"XXXXXXXXXXXX    OOOOooooooooooooooooooooooooooooooooooooooooooooooooooooooooooooooooooooooooooooooooooooooooOOOO    ....XXXXXXXX",
"XXXXXXXXXXXX    OOOOooooooooooooooooooooooooooooooooooooooooooooooooooooooooooooooooooooooooooooooooooooooooOOOO    ....XXXXXXXX",
"XXXXXXXXXXXX    OOOOooooooooooooooooooooooooooooooooooooooooooooooooooooooooooooooooooooooooooooooooooooooooOOOO    ....XXXXXXXX",
"XXXXXXXXXXXX    OOOOooooooooooooooooooooooooooooooooooooooooooooooooooooooooooooooooooooooooooooooooooooooooOOOO    ....XXXXXXXX",
"XXXXXXXXXXXX....    OOOOooooooooooooooooooooooooooooooooooooooooooooooooooooooooooooooooooooooooooooooooooooOOOO++++        XXXX",
"XXXXXXXXXXXX....    OOOOooooooooooooooooooooooooooooooooooooooooooooooooooooooooooooooooooooooooooooooooooooOOOO++++        XXXX",
"XXXXXXXXXXXX....    OOOOooooooooooooooooooooooooooooooooooooooooooooooooooooooooooooooooooooooooooooooooooooOOOO++++        XXXX",
"XXXXXXXXXXXX....    OOOOooooooooooooooooooooooooooooooooooooooooooooooooooooooooooooooooooooooooooooooooooooOOOO++++        XXXX",
"XXXXXXXXXXXX....    OOOOooooooooooooooooooooooooooooooooooooooooooooooooooooooooooooooooooooooooooooooooOOOO++++        XXXXXXXX",
"XXXXXXXXXXXX....    OOOOooooooooooooooooooooooooooooooooooooooooooooooooooooooooooooooooooooooooooooooooOOOO++++        XXXXXXXX",
"XXXXXXXXXXXX....    OOOOooooooooooooooooooooooooooooooooooooooooooooooooooooooooooooooooooooooooooooooooOOOO++++        XXXXXXXX",
"XXXXXXXXXXXX....    OOOOooooooooooooooooooooooooooooooooooooooooooooooooooooooooooooooooooooooooooooooooOOOO++++        XXXXXXXX",
"XXXXXXXXXXXX....    OOOOooooooooooooooooooooooooooooooooooooooooooooooooooooooooooooooooooooOOOOooooooooOOOO++++    XXXXXXXXXXXX",
"XXXXXXXXXXXX....    OOOOooooooooooooooooooooooooooooooooooooooooooooooooooooooooooooooooooooOOOOooooooooOOOO++++    XXXXXXXXXXXX",
"XXXXXXXXXXXX....    OOOOooooooooooooooooooooooooooooooooooooooooooooooooooooooooooooooooooooOOOOooooooooOOOO++++    XXXXXXXXXXXX",
"XXXXXXXXXXXX....    OOOOooooooooooooooooooooooooooooooooooooooooooooooooooooooooooooooooooooOOOOooooooooOOOO++++    XXXXXXXXXXXX",
"XXXXXXXXXXXX....    OOOOooooooooooooooooooooooooooooooooooooooooooooooooooooooooooooooooooooOOOOooooooooOOOO++++    ....XXXXXXXX",
"XXXXXXXXXXXX....    OOOOooooooooooooooooooooooooooooooooooooooooooooooooooooooooooooooooooooOOOOooooooooOOOO++++    ....XXXXXXXX",
"XXXXXXXXXXXX....    OOOOooooooooooooooooooooooooooooooooooooooooooooooooooooooooooooooooooooOOOOooooooooOOOO++++    ....XXXXXXXX",
"XXXXXXXXXXXX....    OOOOooooooooooooooooooooooooooooooooooooooooooooooooooooooooooooooooooooOOOOooooooooOOOO++++    ....XXXXXXXX",
"XXXXXXXX....    OOOOooooooooooooooooooooooooooooooooooooooooooooooooooooooooooooooooooooOOOOOOOOooooooooOOOO++++    ....XXXXXXXX",
"XXXXXXXX....    OOOOooooooooooooooooooooooooooooooooooooooooooooooooooooooooooooooooooooOOOOOOOOooooooooOOOO++++    ....XXXXXXXX",
"XXXXXXXX....    OOOOooooooooooooooooooooooooooooooooooooooooooooooooooooooooooooooooooooOOOOOOOOooooooooOOOO++++    ....XXXXXXXX",
"XXXXXXXX....    OOOOooooooooooooooooooooooooooooooooooooooooooooooooooooooooooooooooooooOOOOOOOOooooooooOOOO++++    ....XXXXXXXX",
"XXXXXXXX    ++++OOOOooooooooooooooooooooooooooooooooooooooooooooooooooooooooooooooooOOOOOOOOooooooooooooooooOOOO++++    XXXXXXXX",
"XXXXXXXX    ++++OOOOooooooooooooooooooooooooooooooooooooooooooooooooooooooooooooooooOOOOOOOOooooooooooooooooOOOO++++    XXXXXXXX",
"XXXXXXXX    ++++OOOOooooooooooooooooooooooooooooooooooooooooooooooooooooooooooooooooOOOOOOOOooooooooooooooooOOOO++++    XXXXXXXX",
"XXXXXXXX    ++++OOOOooooooooooooooooooooooooooooooooooooooooooooooooooooooooooooooooOOOOOOOOooooooooooooooooOOOO++++    XXXXXXXX",
"XXXXXXXX    ++++OOOOooooooooOOOOooooooooooooooooooooooooooooooooooooooooooooooooooooooooooooooooooooooooOOOO++++    XXXXXXXXXXXX",
"XXXXXXXX    ++++OOOOooooooooOOOOooooooooooooooooooooooooooooooooooooooooooooooooooooooooooooooooooooooooOOOO++++    XXXXXXXXXXXX",
"XXXXXXXX    ++++OOOOooooooooOOOOooooooooooooooooooooooooooooooooooooooooooooooooooooooooooooooooooooooooOOOO++++    XXXXXXXXXXXX",
"XXXXXXXX    ++++OOOOooooooooOOOOooooooooooooooooooooooooooooooooooooooooooooooooooooooooooooooooooooooooOOOO++++    XXXXXXXXXXXX",
"XXXXXXXXXXXX    OOOOooooooooooooOOOOooooooooooooooooooooooooooooooooooooooooooooooooooooooooooooooooooooOOOO    XXXXXXXXXXXXXXXX",
"XXXXXXXXXXXX    OOOOooooooooooooOOOOooooooooooooooooooooooooooooooooooooooooooooooooooooooooooooooooooooOOOO    XXXXXXXXXXXXXXXX",
"XXXXXXXXXXXX    OOOOooooooooooooOOOOooooooooooooooooooooooooooooooooooooooooooooooooooooooooooooooooooooOOOO    XXXXXXXXXXXXXXXX",
"XXXXXXXXXXXX    OOOOooooooooooooOOOOooooooooooooooooooooooooooooooooooooooooooooooooooooooooooooooooooooOOOO    XXXXXXXXXXXXXXXX",
"XXXXXXXX....    OOOOOOOOooooooooooooooooooooooooooooooooooooooooooooooooooooooooooooooooooooooooooooOOOOOOOO    ....XXXXXXXXXXXX",
"XXXXXXXX....    OOOOOOOOooooooooooooooooooooooooooooooooooooooooooooooooooooooooooooooooooooooooooooOOOOOOOO    ....XXXXXXXXXXXX",
"XXXXXXXX....    OOOOOOOOooooooooooooooooooooooooooooooooooooooooooooooooooooooooooooooooooooooooooooOOOOOOOO    ....XXXXXXXXXXXX",
"XXXXXXXX....    OOOOOOOOooooooooooooooooooooooooooooooooooooooooooooooooooooooooooooooooooooooooooooOOOOOOOO    ....XXXXXXXXXXXX",
"XXXXXXXX....    ++++OOOOOOOOOOOOOOOOOOOOOOOOOOOOooooooooOOOOOOOOOOOOooooOOOOOOOOooooOOOOOOOOOOOOOOOOOOOO++++    ........XXXXXXXX",
"XXXXXXXX....    ++++OOOOOOOOOOOOOOOOOOOOOOOOOOOOooooooooOOOOOOOOOOOOooooOOOOOOOOooooOOOOOOOOOOOOOOOOOOOO++++    ........XXXXXXXX",
"XXXXXXXX....    ++++OOOOOOOOOOOOOOOOOOOOOOOOOOOOooooooooOOOOOOOOOOOOooooOOOOOOOOooooOOOOOOOOOOOOOOOOOOOO++++    ........XXXXXXXX",
"XXXXXXXX....    ++++OOOOOOOOOOOOOOOOOOOOOOOOOOOOooooooooOOOOOOOOOOOOooooOOOOOOOOooooOOOOOOOOOOOOOOOOOOOO++++    ........XXXXXXXX",
"XXXXXXXX........    OOOO++++++++++++            OOOOOOOO++++++++++++OOOO++++++++OOOO++++++++            ++++++++    ....XXXXXXXX",
"XXXXXXXX........    OOOO++++++++++++            OOOOOOOO++++++++++++OOOO++++++++OOOO++++++++            ++++++++    ....XXXXXXXX",
"XXXXXXXX........    OOOO++++++++++++            OOOOOOOO++++++++++++OOOO++++++++OOOO++++++++            ++++++++    ....XXXXXXXX",
"XXXXXXXX........    OOOO++++++++++++            OOOOOOOO++++++++++++OOOO++++++++OOOO++++++++            ++++++++    ....XXXXXXXX",
"XXXXXXXXXXXX........                XXXXXXXX....    ++++        ++++++++            ++++    ....XXXXXXXX        ....XXXXXXXXXXXX",
"XXXXXXXXXXXX........                XXXXXXXX....    ++++        ++++++++            ++++    ....XXXXXXXX        ....XXXXXXXXXXXX",
"XXXXXXXXXXXX........                XXXXXXXX....    ++++        ++++++++            ++++    ....XXXXXXXX        ....XXXXXXXXXXXX",
"XXXXXXXXXXXX........                XXXXXXXX....    ++++        ++++++++            ++++    ....XXXXXXXX        ....XXXXXXXXXXXX",
"XXXXXXXXXXXXXXXX........XXXX....    XXXXXXXXXXXX....    ....XXXX        XXXXXXXXXXXX    ....XXXXXXXXXXXXXXXX    XXXXXXXXXXXXXXXX",
"XXXXXXXXXXXXXXXX........XXXX....    XXXXXXXXXXXX....    ....XXXX        XXXXXXXXXXXX    ....XXXXXXXXXXXXXXXX    XXXXXXXXXXXXXXXX",
"XXXXXXXXXXXXXXXX........XXXX....    XXXXXXXXXXXX....    ....XXXX        XXXXXXXXXXXX    ....XXXXXXXXXXXXXXXX    XXXXXXXXXXXXXXXX",
"XXXXXXXXXXXXXXXX........XXXX....    XXXXXXXXXXXX....    ....XXXX        XXXXXXXXXXXX    ....XXXXXXXXXXXXXXXX    XXXXXXXXXXXXXXXX",
"XXXXXXXXXXXXXXXXXXXXXXXXXXXXXXXXXXXXXXXXXXXXXXXXXXXXXXXXXXXXXXXXXXXXXXXXXXXXXXXXXXXXXXXXXXXXXXXXXXXXXXXXXXXXXXXXXXXXXXXXXXXXXXXX",
"XXXXXXXXXXXXXXXXXXXXXXXXXXXXXXXXXXXXXXXXXXXXXXXXXXXXXXXXXXXXXXXXXXXXXXXXXXXXXXXXXXXXXXXXXXXXXXXXXXXXXXXXXXXXXXXXXXXXXXXXXXXXXXXX",
"XXXXXXXXXXXXXXXXXXXXXXXXXXXXXXXXXXXXXXXXXXXXXXXXXXXXXXXXXXXXXXXXXXXXXXXXXXXXXXXXXXXXXXXXXXXXXXXXXXXXXXXXXXXXXXXXXXXXXXXXXXXXXXXX",
"XXXXXXXXXXXXXXXXXXXXXXXXXXXXXXXXXXXXXXXXXXXXXXXXXXXXXXXXXXXXXXXXXXXXXXXXXXXXXXXXXXXXXXXXXXXXXXXXXXXXXXXXXXXXXXXXXXXXXXXXXXXXXXXX",
"XXXXXXXXXXXXXXXXXXXXXXXXXXXXXXXXXXXXXXXXXXXXXXXXXXXXXXXXXXXXXXXXXXXXXXXXXXXXXXXXXXXXXXXXXXXXXXXXXXXXXXXXXXXXXXXXXXXXXXXXXXXXXXXX",
"XXXXXXXXXXXXXXXXXXXXXXXXXXXXXXXXXXXXXXXXXXXXXXXXXXXXXXXXXXXXXXXXXXXXXXXXXXXXXXXXXXXXXXXXXXXXXXXXXXXXXXXXXXXXXXXXXXXXXXXXXXXXXXXX",
"XXXXXXXXXXXXXXXXXXXXXXXXXXXXXXXXXXXXXXXXXXXXXXXXXXXXXXXXXXXXXXXXXXXXXXXXXXXXXXXXXXXXXXXXXXXXXXXXXXXXXXXXXXXXXXXXXXXXXXXXXXXXXXXX",
"XXXXXXXXXXXXXXXXXXXXXXXXXXXXXXXXXXXXXXXXXXXXXXXXXXXXXXXXXXXXXXXXXXXXXXXXXXXXXXXXXXXXXXXXXXXXXXXXXXXXXXXXXXXXXXXXXXXXXXXXXXXXXXXX"
};
