/* XPM */
static char *result[] = {
/* columns rows colors chars-per-pixel */
"128 128 6 1 ",
"  c #163C2B",
". c #296640",
"X c #509B66",
"o c #00CCFF",
"O c #D7F8FF",
"+ c #F4FDFF",
/* pixels */
"ooooooooooooooooooooooooooooooooooooooooooooooooooooooooooooooooooooooooooooooooooooooooooooooooooooooooooooOOOO    ........XXXX",
"ooooooooooooooooooooooooooooooooooooooooooooooooooooooooooooooooooooooooooooooooooooooooooooooooooooooooooooOOOO    ........XXXX",
"ooooooooooooooooooooooooooooooooooooooooooooooooooooooooooooooooooooooooooooooooooooooooooooooooooooooooooooOOOO    ........XXXX",
"ooooooooooooooooooooooooooooooooooooooooooooooooooooooooooooooooooooooooooooooooooooooooooooooooooooooooooooOOOO    ........XXXX",
"ooooooooooooooooooooooooooooooooooooooooooooooooooooooooooooooooooooooooooooooooooooooooooooooooooooooooooooOOOO++++            ",
"ooooooooooooooooooooooooooooooooooooooooooooooooooooooooooooooooooooooooooooooooooooooooooooooooooooooooooooOOOO++++            ",
"ooooooooooooooooooooooooooooooooooooooooooooooooooooooooooooooooooooooooooooooooooooooooooooooooooooooooooooOOOO++++            ",
"ooooooooooooooooooooooooooooooooooooooooooooooooooooooooooooooooooooooooooooooooooooooooooooooooooooooooooooOOOO++++            ",
"ooooooooooooooooooooooooooooooooooooooooooooooooooooooooooooooooooooooooooooooooooooooooooooooooOOOOooooooooooooOOOO++++    XXXX",
"ooooooooooooooooooooooooooooooooooooooooooooooooooooooooooooooooooooooooooooooooooooooooooooooooOOOOooooooooooooOOOO++++    XXXX",
"ooooooooooooooooooooooooooooooooooooooooooooooooooooooooooooooooooooooooooooooooooooooooooooooooOOOOooooooooooooOOOO++++    XXXX",
"ooooooooooooooooooooooooooooooooooooooooooooooooooooooooooooooooooooooooooooooooooooooooooooooooOOOOooooooooooooOOOO++++    XXXX",
"ooooooooooooooooooooooooooooooooooooooooooooooooooooooooooooooooooooooooooooooooooooooooooooooooOOOOooooooooooooOOOO    XXXXXXXX",
"ooooooooooooooooooooooooooooooooooooooooooooooooooooooooooooooooooooooooooooooooooooooooooooooooOOOOooooooooooooOOOO    XXXXXXXX",
"ooooooooooooooooooooooooooooooooooooooooooooooooooooooooooooooooooooooooooooooooooooooooooooooooOOOOooooooooooooOOOO    XXXXXXXX",
"ooooooooooooooooooooooooooooooooooooooooooooooooooooooooooooooooooooooooooooooooooooooooooooooooOOOOooooooooooooOOOO    XXXXXXXX",
"ooooooooooooooooooooooooooooooooooooooooooooooooooooooooooooooooooooooooooooooooooooooooooooOOOOooooooooooooOOOO    XXXXXXXXXXXX",
"ooooooooooooooooooooooooooooooooooooooooooooooooooooooooooooooooooooooooooooooooooooooooooooOOOOooooooooooooOOOO    XXXXXXXXXXXX",
"ooooooooooooooooooooooooooooooooooooooooooooooooooooooooooooooooooooooooooooooooooooooooooooOOOOooooooooooooOOOO    XXXXXXXXXXXX",
"ooooooooooooooooooooooooooooooooooooooooooooooooooooooooooooooooooooooooooooooooooooooooooooOOOOooooooooooooOOOO    XXXXXXXXXXXX",
"ooooooooooooooooooooooooooooooooooooooooooooooooooooooooooooooooooooooooooooooooooooooooooooOOOOooooooooooooOOOO    ....XXXXXXXX",
"ooooooooooooooooooooooooooooooooooooooooooooooooooooooooooooooooooooooooooooooooooooooooooooOOOOooooooooooooOOOO    ....XXXXXXXX",
"ooooooooooooooooooooooooooooooooooooooooooooooooooooooooooooooooooooooooooooooooooooooooooooOOOOooooooooooooOOOO    ....XXXXXXXX",
"ooooooooooooooooooooooooooooooooooooooooooooooooooooooooooooooooooooooooooooooooooooooooooooOOOOooooooooooooOOOO    ....XXXXXXXX",
"ooooooooooooooooooooooooooooooooooooooooooooooooooooooooooooooooooooooooooooooooooooooooooooooooooooooooooooOOOO    ....XXXXXXXX",
"ooooooooooooooooooooooooooooooooooooooooooooooooooooooooooooooooooooooooooooooooooooooooooooooooooooooooooooOOOO    ....XXXXXXXX",
"ooooooooooooooooooooooooooooooooooooooooooooooooooooooooooooooooooooooooooooooooooooooooooooooooooooooooooooOOOO    ....XXXXXXXX",
"ooooooooooooooooooooooooooooooooooooooooooooooooooooooooooooooooooooooooooooooooooooooooooooooooooooooooooooOOOO    ....XXXXXXXX",
"ooooooooooooooooooooooooooooooooooooooooooooooooooooooooooooooooooooooooooooooooooooooooooooooooooooooooooooOOOO++++    XXXXXXXX",
"ooooooooooooooooooooooooooooooooooooooooooooooooooooooooooooooooooooooooooooooooooooooooooooooooooooooooooooOOOO++++    XXXXXXXX",
"ooooooooooooooooooooooooooooooooooooooooooooooooooooooooooooooooooooooooooooooooooooooooooooooooooooooooooooOOOO++++    XXXXXXXX",
"ooooooooooooooooooooooooooooooooooooooooooooooooooooooooooooooooooooooooooooooooooooooooooooooooooooooooooooOOOO++++    XXXXXXXX",
"ooooooooooooooooooooooooooooooooooooooooooooooooooooooooooooooooooooooooooooooooooooooooooooooooooooooooOOOO++++    XXXX    XXXX",
"ooooooooooooooooooooooooooooooooooooooooooooooooooooooooooooooooooooooooooooooooooooooooooooooooooooooooOOOO++++    XXXX    XXXX",
"ooooooooooooooooooooooooooooooooooooooooooooooooooooooooooooooooooooooooooooooooooooooooooooooooooooooooOOOO++++    XXXX    XXXX",
"ooooooooooooooooooooooooooooooooooooooooooooooooooooooooooooooooooooooooooooooooooooooooooooooooooooooooOOOO++++    XXXX    XXXX",
"ooooooooooooooooooooooooooooooooooooooooooooooooooooooooooooooooooooooooooooooooooooooooooooooooooooooooOOOO    ....XXXXXXXXXXXX",
"ooooooooooooooooooooooooooooooooooooooooooooooooooooooooooooooooooooooooooooooooooooooooooooooooooooooooOOOO    ....XXXXXXXXXXXX",
"ooooooooooooooooooooooooooooooooooooooooooooooooooooooooooooooooooooooooooooooooooooooooooooooooooooooooOOOO    ....XXXXXXXXXXXX",
"ooooooooooooooooooooooooooooooooooooooooooooooooooooooooooooooooooooooooooooooooooooooooooooooooooooooooOOOO    ....XXXXXXXXXXXX",
"ooooooooooooooooooooooooooooooooooooooooooooooooooooooooooooooooooooooooooooooooooooooooooooooooooooooooOOOO    ....XXXXXXXXXXXX",
"ooooooooooooooooooooooooooooooooooooooooooooooooooooooooooooooooooooooooooooooooooooooooooooooooooooooooOOOO    ....XXXXXXXXXXXX",
"ooooooooooooooooooooooooooooooooooooooooooooooooooooooooooooooooooooooooooooooooooooooooooooooooooooooooOOOO    ....XXXXXXXXXXXX",
"ooooooooooooooooooooooooooooooooooooooooooooooooooooooooooooooooooooooooooooooooooooooooooooooooooooooooOOOO    ....XXXXXXXXXXXX",
"ooooooooooooooooooooooooooooooooooooooooooooooooooooooooooooooooooooooooooooooooooooooooooooooooooooooooOOOO++++    ....XXXXXXXX",
"ooooooooooooooooooooooooooooooooooooooooooooooooooooooooooooooooooooooooooooooooooooooooooooooooooooooooOOOO++++    ....XXXXXXXX",
"ooooooooooooooooooooooooooooooooooooooooooooooooooooooooooooooooooooooooooooooooooooooooooooooooooooooooOOOO++++    ....XXXXXXXX",
"ooooooooooooooooooooooooooooooooooooooooooooooooooooooooooooooooooooooooooooooooooooooooooooooooooooooooOOOO++++    ....XXXXXXXX",
"ooooooooooooooooooooooooooooooooooooooooooooooooooooooooooooooooooooooooooooooooooooooooooooooooooooooooooooOOOO    ....XXXXXXXX",
"ooooooooooooooooooooooooooooooooooooooooooooooooooooooooooooooooooooooooooooooooooooooooooooooooooooooooooooOOOO    ....XXXXXXXX",
"ooooooooooooooooooooooooooooooooooooooooooooooooooooooooooooooooooooooooooooooooooooooooooooooooooooooooooooOOOO    ....XXXXXXXX",
"ooooooooooooooooooooooooooooooooooooooooooooooooooooooooooooooooooooooooooooooooooooooooooooooooooooooooooooOOOO    ....XXXXXXXX",
"ooooooooooooooooooooooooooooooooooooooooooooooooooooooooooooooooooooooooooooooooooooooooooooooooooooooooooooOOOO++++    XXXXXXXX",
"ooooooooooooooooooooooooooooooooooooooooooooooooooooooooooooooooooooooooooooooooooooooooooooooooooooooooooooOOOO++++    XXXXXXXX",
"ooooooooooooooooooooooooooooooooooooooooooooooooooooooooooooooooooooooooooooooooooooooooooooooooooooooooooooOOOO++++    XXXXXXXX",
"ooooooooooooooooooooooooooooooooooooooooooooooooooooooooooooooooooooooooooooooooooooooooooooooooooooooooooooOOOO++++    XXXXXXXX",
"ooooooooooooooooooooooooooooooooooooooooooooooooooooooooooooooooooooooooooooooooooooooooooooooooooooooooooooOOOO    XXXXXXXXXXXX",
"ooooooooooooooooooooooooooooooooooooooooooooooooooooooooooooooooooooooooooooooooooooooooooooooooooooooooooooOOOO    XXXXXXXXXXXX",
"ooooooooooooooooooooooooooooooooooooooooooooooooooooooooooooooooooooooooooooooooooooooooooooooooooooooooooooOOOO    XXXXXXXXXXXX",
"ooooooooooooooooooooooooooooooooooooooooooooooooooooooooooooooooooooooooooooooooooooooooooooooooooooooooooooOOOO    XXXXXXXXXXXX",
"ooooooooooooooooooooooooooooooooooooooooooooooooooooooooooooooooooooooooooooooooooooooooooooooooooooooooooooOOOO    XXXXXXXXXXXX",
"ooooooooooooooooooooooooooooooooooooooooooooooooooooooooooooooooooooooooooooooooooooooooooooooooooooooooooooOOOO    XXXXXXXXXXXX",
"ooooooooooooooooooooooooooooooooooooooooooooooooooooooooooooooooooooooooooooooooooooooooooooooooooooooooooooOOOO    XXXXXXXXXXXX",
"ooooooooooooooooooooooooooooooooooooooooooooooooooooooooooooooooooooooooooooooooooooooooooooooooooooooooooooOOOO    XXXXXXXXXXXX",
"ooooooooooooooooooooooooooooooooooooooooooooooooooooooooooooooooooooooooooooooooooooooooooooooooooooooooooooOOOO    ....XXXXXXXX",
"ooooooooooooooooooooooooooooooooooooooooooooooooooooooooooooooooooooooooooooooooooooooooooooooooooooooooooooOOOO    ....XXXXXXXX",
"ooooooooooooooooooooooooooooooooooooooooooooooooooooooooooooooooooooooooooooooooooooooooooooooooooooooooooooOOOO    ....XXXXXXXX",
"ooooooooooooooooooooooooooooooooooooooooooooooooooooooooooooooooooooooooooooooooooooooooooooooooooooooooooooOOOO    ....XXXXXXXX",
"ooooooooooooooooooooooooooooooooooooooooooooooooooooooooooooooooooooooooooooooooooooooooooooooooooooooooooooOOOO++++        XXXX",
"ooooooooooooooooooooooooooooooooooooooooooooooooooooooooooooooooooooooooooooooooooooooooooooooooooooooooooooOOOO++++        XXXX",
"ooooooooooooooooooooooooooooooooooooooooooooooooooooooooooooooooooooooooooooooooooooooooooooooooooooooooooooOOOO++++        XXXX",
"ooooooooooooooooooooooooooooooooooooooooooooooooooooooooooooooooooooooooooooooooooooooooooooooooooooooooooooOOOO++++        XXXX",
"ooooooooooooooooooooooooooooooooooooooooooooooooooooooooooooooooooooooooooooooooooooooooooooooooooooooooOOOO++++        XXXXXXXX",
"ooooooooooooooooooooooooooooooooooooooooooooooooooooooooooooooooooooooooooooooooooooooooooooooooooooooooOOOO++++        XXXXXXXX",
"ooooooooooooooooooooooooooooooooooooooooooooooooooooooooooooooooooooooooooooooooooooooooooooooooooooooooOOOO++++        XXXXXXXX",
"ooooooooooooooooooooooooooooooooooooooooooooooooooooooooooooooooooooooooooooooooooooooooooooooooooooooooOOOO++++        XXXXXXXX",
"ooooooooooooooooooooooooooooooooooooooooooooooooooooooooooooooooooooooooooooooooooooooooooooooooooooooooOOOO++++    XXXXXXXXXXXX",
"ooooooooooooooooooooooooooooooooooooooooooooooooooooooooooooooooooooooooooooooooooooooooooooooooooooooooOOOO++++    XXXXXXXXXXXX",
"ooooooooooooooooooooooooooooooooooooooooooooooooooooooooooooooooooooooooooooooooooooooooooooooooooooooooOOOO++++    XXXXXXXXXXXX",
"ooooooooooooooooooooooooooooooooooooooooooooooooooooooooooooooooooooooooooooooooooooooooooooooooooooooooOOOO++++    XXXXXXXXXXXX",
"ooooooooooooooooooooooooooooooooooooooooooooooooooooooooooooooooooooooooooooooooooooooooOOOOooooooooooooOOOO++++    ....XXXXXXXX",
"ooooooooooooooooooooooooooooooooooooooooooooooooooooooooooooooooooooooooooooooooooooooooOOOOooooooooooooOOOO++++    ....XXXXXXXX",
"ooooooooooooooooooooooooooooooooooooooooooooooooooooooooooooooooooooooooooooooooooooooooOOOOooooooooooooOOOO++++    ....XXXXXXXX",
"ooooooooooooooooooooooooooooooooooooooooooooooooooooooooooooooooooooooooooooooooooooooooOOOOooooooooooooOOOO++++    ....XXXXXXXX",
"ooooooooOOOOooooooooooooooooooooooooooooooooooooooooooooooooooooooooooooooooooooooooooooOOOOooooooooooooOOOO++++    ....XXXXXXXX",
"ooooooooOOOOooooooooooooooooooooooooooooooooooooooooooooooooooooooooooooooooooooooooooooOOOOooooooooooooOOOO++++    ....XXXXXXXX",
"ooooooooOOOOooooooooooooooooooooooooooooooooooooooooooooooooooooooooooooooooooooooooooooOOOOooooooooooooOOOO++++    ....XXXXXXXX",
"ooooooooOOOOooooooooooooooooooooooooooooooooooooooooooooooooooooooooooooooooooooooooooooOOOOooooooooooooOOOO++++    ....XXXXXXXX",
"ooooooooooooOOOOOOOOOOOOooooooooooooooooooooooooooooooooooooooooooooooooooooooooooooOOOOooooooooooooooooooooOOOO++++    XXXXXXXX",
"ooooooooooooOOOOOOOOOOOOooooooooooooooooooooooooooooooooooooooooooooooooooooooooooooOOOOooooooooooooooooooooOOOO++++    XXXXXXXX",
"ooooooooooooOOOOOOOOOOOOooooooooooooooooooooooooooooooooooooooooooooooooooooooooooooOOOOooooooooooooooooooooOOOO++++    XXXXXXXX",
"ooooooooooooOOOOOOOOOOOOooooooooooooooooooooooooooooooooooooooooooooooooooooooooooooOOOOooooooooooooooooooooOOOO++++    XXXXXXXX",
"ooooooooooooooooooooooooooooooooooooooooooooooooooooooooooooooooooooooooooooooooooooooooooooooooooooooooooooOOOO    XXXXXXXXXXXX",
"ooooooooooooooooooooooooooooooooooooooooooooooooooooooooooooooooooooooooooooooooooooooooooooooooooooooooooooOOOO    XXXXXXXXXXXX",
"ooooooooooooooooooooooooooooooooooooooooooooooooooooooooooooooooooooooooooooooooooooooooooooooooooooooooooooOOOO    XXXXXXXXXXXX",
"ooooooooooooooooooooooooooooooooooooooooooooooooooooooooooooooooooooooooooooooooooooooooooooooooooooooooooooOOOO    XXXXXXXXXXXX",
"ooooooooooooooooooooooooooooooooooooooooooooooooooooooooooooooooooooooooooooooooooooooooooooooooooooooooOOOO    XXXXXXXXXXXXXXXX",
"ooooooooooooooooooooooooooooooooooooooooooooooooooooooooooooooooooooooooooooooooooooooooooooooooooooooooOOOO    XXXXXXXXXXXXXXXX",
"ooooooooooooooooooooooooooooooooooooooooooooooooooooooooooooooooooooooooooooooooooooooooooooooooooooooooOOOO    XXXXXXXXXXXXXXXX",
"ooooooooooooooooooooooooooooooooooooooooooooooooooooooooooooooooooooooooooooooooooooooooooooooooooooooooOOOO    XXXXXXXXXXXXXXXX",
"ooooooooooooooooooooooooooooooooooooooooooooooooooooooooooooooooooooooooooooooooooooooooooooooooooooooooOOOO    ....XXXXXXXXXXXX",
"ooooooooooooooooooooooooooooooooooooooooooooooooooooooooooooooooooooooooooooooooooooooooooooooooooooooooOOOO    ....XXXXXXXXXXXX",
"ooooooooooooooooooooooooooooooooooooooooooooooooooooooooooooooooooooooooooooooooooooooooooooooooooooooooOOOO    ....XXXXXXXXXXXX",
"ooooooooooooooooooooooooooooooooooooooooooooooooooooooooooooooooooooooooooooooooooooooooooooooooooooooooOOOO    ....XXXXXXXXXXXX",
"OOOOOOOOooooooooooooooooOOOOOOOOOOOOOOOOOOOOOOOOooooooooOOOOOOOOOOOOooooOOOOOOOOooooooooOOOOOOOOOOOOOOOOOOOO    ........XXXXXXXX",
"OOOOOOOOooooooooooooooooOOOOOOOOOOOOOOOOOOOOOOOOooooooooOOOOOOOOOOOOooooOOOOOOOOooooooooOOOOOOOOOOOOOOOOOOOO    ........XXXXXXXX",
"OOOOOOOOooooooooooooooooOOOOOOOOOOOOOOOOOOOOOOOOooooooooOOOOOOOOOOOOooooOOOOOOOOooooooooOOOOOOOOOOOOOOOOOOOO    ........XXXXXXXX",
"OOOOOOOOooooooooooooooooOOOOOOOOOOOOOOOOOOOOOOOOooooooooOOOOOOOOOOOOooooOOOOOOOOooooooooOOOOOOOOOOOOOOOOOOOO    ........XXXXXXXX",
"++++++++OOOOOOOOOOOOOOOO++++++++++++            OOOOOOOO++++++++++++OOOO++++++++OOOOOOOO++++            ++++++++        XXXXXXXX",
"++++++++OOOOOOOOOOOOOOOO++++++++++++            OOOOOOOO++++++++++++OOOO++++++++OOOOOOOO++++            ++++++++        XXXXXXXX",
"++++++++OOOOOOOOOOOOOOOO++++++++++++            OOOOOOOO++++++++++++OOOO++++++++OOOOOOOO++++            ++++++++        XXXXXXXX",
"++++++++OOOOOOOOOOOOOOOO++++++++++++            OOOOOOOO++++++++++++OOOO++++++++OOOOOOOO++++            ++++++++        XXXXXXXX",
"                ++++                XXXXXXXX....    ++++        ++++++++            ++++    ....XXXXXXXX            XXXXXXXXXXXX",
"                ++++                XXXXXXXX....    ++++        ++++++++            ++++    ....XXXXXXXX            XXXXXXXXXXXX",
"                ++++                XXXXXXXX....    ++++        ++++++++            ++++    ....XXXXXXXX            XXXXXXXXXXXX",
"                ++++                XXXXXXXX....    ++++        ++++++++            ++++    ....XXXXXXXX            XXXXXXXXXXXX",
"XXXX    XXXX....    XXXXXXXX....    XXXXXXXXXXXX....    ....XXXX        XXXXXXXXXXXX    ....XXXXXXXXXXXXXXXX    ....XXXXXXXXXXXX",
"XXXX    XXXX....    XXXXXXXX....    XXXXXXXXXXXX....    ....XXXX        XXXXXXXXXXXX    ....XXXXXXXXXXXXXXXX    ....XXXXXXXXXXXX",
"XXXX    XXXX....    XXXXXXXX....    XXXXXXXXXXXX....    ....XXXX        XXXXXXXXXXXX    ....XXXXXXXXXXXXXXXX    ....XXXXXXXXXXXX",
"XXXX    XXXX....    XXXXXXXX....    XXXXXXXXXXXX....    ....XXXX        XXXXXXXXXXXX    ....XXXXXXXXXXXXXXXX    ....XXXXXXXXXXXX",
"XXXXXXXXXXXXXXXXXXXXXXXXXXXXXXXXXXXXXXXXXXXXXXXXXXXXXXXXXXXXXXXXXXXXXXXXXXXXXXXXXXXXXXXXXXXXXXXXXXXXXXXXXXXXXXXXXXXXXXXXXXXXXXXX",
"XXXXXXXXXXXXXXXXXXXXXXXXXXXXXXXXXXXXXXXXXXXXXXXXXXXXXXXXXXXXXXXXXXXXXXXXXXXXXXXXXXXXXXXXXXXXXXXXXXXXXXXXXXXXXXXXXXXXXXXXXXXXXXXX",
"XXXXXXXXXXXXXXXXXXXXXXXXXXXXXXXXXXXXXXXXXXXXXXXXXXXXXXXXXXXXXXXXXXXXXXXXXXXXXXXXXXXXXXXXXXXXXXXXXXXXXXXXXXXXXXXXXXXXXXXXXXXXXXXX",
"XXXXXXXXXXXXXXXXXXXXXXXXXXXXXXXXXXXXXXXXXXXXXXXXXXXXXXXXXXXXXXXXXXXXXXXXXXXXXXXXXXXXXXXXXXXXXXXXXXXXXXXXXXXXXXXXXXXXXXXXXXXXXXXX",
"XXXXXXXXXXXXXXXXXXXXXXXXXXXXXXXXXXXXXXXXXXXXXXXXXXXXXXXXXXXXXXXXXXXXXXXXXXXXXXXXXXXXXXXXXXXXXXXXXXXXXXXXXXXXXXXXXXXXXXXXXXXXXXXX",
"XXXXXXXXXXXXXXXXXXXXXXXXXXXXXXXXXXXXXXXXXXXXXXXXXXXXXXXXXXXXXXXXXXXXXXXXXXXXXXXXXXXXXXXXXXXXXXXXXXXXXXXXXXXXXXXXXXXXXXXXXXXXXXXX",
"XXXXXXXXXXXXXXXXXXXXXXXXXXXXXXXXXXXXXXXXXXXXXXXXXXXXXXXXXXXXXXXXXXXXXXXXXXXXXXXXXXXXXXXXXXXXXXXXXXXXXXXXXXXXXXXXXXXXXXXXXXXXXXXX",
"XXXXXXXXXXXXXXXXXXXXXXXXXXXXXXXXXXXXXXXXXXXXXXXXXXXXXXXXXXXXXXXXXXXXXXXXXXXXXXXXXXXXXXXXXXXXXXXXXXXXXXXXXXXXXXXXXXXXXXXXXXXXXXXX"
};
