/* XPM */
static char *result[] = {
/* columns rows colors chars-per-pixel */
"128 128 11 1 ",
"  c #163C2B",
". c #503625",
"X c #755338",
"o c #296640",
"O c #9D7658",
"+ c #509B66",
"@ c #00CCFF",
"# c gray54",
"$ c gray59",
"% c #D7F8FF",
"& c #F4FDFF",
/* pixels */
"++++++++++++++++++++++++++++++++++++++++++++++++++++oooo++++++++++++++++++++++++++++++++++++oooo++++++++++++++++++++++++++++++++",
"++++++++++++++++++++++++++++++++++++++++++++++++++++oooo++++++++++++++++++++++++++++++++++++oooo++++++++++++++++++++++++++++++++",
"++++++++++++++++++++++++++++++++++++++++++++++++++++oooo++++++++++++++++++++++++++++++++++++oooo++++++++++++++++++++++++++++++++",
"++++++++++++++++++++++++++++++++++++++++++++++++++++oooo++++++++++++++++++++++++++++++++++++oooo++++++++++++++++++++++++++++++++",
"++++++++++++++++++++++++++++oooo    ++++++++oooooooo    ++++++++++++++++oooo++++++++++++oooo++++++++++++oooo++++++++++++oooo++++",
"++++++++++++++++++++++++++++oooo    ++++++++oooooooo    ++++++++++++++++oooo++++++++++++oooo++++++++++++oooo++++++++++++oooo++++",
"++++++++++++++++++++++++++++oooo    ++++++++oooooooo    ++++++++++++++++oooo++++++++++++oooo++++++++++++oooo++++++++++++oooo++++",
"++++++++++++++++++++++++++++oooo    ++++++++oooooooo    ++++++++++++++++oooo++++++++++++oooo++++++++++++oooo++++++++++++oooo++++",
"++++++++++++++++    ++++++++oooo    oooooooo        ++++++++++++++++oooo    ++++++++oooo    ++++++++oooo    ++++++++++++    ++++",
"++++++++++++++++    ++++++++oooo    oooooooo        ++++++++++++++++oooo    ++++++++oooo    ++++++++oooo    ++++++++++++    ++++",
"++++++++++++++++    ++++++++oooo    oooooooo        ++++++++++++++++oooo    ++++++++oooo    ++++++++oooo    ++++++++++++    ++++",
"++++++++++++++++    ++++++++oooo    oooooooo        ++++++++++++++++oooo    ++++++++oooo    ++++++++oooo    ++++++++++++    ++++",
"++++++++++++++++    oooooooo                ....        oooooooooooooooo                        oooooooo        ++++oooo        ",
"++++++++++++++++    oooooooo                ....        oooooooooooooooo                        oooooooo        ++++oooo        ",
"++++++++++++++++    oooooooo                ....        oooooooooooooooo                        oooooooo        ++++oooo        ",
"++++++++++++++++    oooooooo                ....        oooooooooooooooo                        oooooooo        ++++oooo        ",
"++++++++++++    XXXX        XXXXXXXXXXXXXXXXXXXXXXXX....                XXXXXXXXXXXXXXXX....            XXXXXXXX        XXXXXXXX",
"++++++++++++    XXXX        XXXXXXXXXXXXXXXXXXXXXXXX....                XXXXXXXXXXXXXXXX....            XXXXXXXX        XXXXXXXX",
"++++++++++++    XXXX        XXXXXXXXXXXXXXXXXXXXXXXX....                XXXXXXXXXXXXXXXX....            XXXXXXXX        XXXXXXXX",
"++++++++++++    XXXX        XXXXXXXXXXXXXXXXXXXXXXXX....                XXXXXXXXXXXXXXXX....            XXXXXXXX        XXXXXXXX",
"++++++++    XXXXXXXXXXXXXXXXOOOOOOOOOOOOOOOOOOOOXXXXXXXXXXXXXXXXXXXXXXXXOOOOOOOOOOOOOOOOXXXXXXXXXXXXXXXXOOOOOOOOXXXXXXXXOOOOOOOO",
"++++++++    XXXXXXXXXXXXXXXXOOOOOOOOOOOOOOOOOOOOXXXXXXXXXXXXXXXXXXXXXXXXOOOOOOOOOOOOOOOOXXXXXXXXXXXXXXXXOOOOOOOOXXXXXXXXOOOOOOOO",
"++++++++    XXXXXXXXXXXXXXXXOOOOOOOOOOOOOOOOOOOOXXXXXXXXXXXXXXXXXXXXXXXXOOOOOOOOOOOOOOOOXXXXXXXXXXXXXXXXOOOOOOOOXXXXXXXXOOOOOOOO",
"++++++++    XXXXXXXXXXXXXXXXOOOOOOOOOOOOOOOOOOOOXXXXXXXXXXXXXXXXXXXXXXXXOOOOOOOOOOOOOOOOXXXXXXXXXXXXXXXXOOOOOOOOXXXXXXXXOOOOOOOO",
"++++++++        XXXXOOOOOOOOOOOO$$$$####XXXXOOOOOOOOOOOOOOOOOOOOOOOOOOOOOOOO$$$$####OOOOOOOOOOOOOOOOOOOOOOOOOOOOOOOOOOOOOOOOOOOO",
"++++++++        XXXXOOOOOOOOOOOO$$$$####XXXXOOOOOOOOOOOOOOOOOOOOOOOOOOOOOOOO$$$$####OOOOOOOOOOOOOOOOOOOOOOOOOOOOOOOOOOOOOOOOOOOO",
"++++++++        XXXXOOOOOOOOOOOO$$$$####XXXXOOOOOOOOOOOOOOOOOOOOOOOOOOOOOOOO$$$$####OOOOOOOOOOOOOOOOOOOOOOOOOOOOOOOOOOOOOOOOOOOO",
"++++++++        XXXXOOOOOOOOOOOO$$$$####XXXXOOOOOOOOOOOOOOOOOOOOOOOOOOOOOOOO$$$$####OOOOOOOOOOOOOOOOOOOOOOOOOOOOOOOOOOOOOOOOOOOO",
"++++++++oooo    OOOOOOOOOOOOOOOOXXXXXXXXOOOOOOOOOOOOOOOOOOOOOOOOOOOOOOOO########XXXXOOOOOOOOOOOOOOOOOOOOOOOOOOOOOOOOOOOOOOOOOOOO",
"++++++++oooo    OOOOOOOOOOOOOOOOXXXXXXXXOOOOOOOOOOOOOOOOOOOOOOOOOOOOOOOO########XXXXOOOOOOOOOOOOOOOOOOOOOOOOOOOOOOOOOOOOOOOOOOOO",
"++++++++oooo    OOOOOOOOOOOOOOOOXXXXXXXXOOOOOOOOOOOOOOOOOOOOOOOOOOOOOOOO########XXXXOOOOOOOOOOOOOOOOOOOOOOOOOOOOOOOOOOOOOOOOOOOO",
"++++++++oooo    OOOOOOOOOOOOOOOOXXXXXXXXOOOOOOOOOOOOOOOOOOOOOOOOOOOOOOOO########XXXXOOOOOOOOOOOOOOOOOOOOOOOOOOOOOOOOOOOOOOOOOOOO",
"++++++++    XXXXOOOOOOOOOOOOOOOOOOOOOOOOOOOOOOOOOOOOOOOOOOOOOOOOOOOOOOOOXXXXXXXXOOOOOOOOOOOOOOOOOOOOOOOOOOOOOOOOOOOOOOOOOOOOOOOO",
"++++++++    XXXXOOOOOOOOOOOOOOOOOOOOOOOOOOOOOOOOOOOOOOOOOOOOOOOOOOOOOOOOXXXXXXXXOOOOOOOOOOOOOOOOOOOOOOOOOOOOOOOOOOOOOOOOOOOOOOOO",
"++++++++    XXXXOOOOOOOOOOOOOOOOOOOOOOOOOOOOOOOOOOOOOOOOOOOOOOOOOOOOOOOOXXXXXXXXOOOOOOOOOOOOOOOOOOOOOOOOOOOOOOOOOOOOOOOOOOOOOOOO",
"++++++++    XXXXOOOOOOOOOOOOOOOOOOOOOOOOOOOOOOOOOOOOOOOOOOOOOOOOOOOOOOOOXXXXXXXXOOOOOOOOOOOOOOOOOOOOOOOOOOOOOOOOOOOOOOOOOOOOOOOO",
"++++++++++++    OOOOOOOO&&&&&&&&&&&&&&&&&&&&&&&&OOOOOOOOOOOOOOOOOOOOOOOO&&&&&&&&&&&&&&&&&&&&OOOOOOOOOOOOOOOOOOOOOOOO&&&&&&&&&&&&",
"++++++++++++    OOOOOOOO&&&&&&&&&&&&&&&&&&&&&&&&OOOOOOOOOOOOOOOOOOOOOOOO&&&&&&&&&&&&&&&&&&&&OOOOOOOOOOOOOOOOOOOOOOOO&&&&&&&&&&&&",
"++++++++++++    OOOOOOOO&&&&&&&&&&&&&&&&&&&&&&&&OOOOOOOOOOOOOOOOOOOOOOOO&&&&&&&&&&&&&&&&&&&&OOOOOOOOOOOOOOOOOOOOOOOO&&&&&&&&&&&&",
"++++++++++++    OOOOOOOO&&&&&&&&&&&&&&&&&&&&&&&&OOOOOOOOOOOOOOOOOOOOOOOO&&&&&&&&&&&&&&&&&&&&OOOOOOOOOOOOOOOOOOOOOOOO&&&&&&&&&&&&",
"++++++++++++oooo    &&&&%%%%%%%%%%%%%%%%%%%%%%%%&&&&&&&&&&&&&&&&&&&&&&&&%%%%%%%%%%%%%%%%%%%%&&&&&&&&&&&&&&&&&&&&&&&&%%%%%%%%%%%%",
"++++++++++++oooo    &&&&%%%%%%%%%%%%%%%%%%%%%%%%&&&&&&&&&&&&&&&&&&&&&&&&%%%%%%%%%%%%%%%%%%%%&&&&&&&&&&&&&&&&&&&&&&&&%%%%%%%%%%%%",
"++++++++++++oooo    &&&&%%%%%%%%%%%%%%%%%%%%%%%%&&&&&&&&&&&&&&&&&&&&&&&&%%%%%%%%%%%%%%%%%%%%&&&&&&&&&&&&&&&&&&&&&&&&%%%%%%%%%%%%",
"++++++++++++oooo    &&&&%%%%%%%%%%%%%%%%%%%%%%%%&&&&&&&&&&&&&&&&&&&&&&&&%%%%%%%%%%%%%%%%%%%%&&&&&&&&&&&&&&&&&&&&&&&&%%%%%%%%%%%%",
"++++++++++++oooo    %%%%%%%%@@@@@@@@@@@@@@@@@@@@%%%%%%%%%%%%%%%%%%%%%%%%@@@@@@@@@@@@@@@@@@@@%%%%%%%%%%%%%%%%%%%%%%%%@@@@@@@@@@@@",
"++++++++++++oooo    %%%%%%%%@@@@@@@@@@@@@@@@@@@@%%%%%%%%%%%%%%%%%%%%%%%%@@@@@@@@@@@@@@@@@@@@%%%%%%%%%%%%%%%%%%%%%%%%@@@@@@@@@@@@",
"++++++++++++oooo    %%%%%%%%@@@@@@@@@@@@@@@@@@@@%%%%%%%%%%%%%%%%%%%%%%%%@@@@@@@@@@@@@@@@@@@@%%%%%%%%%%%%%%%%%%%%%%%%@@@@@@@@@@@@",
"++++++++++++oooo    %%%%%%%%@@@@@@@@@@@@@@@@@@@@%%%%%%%%%%%%%%%%%%%%%%%%@@@@@@@@@@@@@@@@@@@@%%%%%%%%%%%%%%%%%%%%%%%%@@@@@@@@@@@@",
"++++++++++++oooo    %%%%@@@@@@@@@@@@@@@@@@@@@@@@@@@@@@@@@@@@@@@@@@@@@@@@@@@@@@@@@@@@@@@@@@@@@@@@@@@@@@@@@@@@@@@@@@@@@@@@@@@@@@@@",
"++++++++++++oooo    %%%%@@@@@@@@@@@@@@@@@@@@@@@@@@@@@@@@@@@@@@@@@@@@@@@@@@@@@@@@@@@@@@@@@@@@@@@@@@@@@@@@@@@@@@@@@@@@@@@@@@@@@@@@",
"++++++++++++oooo    %%%%@@@@@@@@@@@@@@@@@@@@@@@@@@@@@@@@@@@@@@@@@@@@@@@@@@@@@@@@@@@@@@@@@@@@@@@@@@@@@@@@@@@@@@@@@@@@@@@@@@@@@@@@",
"++++++++++++oooo    %%%%@@@@@@@@@@@@@@@@@@@@@@@@@@@@@@@@@@@@@@@@@@@@@@@@@@@@@@@@@@@@@@@@@@@@@@@@@@@@@@@@@@@@@@@@@@@@@@@@@@@@@@@@",
"++++++++oooo    &&&&%%%%@@@@@@@@@@@@@@@@@@@@@@@@@@@@@@@@@@@@@@@@@@@@@@@@@@@@@@@@@@@@@@@@@@@@@@@@@@@@@@@@@@@@@@@@@@@@@@@@@@@@@@@@",
"++++++++oooo    &&&&%%%%@@@@@@@@@@@@@@@@@@@@@@@@@@@@@@@@@@@@@@@@@@@@@@@@@@@@@@@@@@@@@@@@@@@@@@@@@@@@@@@@@@@@@@@@@@@@@@@@@@@@@@@@",
"++++++++oooo    &&&&%%%%@@@@@@@@@@@@@@@@@@@@@@@@@@@@@@@@@@@@@@@@@@@@@@@@@@@@@@@@@@@@@@@@@@@@@@@@@@@@@@@@@@@@@@@@@@@@@@@@@@@@@@@@",
"++++++++oooo    &&&&%%%%@@@@@@@@@@@@@@@@@@@@@@@@@@@@@@@@@@@@@@@@@@@@@@@@@@@@@@@@@@@@@@@@@@@@@@@@@@@@@@@@@@@@@@@@@@@@@@@@@@@@@@@@",
"++++++++oooo    &&&&%%%%@@@@@@@@@@@@@@@@@@@@@@@@@@@@@@@@@@@@@@@@@@@@@@@@@@@@@@@@@@@@@@@@@@@@@@@@@@@@@@@@@@@@@@@@@@@@@@@@@@@@@@@@",
"++++++++oooo    &&&&%%%%@@@@@@@@@@@@@@@@@@@@@@@@@@@@@@@@@@@@@@@@@@@@@@@@@@@@@@@@@@@@@@@@@@@@@@@@@@@@@@@@@@@@@@@@@@@@@@@@@@@@@@@@",
"++++++++oooo    &&&&%%%%@@@@@@@@@@@@@@@@@@@@@@@@@@@@@@@@@@@@@@@@@@@@@@@@@@@@@@@@@@@@@@@@@@@@@@@@@@@@@@@@@@@@@@@@@@@@@@@@@@@@@@@@",
"++++++++oooo    &&&&%%%%@@@@@@@@@@@@@@@@@@@@@@@@@@@@@@@@@@@@@@@@@@@@@@@@@@@@@@@@@@@@@@@@@@@@@@@@@@@@@@@@@@@@@@@@@@@@@@@@@@@@@@@@",
"++++++++    &&&&%%%%@@@@@@@@@@@@@@@@@@@@%%%%%%%%@@@@@@@@@@@@@@@@@@@@@@@@@@@@@@@@@@@@@@@@@@@@@@@@@@@@@@@@%%%%%%%%@@@@@@@@@@@@@@@@",
"++++++++    &&&&%%%%@@@@@@@@@@@@@@@@@@@@%%%%%%%%@@@@@@@@@@@@@@@@@@@@@@@@@@@@@@@@@@@@@@@@@@@@@@@@@@@@@@@@%%%%%%%%@@@@@@@@@@@@@@@@",
"++++++++    &&&&%%%%@@@@@@@@@@@@@@@@@@@@%%%%%%%%@@@@@@@@@@@@@@@@@@@@@@@@@@@@@@@@@@@@@@@@@@@@@@@@@@@@@@@@%%%%%%%%@@@@@@@@@@@@@@@@",
"++++++++    &&&&%%%%@@@@@@@@@@@@@@@@@@@@%%%%%%%%@@@@@@@@@@@@@@@@@@@@@@@@@@@@@@@@@@@@@@@@@@@@@@@@@@@@@@@@%%%%%%%%@@@@@@@@@@@@@@@@",
"++++++++++++    %%%%@@@@@@@@@@@@@@@@%%%%%%%%@@@@@@@@@@@@@@@@@@@@@@@@@@@@@@@@@@@@@@@@@@@@@@@@@@@@@@@@@@@@@@@@@@@@%%%%@@@@@@@@@@@@",
"++++++++++++    %%%%@@@@@@@@@@@@@@@@%%%%%%%%@@@@@@@@@@@@@@@@@@@@@@@@@@@@@@@@@@@@@@@@@@@@@@@@@@@@@@@@@@@@@@@@@@@@%%%%@@@@@@@@@@@@",
"++++++++++++    %%%%@@@@@@@@@@@@@@@@%%%%%%%%@@@@@@@@@@@@@@@@@@@@@@@@@@@@@@@@@@@@@@@@@@@@@@@@@@@@@@@@@@@@@@@@@@@@%%%%@@@@@@@@@@@@",
"++++++++++++    %%%%@@@@@@@@@@@@@@@@%%%%%%%%@@@@@@@@@@@@@@@@@@@@@@@@@@@@@@@@@@@@@@@@@@@@@@@@@@@@@@@@@@@@@@@@@@@@%%%%@@@@@@@@@@@@",
"++++++++++++oooo    %%%%@@@@@@@@@@@@%%%%@@@@@@@@@@@@@@@@@@@@@@@@@@@@@@@@@@@@@@@@@@@@@@@@@@@@@@@@@@@@@@@@@@@@@@@@@@@@@@@@@@@@@@@@",
"++++++++++++oooo    %%%%@@@@@@@@@@@@%%%%@@@@@@@@@@@@@@@@@@@@@@@@@@@@@@@@@@@@@@@@@@@@@@@@@@@@@@@@@@@@@@@@@@@@@@@@@@@@@@@@@@@@@@@@",
"++++++++++++oooo    %%%%@@@@@@@@@@@@%%%%@@@@@@@@@@@@@@@@@@@@@@@@@@@@@@@@@@@@@@@@@@@@@@@@@@@@@@@@@@@@@@@@@@@@@@@@@@@@@@@@@@@@@@@@",
"++++++++++++oooo    %%%%@@@@@@@@@@@@%%%%@@@@@@@@@@@@@@@@@@@@@@@@@@@@@@@@@@@@@@@@@@@@@@@@@@@@@@@@@@@@@@@@@@@@@@@@@@@@@@@@@@@@@@@@",
"++++++++++++oooo    %%%%@@@@@@@@@@@@@@@@@@@@@@@@@@@@@@@@@@@@@@@@@@@@@@@@@@@@@@@@@@@@@@@@@@@@@@@@@@@@@@@@@@@@@@@@@@@@@@@@@@@@@@@@",
"++++++++++++oooo    %%%%@@@@@@@@@@@@@@@@@@@@@@@@@@@@@@@@@@@@@@@@@@@@@@@@@@@@@@@@@@@@@@@@@@@@@@@@@@@@@@@@@@@@@@@@@@@@@@@@@@@@@@@@",
"++++++++++++oooo    %%%%@@@@@@@@@@@@@@@@@@@@@@@@@@@@@@@@@@@@@@@@@@@@@@@@@@@@@@@@@@@@@@@@@@@@@@@@@@@@@@@@@@@@@@@@@@@@@@@@@@@@@@@@",
"++++++++++++oooo    %%%%@@@@@@@@@@@@@@@@@@@@@@@@@@@@@@@@@@@@@@@@@@@@@@@@@@@@@@@@@@@@@@@@@@@@@@@@@@@@@@@@@@@@@@@@@@@@@@@@@@@@@@@@",
"++++    oooooooo    %%%%@@@@@@@@@@@@@@@@@@@@@@@@@@@@@@@@@@@@@@@@@@@@@@@@@@@@@@@@@@@@@@@@@@@@@@@@@@@@@@@@@@@@@@@@@@@@@@@@@@@@@@@@",
"++++    oooooooo    %%%%@@@@@@@@@@@@@@@@@@@@@@@@@@@@@@@@@@@@@@@@@@@@@@@@@@@@@@@@@@@@@@@@@@@@@@@@@@@@@@@@@@@@@@@@@@@@@@@@@@@@@@@@",
"++++    oooooooo    %%%%@@@@@@@@@@@@@@@@@@@@@@@@@@@@@@@@@@@@@@@@@@@@@@@@@@@@@@@@@@@@@@@@@@@@@@@@@@@@@@@@@@@@@@@@@@@@@@@@@@@@@@@@",
"++++    oooooooo    %%%%@@@@@@@@@@@@@@@@@@@@@@@@@@@@@@@@@@@@@@@@@@@@@@@@@@@@@@@@@@@@@@@@@@@@@@@@@@@@@@@@@@@@@@@@@@@@@@@@@@@@@@@@",
"++++++++        &&&&%%%%@@@@@@@@@@@@@@@@@@@@@@@@@@@@@@@@@@@@@@@@@@@@@@@@@@@@@@@@@@@@@@@@@@@@@@@@@@@@@@@@@@@@@@@@@@@@@@@@@@@@@@@@",
"++++++++        &&&&%%%%@@@@@@@@@@@@@@@@@@@@@@@@@@@@@@@@@@@@@@@@@@@@@@@@@@@@@@@@@@@@@@@@@@@@@@@@@@@@@@@@@@@@@@@@@@@@@@@@@@@@@@@@",
"++++++++        &&&&%%%%@@@@@@@@@@@@@@@@@@@@@@@@@@@@@@@@@@@@@@@@@@@@@@@@@@@@@@@@@@@@@@@@@@@@@@@@@@@@@@@@@@@@@@@@@@@@@@@@@@@@@@@@",
"++++++++        &&&&%%%%@@@@@@@@@@@@@@@@@@@@@@@@@@@@@@@@@@@@@@@@@@@@@@@@@@@@@@@@@@@@@@@@@@@@@@@@@@@@@@@@@@@@@@@@@@@@@@@@@@@@@@@@",
"++++++++++++    &&&&%%%%@@@@@@@@@@@@@@@@@@@@@@@@@@@@@@@@@@@@@@@@@@@@@@@@@@@@@@@@@@@@@@@@@@@@@@@@@@@@@@@@@@@@@@@@@@@@@@@@@@@@@@@@",
"++++++++++++    &&&&%%%%@@@@@@@@@@@@@@@@@@@@@@@@@@@@@@@@@@@@@@@@@@@@@@@@@@@@@@@@@@@@@@@@@@@@@@@@@@@@@@@@@@@@@@@@@@@@@@@@@@@@@@@@",
"++++++++++++    &&&&%%%%@@@@@@@@@@@@@@@@@@@@@@@@@@@@@@@@@@@@@@@@@@@@@@@@@@@@@@@@@@@@@@@@@@@@@@@@@@@@@@@@@@@@@@@@@@@@@@@@@@@@@@@@",
"++++++++++++    &&&&%%%%@@@@@@@@@@@@@@@@@@@@@@@@@@@@@@@@@@@@@@@@@@@@@@@@@@@@@@@@@@@@@@@@@@@@@@@@@@@@@@@@@@@@@@@@@@@@@@@@@@@@@@@@",
"++++++++oooo    %%%%@@@@@@@@@@@@@@@@@@@@@@@@@@@@@@@@@@@@@@@@@@@@@@@@@@@@@@@@@@@@@@@@@@@@@@@@@@@@@@@@@@@@@@@@%%%%%%%%%%%%@@@@@@@@",
"++++++++oooo    %%%%@@@@@@@@@@@@@@@@@@@@@@@@@@@@@@@@@@@@@@@@@@@@@@@@@@@@@@@@@@@@@@@@@@@@@@@@@@@@@@@@@@@@@@@@%%%%%%%%%%%%@@@@@@@@",
"++++++++oooo    %%%%@@@@@@@@@@@@@@@@@@@@@@@@@@@@@@@@@@@@@@@@@@@@@@@@@@@@@@@@@@@@@@@@@@@@@@@@@@@@@@@@@@@@@@@@%%%%%%%%%%%%@@@@@@@@",
"++++++++oooo    %%%%@@@@@@@@@@@@@@@@@@@@@@@@@@@@@@@@@@@@@@@@@@@@@@@@@@@@@@@@@@@@@@@@@@@@@@@@@@@@@@@@@@@@@@@@%%%%%%%%%%%%@@@@@@@@",
"++++++++    &&&&%%%%@@@@@@@@@@@@@@@@@@@@@@@@@@@@@@@@@@@@@@@@@@@@@@@@@@@@@@@@@@@@@@@@@@@@@@@@@@@@@@@@@@@@%%%%%%%%@@@@@@@@@@@@@@@@",
"++++++++    &&&&%%%%@@@@@@@@@@@@@@@@@@@@@@@@@@@@@@@@@@@@@@@@@@@@@@@@@@@@@@@@@@@@@@@@@@@@@@@@@@@@@@@@@@@@%%%%%%%%@@@@@@@@@@@@@@@@",
"++++++++    &&&&%%%%@@@@@@@@@@@@@@@@@@@@@@@@@@@@@@@@@@@@@@@@@@@@@@@@@@@@@@@@@@@@@@@@@@@@@@@@@@@@@@@@@@@@%%%%%%%%@@@@@@@@@@@@@@@@",
"++++++++    &&&&%%%%@@@@@@@@@@@@@@@@@@@@@@@@@@@@@@@@@@@@@@@@@@@@@@@@@@@@@@@@@@@@@@@@@@@@@@@@@@@@@@@@@@@@%%%%%%%%@@@@@@@@@@@@@@@@",
"++++++++oooo    %%%%@@@@@@@@@@@@@@@@@@@@@@@@@@@@@@@@@@@@@@@@@@@@@@@@@@@@@@@@@@@@@@@@@@@@@@@@@@@@@@@@@@@@@@@@@@@@@@@@@@@@@@@@@@@@",
"++++++++oooo    %%%%@@@@@@@@@@@@@@@@@@@@@@@@@@@@@@@@@@@@@@@@@@@@@@@@@@@@@@@@@@@@@@@@@@@@@@@@@@@@@@@@@@@@@@@@@@@@@@@@@@@@@@@@@@@@",
"++++++++oooo    %%%%@@@@@@@@@@@@@@@@@@@@@@@@@@@@@@@@@@@@@@@@@@@@@@@@@@@@@@@@@@@@@@@@@@@@@@@@@@@@@@@@@@@@@@@@@@@@@@@@@@@@@@@@@@@@",
"++++++++oooo    %%%%@@@@@@@@@@@@@@@@@@@@@@@@@@@@@@@@@@@@@@@@@@@@@@@@@@@@@@@@@@@@@@@@@@@@@@@@@@@@@@@@@@@@@@@@@@@@@@@@@@@@@@@@@@@@",
"++++++++oooo    %%%%@@@@@@@@@@@@@@@@@@@@@@@@@@@@@@@@@@@@@@@@@@@@@@@@@@@@@@@@@@@@@@@@@@@@@@@@@@@@@@@@@@@@@@@@@@@@@@@@@@@@@@@@@@@@",
"++++++++oooo    %%%%@@@@@@@@@@@@@@@@@@@@@@@@@@@@@@@@@@@@@@@@@@@@@@@@@@@@@@@@@@@@@@@@@@@@@@@@@@@@@@@@@@@@@@@@@@@@@@@@@@@@@@@@@@@@",
"++++++++oooo    %%%%@@@@@@@@@@@@@@@@@@@@@@@@@@@@@@@@@@@@@@@@@@@@@@@@@@@@@@@@@@@@@@@@@@@@@@@@@@@@@@@@@@@@@@@@@@@@@@@@@@@@@@@@@@@@",
"++++++++oooo    %%%%@@@@@@@@@@@@@@@@@@@@@@@@@@@@@@@@@@@@@@@@@@@@@@@@@@@@@@@@@@@@@@@@@@@@@@@@@@@@@@@@@@@@@@@@@@@@@@@@@@@@@@@@@@@@",
"++++oooooooo    %%%%@@@@@@@@@@@@@@@@@@@@@@@@@@@@@@@@@@@@@@@@@@@@@@@@@@@@@@@@@@@@@@@@@@@@@@@@@@@@@@@@@@@@@@@@@@@@@@@@%%%%%%%%%%%%",
"++++oooooooo    %%%%@@@@@@@@@@@@@@@@@@@@@@@@@@@@@@@@@@@@@@@@@@@@@@@@@@@@@@@@@@@@@@@@@@@@@@@@@@@@@@@@@@@@@@@@@@@@@@@@%%%%%%%%%%%%",
"++++oooooooo    %%%%@@@@@@@@@@@@@@@@@@@@@@@@@@@@@@@@@@@@@@@@@@@@@@@@@@@@@@@@@@@@@@@@@@@@@@@@@@@@@@@@@@@@@@@@@@@@@@@@%%%%%%%%%%%%",
"++++oooooooo    %%%%@@@@@@@@@@@@@@@@@@@@@@@@@@@@@@@@@@@@@@@@@@@@@@@@@@@@@@@@@@@@@@@@@@@@@@@@@@@@@@@@@@@@@@@@@@@@@@@@%%%%%%%%%%%%",
"++++        &&&&%%%%@@@@@@@@%%%%@@@@@@@@@@@@@@@@@@@@@@@@@@@@@@@@@@@@@@@@@@@@@@@@@@@@@@@@@@@@@@@@@@@@@@@@@@@@@@@@%%%%&&&&        ",
"++++        &&&&%%%%@@@@@@@@%%%%@@@@@@@@@@@@@@@@@@@@@@@@@@@@@@@@@@@@@@@@@@@@@@@@@@@@@@@@@@@@@@@@@@@@@@@@@@@@@@@@%%%%&&&&        ",
"++++        &&&&%%%%@@@@@@@@%%%%@@@@@@@@@@@@@@@@@@@@@@@@@@@@@@@@@@@@@@@@@@@@@@@@@@@@@@@@@@@@@@@@@@@@@@@@@@@@@@@@%%%%&&&&        ",
"++++        &&&&%%%%@@@@@@@@%%%%@@@@@@@@@@@@@@@@@@@@@@@@@@@@@@@@@@@@@@@@@@@@@@@@@@@@@@@@@@@@@@@@@@@@@@@@@@@@@@@@%%%%&&&&        ",
"++++++++        &&&&%%%%@@@@@@@@%%%%@@@@@@@@@@@@@@@@@@@@@@@@@@@@@@@@@@@@@@@@@@@@@@@@@@@@@@@@%%%%@@@@@@@@@@@@%%%%&&&&    ++++++++",
"++++++++        &&&&%%%%@@@@@@@@%%%%@@@@@@@@@@@@@@@@@@@@@@@@@@@@@@@@@@@@@@@@@@@@@@@@@@@@@@@@%%%%@@@@@@@@@@@@%%%%&&&&    ++++++++",
"++++++++        &&&&%%%%@@@@@@@@%%%%@@@@@@@@@@@@@@@@@@@@@@@@@@@@@@@@@@@@@@@@@@@@@@@@@@@@@@@@%%%%@@@@@@@@@@@@%%%%&&&&    ++++++++",
"++++++++        &&&&%%%%@@@@@@@@%%%%@@@@@@@@@@@@@@@@@@@@@@@@@@@@@@@@@@@@@@@@@@@@@@@@@@@@@@@@%%%%@@@@@@@@@@@@%%%%&&&&    ++++++++",
"++++++++oooo    &&&&%%%%@@@@@@@@%%%%@@@@@@@@@@@@@@@@@@@@@@@@@@@@@@@@@@@@@@@@@@@@@@@@@@@@@@@@%%%%@@@@@@@@@@@@%%%%    oooo++++++++",
"++++++++oooo    &&&&%%%%@@@@@@@@%%%%@@@@@@@@@@@@@@@@@@@@@@@@@@@@@@@@@@@@@@@@@@@@@@@@@@@@@@@@%%%%@@@@@@@@@@@@%%%%    oooo++++++++",
"++++++++oooo    &&&&%%%%@@@@@@@@%%%%@@@@@@@@@@@@@@@@@@@@@@@@@@@@@@@@@@@@@@@@@@@@@@@@@@@@@@@@%%%%@@@@@@@@@@@@%%%%    oooo++++++++",
"++++++++oooo    &&&&%%%%@@@@@@@@%%%%@@@@@@@@@@@@@@@@@@@@@@@@@@@@@@@@@@@@@@@@@@@@@@@@@@@@@@@@%%%%@@@@@@@@@@@@%%%%    oooo++++++++",
"++++++++oooo    &&&&%%%%@@@@@@@@%%%%@@@@@@@@@@@@@@@@@@@@@@@@@@@@@@@@@@@@@@@@@@@@@@@@@@@@@@@@@@@@@@@@@@@@@@@@%%%%    oooo++++++++",
"++++++++oooo    &&&&%%%%@@@@@@@@%%%%@@@@@@@@@@@@@@@@@@@@@@@@@@@@@@@@@@@@@@@@@@@@@@@@@@@@@@@@@@@@@@@@@@@@@@@@%%%%    oooo++++++++",
"++++++++oooo    &&&&%%%%@@@@@@@@%%%%@@@@@@@@@@@@@@@@@@@@@@@@@@@@@@@@@@@@@@@@@@@@@@@@@@@@@@@@@@@@@@@@@@@@@@@@%%%%    oooo++++++++",
"++++++++oooo    &&&&%%%%@@@@@@@@%%%%@@@@@@@@@@@@@@@@@@@@@@@@@@@@@@@@@@@@@@@@@@@@@@@@@@@@@@@@@@@@@@@@@@@@@@@@%%%%    oooo++++++++",
"++++++++oooo    %%%%@@@@@@@@@@@@@@@@@@@@@@@@@@@@@@@@@@@@@@@@@@@@@@@@@@@@@@@@@@@@@@@@@@@@@@@@@@@@@@@@@@@@@@@@%%%%    oooo++++++++",
"++++++++oooo    %%%%@@@@@@@@@@@@@@@@@@@@@@@@@@@@@@@@@@@@@@@@@@@@@@@@@@@@@@@@@@@@@@@@@@@@@@@@@@@@@@@@@@@@@@@@%%%%    oooo++++++++",
"++++++++oooo    %%%%@@@@@@@@@@@@@@@@@@@@@@@@@@@@@@@@@@@@@@@@@@@@@@@@@@@@@@@@@@@@@@@@@@@@@@@@@@@@@@@@@@@@@@@@%%%%    oooo++++++++",
"++++++++oooo    %%%%@@@@@@@@@@@@@@@@@@@@@@@@@@@@@@@@@@@@@@@@@@@@@@@@@@@@@@@@@@@@@@@@@@@@@@@@@@@@@@@@@@@@@@@@%%%%    oooo++++++++"
};
