/* XPM */
static char *result[] = {
/* columns rows colors chars-per-pixel */
"128 128 6 1 ",
"  c #163C2B",
". c #296640",
"X c #509B66",
"o c #00CCFF",
"O c #D7F8FF",
"+ c #F4FDFF",
/* pixels */
"XXXXXXXX....    OOOOooooooooooooooooooooooooooooooooooooooooooooooooooooooooooooooooooooooooooooooooooooooooOOOO    ....XXXXXXXX",
"XXXXXXXX....    OOOOooooooooooooooooooooooooooooooooooooooooooooooooooooooooooooooooooooooooooooooooooooooooOOOO    ....XXXXXXXX",
"XXXXXXXX....    OOOOooooooooooooooooooooooooooooooooooooooooooooooooooooooooooooooooooooooooooooooooooooooooOOOO    ....XXXXXXXX",
"XXXXXXXX....    OOOOooooooooooooooooooooooooooooooooooooooooooooooooooooooooooooooooooooooooooooooooooooooooOOOO    ....XXXXXXXX",
"XXXX        ++++OOOOooooooooooooooooooooooooooooooooooooooooooooooooooooooooooooooooooooooooooooooooooooooooOOOO++++    ....XXXX",
"XXXX        ++++OOOOooooooooooooooooooooooooooooooooooooooooooooooooooooooooooooooooooooooooooooooooooooooooOOOO++++    ....XXXX",
"XXXX        ++++OOOOooooooooooooooooooooooooooooooooooooooooooooooooooooooooooooooooooooooooooooooooooooooooOOOO++++    ....XXXX",
"XXXX        ++++OOOOooooooooooooooooooooooooooooooooooooooooooooooooooooooooooooooooooooooooooooooooooooooooOOOO++++    ....XXXX",
"XXXXXXXX        ++++OOOOooooooooOOOOooooooooooooooooooooooooooooooooooooooooooooooooooooooooooooooooooooooooooooOOOO++++    XXXX",
"XXXXXXXX        ++++OOOOooooooooOOOOooooooooooooooooooooooooooooooooooooooooooooooooooooooooooooooooooooooooooooOOOO++++    XXXX",
"XXXXXXXX        ++++OOOOooooooooOOOOooooooooooooooooooooooooooooooooooooooooooooooooooooooooooooooooooooooooooooOOOO++++    XXXX",
"XXXXXXXX        ++++OOOOooooooooOOOOooooooooooooooooooooooooooooooooooooooooooooooooooooooooooooooooooooooooooooOOOO++++    XXXX",
"XXXXXXXXXXXX    ++++OOOOooooooooOOOOooooooooooooooooooooooooooooooooooooooooooooooooooooooooooooooooooooooooooooOOOO    XXXXXXXX",
"XXXXXXXXXXXX    ++++OOOOooooooooOOOOooooooooooooooooooooooooooooooooooooooooooooooooooooooooooooooooooooooooooooOOOO    XXXXXXXX",
"XXXXXXXXXXXX    ++++OOOOooooooooOOOOooooooooooooooooooooooooooooooooooooooooooooooooooooooooooooooooooooooooooooOOOO    XXXXXXXX",
"XXXXXXXXXXXX    ++++OOOOooooooooOOOOooooooooooooooooooooooooooooooooooooooooooooooooooooooooooooooooooooooooooooOOOO    XXXXXXXX",
"XXXXXXXX....    ++++OOOOooooooooOOOOOOOOooooooooooooooooooooooooooooooooooooooooooooooooooooooooooooooooooooOOOO    XXXXXXXXXXXX",
"XXXXXXXX....    ++++OOOOooooooooOOOOOOOOooooooooooooooooooooooooooooooooooooooooooooooooooooooooooooooooooooOOOO    XXXXXXXXXXXX",
"XXXXXXXX....    ++++OOOOooooooooOOOOOOOOooooooooooooooooooooooooooooooooooooooooooooooooooooooooooooooooooooOOOO    XXXXXXXXXXXX",
"XXXXXXXX....    ++++OOOOooooooooOOOOOOOOooooooooooooooooooooooooooooooooooooooooooooooooooooooooooooooooooooOOOO    XXXXXXXXXXXX",
"XXXXXXXX    ++++OOOOooooooooooooooooOOOOooooooooooooooooooooooooooooooooooooooooooooooooooooooooooooooooooooOOOO    ....XXXXXXXX",
"XXXXXXXX    ++++OOOOooooooooooooooooOOOOooooooooooooooooooooooooooooooooooooooooooooooooooooooooooooooooooooOOOO    ....XXXXXXXX",
"XXXXXXXX    ++++OOOOooooooooooooooooOOOOooooooooooooooooooooooooooooooooooooooooooooooooooooooooooooooooooooOOOO    ....XXXXXXXX",
"XXXXXXXX    ++++OOOOooooooooooooooooOOOOooooooooooooooooooooooooooooooooooooooooooooooooooooooooooooooooooooOOOO    ....XXXXXXXX",
"XXXXXXXXXXXX    OOOOooooooooooooooooooooooooooooooooooooooooooooooooooooooooooooooooooooooooooooooooooooooooOOOO    ....XXXXXXXX",
"XXXXXXXXXXXX    OOOOooooooooooooooooooooooooooooooooooooooooooooooooooooooooooooooooooooooooooooooooooooooooOOOO    ....XXXXXXXX",
"XXXXXXXXXXXX    OOOOooooooooooooooooooooooooooooooooooooooooooooooooooooooooooooooooooooooooooooooooooooooooOOOO    ....XXXXXXXX",
"XXXXXXXXXXXX    OOOOooooooooooooooooooooooooooooooooooooooooooooooooooooooooooooooooooooooooooooooooooooooooOOOO    ....XXXXXXXX",
"XXXXXXXXXXXX    OOOOooooooooooooooooooooooooooooooooooooooooooooooooooooooooooooooooooooooooooooooooooooooooOOOO++++    XXXXXXXX",
"XXXXXXXXXXXX    OOOOooooooooooooooooooooooooooooooooooooooooooooooooooooooooooooooooooooooooooooooooooooooooOOOO++++    XXXXXXXX",
"XXXXXXXXXXXX    OOOOooooooooooooooooooooooooooooooooooooooooooooooooooooooooooooooooooooooooooooooooooooooooOOOO++++    XXXXXXXX",
"XXXXXXXXXXXX    OOOOooooooooooooooooooooooooooooooooooooooooooooooooooooooooooooooooooooooooooooooooooooooooOOOO++++    XXXXXXXX",
"XXXXXXXX....    OOOOooooooooooooooooooooooooooooooooooooooooooooooooooooooooooooooooooooooooooooooooooooOOOO++++    XXXX    XXXX",
"XXXXXXXX....    OOOOooooooooooooooooooooooooooooooooooooooooooooooooooooooooooooooooooooooooooooooooooooOOOO++++    XXXX    XXXX",
"XXXXXXXX....    OOOOooooooooooooooooooooooooooooooooooooooooooooooooooooooooooooooooooooooooooooooooooooOOOO++++    XXXX    XXXX",
"XXXXXXXX....    OOOOooooooooooooooooooooooooooooooooooooooooooooooooooooooooooooooooooooooooooooooooooooOOOO++++    XXXX    XXXX",
"XXXXXXXX....    ++++OOOOooooooooooooooooooooooooooooooooooooooooooooooooooooooooooooooooooooooooooooooooOOOO    ....XXXXXXXXXXXX",
"XXXXXXXX....    ++++OOOOooooooooooooooooooooooooooooooooooooooooooooooooooooooooooooooooooooooooooooooooOOOO    ....XXXXXXXXXXXX",
"XXXXXXXX....    ++++OOOOooooooooooooooooooooooooooooooooooooooooooooooooooooooooooooooooooooooooooooooooOOOO    ....XXXXXXXXXXXX",
"XXXXXXXX....    ++++OOOOooooooooooooooooooooooooooooooooooooooooooooooooooooooooooooooooooooooooooooooooOOOO    ....XXXXXXXXXXXX",
"XXXXXXXX    ....    OOOOooooooooooooooooooooooooooooooooooooooooooooooooooooooooooooooooooooooooooooooooOOOO    ....XXXXXXXXXXXX",
"XXXXXXXX    ....    OOOOooooooooooooooooooooooooooooooooooooooooooooooooooooooooooooooooooooooooooooooooOOOO    ....XXXXXXXXXXXX",
"XXXXXXXX    ....    OOOOooooooooooooooooooooooooooooooooooooooooooooooooooooooooooooooooooooooooooooooooOOOO    ....XXXXXXXXXXXX",
"XXXXXXXX    ....    OOOOooooooooooooooooooooooooooooooooooooooooooooooooooooooooooooooooooooooooooooooooOOOO    ....XXXXXXXXXXXX",
"XXXXXXXXXXXX....    OOOOooooooooooooooooooooooooooooooooooooooooooooooooooooooooooooooooooooooooooooooooOOOO    ........XXXXXXXX",
"XXXXXXXXXXXX....    OOOOooooooooooooooooooooooooooooooooooooooooooooooooooooooooooooooooooooooooooooooooOOOO    ........XXXXXXXX",
"XXXXXXXXXXXX....    OOOOooooooooooooooooooooooooooooooooooooooooooooooooooooooooooooooooooooooooooooooooOOOO    ........XXXXXXXX",
"XXXXXXXXXXXX....    OOOOooooooooooooooooooooooooooooooooooooooooooooooooooooooooooooooooooooooooooooooooOOOO    ........XXXXXXXX",
"XXXXXXXXXXXX....    OOOOooooooooooooooooooooooooooooooooooooooooooooooooooooooooooooooooooooooooooooooooOOOO++++    ....XXXXXXXX",
"XXXXXXXXXXXX....    OOOOooooooooooooooooooooooooooooooooooooooooooooooooooooooooooooooooooooooooooooooooOOOO++++    ....XXXXXXXX",
"XXXXXXXXXXXX....    OOOOooooooooooooooooooooooooooooooooooooooooooooooooooooooooooooooooooooooooooooooooOOOO++++    ....XXXXXXXX",
"XXXXXXXXXXXX....    OOOOooooooooooooooooooooooooooooooooooooooooooooooooooooooooooooooooooooooooooooooooOOOO++++    ....XXXXXXXX",
"XXXXXXXX....    ++++OOOOooooooooooooooooooooooooooooooooooooooooooooooooooooooooooooooooooooooooooooooooooooOOOO        XXXXXXXX",
"XXXXXXXX....    ++++OOOOooooooooooooooooooooooooooooooooooooooooooooooooooooooooooooooooooooooooooooooooooooOOOO        XXXXXXXX",
"XXXXXXXX....    ++++OOOOooooooooooooooooooooooooooooooooooooooooooooooooooooooooooooooooooooooooooooooooooooOOOO        XXXXXXXX",
"XXXXXXXX....    ++++OOOOooooooooooooooooooooooooooooooooooooooooooooooooooooooooooooooooooooooooooooooooooooOOOO        XXXXXXXX",
"XXXXXXXX....    ++++OOOOooooooooooooooooooooooooooooooooooooooooooooooooooooooooooooooooooooooooooooooooooooOOOO    XXXXXXXXXXXX",
"XXXXXXXX....    ++++OOOOooooooooooooooooooooooooooooooooooooooooooooooooooooooooooooooooooooooooooooooooooooOOOO    XXXXXXXXXXXX",
"XXXXXXXX....    ++++OOOOooooooooooooooooooooooooooooooooooooooooooooooooooooooooooooooooooooooooooooooooooooOOOO    XXXXXXXXXXXX",
"XXXXXXXX....    ++++OOOOooooooooooooooooooooooooooooooooooooooooooooooooooooooooooooooooooooooooooooooooooooOOOO    XXXXXXXXXXXX",
"XXXXXXXX    ++++OOOOooooooooooooooooooooooooooooooooooooooooooooooooooooooooooooooooooooooooooooooooooooooooOOOO    XXXXXXXXXXXX",
"XXXXXXXX    ++++OOOOooooooooooooooooooooooooooooooooooooooooooooooooooooooooooooooooooooooooooooooooooooooooOOOO    XXXXXXXXXXXX",
"XXXXXXXX    ++++OOOOooooooooooooooooooooooooooooooooooooooooooooooooooooooooooooooooooooooooooooooooooooooooOOOO    XXXXXXXXXXXX",
"XXXXXXXX    ++++OOOOooooooooooooooooooooooooooooooooooooooooooooooooooooooooooooooooooooooooooooooooooooooooOOOO    XXXXXXXXXXXX",
"XXXXXXXXXXXX    OOOOooooooooooooooooooooooooooooooooooooooooooooooooooooooooooooooooooooOOOOooooooooooooooooOOOO    ....XXXXXXXX",
"XXXXXXXXXXXX    OOOOooooooooooooooooooooooooooooooooooooooooooooooooooooooooooooooooooooOOOOooooooooooooooooOOOO    ....XXXXXXXX",
"XXXXXXXXXXXX    OOOOooooooooooooooooooooooooooooooooooooooooooooooooooooooooooooooooooooOOOOooooooooooooooooOOOO    ....XXXXXXXX",
"XXXXXXXXXXXX    OOOOooooooooooooooooooooooooooooooooooooooooooooooooooooooooooooooooooooOOOOooooooooooooooooOOOO    ....XXXXXXXX",
"XXXXXXXXXXXX....    OOOOooooooooooooooooooooooooooooooooooooooooooooooooooooooooooooooooOOOOooooooooooooooooOOOO++++        XXXX",
"XXXXXXXXXXXX....    OOOOooooooooooooooooooooooooooooooooooooooooooooooooooooooooooooooooOOOOooooooooooooooooOOOO++++        XXXX",
"XXXXXXXXXXXX....    OOOOooooooooooooooooooooooooooooooooooooooooooooooooooooooooooooooooOOOOooooooooooooooooOOOO++++        XXXX",
"XXXXXXXXXXXX....    OOOOooooooooooooooooooooooooooooooooooooooooooooooooooooooooooooooooOOOOooooooooooooooooOOOO++++        XXXX",
"XXXXXXXXXXXX....    OOOOooooooooooooooooooooooooooooooooooooooooooooooooooooooooooooooooOOOOOOOOooooooooOOOO++++        XXXXXXXX",
"XXXXXXXXXXXX....    OOOOooooooooooooooooooooooooooooooooooooooooooooooooooooooooooooooooOOOOOOOOooooooooOOOO++++        XXXXXXXX",
"XXXXXXXXXXXX....    OOOOooooooooooooooooooooooooooooooooooooooooooooooooooooooooooooooooOOOOOOOOooooooooOOOO++++        XXXXXXXX",
"XXXXXXXXXXXX....    OOOOooooooooooooooooooooooooooooooooooooooooooooooooooooooooooooooooOOOOOOOOooooooooOOOO++++        XXXXXXXX",
"XXXXXXXXXXXX....    OOOOooooooooooooooooooooooooooooooooooooooooooooooooooooooooooooooooooooOOOOooooooooOOOO++++    XXXXXXXXXXXX",
"XXXXXXXXXXXX....    OOOOooooooooooooooooooooooooooooooooooooooooooooooooooooooooooooooooooooOOOOooooooooOOOO++++    XXXXXXXXXXXX",
"XXXXXXXXXXXX....    OOOOooooooooooooooooooooooooooooooooooooooooooooooooooooooooooooooooooooOOOOooooooooOOOO++++    XXXXXXXXXXXX",
"XXXXXXXXXXXX....    OOOOooooooooooooooooooooooooooooooooooooooooooooooooooooooooooooooooooooOOOOooooooooOOOO++++    XXXXXXXXXXXX",
"XXXXXXXXXXXX....    OOOOooooooooooooooooooooooooooooooooooooooooooooooooooooooooooooooooooooooooooooooooOOOO++++    ....XXXXXXXX",
"XXXXXXXXXXXX....    OOOOooooooooooooooooooooooooooooooooooooooooooooooooooooooooooooooooooooooooooooooooOOOO++++    ....XXXXXXXX",
"XXXXXXXXXXXX....    OOOOooooooooooooooooooooooooooooooooooooooooooooooooooooooooooooooooooooooooooooooooOOOO++++    ....XXXXXXXX",
"XXXXXXXXXXXX....    OOOOooooooooooooooooooooooooooooooooooooooooooooooooooooooooooooooooooooooooooooooooOOOO++++    ....XXXXXXXX",
"XXXXXXXX........    OOOOooooooooooooooooooooooooooooooooooooooooooooooooooooooooooooooooooooooooooooooooOOOO++++    ....XXXXXXXX",
"XXXXXXXX........    OOOOooooooooooooooooooooooooooooooooooooooooooooooooooooooooooooooooooooooooooooooooOOOO++++    ....XXXXXXXX",
"XXXXXXXX........    OOOOooooooooooooooooooooooooooooooooooooooooooooooooooooooooooooooooooooooooooooooooOOOO++++    ....XXXXXXXX",
"XXXXXXXX........    OOOOooooooooooooooooooooooooooooooooooooooooooooooooooooooooooooooooooooooooooooooooOOOO++++    ....XXXXXXXX",
"XXXXXXXX....    OOOOooooooooooooooooooooooooooooooooooooooooooooooooooooooooooooooooooooooooooooooooooooooooOOOO++++    XXXXXXXX",
"XXXXXXXX....    OOOOooooooooooooooooooooooooooooooooooooooooooooooooooooooooooooooooooooooooooooooooooooooooOOOO++++    XXXXXXXX",
"XXXXXXXX....    OOOOooooooooooooooooooooooooooooooooooooooooooooooooooooooooooooooooooooooooooooooooooooooooOOOO++++    XXXXXXXX",
"XXXXXXXX....    OOOOooooooooooooooooooooooooooooooooooooooooooooooooooooooooooooooooooooooooooooooooooooooooOOOO++++    XXXXXXXX",
"XXXXXXXX    ++++OOOOooooooooooooooooooooooooooooooooooooooooooooooooooooooooooooooooooooooooooooooooooooooooOOOO    XXXXXXXXXXXX",
"XXXXXXXX    ++++OOOOooooooooooooooooooooooooooooooooooooooooooooooooooooooooooooooooooooooooooooooooooooooooOOOO    XXXXXXXXXXXX",
"XXXXXXXX    ++++OOOOooooooooooooooooooooooooooooooooooooooooooooooooooooooooooooooooooooooooooooooooooooooooOOOO    XXXXXXXXXXXX",
"XXXXXXXX    ++++OOOOooooooooooooooooooooooooooooooooooooooooooooooooooooooooooooooooooooooooooooooooooooooooOOOO    XXXXXXXXXXXX",
"XXXXXXXX....    OOOOooooooooooooooooooooooooooooooooooooooooooooooooooooooooooooooooooooooooooooooooooooOOOO    XXXXXXXXXXXXXXXX",
"XXXXXXXX....    OOOOooooooooooooooooooooooooooooooooooooooooooooooooooooooooooooooooooooooooooooooooooooOOOO    XXXXXXXXXXXXXXXX",
"XXXXXXXX....    OOOOooooooooooooooooooooooooooooooooooooooooooooooooooooooooooooooooooooooooooooooooooooOOOO    XXXXXXXXXXXXXXXX",
"XXXXXXXX....    OOOOooooooooooooooooooooooooooooooooooooooooooooooooooooooooooooooooooooooooooooooooooooOOOO    XXXXXXXXXXXXXXXX",
"XXXXXXXX....    OOOOooooooooooooooooooooooooooooooooooooooooooooooooooooooooooooooooooooooooooooooooooooOOOO    ....XXXXXXXXXXXX",
"XXXXXXXX....    OOOOooooooooooooooooooooooooooooooooooooooooooooooooooooooooooooooooooooooooooooooooooooOOOO    ....XXXXXXXXXXXX",
"XXXXXXXX....    OOOOooooooooooooooooooooooooooooooooooooooooooooooooooooooooooooooooooooooooooooooooooooOOOO    ....XXXXXXXXXXXX",
"XXXXXXXX....    OOOOooooooooooooooooooooooooooooooooooooooooooooooooooooooooooooooooooooooooooooooooooooOOOO    ....XXXXXXXXXXXX",
"XXXX........    OOOOooooooooooooooooooooooooooooooooooooooooooooooooooooooooooooooooooooooooooooooooooooOOOO    ........XXXXXXXX",
"XXXX........    OOOOooooooooooooooooooooooooooooooooooooooooooooooooooooooooooooooooooooooooooooooooooooOOOO    ........XXXXXXXX",
"XXXX........    OOOOooooooooooooooooooooooooooooooooooooooooooooooooooooooooooooooooooooooooooooooooooooOOOO    ........XXXXXXXX",
"XXXX........    OOOOooooooooooooooooooooooooooooooooooooooooooooooooooooooooooooooooooooooooooooooooooooOOOO    ........XXXXXXXX",
"XXXX        ++++OOOOooooooooooooooooOOOOooooooooooooooooooooooooooooooooooooooooooooooooooooooooooooooooOOOO++++        XXXXXXXX",
"XXXX        ++++OOOOooooooooooooooooOOOOooooooooooooooooooooooooooooooooooooooooooooooooooooooooooooooooOOOO++++        XXXXXXXX",
"XXXX        ++++OOOOooooooooooooooooOOOOooooooooooooooooooooooooooooooooooooooooooooooooooooooooooooooooOOOO++++        XXXXXXXX",
"XXXX        ++++OOOOooooooooooooooooOOOOooooooooooooooooooooooooooooooooooooooooooooooooooooooooooooooooOOOO++++        XXXXXXXX",
"XXXXXXXX        ++++OOOOooooooooooooOOOOOOOOooooooooooooooooooooooooooooooooooooooooooooooooooooooooooooOOOO        XXXXXXXXXXXX",
"XXXXXXXX        ++++OOOOooooooooooooOOOOOOOOooooooooooooooooooooooooooooooooooooooooooooooooooooooooooooOOOO        XXXXXXXXXXXX",
"XXXXXXXX        ++++OOOOooooooooooooOOOOOOOOooooooooooooooooooooooooooooooooooooooooooooooooooooooooooooOOOO        XXXXXXXXXXXX",
"XXXXXXXX        ++++OOOOooooooooooooOOOOOOOOooooooooooooooooooooooooooooooooooooooooooooooooooooooooooooOOOO        XXXXXXXXXXXX",
"XXXXXXXX....    ++++OOOOooooooooooooooooooooooooooooooooooooooooooooooooooooooooooooooooooooooooooooOOOO++++    ....XXXXXXXXXXXX",
"XXXXXXXX....    ++++OOOOooooooooooooooooooooooooooooooooooooooooooooooooooooooooooooooooooooooooooooOOOO++++    ....XXXXXXXXXXXX",
"XXXXXXXX....    ++++OOOOooooooooooooooooooooooooooooooooooooooooooooooooooooooooooooooooooooooooooooOOOO++++    ....XXXXXXXXXXXX",
"XXXXXXXX....    ++++OOOOooooooooooooooooooooooooooooooooooooooooooooooooooooooooooooooooooooooooooooOOOO++++    ....XXXXXXXXXXXX",
"XXXXXXXX....    ++++OOOOooooooooooooooooooooooooooooooooooooooooooooooooooooooooooooooooooooooooooooOOOO++++    ....XXXXXXXXXXXX",
"XXXXXXXX....    ++++OOOOooooooooooooooooooooooooooooooooooooooooooooooooooooooooooooooooooooooooooooOOOO++++    ....XXXXXXXXXXXX",
"XXXXXXXX....    ++++OOOOooooooooooooooooooooooooooooooooooooooooooooooooooooooooooooooooooooooooooooOOOO++++    ....XXXXXXXXXXXX",
"XXXXXXXX....    ++++OOOOooooooooooooooooooooooooooooooooooooooooooooooooooooooooooooooooooooooooooooOOOO++++    ....XXXXXXXXXXXX",
"XXXXXXXX....    OOOOooooooooooooooooooooooooooooooooooooooooooooooooooooooooooooooooooooooooooooooooooooOOOO++++    XXXXXXXXXXXX",
"XXXXXXXX....    OOOOooooooooooooooooooooooooooooooooooooooooooooooooooooooooooooooooooooooooooooooooooooOOOO++++    XXXXXXXXXXXX",
"XXXXXXXX....    OOOOooooooooooooooooooooooooooooooooooooooooooooooooooooooooooooooooooooooooooooooooooooOOOO++++    XXXXXXXXXXXX",
"XXXXXXXX....    OOOOooooooooooooooooooooooooooooooooooooooooooooooooooooooooooooooooooooooooooooooooooooOOOO++++    XXXXXXXXXXXX"
};
