/* XPM */
static char *result[] = {
/* columns rows colors chars-per-pixel */
"128 128 10 1 ",
"  c #163C2B",
". c #755338",
"X c #296640",
"o c #9D7658",
"O c #509B66",
"+ c #00CCFF",
"@ c gray54",
"# c gray59",
"$ c #D7F8FF",
"% c #F4FDFF",
/* pixels */
"OOOOOOOOXXXX    $$$$++++++++++++++++++++++++++++++++++++++++++++++++++++++++++++++++++++++++++++++++++++$$$$    OOOOOOOOOOOOOOOO",
"OOOOOOOOXXXX    $$$$++++++++++++++++++++++++++++++++++++++++++++++++++++++++++++++++++++++++++++++++++++$$$$    OOOOOOOOOOOOOOOO",
"OOOOOOOOXXXX    $$$$++++++++++++++++++++++++++++++++++++++++++++++++++++++++++++++++++++++++++++++++++++$$$$    OOOOOOOOOOOOOOOO",
"OOOOOOOOXXXX    $$$$++++++++++++++++++++++++++++++++++++++++++++++++++++++++++++++++++++++++++++++++++++$$$$    OOOOOOOOOOOOOOOO",
"OOOO        %%%%$$$$++++++++++++++++++++++++++++++++++++++++++++++++++++++++++++++++++++++++++++++++$$$$%%%%    OOOOOOOOOOOOOOOO",
"OOOO        %%%%$$$$++++++++++++++++++++++++++++++++++++++++++++++++++++++++++++++++++++++++++++++++$$$$%%%%    OOOOOOOOOOOOOOOO",
"OOOO        %%%%$$$$++++++++++++++++++++++++++++++++++++++++++++++++++++++++++++++++++++++++++++++++$$$$%%%%    OOOOOOOOOOOOOOOO",
"OOOO        %%%%$$$$++++++++++++++++++++++++++++++++++++++++++++++++++++++++++++++++++++++++++++++++$$$$%%%%    OOOOOOOOOOOOOOOO",
"OOOOOOOO        %%%%$$$$++++++++++++++++++++++++++++++++++++++++++++++++++++++++++++$$$$++++++++++++$$$$%%%%        XXXXXXXXXXXX",
"OOOOOOOO        %%%%$$$$++++++++++++++++++++++++++++++++++++++++++++++++++++++++++++$$$$++++++++++++$$$$%%%%        XXXXXXXXXXXX",
"OOOOOOOO        %%%%$$$$++++++++++++++++++++++++++++++++++++++++++++++++++++++++++++$$$$++++++++++++$$$$%%%%        XXXXXXXXXXXX",
"OOOOOOOO        %%%%$$$$++++++++++++++++++++++++++++++++++++++++++++++++++++++++++++$$$$++++++++++++$$$$%%%%        XXXXXXXXXXXX",
"OOOOOOOOOOOO    %%%%$$$$++++++++++++++++++++++++++++++++++++++++++++++++++++++++++++++++++++++++++++$$$$%%%%........            ",
"OOOOOOOOOOOO    %%%%$$$$++++++++++++++++++++++++++++++++++++++++++++++++++++++++++++++++++++++++++++$$$$%%%%........            ",
"OOOOOOOOOOOO    %%%%$$$$++++++++++++++++++++++++++++++++++++++++++++++++++++++++++++++++++++++++++++$$$$%%%%........            ",
"OOOOOOOOOOOO    %%%%$$$$++++++++++++++++++++++++++++++++++++++++++++++++++++++++++++++++++++++++++++$$$$%%%%........            ",
"OOOOOOOOXXXX    %%%%$$$$++++++++++++++++++++++++++++++++++++++++++++++++++++++++++++++++++++++++++++++++$$$$....oooo............",
"OOOOOOOOXXXX    %%%%$$$$++++++++++++++++++++++++++++++++++++++++++++++++++++++++++++++++++++++++++++++++$$$$....oooo............",
"OOOOOOOOXXXX    %%%%$$$$++++++++++++++++++++++++++++++++++++++++++++++++++++++++++++++++++++++++++++++++$$$$....oooo............",
"OOOOOOOOXXXX    %%%%$$$$++++++++++++++++++++++++++++++++++++++++++++++++++++++++++++++++++++++++++++++++$$$$....oooo............",
"OOOOOOOO    %%%%$$$$++++++++++++++++++++$$$$++++++++++++++++++++++++++++++++++++++++++++++++++++++++++++$$$$....oooooooooooooooo",
"OOOOOOOO    %%%%$$$$++++++++++++++++++++$$$$++++++++++++++++++++++++++++++++++++++++++++++++++++++++++++$$$$....oooooooooooooooo",
"OOOOOOOO    %%%%$$$$++++++++++++++++++++$$$$++++++++++++++++++++++++++++++++++++++++++++++++++++++++++++$$$$....oooooooooooooooo",
"OOOOOOOO    %%%%$$$$++++++++++++++++++++$$$$++++++++++++++++++++++++++++++++++++++++++++++++++++++++++++$$$$....oooooooooooooooo",
"OOOOOOOOOOOO    $$$$++++++++++++++++$$$$++++++++++++++++++++++++++++++++++++++++++++++++++++++++++++++++%%%%....oooooooo@@@@####",
"OOOOOOOOOOOO    $$$$++++++++++++++++$$$$++++++++++++++++++++++++++++++++++++++++++++++++++++++++++++++++%%%%....oooooooo@@@@####",
"OOOOOOOOOOOO    $$$$++++++++++++++++$$$$++++++++++++++++++++++++++++++++++++++++++++++++++++++++++++++++%%%%....oooooooo@@@@####",
"OOOOOOOOOOOO    $$$$++++++++++++++++$$$$++++++++++++++++++++++++++++++++++++++++++++++++++++++++++++++++%%%%....oooooooo@@@@####",
"OOOOOOOOXXXX    $$$$++++++++++++++++$$$$++++++++++++++++++++++++++++++++++++++++++++++++++++++++++++++++%%%%....oooooooo........",
"OOOOOOOOXXXX    $$$$++++++++++++++++$$$$++++++++++++++++++++++++++++++++++++++++++++++++++++++++++++++++%%%%....oooooooo........",
"OOOOOOOOXXXX    $$$$++++++++++++++++$$$$++++++++++++++++++++++++++++++++++++++++++++++++++++++++++++++++%%%%....oooooooo........",
"OOOOOOOOXXXX    $$$$++++++++++++++++$$$$++++++++++++++++++++++++++++++++++++++++++++++++++++++++++++++++%%%%....oooooooo........",
"OOOOOOOO    %%%%$$$$++++++++++++++++$$$$++++++++++++++++++++++++++++++++++++++++++++++++++++++++++++++++$$$$%%%%oooooooooooooooo",
"OOOOOOOO    %%%%$$$$++++++++++++++++$$$$++++++++++++++++++++++++++++++++++++++++++++++++++++++++++++++++$$$$%%%%oooooooooooooooo",
"OOOOOOOO    %%%%$$$$++++++++++++++++$$$$++++++++++++++++++++++++++++++++++++++++++++++++++++++++++++++++$$$$%%%%oooooooooooooooo",
"OOOOOOOO    %%%%$$$$++++++++++++++++$$$$++++++++++++++++++++++++++++++++++++++++++++++++++++++++++++++++$$$$%%%%oooooooooooooooo",
"OOOOOOOOOOOO    %%%%$$$$++++++++++++++++++++++++++++++++++++++++++++++++++++++++++++++++++++++++++++++++$$$$%%%%%%%%%%%%%%%%%%%%",
"OOOOOOOOOOOO    %%%%$$$$++++++++++++++++++++++++++++++++++++++++++++++++++++++++++++++++++++++++++++++++$$$$%%%%%%%%%%%%%%%%%%%%",
"OOOOOOOOOOOO    %%%%$$$$++++++++++++++++++++++++++++++++++++++++++++++++++++++++++++++++++++++++++++++++$$$$%%%%%%%%%%%%%%%%%%%%",
"OOOOOOOOOOOO    %%%%$$$$++++++++++++++++++++++++++++++++++++++++++++++++++++++++++++++++++++++++++++++++$$$$%%%%%%%%%%%%%%%%%%%%",
"OOOOOOOOOOOOXXXX    $$$$++++++++++++++++++++++++++++++++++++++++++++++++++++++++++++++++++++++++++++++++++++$$$$$$$$$$$$$$$$$$$$",
"OOOOOOOOOOOOXXXX    $$$$++++++++++++++++++++++++++++++++++++++++++++++++++++++++++++++++++++++++++++++++++++$$$$$$$$$$$$$$$$$$$$",
"OOOOOOOOOOOOXXXX    $$$$++++++++++++++++++++++++++++++++++++++++++++++++++++++++++++++++++++++++++++++++++++$$$$$$$$$$$$$$$$$$$$",
"OOOOOOOOOOOOXXXX    $$$$++++++++++++++++++++++++++++++++++++++++++++++++++++++++++++++++++++++++++++++++++++$$$$$$$$$$$$$$$$$$$$",
"OOOOOOOOOOOOXXXX    $$$$++++++++++++++++++++++++++++++++++++++++++++++++++++++++++++$$$$++++++++++++++++++++++++++++++++++++++++",
"OOOOOOOOOOOOXXXX    $$$$++++++++++++++++++++++++++++++++++++++++++++++++++++++++++++$$$$++++++++++++++++++++++++++++++++++++++++",
"OOOOOOOOOOOOXXXX    $$$$++++++++++++++++++++++++++++++++++++++++++++++++++++++++++++$$$$++++++++++++++++++++++++++++++++++++++++",
"OOOOOOOOOOOOXXXX    $$$$++++++++++++++++++++++++++++++++++++++++++++++++++++++++++++$$$$++++++++++++++++++++++++++++++++++++++++",
"OOOOOOOOOOOOXXXX    $$$$++++++++++++++++++++++++++++++++++++++++++++++++++++++++++++$$$$++++++++++++++++++++++++++++++++++++++++",
"OOOOOOOOOOOOXXXX    $$$$++++++++++++++++++++++++++++++++++++++++++++++++++++++++++++$$$$++++++++++++++++++++++++++++++++++++++++",
"OOOOOOOOOOOOXXXX    $$$$++++++++++++++++++++++++++++++++++++++++++++++++++++++++++++$$$$++++++++++++++++++++++++++++++++++++++++",
"OOOOOOOOOOOOXXXX    $$$$++++++++++++++++++++++++++++++++++++++++++++++++++++++++++++$$$$++++++++++++++++++++++++++++++++++++++++",
"OOOOOOOOXXXX    %%%%$$$$++++++++++++++++++++++++++++++++++++++++++++++++++++++++++++$$$$++++++++++++++++++++++++++++++++++++++++",
"OOOOOOOOXXXX    %%%%$$$$++++++++++++++++++++++++++++++++++++++++++++++++++++++++++++$$$$++++++++++++++++++++++++++++++++++++++++",
"OOOOOOOOXXXX    %%%%$$$$++++++++++++++++++++++++++++++++++++++++++++++++++++++++++++$$$$++++++++++++++++++++++++++++++++++++++++",
"OOOOOOOOXXXX    %%%%$$$$++++++++++++++++++++++++++++++++++++++++++++++++++++++++++++$$$$++++++++++++++++++++++++++++++++++++++++",
"OOOOOOOOXXXX    %%%%$$$$++++++++++++++++++++++++++++++++++++++++++++++++++++++++++++++++$$$$++++++++++++++++++++++++++++++++++++",
"OOOOOOOOXXXX    %%%%$$$$++++++++++++++++++++++++++++++++++++++++++++++++++++++++++++++++$$$$++++++++++++++++++++++++++++++++++++",
"OOOOOOOOXXXX    %%%%$$$$++++++++++++++++++++++++++++++++++++++++++++++++++++++++++++++++$$$$++++++++++++++++++++++++++++++++++++",
"OOOOOOOOXXXX    %%%%$$$$++++++++++++++++++++++++++++++++++++++++++++++++++++++++++++++++$$$$++++++++++++++++++++++++++++++++++++",
"OOOOOOOO    %%%%$$$$++++++++++++++++++++++++++++++++++++++++++++++++++++++++++++++++++++++++++++++++++++++++++++$$$$$$$$++++++++",
"OOOOOOOO    %%%%$$$$++++++++++++++++++++++++++++++++++++++++++++++++++++++++++++++++++++++++++++++++++++++++++++$$$$$$$$++++++++",
"OOOOOOOO    %%%%$$$$++++++++++++++++++++++++++++++++++++++++++++++++++++++++++++++++++++++++++++++++++++++++++++$$$$$$$$++++++++",
"OOOOOOOO    %%%%$$$$++++++++++++++++++++++++++++++++++++++++++++++++++++++++++++++++++++++++++++++++++++++++++++$$$$$$$$++++++++",
"OOOOOOOOOOOO    $$$$++++++++++++++++++++++++++++++++++++++++++++++++++++++++++++++++++++++++++++++++++++++++++++++++++++++++++++",
"OOOOOOOOOOOO    $$$$++++++++++++++++++++++++++++++++++++++++++++++++++++++++++++++++++++++++++++++++++++++++++++++++++++++++++++",
"OOOOOOOOOOOO    $$$$++++++++++++++++++++++++++++++++++++++++++++++++++++++++++++++++++++++++++++++++++++++++++++++++++++++++++++",
"OOOOOOOOOOOO    $$$$++++++++++++++++++++++++++++++++++++++++++++++++++++++++++++++++++++++++++++++++++++++++++++++++++++++++++++",
"OOOOOOOOOOOOXXXX    $$$$++++++++++++++++++++++++++++++++++++++++++++++++++++++++++++++++++++++++++++++++++++++++++++++++++++++++",
"OOOOOOOOOOOOXXXX    $$$$++++++++++++++++++++++++++++++++++++++++++++++++++++++++++++++++++++++++++++++++++++++++++++++++++++++++",
"OOOOOOOOOOOOXXXX    $$$$++++++++++++++++++++++++++++++++++++++++++++++++++++++++++++++++++++++++++++++++++++++++++++++++++++++++",
"OOOOOOOOOOOOXXXX    $$$$++++++++++++++++++++++++++++++++++++++++++++++++++++++++++++++++++++++++++++++++++++++++++++++++++++++++",
"OOOOOOOOOOOOXXXX    $$$$++++++++++++++++++++++++++++++++++++++++++++++++++++++++++++++++++++++++++++++++++++++++++++++++++++++++",
"OOOOOOOOOOOOXXXX    $$$$++++++++++++++++++++++++++++++++++++++++++++++++++++++++++++++++++++++++++++++++++++++++++++++++++++++++",
"OOOOOOOOOOOOXXXX    $$$$++++++++++++++++++++++++++++++++++++++++++++++++++++++++++++++++++++++++++++++++++++++++++++++++++++++++",
"OOOOOOOOOOOOXXXX    $$$$++++++++++++++++++++++++++++++++++++++++++++++++++++++++++++++++++++++++++++++++++++++++++++++++++++++++",
"OOOO    XXXXXXXX    $$$$++++++++++++++++++++++++++++++++++++++++++++++++++++++++++++++++++++++++++++++++++++++++++++++++++++++++",
"OOOO    XXXXXXXX    $$$$++++++++++++++++++++++++++++++++++++++++++++++++++++++++++++++++++++++++++++++++++++++++++++++++++++++++",
"OOOO    XXXXXXXX    $$$$++++++++++++++++++++++++++++++++++++++++++++++++++++++++++++++++++++++++++++++++++++++++++++++++++++++++",
"OOOO    XXXXXXXX    $$$$++++++++++++++++++++++++++++++++++++++++++++++++++++++++++++++++++++++++++++++++++++++++++++++++++++++++",
"OOOOOOOO        %%%%$$$$++++++++++++++++++++++++++++++++++++++++++++++++++++++++++++++++++++++++++++++++++++++++++++++++++++++++",
"OOOOOOOO        %%%%$$$$++++++++++++++++++++++++++++++++++++++++++++++++++++++++++++++++++++++++++++++++++++++++++++++++++++++++",
"OOOOOOOO        %%%%$$$$++++++++++++++++++++++++++++++++++++++++++++++++++++++++++++++++++++++++++++++++++++++++++++++++++++++++",
"OOOOOOOO        %%%%$$$$++++++++++++++++++++++++++++++++++++++++++++++++++++++++++++++++++++++++++++++++++++++++++++++++++++++++",
"OOOOOOOOOOOO    %%%%$$$$++++++++++++++++++++++++++++++++++++++++++++++++++++++++++++++++++++++++++++++++++++++++++++++++++++++++",
"OOOOOOOOOOOO    %%%%$$$$++++++++++++++++++++++++++++++++++++++++++++++++++++++++++++++++++++++++++++++++++++++++++++++++++++++++",
"OOOOOOOOOOOO    %%%%$$$$++++++++++++++++++++++++++++++++++++++++++++++++++++++++++++++++++++++++++++++++++++++++++++++++++++++++",
"OOOOOOOOOOOO    %%%%$$$$++++++++++++++++++++++++++++++++++++++++++++++++++++++++++++++++++++++++++++++++++++++++++++++++++++++++",
"OOOOOOOOXXXX    $$$$++++++++++++$$$$++++++++++++++++++++++++++++++++++++++++++++++++++++$$$$++++++++++++++++++++++++++++++++++++",
"OOOOOOOOXXXX    $$$$++++++++++++$$$$++++++++++++++++++++++++++++++++++++++++++++++++++++$$$$++++++++++++++++++++++++++++++++++++",
"OOOOOOOOXXXX    $$$$++++++++++++$$$$++++++++++++++++++++++++++++++++++++++++++++++++++++$$$$++++++++++++++++++++++++++++++++++++",
"OOOOOOOOXXXX    $$$$++++++++++++$$$$++++++++++++++++++++++++++++++++++++++++++++++++++++$$$$++++++++++++++++++++++++++++++++++++",
"OOOOOOOO    %%%%$$$$++++++++++++++++$$$$++++++++++++++++++++++++++++++++++++++++++++++++++++$$$$$$$$++++++++++++++++++++++++++++",
"OOOOOOOO    %%%%$$$$++++++++++++++++$$$$++++++++++++++++++++++++++++++++++++++++++++++++++++$$$$$$$$++++++++++++++++++++++++++++",
"OOOOOOOO    %%%%$$$$++++++++++++++++$$$$++++++++++++++++++++++++++++++++++++++++++++++++++++$$$$$$$$++++++++++++++++++++++++++++",
"OOOOOOOO    %%%%$$$$++++++++++++++++$$$$++++++++++++++++++++++++++++++++++++++++++++++++++++$$$$$$$$++++++++++++++++++++++++++++",
"OOOOOOOOXXXX    $$$$++++++++++++++++++++++++++++++++++++++++++++++++++++++++++++++++++++++++++++++++++++++++++++++++++++++++++++",
"OOOOOOOOXXXX    $$$$++++++++++++++++++++++++++++++++++++++++++++++++++++++++++++++++++++++++++++++++++++++++++++++++++++++++++++",
"OOOOOOOOXXXX    $$$$++++++++++++++++++++++++++++++++++++++++++++++++++++++++++++++++++++++++++++++++++++++++++++++++++++++++++++",
"OOOOOOOOXXXX    $$$$++++++++++++++++++++++++++++++++++++++++++++++++++++++++++++++++++++++++++++++++++++++++++++++++++++++++++++",
"OOOOOOOOXXXX    $$$$++++++++++++++++++++++++++++++++++++++++++++++++++++++++++++++++++++++++++++++++++++++++++++++++++++++++++++",
"OOOOOOOOXXXX    $$$$++++++++++++++++++++++++++++++++++++++++++++++++++++++++++++++++++++++++++++++++++++++++++++++++++++++++++++",
"OOOOOOOOXXXX    $$$$++++++++++++++++++++++++++++++++++++++++++++++++++++++++++++++++++++++++++++++++++++++++++++++++++++++++++++",
"OOOOOOOOXXXX    $$$$++++++++++++++++++++++++++++++++++++++++++++++++++++++++++++++++++++++++++++++++++++++++++++++++++++++++++++",
"OOOOOOOOXXXX    $$$$++++$$$$$$$$$$$$$$$$$$$$$$$$++++++++$$$$$$$$$$$$++++$$$$$$$$++++++++$$$$$$$$$$$$$$$$$$$$$$$$++++++++$$$$$$$$",
"OOOOOOOOXXXX    $$$$++++$$$$$$$$$$$$$$$$$$$$$$$$++++++++$$$$$$$$$$$$++++$$$$$$$$++++++++$$$$$$$$$$$$$$$$$$$$$$$$++++++++$$$$$$$$",
"OOOOOOOOXXXX    $$$$++++$$$$$$$$$$$$$$$$$$$$$$$$++++++++$$$$$$$$$$$$++++$$$$$$$$++++++++$$$$$$$$$$$$$$$$$$$$$$$$++++++++$$$$$$$$",
"OOOOOOOOXXXX    $$$$++++$$$$$$$$$$$$$$$$$$$$$$$$++++++++$$$$$$$$$$$$++++$$$$$$$$++++++++$$$$$$$$$$$$$$$$$$$$$$$$++++++++$$$$$$$$",
"OOOOXXXXXXXX    $$$$$$$$%%%%%%%%%%%%            $$$$$$$$%%%%%%%%%%%%$$$$%%%%%%%%$$$$$$$$%%%%            %%%%%%%%$$$$$$$$        ",
"OOOOXXXXXXXX    $$$$$$$$%%%%%%%%%%%%            $$$$$$$$%%%%%%%%%%%%$$$$%%%%%%%%$$$$$$$$%%%%            %%%%%%%%$$$$$$$$        ",
"OOOOXXXXXXXX    $$$$$$$$%%%%%%%%%%%%            $$$$$$$$%%%%%%%%%%%%$$$$%%%%%%%%$$$$$$$$%%%%            %%%%%%%%$$$$$$$$        ",
"OOOOXXXXXXXX    $$$$$$$$%%%%%%%%%%%%            $$$$$$$$%%%%%%%%%%%%$$$$%%%%%%%%$$$$$$$$%%%%            %%%%%%%%$$$$$$$$        ",
"OOOOOOOO        %%%%                OOOOOOOOXXXX    %%%%        %%%%%%%%            %%%%    XXXXOOOOOOOO                XXXXOOOO",
"OOOOOOOO        %%%%                OOOOOOOOXXXX    %%%%        %%%%%%%%            %%%%    XXXXOOOOOOOO                XXXXOOOO",
"OOOOOOOO        %%%%                OOOOOOOOXXXX    %%%%        %%%%%%%%            %%%%    XXXXOOOOOOOO                XXXXOOOO",
"OOOOOOOO        %%%%                OOOOOOOOXXXX    %%%%        %%%%%%%%            %%%%    XXXXOOOOOOOO                XXXXOOOO",
"OOOOOOOOOOOOXXXX    OOOOOOOOXXXX    OOOOOOOOOOOOXXXX    XXXXOOOO        OOOOOOOOOOOO    XXXXOOOOOOOOOOOOOOOO    XXXXOOOOOOOOOOOO",
"OOOOOOOOOOOOXXXX    OOOOOOOOXXXX    OOOOOOOOOOOOXXXX    XXXXOOOO        OOOOOOOOOOOO    XXXXOOOOOOOOOOOOOOOO    XXXXOOOOOOOOOOOO",
"OOOOOOOOOOOOXXXX    OOOOOOOOXXXX    OOOOOOOOOOOOXXXX    XXXXOOOO        OOOOOOOOOOOO    XXXXOOOOOOOOOOOOOOOO    XXXXOOOOOOOOOOOO",
"OOOOOOOOOOOOXXXX    OOOOOOOOXXXX    OOOOOOOOOOOOXXXX    XXXXOOOO        OOOOOOOOOOOO    XXXXOOOOOOOOOOOOOOOO    XXXXOOOOOOOOOOOO",
"OOOOOOOOOOOOOOOOOOOOOOOOOOOOOOOOOOOOOOOOOOOOOOOOOOOOOOOOOOOOOOOOOOOOOOOOOOOOOOOOOOOOOOOOOOOOOOOOOOOOOOOOOOOOOOOOOOOOOOOOOOOOOOOO",
"OOOOOOOOOOOOOOOOOOOOOOOOOOOOOOOOOOOOOOOOOOOOOOOOOOOOOOOOOOOOOOOOOOOOOOOOOOOOOOOOOOOOOOOOOOOOOOOOOOOOOOOOOOOOOOOOOOOOOOOOOOOOOOOO",
"OOOOOOOOOOOOOOOOOOOOOOOOOOOOOOOOOOOOOOOOOOOOOOOOOOOOOOOOOOOOOOOOOOOOOOOOOOOOOOOOOOOOOOOOOOOOOOOOOOOOOOOOOOOOOOOOOOOOOOOOOOOOOOOO",
"OOOOOOOOOOOOOOOOOOOOOOOOOOOOOOOOOOOOOOOOOOOOOOOOOOOOOOOOOOOOOOOOOOOOOOOOOOOOOOOOOOOOOOOOOOOOOOOOOOOOOOOOOOOOOOOOOOOOOOOOOOOOOOOO",
"OOOOOOOOOOOOOOOOOOOOOOOOOOOOOOOOOOOOOOOOOOOOOOOOOOOOOOOOOOOOOOOOOOOOOOOOOOOOOOOOOOOOOOOOOOOOOOOOOOOOOOOOOOOOOOOOOOOOOOOOOOOOOOOO",
"OOOOOOOOOOOOOOOOOOOOOOOOOOOOOOOOOOOOOOOOOOOOOOOOOOOOOOOOOOOOOOOOOOOOOOOOOOOOOOOOOOOOOOOOOOOOOOOOOOOOOOOOOOOOOOOOOOOOOOOOOOOOOOOO",
"OOOOOOOOOOOOOOOOOOOOOOOOOOOOOOOOOOOOOOOOOOOOOOOOOOOOOOOOOOOOOOOOOOOOOOOOOOOOOOOOOOOOOOOOOOOOOOOOOOOOOOOOOOOOOOOOOOOOOOOOOOOOOOOO",
"OOOOOOOOOOOOOOOOOOOOOOOOOOOOOOOOOOOOOOOOOOOOOOOOOOOOOOOOOOOOOOOOOOOOOOOOOOOOOOOOOOOOOOOOOOOOOOOOOOOOOOOOOOOOOOOOOOOOOOOOOOOOOOOO"
};
