/* XPM */
static char *result[] = {
/* columns rows colors chars-per-pixel */
"128 128 8 1 ",
"  c #163C2B",
". c #755338",
"X c #296640",
"o c #9D7658",
"O c #509B66",
"+ c #00CCFF",
"@ c #D7F8FF",
"# c #F4FDFF",
/* pixels */
"OOOOOOOOOOOOXXXX    @@@@++++++++++++++++++++++++++++++++++++++++++++++++++++++++++++++++++++++++++++++++++++@@@@    XXXXXXXXOOOO",
"OOOOOOOOOOOOXXXX    @@@@++++++++++++++++++++++++++++++++++++++++++++++++++++++++++++++++++++++++++++++++++++@@@@    XXXXXXXXOOOO",
"OOOOOOOOOOOOXXXX    @@@@++++++++++++++++++++++++++++++++++++++++++++++++++++++++++++++++++++++++++++++++++++@@@@    XXXXXXXXOOOO",
"OOOOOOOOOOOOXXXX    @@@@++++++++++++++++++++++++++++++++++++++++++++++++++++++++++++++++++++++++++++++++++++@@@@    XXXXXXXXOOOO",
"OOOOOOOOOOOOXXXX    @@@@++++++++++++++++++++++++++++++++++++++++++++++++++++++++++++++++++++++++++++++++++++@@@@####            ",
"OOOOOOOOOOOOXXXX    @@@@++++++++++++++++++++++++++++++++++++++++++++++++++++++++++++++++++++++++++++++++++++@@@@####            ",
"OOOOOOOOOOOOXXXX    @@@@++++++++++++++++++++++++++++++++++++++++++++++++++++++++++++++++++++++++++++++++++++@@@@####            ",
"OOOOOOOOOOOOXXXX    @@@@++++++++++++++++++++++++++++++++++++++++++++++++++++++++++++++++++++++++++++++++++++@@@@####            ",
"OOOOOOOOOOOOXXXX    @@@@++++++++++++++++++++++++++++++++++++++++++++++++++++++++++++++++++++++++@@@@++++++++++++@@@@####    OOOO",
"OOOOOOOOOOOOXXXX    @@@@++++++++++++++++++++++++++++++++++++++++++++++++++++++++++++++++++++++++@@@@++++++++++++@@@@####    OOOO",
"OOOOOOOOOOOOXXXX    @@@@++++++++++++++++++++++++++++++++++++++++++++++++++++++++++++++++++++++++@@@@++++++++++++@@@@####    OOOO",
"OOOOOOOOOOOOXXXX    @@@@++++++++++++++++++++++++++++++++++++++++++++++++++++++++++++++++++++++++@@@@++++++++++++@@@@####    OOOO",
"XXXXXXXXXXXX        @@@@++++++++++++++++++++++++++++++++++++++++++++++++++++++++++++++++++++++++@@@@++++++++++++@@@@    OOOOOOOO",
"XXXXXXXXXXXX        @@@@++++++++++++++++++++++++++++++++++++++++++++++++++++++++++++++++++++++++@@@@++++++++++++@@@@    OOOOOOOO",
"XXXXXXXXXXXX        @@@@++++++++++++++++++++++++++++++++++++++++++++++++++++++++++++++++++++++++@@@@++++++++++++@@@@    OOOOOOOO",
"XXXXXXXXXXXX        @@@@++++++++++++++++++++++++++++++++++++++++++++++++++++++++++++++++++++++++@@@@++++++++++++@@@@    OOOOOOOO",
"                ####@@@@++++++++++++@@@@++++++++++++++++++++++++++++++++++++++++++++++++++++@@@@++++++++++++@@@@    OOOOOOOOOOOO",
"                ####@@@@++++++++++++@@@@++++++++++++++++++++++++++++++++++++++++++++++++++++@@@@++++++++++++@@@@    OOOOOOOOOOOO",
"                ####@@@@++++++++++++@@@@++++++++++++++++++++++++++++++++++++++++++++++++++++@@@@++++++++++++@@@@    OOOOOOOOOOOO",
"                ####@@@@++++++++++++@@@@++++++++++++++++++++++++++++++++++++++++++++++++++++@@@@++++++++++++@@@@    OOOOOOOOOOOO",
"........oooo....@@@@++++++++++++++++@@@@++++++++++++++++++++++++++++++++++++++++++++++++++++@@@@++++++++++++@@@@    XXXXOOOOOOOO",
"........oooo....@@@@++++++++++++++++@@@@++++++++++++++++++++++++++++++++++++++++++++++++++++@@@@++++++++++++@@@@    XXXXOOOOOOOO",
"........oooo....@@@@++++++++++++++++@@@@++++++++++++++++++++++++++++++++++++++++++++++++++++@@@@++++++++++++@@@@    XXXXOOOOOOOO",
"........oooo....@@@@++++++++++++++++@@@@++++++++++++++++++++++++++++++++++++++++++++++++++++@@@@++++++++++++@@@@    XXXXOOOOOOOO",
"oooooooooooo....@@@@++++++++++++++++@@@@++++++++++++++++++++++++++++++++++++++++++++++++++++++++++++++++++++@@@@    XXXXOOOOOOOO",
"oooooooooooo....@@@@++++++++++++++++@@@@++++++++++++++++++++++++++++++++++++++++++++++++++++++++++++++++++++@@@@    XXXXOOOOOOOO",
"oooooooooooo....@@@@++++++++++++++++@@@@++++++++++++++++++++++++++++++++++++++++++++++++++++++++++++++++++++@@@@    XXXXOOOOOOOO",
"oooooooooooo....@@@@++++++++++++++++@@@@++++++++++++++++++++++++++++++++++++++++++++++++++++++++++++++++++++@@@@    XXXXOOOOOOOO",
"oooooooooooo....####++++++++++++@@@@@@@@++++++++++++++++++++++++++++++++++++++++++++++++++++++++++++++++++++@@@@####    OOOOOOOO",
"oooooooooooo....####++++++++++++@@@@@@@@++++++++++++++++++++++++++++++++++++++++++++++++++++++++++++++++++++@@@@####    OOOOOOOO",
"oooooooooooo....####++++++++++++@@@@@@@@++++++++++++++++++++++++++++++++++++++++++++++++++++++++++++++++++++@@@@####    OOOOOOOO",
"oooooooooooo....####++++++++++++@@@@@@@@++++++++++++++++++++++++++++++++++++++++++++++++++++++++++++++++++++@@@@####    OOOOOOOO",
"oooooooooooo....####++++++++++++@@@@++++++++++++++++++++++++++++++++++++++++++++++++++++++++++++++++++++@@@@####    OOOO    OOOO",
"oooooooooooo....####++++++++++++@@@@++++++++++++++++++++++++++++++++++++++++++++++++++++++++++++++++++++@@@@####    OOOO    OOOO",
"oooooooooooo....####++++++++++++@@@@++++++++++++++++++++++++++++++++++++++++++++++++++++++++++++++++++++@@@@####    OOOO    OOOO",
"oooooooooooo....####++++++++++++@@@@++++++++++++++++++++++++++++++++++++++++++++++++++++++++++++++++++++@@@@####    OOOO    OOOO",
"oooooooooooo####@@@@++++++++++++++++++++++++++++++++++++++++++++++++++++++++++++++++++++++++++++++++++++@@@@    XXXXOOOOOOOOOOOO",
"oooooooooooo####@@@@++++++++++++++++++++++++++++++++++++++++++++++++++++++++++++++++++++++++++++++++++++@@@@    XXXXOOOOOOOOOOOO",
"oooooooooooo####@@@@++++++++++++++++++++++++++++++++++++++++++++++++++++++++++++++++++++++++++++++++++++@@@@    XXXXOOOOOOOOOOOO",
"oooooooooooo####@@@@++++++++++++++++++++++++++++++++++++++++++++++++++++++++++++++++++++++++++++++++++++@@@@    XXXXOOOOOOOOOOOO",
"################@@@@++++++++++++++++++++++++++++++++++++++++++++++++++++++++++++++++++++++++++++++++++++@@@@    XXXXOOOOOOOOOOOO",
"################@@@@++++++++++++++++++++++++++++++++++++++++++++++++++++++++++++++++++++++++++++++++++++@@@@    XXXXOOOOOOOOOOOO",
"################@@@@++++++++++++++++++++++++++++++++++++++++++++++++++++++++++++++++++++++++++++++++++++@@@@    XXXXOOOOOOOOOOOO",
"################@@@@++++++++++++++++++++++++++++++++++++++++++++++++++++++++++++++++++++++++++++++++++++@@@@    XXXXOOOOOOOOOOOO",
"@@@@@@@@@@@@@@@@++++++++++++++++++++++++++++++++++++++++++++++++++++++++++++++++++++++++++++++++++++++++@@@@####    XXXXOOOOOOOO",
"@@@@@@@@@@@@@@@@++++++++++++++++++++++++++++++++++++++++++++++++++++++++++++++++++++++++++++++++++++++++@@@@####    XXXXOOOOOOOO",
"@@@@@@@@@@@@@@@@++++++++++++++++++++++++++++++++++++++++++++++++++++++++++++++++++++++++++++++++++++++++@@@@####    XXXXOOOOOOOO",
"@@@@@@@@@@@@@@@@++++++++++++++++++++++++++++++++++++++++++++++++++++++++++++++++++++++++++++++++++++++++@@@@####    XXXXOOOOOOOO",
"++++++++++++++++++++++++++++++++@@@@++++++++++++++++++++++++++++++++++++++++++++++++++++++++++++++++++++++++@@@@    XXXXOOOOOOOO",
"++++++++++++++++++++++++++++++++@@@@++++++++++++++++++++++++++++++++++++++++++++++++++++++++++++++++++++++++@@@@    XXXXOOOOOOOO",
"++++++++++++++++++++++++++++++++@@@@++++++++++++++++++++++++++++++++++++++++++++++++++++++++++++++++++++++++@@@@    XXXXOOOOOOOO",
"++++++++++++++++++++++++++++++++@@@@++++++++++++++++++++++++++++++++++++++++++++++++++++++++++++++++++++++++@@@@    XXXXOOOOOOOO",
"++++++++++++++++++++++++@@@@@@@@++++++++++++++++++++++++++++++++++++++++++++++++++++++++++++++++++++++++++++@@@@####    OOOOOOOO",
"++++++++++++++++++++++++@@@@@@@@++++++++++++++++++++++++++++++++++++++++++++++++++++++++++++++++++++++++++++@@@@####    OOOOOOOO",
"++++++++++++++++++++++++@@@@@@@@++++++++++++++++++++++++++++++++++++++++++++++++++++++++++++++++++++++++++++@@@@####    OOOOOOOO",
"++++++++++++++++++++++++@@@@@@@@++++++++++++++++++++++++++++++++++++++++++++++++++++++++++++++++++++++++++++@@@@####    OOOOOOOO",
"++++++++++++++++++++++++++++++++++++++++++++++++++++++++++++++++++++++++++++++++++++++++++++++++++++++++++++@@@@    OOOOOOOOOOOO",
"++++++++++++++++++++++++++++++++++++++++++++++++++++++++++++++++++++++++++++++++++++++++++++++++++++++++++++@@@@    OOOOOOOOOOOO",
"++++++++++++++++++++++++++++++++++++++++++++++++++++++++++++++++++++++++++++++++++++++++++++++++++++++++++++@@@@    OOOOOOOOOOOO",
"++++++++++++++++++++++++++++++++++++++++++++++++++++++++++++++++++++++++++++++++++++++++++++++++++++++++++++@@@@    OOOOOOOOOOOO",
"++++++++++++++++++++++++++++++++++++++++++++++++++++++++++++++++++++++++++++++++++++++++++++++++++++++++++++@@@@    OOOOOOOOOOOO",
"++++++++++++++++++++++++++++++++++++++++++++++++++++++++++++++++++++++++++++++++++++++++++++++++++++++++++++@@@@    OOOOOOOOOOOO",
"++++++++++++++++++++++++++++++++++++++++++++++++++++++++++++++++++++++++++++++++++++++++++++++++++++++++++++@@@@    OOOOOOOOOOOO",
"++++++++++++++++++++++++++++++++++++++++++++++++++++++++++++++++++++++++++++++++++++++++++++++++++++++++++++@@@@    OOOOOOOOOOOO",
"++++++++++++++++++++++++++++++++++++++++++++++++++++++++++++++++++++++++++++++++++++++++++++++++++++++++++++@@@@    XXXXOOOOOOOO",
"++++++++++++++++++++++++++++++++++++++++++++++++++++++++++++++++++++++++++++++++++++++++++++++++++++++++++++@@@@    XXXXOOOOOOOO",
"++++++++++++++++++++++++++++++++++++++++++++++++++++++++++++++++++++++++++++++++++++++++++++++++++++++++++++@@@@    XXXXOOOOOOOO",
"++++++++++++++++++++++++++++++++++++++++++++++++++++++++++++++++++++++++++++++++++++++++++++++++++++++++++++@@@@    XXXXOOOOOOOO",
"++++++++++++++++++++++++++++++++++++++++++++++++++++++++++++++++++++++++++++++++++++++++++++++++++++++++++++@@@@####        OOOO",
"++++++++++++++++++++++++++++++++++++++++++++++++++++++++++++++++++++++++++++++++++++++++++++++++++++++++++++@@@@####        OOOO",
"++++++++++++++++++++++++++++++++++++++++++++++++++++++++++++++++++++++++++++++++++++++++++++++++++++++++++++@@@@####        OOOO",
"++++++++++++++++++++++++++++++++++++++++++++++++++++++++++++++++++++++++++++++++++++++++++++++++++++++++++++@@@@####        OOOO",
"++++++++++++++++++++++++++++++++++++++++++++++++++++++++++++++++++++++++++++++++++++++++++++++++++++++++@@@@####        OOOOOOOO",
"++++++++++++++++++++++++++++++++++++++++++++++++++++++++++++++++++++++++++++++++++++++++++++++++++++++++@@@@####        OOOOOOOO",
"++++++++++++++++++++++++++++++++++++++++++++++++++++++++++++++++++++++++++++++++++++++++++++++++++++++++@@@@####        OOOOOOOO",
"++++++++++++++++++++++++++++++++++++++++++++++++++++++++++++++++++++++++++++++++++++++++++++++++++++++++@@@@####        OOOOOOOO",
"++++++++++++++++++++++++++++++++++++++++++++++++++++++++++++++++++++++++++++++++++++++++++++++++++++++++@@@@####    OOOOOOOOOOOO",
"++++++++++++++++++++++++++++++++++++++++++++++++++++++++++++++++++++++++++++++++++++++++++++++++++++++++@@@@####    OOOOOOOOOOOO",
"++++++++++++++++++++++++++++++++++++++++++++++++++++++++++++++++++++++++++++++++++++++++++++++++++++++++@@@@####    OOOOOOOOOOOO",
"++++++++++++++++++++++++++++++++++++++++++++++++++++++++++++++++++++++++++++++++++++++++++++++++++++++++@@@@####    OOOOOOOOOOOO",
"++++++++++++++++++++++++++++++++++++++++++++++++++++++++++++++++++++++++++++++++++++++++@@@@++++++++++++@@@@####    XXXXOOOOOOOO",
"++++++++++++++++++++++++++++++++++++++++++++++++++++++++++++++++++++++++++++++++++++++++@@@@++++++++++++@@@@####    XXXXOOOOOOOO",
"++++++++++++++++++++++++++++++++++++++++++++++++++++++++++++++++++++++++++++++++++++++++@@@@++++++++++++@@@@####    XXXXOOOOOOOO",
"++++++++++++++++++++++++++++++++++++++++++++++++++++++++++++++++++++++++++++++++++++++++@@@@++++++++++++@@@@####    XXXXOOOOOOOO",
"++++++++@@@@++++++++++++++++++++++++++++++++++++++++++++++++++++++++++++++++++++++++++++@@@@++++++++++++@@@@####    XXXXOOOOOOOO",
"++++++++@@@@++++++++++++++++++++++++++++++++++++++++++++++++++++++++++++++++++++++++++++@@@@++++++++++++@@@@####    XXXXOOOOOOOO",
"++++++++@@@@++++++++++++++++++++++++++++++++++++++++++++++++++++++++++++++++++++++++++++@@@@++++++++++++@@@@####    XXXXOOOOOOOO",
"++++++++@@@@++++++++++++++++++++++++++++++++++++++++++++++++++++++++++++++++++++++++++++@@@@++++++++++++@@@@####    XXXXOOOOOOOO",
"++++++++++++@@@@@@@@@@@@++++++++++++++++++++++++++++++++++++++++++++++++++++++++++++@@@@++++++++++++++++++++@@@@####    OOOOOOOO",
"++++++++++++@@@@@@@@@@@@++++++++++++++++++++++++++++++++++++++++++++++++++++++++++++@@@@++++++++++++++++++++@@@@####    OOOOOOOO",
"++++++++++++@@@@@@@@@@@@++++++++++++++++++++++++++++++++++++++++++++++++++++++++++++@@@@++++++++++++++++++++@@@@####    OOOOOOOO",
"++++++++++++@@@@@@@@@@@@++++++++++++++++++++++++++++++++++++++++++++++++++++++++++++@@@@++++++++++++++++++++@@@@####    OOOOOOOO",
"++++++++++++++++++++++++++++++++++++++++++++++++++++++++++++++++++++++++++++++++++++++++++++++++++++++++++++@@@@    OOOOOOOOOOOO",
"++++++++++++++++++++++++++++++++++++++++++++++++++++++++++++++++++++++++++++++++++++++++++++++++++++++++++++@@@@    OOOOOOOOOOOO",
"++++++++++++++++++++++++++++++++++++++++++++++++++++++++++++++++++++++++++++++++++++++++++++++++++++++++++++@@@@    OOOOOOOOOOOO",
"++++++++++++++++++++++++++++++++++++++++++++++++++++++++++++++++++++++++++++++++++++++++++++++++++++++++++++@@@@    OOOOOOOOOOOO",
"++++++++++++++++++++++++++++++++++++++++++++++++++++++++++++++++++++++++++++++++++++++++++++++++++++++++@@@@    OOOOOOOOOOOOOOOO",
"++++++++++++++++++++++++++++++++++++++++++++++++++++++++++++++++++++++++++++++++++++++++++++++++++++++++@@@@    OOOOOOOOOOOOOOOO",
"++++++++++++++++++++++++++++++++++++++++++++++++++++++++++++++++++++++++++++++++++++++++++++++++++++++++@@@@    OOOOOOOOOOOOOOOO",
"++++++++++++++++++++++++++++++++++++++++++++++++++++++++++++++++++++++++++++++++++++++++++++++++++++++++@@@@    OOOOOOOOOOOOOOOO",
"++++++++++++++++++++++++++++++++++++++++++++++++++++++++++++++++++++++++++++++++++++++++++++++++++++++++@@@@    XXXXOOOOOOOOOOOO",
"++++++++++++++++++++++++++++++++++++++++++++++++++++++++++++++++++++++++++++++++++++++++++++++++++++++++@@@@    XXXXOOOOOOOOOOOO",
"++++++++++++++++++++++++++++++++++++++++++++++++++++++++++++++++++++++++++++++++++++++++++++++++++++++++@@@@    XXXXOOOOOOOOOOOO",
"++++++++++++++++++++++++++++++++++++++++++++++++++++++++++++++++++++++++++++++++++++++++++++++++++++++++@@@@    XXXXOOOOOOOOOOOO",
"@@@@@@@@++++++++++++++++@@@@@@@@@@@@@@@@@@@@@@@@++++++++@@@@@@@@@@@@++++@@@@@@@@++++++++@@@@@@@@@@@@@@@@@@@@    XXXXXXXXOOOOOOOO",
"@@@@@@@@++++++++++++++++@@@@@@@@@@@@@@@@@@@@@@@@++++++++@@@@@@@@@@@@++++@@@@@@@@++++++++@@@@@@@@@@@@@@@@@@@@    XXXXXXXXOOOOOOOO",
"@@@@@@@@++++++++++++++++@@@@@@@@@@@@@@@@@@@@@@@@++++++++@@@@@@@@@@@@++++@@@@@@@@++++++++@@@@@@@@@@@@@@@@@@@@    XXXXXXXXOOOOOOOO",
"@@@@@@@@++++++++++++++++@@@@@@@@@@@@@@@@@@@@@@@@++++++++@@@@@@@@@@@@++++@@@@@@@@++++++++@@@@@@@@@@@@@@@@@@@@    XXXXXXXXOOOOOOOO",
"########@@@@@@@@@@@@@@@@############            @@@@@@@@############@@@@########@@@@@@@@####            ########        OOOOOOOO",
"########@@@@@@@@@@@@@@@@############            @@@@@@@@############@@@@########@@@@@@@@####            ########        OOOOOOOO",
"########@@@@@@@@@@@@@@@@############            @@@@@@@@############@@@@########@@@@@@@@####            ########        OOOOOOOO",
"########@@@@@@@@@@@@@@@@############            @@@@@@@@############@@@@########@@@@@@@@####            ########        OOOOOOOO",
"                ####                OOOOOOOOXXXX    ####        ########            ####    XXXXOOOOOOOO            OOOOOOOOOOOO",
"                ####                OOOOOOOOXXXX    ####        ########            ####    XXXXOOOOOOOO            OOOOOOOOOOOO",
"                ####                OOOOOOOOXXXX    ####        ########            ####    XXXXOOOOOOOO            OOOOOOOOOOOO",
"                ####                OOOOOOOOXXXX    ####        ########            ####    XXXXOOOOOOOO            OOOOOOOOOOOO",
"OOOO    OOOOXXXX    OOOOOOOOXXXX    OOOOOOOOOOOOXXXX    XXXXOOOO        OOOOOOOOOOOO    XXXXOOOOOOOOOOOOOOOO    XXXXOOOOOOOOOOOO",
"OOOO    OOOOXXXX    OOOOOOOOXXXX    OOOOOOOOOOOOXXXX    XXXXOOOO        OOOOOOOOOOOO    XXXXOOOOOOOOOOOOOOOO    XXXXOOOOOOOOOOOO",
"OOOO    OOOOXXXX    OOOOOOOOXXXX    OOOOOOOOOOOOXXXX    XXXXOOOO        OOOOOOOOOOOO    XXXXOOOOOOOOOOOOOOOO    XXXXOOOOOOOOOOOO",
"OOOO    OOOOXXXX    OOOOOOOOXXXX    OOOOOOOOOOOOXXXX    XXXXOOOO        OOOOOOOOOOOO    XXXXOOOOOOOOOOOOOOOO    XXXXOOOOOOOOOOOO",
"OOOOOOOOOOOOOOOOOOOOOOOOOOOOOOOOOOOOOOOOOOOOOOOOOOOOOOOOOOOOOOOOOOOOOOOOOOOOOOOOOOOOOOOOOOOOOOOOOOOOOOOOOOOOOOOOOOOOOOOOOOOOOOOO",
"OOOOOOOOOOOOOOOOOOOOOOOOOOOOOOOOOOOOOOOOOOOOOOOOOOOOOOOOOOOOOOOOOOOOOOOOOOOOOOOOOOOOOOOOOOOOOOOOOOOOOOOOOOOOOOOOOOOOOOOOOOOOOOOO",
"OOOOOOOOOOOOOOOOOOOOOOOOOOOOOOOOOOOOOOOOOOOOOOOOOOOOOOOOOOOOOOOOOOOOOOOOOOOOOOOOOOOOOOOOOOOOOOOOOOOOOOOOOOOOOOOOOOOOOOOOOOOOOOOO",
"OOOOOOOOOOOOOOOOOOOOOOOOOOOOOOOOOOOOOOOOOOOOOOOOOOOOOOOOOOOOOOOOOOOOOOOOOOOOOOOOOOOOOOOOOOOOOOOOOOOOOOOOOOOOOOOOOOOOOOOOOOOOOOOO",
"OOOOOOOOOOOOOOOOOOOOOOOOOOOOOOOOOOOOOOOOOOOOOOOOOOOOOOOOOOOOOOOOOOOOOOOOOOOOOOOOOOOOOOOOOOOOOOOOOOOOOOOOOOOOOOOOOOOOOOOOOOOOOOOO",
"OOOOOOOOOOOOOOOOOOOOOOOOOOOOOOOOOOOOOOOOOOOOOOOOOOOOOOOOOOOOOOOOOOOOOOOOOOOOOOOOOOOOOOOOOOOOOOOOOOOOOOOOOOOOOOOOOOOOOOOOOOOOOOOO",
"OOOOOOOOOOOOOOOOOOOOOOOOOOOOOOOOOOOOOOOOOOOOOOOOOOOOOOOOOOOOOOOOOOOOOOOOOOOOOOOOOOOOOOOOOOOOOOOOOOOOOOOOOOOOOOOOOOOOOOOOOOOOOOOO",
"OOOOOOOOOOOOOOOOOOOOOOOOOOOOOOOOOOOOOOOOOOOOOOOOOOOOOOOOOOOOOOOOOOOOOOOOOOOOOOOOOOOOOOOOOOOOOOOOOOOOOOOOOOOOOOOOOOOOOOOOOOOOOOOO"
};
