/* XPM */
static char *_72fe03b4352432db4765dc2a447f43fQL16VwPLoE52Yyus[] = {
/* columns rows colors chars-per-pixel */
"128 128 9 1 ",
"  c None",
". c #524036",
"X c #9C5B26",
"o c #BB8049",
"O c #C7925E",
"+ c #D4A369",
"@ c #F19393",
"# c #E5D4C3",
"$ c #F0EBE6",
/* pixels */
"                                                                                                                                ",
"                                                                                                                                ",
"                                                                                                                                ",
"                                                                                                                                ",
"                                                                                                                                ",
"                                                                                                                                ",
"                                                                                                                                ",
"                                                                                                                                ",
"                                                                                                                                ",
"                                                                                                                                ",
"                                                                                                                                ",
"                                                                                                                                ",
"                                                                                                                                ",
"                                                                                                                                ",
"                                                                                                                                ",
"                                                                                                                                ",
"                                                                                                                                ",
"                                                                                                                                ",
"                                                                                                                                ",
"                                                                                                                                ",
"                                                                                                                                ",
"                                                                                                                                ",
"                                                                                                                                ",
"                                                                                                                                ",
"                                                                                                                                ",
"                                                                                                                                ",
"                                                                                                                                ",
"                                                                                                                                ",
"                                                                                                                                ",
"                                                                                                                                ",
"                                                                                                                                ",
"                                                                                                                                ",
"                                                                                                                                ",
"                                                                                                                                ",
"                                                                                                                                ",
"                                                                                                                                ",
"                                                                                                                                ",
"                                                                                                                                ",
"                                                                                                                                ",
"                                                                                                                                ",
"                                                                                                                                ",
"                                                                                                                                ",
"                                                                                                                                ",
"                                                                                                                                ",
"                        ....                    ....                                                                            ",
"                        ....                    ....                                                                            ",
"                        ....                    ....                                                                            ",
"                        ....                    ....                                                                            ",
"                    ....oooo....            ....++++....                                                                        ",
"                    ....oooo....            ....++++....                                                                        ",
"                    ....oooo....            ....++++....                                                                        ",
"                    ....oooo....            ....++++....                                                                        ",
"                    ....ooooOOOO............++++####OOOO....                        ............                                ",
"                    ....ooooOOOO............++++####OOOO....                        ............                                ",
"                    ....ooooOOOO............++++####OOOO....                        ............                                ",
"                    ....ooooOOOO............++++####OOOO....                        ............                                ",
"                    ........OOOOOOOOOOOOOOOOOOOO++++OOOO....                    ....############....                            ",
"                    ........OOOOOOOOOOOOOOOOOOOO++++OOOO....                    ....############....                            ",
"                    ........OOOOOOOOOOOOOOOOOOOO++++OOOO....                    ....############....                            ",
"                    ........OOOOOOOOOOOOOOOOOOOO++++OOOO....                    ....############....                            ",
"                    ....####OOOO++++OOOO####OOOOOOOOoooo....                ....oooooooooooo++++$$$$....                        ",
"                    ....####OOOO++++OOOO####OOOOOOOOoooo....                ....oooooooooooo++++$$$$....                        ",
"                    ....####OOOO++++OOOO####OOOOOOOOoooo....                ....oooooooooooo++++$$$$....                        ",
"                    ....####OOOO++++OOOO####OOOOOOOOoooo....                ....oooooooooooo++++$$$$....                        ",
"                ....XXXX....OOOO++++OOOO....XXXXOOOOOOOOXXXX................................XXXX++++$$$$....                    ",
"                ....XXXX....OOOO++++OOOO....XXXXOOOOOOOOXXXX................................XXXX++++$$$$....                    ",
"                ....XXXX....OOOO++++OOOO....XXXXOOOOOOOOXXXX................................XXXX++++$$$$....                    ",
"                ....XXXX....OOOO++++OOOO....XXXXOOOOOOOOXXXX................................XXXX++++$$$$....                    ",
"                ....OOOO++++++++++++++++++++####++++OOOOoooo....ooooooooOOOOOOOOOOOOooooXXXX....XXXX####....                    ",
"                ....OOOO++++++++++++++++++++####++++OOOOoooo....ooooooooOOOOOOOOOOOOooooXXXX....XXXX####....                    ",
"                ....OOOO++++++++++++++++++++####++++OOOOoooo....ooooooooOOOOOOOOOOOOooooXXXX....XXXX####....                    ",
"                ....OOOO++++++++++++++++++++####++++OOOOoooo....ooooooooOOOOOOOOOOOOooooXXXX....XXXX####....                    ",
"                ....####....++++++++########$$$$####OOOOooooXXXXOOOO++++++++++++OOOOOOOOOOOOXXXXXXXX####....                    ",
"                ....####....++++++++########$$$$####OOOOooooXXXXOOOO++++++++++++OOOOOOOOOOOOXXXXXXXX####....                    ",
"                ....####....++++++++########$$$$####OOOOooooXXXXOOOO++++++++++++OOOOOOOOOOOOXXXXXXXX####....                    ",
"                ....####....++++++++########$$$$####OOOOooooXXXXOOOO++++++++++++OOOOOOOOOOOOXXXXXXXX####....                    ",
"                ....####XXXX++++####XXXX++++$$$$$$$$####ooooOOOO++++++++++++++++++++++++OOOOoooo....++++....                    ",
"                ....####XXXX++++####XXXX++++$$$$$$$$####ooooOOOO++++++++++++++++++++++++OOOOoooo....++++....                    ",
"                ....####XXXX++++####XXXX++++$$$$$$$$####ooooOOOO++++++++++++++++++++++++OOOOoooo....++++....                    ",
"                ....####XXXX++++####XXXX++++$$$$$$$$####ooooOOOO++++++++++++++++++++++++OOOOoooo....++++....                    ",
"                ....++++............########$$$$$$$$####OOOO++++++++++++++++++++++++++++++++++++....OOOO....                    ",
"                ....++++............########$$$$$$$$####OOOO++++++++++++++++++++++++++++++++++++....OOOO....                    ",
"                ....++++............########$$$$$$$$####OOOO++++++++++++++++++++++++++++++++++++....OOOO....                    ",
"                ....++++............########$$$$$$$$####OOOO++++++++++++++++++++++++++++++++++++....OOOO....                    ",
"                    ....####@@@@####$$$$$$$$$$$$####OOOO++++++++++++++++++++++++++++++++++++++++........                        ",
"                    ....####@@@@####$$$$$$$$$$$$####OOOO++++++++++++++++++++++++++++++++++++++++........                        ",
"                    ....####@@@@####$$$$$$$$$$$$####OOOO++++++++++++++++++++++++++++++++++++++++........                        ",
"                    ....####@@@@####$$$$$$$$$$$$####OOOO++++++++++++++++++++++++++++++++++++++++........                        ",
"                        ....$$$$$$$$$$$$$$$$####OOOO++++++++++++++++OOOOOOOOOOOO++++++++++++++++....                            ",
"                        ....$$$$$$$$$$$$$$$$####OOOO++++++++++++++++OOOOOOOOOOOO++++++++++++++++....                            ",
"                        ....$$$$$$$$$$$$$$$$####OOOO++++++++++++++++OOOOOOOOOOOO++++++++++++++++....                            ",
"                        ....$$$$$$$$$$$$$$$$####OOOO++++++++++++++++OOOOOOOOOOOO++++++++++++++++....                            ",
"                            ........$$$$####++++++++++++++++OOOOOOOO############OOOO++++++++OOOO....                            ",
"                            ........$$$$####++++++++++++++++OOOOOOOO############OOOO++++++++OOOO....                            ",
"                            ........$$$$####++++++++++++++++OOOOOOOO############OOOO++++++++OOOO....                            ",
"                            ........$$$$####++++++++++++++++OOOOOOOO############OOOO++++++++OOOO....                            ",
"                                    ........++++++++++++OOOOOOOO................####OOOO++++OOOO....                            ",
"                                    ........++++++++++++OOOOOOOO................####OOOO++++OOOO....                            ",
"                                    ........++++++++++++OOOOOOOO................####OOOO++++OOOO....                            ",
"                                    ........++++++++++++OOOOOOOO................####OOOO++++OOOO....                            ",
"                                        ....++++++++OOOO........    ................ooooOOOOoooo....                            ",
"                                        ....++++++++OOOO........    ................ooooOOOOoooo....                            ",
"                                        ....++++++++OOOO........    ................ooooOOOOoooo....                            ",
"                                        ....++++++++OOOO........    ................ooooOOOOoooo....                            ",
"                                    ....OOOO++++OOOO........    ....XXXXXXXX....    ....ooooXXXX....                            ",
"                                    ....OOOO++++OOOO........    ....XXXXXXXX....    ....ooooXXXX....                            ",
"                                    ....OOOO++++OOOO........    ....XXXXXXXX....    ....ooooXXXX....                            ",
"                                    ....OOOO++++OOOO........    ....XXXXXXXX....    ....ooooXXXX....                            ",
"                                    ....XXXXoooo....oooo....    ....++++....            ....####....                            ",
"                                    ....XXXXoooo....oooo....    ....++++....            ....####....                            ",
"                                    ....XXXXoooo....oooo....    ....++++....            ....####....                            ",
"                                    ....XXXXoooo....oooo....    ....++++....            ....####....                            ",
"                                ....$$$$####....    ........    ........                ....$$$$....                            ",
"                                ....$$$$####....    ........    ........                ....$$$$....                            ",
"                                ....$$$$####....    ........    ........                ....$$$$....                            ",
"                                ....$$$$####....    ........    ........                ....$$$$....                            ",
"                                ............                                            ............                            ",
"                                ............                                            ............                            ",
"                                ............                                            ............                            ",
"                                ............                                            ............                            ",
"                                                                                                                                ",
"                                                                                                                                ",
"                                                                                                                                ",
"                                                                                                                                ",
"                                                                                                                                ",
"                                                                                                                                ",
"                                                                                                                                ",
"                                                                                                                                "
};
