/* XPM */
static char *_3982dda217a4f69bcabb3ce4e5ebbaek9lMKIinjmqi1vRP[] = {
/* columns rows colors chars-per-pixel */
"128 128 8 1 ",
"  c None",
". c #524036",
"X c #9C5B26",
"o c #BB8049",
"O c #C7925E",
"+ c #D4A369",
"@ c #E5D4C3",
"# c #F0EBE6",
/* pixels */
"                                                                                                                                ",
"                                                                                                                                ",
"                                                                                                                                ",
"                                                                                                                                ",
"                                                                                                                                ",
"                                                                                                                                ",
"                                                                                                                                ",
"                                                                                                                                ",
"                                                                                                                                ",
"                                                                                                                                ",
"                                                                                                                                ",
"                                                                                                                                ",
"                                                                                                                                ",
"                                                                                                                                ",
"                                                                                                                                ",
"                                                                                                                                ",
"                                                                                                                                ",
"                                                                                                                                ",
"                                                                                                                                ",
"                                                                                                                                ",
"                                                                                                                                ",
"                                                                                                                                ",
"                                                                                                                                ",
"                                                                                                                                ",
"                                                                                                                                ",
"                                                                                                                                ",
"                                                                                                                                ",
"                                                                                                                                ",
"                                                                                                                                ",
"                                                                                                                                ",
"                                                                                                                                ",
"                                                                                                                                ",
"                                                                                                                                ",
"                                                                                                                                ",
"                                                                                                                                ",
"                                                                                                                                ",
"                                                                                                                                ",
"                                                                                                                                ",
"                                                                                                                                ",
"                                                                                                                                ",
"                                                                                                                                ",
"                                                                                                                                ",
"                                                                                                                                ",
"                                                                                                                                ",
"                                                                                                                                ",
"                                                                                                                                ",
"                                                                                                                                ",
"                                                                                                                                ",
"                                                                                                                                ",
"                                                                                                                                ",
"                                                                                                                                ",
"                                                                                                                                ",
"                                            ................................                                                    ",
"                                            ................................                                                    ",
"                                            ................................                                                    ",
"                                            ................................                                                    ",
"                                    ........oooooooooooooooooooooooooooooooo........                                            ",
"                                    ........oooooooooooooooooooooooooooooooo........                                            ",
"                                    ........oooooooooooooooooooooooooooooooo........                                            ",
"                                    ........oooooooooooooooooooooooooooooooo........                                            ",
"                                ....OOOOOOOOoooooooooooooooooooooooooooooooooooooooo........                                    ",
"                                ....OOOOOOOOoooooooooooooooooooooooooooooooooooooooo........                                    ",
"                                ....OOOOOOOOoooooooooooooooooooooooooooooooooooooooo........                                    ",
"                                ....OOOOOOOOoooooooooooooooooooooooooooooooooooooooo........                                    ",
"                            ....ooooOOOOOOOOOOOOoooooooooooooooooooooooooooooooooooooooooooo........                            ",
"                            ....ooooOOOOOOOOOOOOoooooooooooooooooooooooooooooooooooooooooooo........                            ",
"                            ....ooooOOOOOOOOOOOOoooooooooooooooooooooooooooooooooooooooooooo........                            ",
"                            ....ooooOOOOOOOOOOOOoooooooooooooooooooooooooooooooooooooooooooo........                            ",
"                        ....oooo++++++++OOOOOOOOOOOOOOOOOOOOoooooooooooo............oooooooooooooooo............                ",
"                        ....oooo++++++++OOOOOOOOOOOOOOOOOOOOoooooooooooo............oooooooooooooooo............                ",
"                        ....oooo++++++++OOOOOOOOOOOOOOOOOOOOoooooooooooo............oooooooooooooooo............                ",
"                        ....oooo++++++++OOOOOOOOOOOOOOOOOOOOoooooooooooo............oooooooooooooooo............                ",
"                        ....OOOO++++++++++++++++++++OOOOOOOOOOOOoooo....OOOOOOOO....oooooooooooo....OOOOOOOO....                ",
"                        ....OOOO++++++++++++++++++++OOOOOOOOOOOOoooo....OOOOOOOO....oooooooooooo....OOOOOOOO....                ",
"                        ....OOOO++++++++++++++++++++OOOOOOOOOOOOoooo....OOOOOOOO....oooooooooooo....OOOOOOOO....                ",
"                        ....OOOO++++++++++++++++++++OOOOOOOOOOOOoooo....OOOOOOOO....oooooooooooo....OOOOOOOO....                ",
"                        ....OOOO++++++++++++++++++++++++OOOOOOOO........@@@@++++XXXXOOOOooooOOOOXXXX++++@@@@....                ",
"                        ....OOOO++++++++++++++++++++++++OOOOOOOO........@@@@++++XXXXOOOOooooOOOOXXXX++++@@@@....                ",
"                        ....OOOO++++++++++++++++++++++++OOOOOOOO........@@@@++++XXXXOOOOooooOOOOXXXX++++@@@@....                ",
"                        ....OOOO++++++++++++++++++++++++OOOOOOOO........@@@@++++XXXXOOOOooooOOOOXXXX++++@@@@....                ",
"                    ........OOOO++++++++++++++++++++OOOO++++OOOO....OOOOOOOOOOOO++++OOOOOOOOOOOO++++OOOOoooo....                ",
"                    ........OOOO++++++++++++++++++++OOOO++++OOOO....OOOOOOOOOOOO++++OOOOOOOOOOOO++++OOOOoooo....                ",
"                    ........OOOO++++++++++++++++++++OOOO++++OOOO....OOOOOOOOOOOO++++OOOOOOOOOOOO++++OOOOoooo....                ",
"                    ........OOOO++++++++++++++++++++OOOO++++OOOO....OOOOOOOOOOOO++++OOOOOOOOOOOO++++OOOOoooo....                ",
"                ....XXXX....ooooOOOO++++++++++++OOOOOOOOOOOOOOOO....ooooOOOO++++++++++++OOOO++++++++++++OOOOXXXX....            ",
"                ....XXXX....ooooOOOO++++++++++++OOOOOOOOOOOOOOOO....ooooOOOO++++++++++++OOOO++++++++++++OOOOXXXX....            ",
"                ....XXXX....ooooOOOO++++++++++++OOOOOOOOOOOOOOOO....ooooOOOO++++++++++++OOOO++++++++++++OOOOXXXX....            ",
"                ....XXXX....ooooOOOO++++++++++++OOOOOOOOOOOOOOOO....ooooOOOO++++++++++++OOOO++++++++++++OOOOXXXX....            ",
"                ....XXXX....XXXXooooOOOO++++++++OOOOOOOOoooooooo....OOOO++++++++++++++++++++++++++++++++++++OOOO....            ",
"                ....XXXX....XXXXooooOOOO++++++++OOOOOOOOoooooooo....OOOO++++++++++++++++++++++++++++++++++++OOOO....            ",
"                ....XXXX....XXXXooooOOOO++++++++OOOOOOOOoooooooo....OOOO++++++++++++++++++++++++++++++++++++OOOO....            ",
"                ....XXXX....XXXXooooOOOO++++++++OOOOOOOOoooooooo....OOOO++++++++++++++++++++++++++++++++++++OOOO....            ",
"                ....OOOOXXXX........ooooOOOOOOOOOOOOOOOOOOOOoooo....OOOO++++OOOO@@@@++++++++++++@@@@OOOO++++OOOO....            ",
"                ....OOOOXXXX........ooooOOOOOOOOOOOOOOOOOOOOoooo....OOOO++++OOOO@@@@++++++++++++@@@@OOOO++++OOOO....            ",
"                ....OOOOXXXX........ooooOOOOOOOOOOOOOOOOOOOOoooo....OOOO++++OOOO@@@@++++++++++++@@@@OOOO++++OOOO....            ",
"                ....OOOOXXXX........ooooOOOOOOOOOOOOOOOOOOOOoooo....OOOO++++OOOO@@@@++++++++++++@@@@OOOO++++OOOO....            ",
"                ....@@@@++++OOOOOOOO....oooo@@@@@@@@@@@@OOOOoooo....XXXXOOOO........OOOO++++OOOO........OOOOXXXX....            ",
"                ....@@@@++++OOOOOOOO....oooo@@@@@@@@@@@@OOOOoooo....XXXXOOOO........OOOO++++OOOO........OOOOXXXX....            ",
"                ....@@@@++++OOOOOOOO....oooo@@@@@@@@@@@@OOOOoooo....XXXXOOOO........OOOO++++OOOO........OOOOXXXX....            ",
"                ....@@@@++++OOOOOOOO....oooo@@@@@@@@@@@@OOOOoooo....XXXXOOOO........OOOO++++OOOO........OOOOXXXX....            ",
"                    ....@@@@############............@@@@@@@@OOOOoooo....@@@@@@@@OOOOXXXX++++XXXXOOOO@@@@@@@@........            ",
"                    ....@@@@############............@@@@@@@@OOOOoooo....@@@@@@@@OOOOXXXX++++XXXXOOOO@@@@@@@@........            ",
"                    ....@@@@############............@@@@@@@@OOOOoooo....@@@@@@@@OOOOXXXX++++XXXXOOOO@@@@@@@@........            ",
"                    ....@@@@############............@@@@@@@@OOOOoooo....@@@@@@@@OOOOXXXX++++XXXXOOOO@@@@@@@@........            ",
"                        ................            ........OOOOooooOOOO....####@@@@OOOO++++OOOO@@@@####....oooo....            ",
"                        ................            ........OOOOooooOOOO....####@@@@OOOO++++OOOO@@@@####....oooo....            ",
"                        ................            ........OOOOooooOOOO....####@@@@OOOO++++OOOO@@@@####....oooo....            ",
"                        ................            ........OOOOooooOOOO....####@@@@OOOO++++OOOO@@@@####....oooo....            ",
"                                                            ........OOOOOOOO........XXXX....XXXX........XXXXXXXX....            ",
"                                                            ........OOOOOOOO........XXXX....XXXX........XXXXXXXX....            ",
"                                                            ........OOOOOOOO........XXXX....XXXX........XXXXXXXX....            ",
"                                                            ........OOOOOOOO........XXXX....XXXX........XXXXXXXX....            ",
"                                                                    ....OOOO++++++++............        ........                ",
"                                                                    ....OOOO++++++++............        ........                ",
"                                                                    ....OOOO++++++++............        ........                ",
"                                                                    ....OOOO++++++++............        ........                ",
"                                                                        ............                                            ",
"                                                                        ............                                            ",
"                                                                        ............                                            ",
"                                                                        ............                                            ",
"                                                                                                                                ",
"                                                                                                                                ",
"                                                                                                                                ",
"                                                                                                                                ",
"                                                                                                                                ",
"                                                                                                                                ",
"                                                                                                                                ",
"                                                                                                                                "
};
