/* XPM */
static char *_04a706f7b8d4b0cad725a21de951298zeXxQlGXPpDdxg8y[] = {
/* columns rows colors chars-per-pixel */
"128 128 9 1 ",
"  c None",
". c #524036",
"X c #9C5B26",
"o c #BB8049",
"O c #C7925E",
"+ c #D4A369",
"@ c #F19393",
"# c #E5D4C3",
"$ c #F0EBE6",
/* pixels */
"                                                                                                                                ",
"                                                                                                                                ",
"                                                                                                                                ",
"                                                                                                                                ",
"                                                                                                                                ",
"                                                                                                                                ",
"                                                                                                                                ",
"                                                                                                                                ",
"                                                                                                                                ",
"                                                                                                                                ",
"                                                                                                                                ",
"                                                                                                                                ",
"                                                                                                                                ",
"                                                                                                                                ",
"                                                                                                                                ",
"                                                                                                                                ",
"                                                                                                                                ",
"                                                                                                                                ",
"                                                                                                                                ",
"                                                                                                                                ",
"                                                                                                                                ",
"                                                                                                                                ",
"                                                                                                                                ",
"                                                                                                                                ",
"                                                    ....                    ....                                                ",
"                                                    ....                    ....                                                ",
"                                                    ....                    ....                                                ",
"                                                    ....                    ....                                                ",
"                                                ....++++....            ....++++....                                            ",
"                                                ....++++....            ....++++....                                            ",
"                                                ....++++....            ....++++....                                            ",
"                                                ....++++....            ....++++....                                            ",
"                                            ....OOOO++++++++............++++++++OOOO....                                        ",
"                                            ....OOOO++++++++............++++++++OOOO....                                        ",
"                                            ....OOOO++++++++............++++++++OOOO....                                        ",
"                                            ....OOOO++++++++............++++++++OOOO....                                        ",
"                                            ....oooo++++OOOOOOOOooooOOOOOOOO++++oooo....                                        ",
"                                            ....oooo++++OOOOOOOOooooOOOOOOOO++++oooo....                                        ",
"                                            ....oooo++++OOOOOOOOooooOOOOOOOO++++oooo....                                        ",
"                                            ....oooo++++OOOOOOOOooooOOOOOOOO++++oooo....                                        ",
"                                            ....OOOO++++++++OOOOooooOOOO++++++++OOOO....                                        ",
"                                            ....OOOO++++++++OOOOooooOOOO++++++++OOOO....                                        ",
"                                            ....OOOO++++++++OOOOooooOOOO++++++++OOOO....                                        ",
"                                            ....OOOO++++++++OOOOooooOOOO++++++++OOOO....                                        ",
"                                        ....OOOO++++++++++++++++OOOO++++++++++++++++OOOO....                                    ",
"                                        ....OOOO++++++++++++++++OOOO++++++++++++++++OOOO....                                    ",
"                                        ....OOOO++++++++++++++++OOOO++++++++++++++++OOOO....                                    ",
"                                        ....OOOO++++++++++++++++OOOO++++++++++++++++OOOO....                                    ",
"                                        ....OOOO++++++++++++++++OOOO++++++++++++++++OOOO....                                    ",
"                                        ....OOOO++++++++++++++++OOOO++++++++++++++++OOOO....                                    ",
"                                        ....OOOO++++++++++++++++OOOO++++++++++++++++OOOO....                                    ",
"                                        ....OOOO++++++++++++++++OOOO++++++++++++++++OOOO....                                    ",
"                                        ....ooooOOOO++++++++++++OOOO++++++++++++OOOOoooo....                                    ",
"                                        ....ooooOOOO++++++++++++OOOO++++++++++++OOOOoooo....                                    ",
"                                        ....ooooOOOO++++++++++++OOOO++++++++++++OOOOoooo....                                    ",
"                                        ....ooooOOOO++++++++++++OOOO++++++++++++OOOOoooo....                                    ",
"                                        ....ooooOOOOOOOO++++OOOOooooOOOO++++OOOOOOOOoooo....                                    ",
"                                        ....ooooOOOOOOOO++++OOOOooooOOOO++++OOOOOOOOoooo....                                    ",
"                                        ....ooooOOOOOOOO++++OOOOooooOOOO++++OOOOOOOOoooo....                                    ",
"                                        ....ooooOOOOOOOO++++OOOOooooOOOO++++OOOOOOOOoooo....                                    ",
"                                            ....XXXXOOOOooooooooooooooooooooOOOOXXXX....                                        ",
"                                            ....XXXXOOOOooooooooooooooooooooOOOOXXXX....                                        ",
"                                            ....XXXXOOOOooooooooooooooooooooOOOOXXXX....                                        ",
"                                            ....XXXXOOOOooooooooooooooooooooOOOOXXXX....                                        ",
"                                            ....OOOO++++++++OOOOooooOOOO++++++++OOOO....                                        ",
"                                            ....OOOO++++++++OOOOooooOOOO++++++++OOOO....                                        ",
"                                            ....OOOO++++++++OOOOooooOOOO++++++++OOOO....                                        ",
"                                            ....OOOO++++++++OOOOooooOOOO++++++++OOOO....                                        ",
"                                            ....oooooooo++++++++OOOO++++++++OOOOOOOO....                                        ",
"                                            ....oooooooo++++++++OOOO++++++++OOOOOOOO....                                        ",
"                                            ....oooooooo++++++++OOOO++++++++OOOOOOOO....                                        ",
"                                            ....oooooooo++++++++OOOO++++++++OOOOOOOO....                                        ",
"                                            ....OOOO++++++++............++++++++++++....                                        ",
"                                            ....OOOO++++++++............++++++++++++....                                        ",
"                                            ....OOOO++++++++............++++++++++++....                                        ",
"                                            ....OOOO++++++++............++++++++++++....                                        ",
"                                            ....++++++++....####$$$$####....++++OOOO....                                        ",
"                                            ....++++++++....####$$$$####....++++OOOO....                                        ",
"                                            ....++++++++....####$$$$####....++++OOOO....                                        ",
"                                            ....++++++++....####$$$$####....++++OOOO....                                        ",
"                                            ....++++++++....####$$$$####....++++++++....                                        ",
"                                            ....++++++++....####$$$$####....++++++++....                                        ",
"                                            ....++++++++....####$$$$####....++++++++....                                        ",
"                                            ....++++++++....####$$$$####....++++++++....                                        ",
"                                            ....++++++++....####$$$$####....++++++++....                                        ",
"                                            ....++++++++....####$$$$####....++++++++....                                        ",
"                                            ....++++++++....####$$$$####....++++++++....                                        ",
"                                            ....++++++++....####$$$$####....++++++++....                                        ",
"                                            ....++++####....####$$$$####....####++++....                                        ",
"                                            ....++++####....####$$$$####....####++++....                                        ",
"                                            ....++++####....####$$$$####....####++++....                                        ",
"                                            ....++++####....####$$$$####....####++++....                                        ",
"                                            ....oooo####....++++####++++....####++++....                                        ",
"                                            ....oooo####....++++####++++....####++++....                                        ",
"                                            ....oooo####....++++####++++....####++++....                                        ",
"                                            ....oooo####....++++####++++....####++++....                                        ",
"                                            ....oooo####....ooooOOOOoooo....####OOOO....                                        ",
"                                            ....oooo####....ooooOOOOoooo....####OOOO....                                        ",
"                                            ....oooo####....ooooOOOOoooo....####OOOO....                                        ",
"                                            ....oooo####....ooooOOOOoooo....####OOOO....                                        ",
"                                                ....oooooooo....oooo....$$$$####OOOO....                                        ",
"                                                ....oooooooo....oooo....$$$$####OOOO....                                        ",
"                                                ....oooooooo....oooo....$$$$####OOOO....                                        ",
"                                                ....oooooooo....oooo....$$$$####OOOO....                                        ",
"                                                ....########............####++++XXXX....                                        ",
"                                                ....########............####++++XXXX....                                        ",
"                                                ....########............####++++XXXX....                                        ",
"                                                ....########............####++++XXXX....                                        ",
"                                                    ........        ....########++++....                                        ",
"                                                    ........        ....########++++....                                        ",
"                                                    ........        ....########++++....                                        ",
"                                                    ........        ....########++++....                                        ",
"                                                                    ....++++@@@@####....                                        ",
"                                                                    ....++++@@@@####....                                        ",
"                                                                    ....++++@@@@####....                                        ",
"                                                                    ....++++@@@@####....                                        ",
"                                                                        ............                                            ",
"                                                                        ............                                            ",
"                                                                        ............                                            ",
"                                                                        ............                                            ",
"                                                                                                                                ",
"                                                                                                                                ",
"                                                                                                                                ",
"                                                                                                                                ",
"                                                                                                                                ",
"                                                                                                                                ",
"                                                                                                                                ",
"                                                                                                                                "
};
