/* XPM */
static char *result[] = {
/* columns rows colors chars-per-pixel */
"128 128 16 1 ",
"  c #37241C",
". c #493025",
"X c #543025",
"o c #60362B",
"O c #6B3E30",
"+ c #7C4737",
"@ c #B45F1F",
"# c #DA7326",
"$ c #DE8543",
"% c #FFAE4A",
"& c #FFC279",
"* c #FFC57D",
"= c #FFD29B",
"- c #F2F1DB",
"; c #FFFFEA",
": c None",
/* pixels */
"::::::::::::::::::::::::::::::::::::::::::::::::::::::::::::::::::::::::::::::::::::::::::::::::::::::::::::::::::::::::::::::::",
"::::::::::::::::::::::::::::::::::::::::::::::::::::::::::::::::::::::::::::::::::::::::::::::::::::::::::::::::::::::::::::::::",
"::::::::::::::::::::::::::::::::::::::::::::::::::::::::::::::::::::::::::::::::::::::::::::::::::::::::::::::::::::::::::::::::",
"::::::::::::::::::::::::::::::::::::::::::::::::::::::::::::::::::::::::::::::::::::::::::::::::::::::::::::::::::::::::::::::::",
"::::::::::::::::::::::::::::::::::::::::::::::::::::::::::::::::::::::::::::::::::::::::::::::::::::::::::::::::::::::::::::::::",
"::::::::::::::::::::::::::::::::::::::::::::::::::::::::::::::::::::::::::::::::::::::::::::::::::::::::::::::::::::::::::::::::",
"::::::::::::::::::::::::::::::::::::::::::::::::::::::::::::::::::::::::::::::::::::::::::::::::::::::::::::::::::::::::::::::::",
"::::::::::::::::::::::::::::::::::::::::::::::::::::::::::::::::::::::::::::::::::::::::::::::::::::::::::::::::::::::::::::::::",
"::::::::::::::::::::::::::::::::::::::::::::::::::::::::::::::::::::::::::::::::::::::::::::::::::::::::::::::::::::::::::::::::",
"::::::::::::::::::::::::::::::::::::::::::::::::::::::::::::::::::::::::::::::::::::::::::::::::::::::::::::::::::::::::::::::::",
"::::::::::::::::::::::::::::::::::::::::::::::::::::::::::::::::::::::::::::::::::::::::::::::::::::::::::::::::::::::::::::::::",
"::::::::::::::::::::::::::::::::::::::::::::::::::::::::::::::::::::::::::::::::::::::::::::::::::::::::::::::::::::::::::::::::",
"::::::::::::::::::::::::::::::::::::::::::::::::::::::::::::::::::::::::::::::::::::::::::::::::::::::::::::::::::::::::::::::::",
"::::::::::::::::::::::::::::::::::::::::::::::::::::::::::::::::::::::::::::::::::::::::::::::::::::::::::::::::::::::::::::::::",
"::::::::::::::::::::::::::::::::::::::::::::::::::::::::::::::::::::::::::::::::::::::::::::::::::::::::::::::::::::::::::::::::",
"::::::::::::::::::::::::::::::::::::::::::::::::::::::::::::::::::::::::::::::::::::::::::::::::::::::::::::::::::::::::::::::::",
"::::::::::::::::::::::::::::::::::::::::::::::::::::::::################::::::::::::::::::::::::::::::::::::::::::::::::::::::::",
"::::::::::::::::::::::::::::::::::::::::::::::::::::::::################::::::::::::::::::::::::::::::::::::::::::::::::::::::::",
"::::::::::::::::::::::::::::::::::::::::::::::::::::::::################::::::::::::::::::::::::::::::::::::::::::::::::::::::::",
"::::::::::::::::::::::::::::::::::::::::::::::::::::::::################::::::::::::::::::::::::::::::::::::::::::::::::::::::::",
"::::::::::::::::::::::::::::::::::::::::::::::::################$$$$############::::::::::::::::::::::::::::::::::::::::::::::::",
"::::::::::::::::::::::::::::::::::::::::::::::::################$$$$############::::::::::::::::::::::::::::::::::::::::::::::::",
"::::::::::::::::::::::::::::::::::::::::::::::::################$$$$############::::::::::::::::::::::::::::::::::::::::::::::::",
"::::::::::::::::::::::::::::::::::::::::::::::::################$$$$############::::::::::::::::::::::::::::::::::::::::::::::::",
"::::::::::::::::::::::::::::::::::::::::::::########$$$$####$$$$$$$$$$$$$$$$########::::::::::::::::::::::::::::::::::::::::::::",
"::::::::::::::::::::::::::::::::::::::::::::########$$$$####$$$$$$$$$$$$$$$$########::::::::::::::::::::::::::::::::::::::::::::",
"::::::::::::::::::::::::::::::::::::::::::::########$$$$####$$$$$$$$$$$$$$$$########::::::::::::::::::::::::::::::::::::::::::::",
"::::::::::::::::::::::::::::::::::::::::::::########$$$$####$$$$$$$$$$$$$$$$########::::::::::::::::::::::::::::::::::::::::::::",
"::::::::::::::::::::::::::::::::::::::::########$$$$$$$$####$$$$$$$$$$$$$$$$$$$$########::::::::::::::::::::::::::::::::::::::::",
"::::::::::::::::::::::::::::::::::::::::########$$$$$$$$####$$$$$$$$$$$$$$$$$$$$########::::::::::::::::::::::::::::::::::::::::",
"::::::::::::::::::::::::::::::::::::::::########$$$$$$$$####$$$$$$$$$$$$$$$$$$$$########::::::::::::::::::::::::::::::::::::::::",
"::::::::::::::::::::::::::::::::::::::::########$$$$$$$$####$$$$$$$$$$$$$$$$$$$$########::::::::::::::::::::::::::::::::::::::::",
"::::::::::::::::::::::::::::::::::::::::########$$$$############$$$$$$$$####$$$$$$$$####::::::::::::::::::::::::::::::::::::::::",
"::::::::::::::::::::::::::::::::::::::::########$$$$############$$$$$$$$####$$$$$$$$####::::::::::::::::::::::::::::::::::::::::",
"::::::::::::::::::::::::::::::::::::::::########$$$$############$$$$$$$$####$$$$$$$$####::::::::::::::::::::::::::::::::::::::::",
"::::::::::::::::::::::::::::::::::::::::########$$$$############$$$$$$$$####$$$$$$$$####::::::::::::::::::::::::::::::::::::::::",
"::::::::::::::::::::::::::::::::::::::::@@@@####$$$$####@@@@########$$$$########$$$$@@@@::::::::::::::::::::::::::::::::::::::::",
"::::::::::::::::::::::::::::::::::::::::@@@@####$$$$####@@@@########$$$$########$$$$@@@@::::::::::::::::::::::::::::::::::::::::",
"::::::::::::::::::::::::::::::::::::::::@@@@####$$$$####@@@@########$$$$########$$$$@@@@::::::::::::::::::::::::::::::::::::::::",
"::::::::::::::::::::::::::::::::::::::::@@@@####$$$$####@@@@########$$$$########$$$$@@@@::::::::::::::::::::::::::::::::::::::::",
"::::::::::::::::::::::::::::::::::::::::@@@@@@@@####@@@@@@@@@@@@############@@@@####@@@@::::::::::::::::::::::::::::::::::::::::",
"::::::::::::::::::::::::::::::::::::::::@@@@@@@@####@@@@@@@@@@@@############@@@@####@@@@::::::::::::::::::::::::::::::::::::::::",
"::::::::::::::::::::::::::::::::::::::::@@@@@@@@####@@@@@@@@@@@@############@@@@####@@@@::::::::::::::::::::::::::::::::::::::::",
"::::::::::::::::::::::::::::::::::::::::@@@@@@@@####@@@@@@@@@@@@############@@@@####@@@@::::::::::::::::::::::::::::::::::::::::",
"::::::::::::::::::::::::::::::::::::::::::::@@@@@@@@@@@@@@@@@@@@@@@@####@@@@@@@@@@@@::::::::::::::::::::::::::::::::::::::::::::",
"::::::::::::::::::::::::::::::::::::::::::::@@@@@@@@@@@@@@@@@@@@@@@@####@@@@@@@@@@@@::::::::::::::::::::::::::::::::::::::::::::",
"::::::::::::::::::::::::::::::::::::::::::::@@@@@@@@@@@@@@@@@@@@@@@@####@@@@@@@@@@@@::::::::::::::::::::::::::::::::::::::::::::",
"::::::::::::::::::::::::::::::::::::::::::::@@@@@@@@@@@@@@@@@@@@@@@@####@@@@@@@@@@@@::::::::::::::::::::::::::::::::::::::::::::",
"::::::::::::::::::::::::::::::::::::::::::::@@@@@@@@@@@@@@@@@@@@@@@@@@@@@@@@@@@@@@@@::::::::::::::::::::::::::::::::::::::::::::",
"::::::::::::::::::::::::::::::::::::::::::::@@@@@@@@@@@@@@@@@@@@@@@@@@@@@@@@@@@@@@@@::::::::::::::::::::::::::::::::::::::::::::",
"::::::::::::::::::::::::::::::::::::::::::::@@@@@@@@@@@@@@@@@@@@@@@@@@@@@@@@@@@@@@@@::::::::::::::::::::::::::::::::::::::::::::",
"::::::::::::::::::::::::::::::::::::::::::::@@@@@@@@@@@@@@@@@@@@@@@@@@@@@@@@@@@@@@@@::::::::::::::::::::::::::::::::::::::::::::",
"::::::::::::::::::::::::::::::::::::::::&&&&&&&&@@@@@@@@@@@@@@@@@@@@@@@@@@@@@@@@@@@@&&&&::::::::::::::::::::::::::::::::::::::::",
"::::::::::::::::::::::::::::::::::::::::&&&&&&&&@@@@@@@@@@@@@@@@@@@@@@@@@@@@@@@@@@@@&&&&::::::::::::::::::::::::::::::::::::::::",
"::::::::::::::::::::::::::::::::::::::::&&&&&&&&@@@@@@@@@@@@@@@@@@@@@@@@@@@@@@@@@@@@&&&&::::::::::::::::::::::::::::::::::::::::",
"::::::::::::::::::::::::::::::::::::::::&&&&&&&&@@@@@@@@@@@@@@@@@@@@@@@@@@@@@@@@@@@@&&&&::::::::::::::::::::::::::::::::::::::::",
"::::::::::::::::::::::::::::::::::::::::::::&&&&@@@@@@@@@@@@@@@@@@@@@@@@@@@@@@@@&&&&::::::::::::::::::::::::::::::::::::::::::::",
"::::::::::::::::::::::::::::::::::::::::::::&&&&@@@@@@@@@@@@@@@@@@@@@@@@@@@@@@@@&&&&::::::::::::::::::::::::::::::::::::::::::::",
"::::::::::::::::::::::::::::::::::::::::::::&&&&@@@@@@@@@@@@@@@@@@@@@@@@@@@@@@@@&&&&::::::::::::::::::::::::::::::::::::::::::::",
"::::::::::::::::::::::::::::::::::::::::::::&&&&@@@@@@@@@@@@@@@@@@@@@@@@@@@@@@@@&&&&::::::::::::::::::::::::::::::::::::::::::::",
"::::::::::::::::::::::::::::::::::::::::::::::::::::&&&&@@@@@@@@@@@@@@@@&&&&::::::::::::::::::::::::::::::::::::::::::::::::::::",
"::::::::::::::::::::::::::::::::::::::::::::::::::::&&&&@@@@@@@@@@@@@@@@&&&&::::::::::::::::::::::::::::::::::::::::::::::::::::",
"::::::::::::::::::::::::::::::::::::::::::::::::::::&&&&@@@@@@@@@@@@@@@@&&&&::::::::::::::::::::::::::::::::::::::::::::::::::::",
"::::::::::::::::::::::::::::::::::::::::::::::::::::&&&&@@@@@@@@@@@@@@@@&&&&::::::::::::::::::::::::::::::::::::::::::::::::::::",
"::::::::::::::::::::::::::::::::::::::::::::::::::::::::::::&&&&&&&&::::::::::::::::::::::::::::::::::::::::::::::::::::::::::::",
"::::::::::::::::::::::::::::::::::::::::::::::::::::::::::::&&&&&&&&::::::::::::::::::::::::::::::::::::::::::::::::::::::::::::",
"::::::::::::::::::::::::::::::::::::::::::::::::::::::::::::&&&&&&&&::::::::::::::::::::::::::::::::::::::::::::::::::::::::::::",
"::::::::::::::::::::::::::::::::::::::::::::::::::::::::::::&&&&&&&&::::::::::::::::::::::::::::::::::::::::::::::::::::::::::::",
"::::::::::::::::::::::::::::::::::::::::::::::::::::--------------------::::::::::::::::::::::::::::::::::::::::::::::::::::::::",
"::::::::::::::::::::::::::::::::::::::::::::::::::::--------------------::::::::::::::::::::::::::::::::::::::::::::::::::::::::",
"::::::::::::::::::::::::::::::::::::::::::::::::::::--------------------::::::::::::::::::::::::::::::::::::::::::::::::::::::::",
"::::::::::::::::::::::::::::::::::::::::::::::::::::--------------------::::::::::::::::::::::::::::::::::::::::::::::::::::::::",
"::::::::::::::::::::::::::::::::::::::::::::::::--------;;;;;;;;;;;;;;;;----::::::::::::::::::::::::::::::::::::::::::::::::::::",
"::::::::::::::::::::::::::::::::::::::::::::::::--------;;;;;;;;;;;;;;;;----::::::::::::::::::::::::::::::::::::::::::::::::::::",
"::::::::::::::::::::::::::::::::::::::::::::::::--------;;;;;;;;;;;;;;;;----::::::::::::::::::::::::::::::::::::::::::::::::::::",
"::::::::::::::::::::::::::::::::::::::::::::::::--------;;;;;;;;;;;;;;;;----::::::::::::::::::::::::::::::::::::::::::::::::::::",
"::::::::::::::::::::::::::::::::::::::::::::::::----;;;;;;;;;;;;;;;;;;;;----::::::::::::::::::::::::::::::::::::::::::::::::::::",
"::::::::::::::::::::::::::::::::::::::::::::::::----;;;;;;;;;;;;;;;;;;;;----::::::::::::::::::::::::::::::::::::::::::::::::::::",
"::::::::::::::::::::::::::::::::::::::::::::::::----;;;;;;;;;;;;;;;;;;;;----::::::::::::::::::::::::::::::::::::::::::::::::::::",
"::::::::::::::::::::::::::::::::::::::::::::::::----;;;;;;;;;;;;;;;;;;;;----::::::::::::::::::::::::::::::::::::::::::::::::::::",
"::::::::::::::::::::::::::::::::::::::::::::----;;;;----;;;;;;;;;;;;;;;;--------::::::::::::::::::::::::::::::::::::::::::::::::",
"::::::::::::::::::::::::::::::::::::::::::::----;;;;----;;;;;;;;;;;;;;;;--------::::::::::::::::::::::::::::::::::::::::::::::::",
"::::::::::::::::::::::::::::::::::::::::::::----;;;;----;;;;;;;;;;;;;;;;--------::::::::::::::::::::::::::::::::::::::::::::::::",
"::::::::::::::::::::::::::::::::::::::::::::----;;;;----;;;;;;;;;;;;;;;;--------::::::::::::::::::::::::::::::::::::::::::::::::",
"::::::::::::::::::::::::::::::::::::::::::::====--------;;;;--------;;;;----&&&&::::::::::::::::::::::::::::::::::::::::::::::::",
"::::::::::::::::::::::::::::::::::::::::::::====--------;;;;--------;;;;----&&&&::::::::::::::::::::::::::::::::::::::::::::::::",
"::::::::::::::::::::::::::::::::::::::::::::====--------;;;;--------;;;;----&&&&::::::::::::::::::::::::::::::::::::::::::::::::",
"::::::::::::::::::::::::::::::::::::::::::::====--------;;;;--------;;;;----&&&&::::::::::::::::::::::::::::::::::::::::::::::::",
"::::::::::::::::::::::::::::::::::::::::::::&&&&====OOOOOOOOOOOOOOOOOOOOOOOO====&&&&::::::::::::::::::::::::::::::::::::::::::::",
"::::::::::::::::::::::::::::::::::::::::::::&&&&====OOOOOOOOOOOOOOOOOOOOOOOO====&&&&::::::::::::::::::::::::::::::::::::::::::::",
"::::::::::::::::::::::::::::::::::::::::::::&&&&====OOOOOOOOOOOOOOOOOOOOOOOO====&&&&::::::::::::::::::::::::::::::::::::::::::::",
"::::::::::::::::::::::::::::::::::::::::::::&&&&====OOOOOOOOOOOOOOOOOOOOOOOO====&&&&::::::::::::::::::::::::::::::::::::::::::::",
"::::::::::::::::::::::::::::::::::::::::::::&&&&&&&&........................OOOO&&&&::::::::::::::::::::::::::::::::::::::::::::",
"::::::::::::::::::::::::::::::::::::::::::::&&&&&&&&........................OOOO&&&&::::::::::::::::::::::::::::::::::::::::::::",
"::::::::::::::::::::::::::::::::::::::::::::&&&&&&&&........................OOOO&&&&::::::::::::::::::::::::::::::::::::::::::::",
"::::::::::::::::::::::::::::::::::::::::::::&&&&&&&&........................OOOO&&&&::::::::::::::::::::::::::::::::::::::::::::",
"::::::::::::::::::::::::::::::::::::::::::::&&&&OOOOOOOO++++OOOOOOOO++++++++OOOO::::::::::::::::::::::::::::::::::::::::::::::::",
"::::::::::::::::::::::::::::::::::::::::::::&&&&OOOOOOOO++++OOOOOOOO++++++++OOOO::::::::::::::::::::::::::::::::::::::::::::::::",
"::::::::::::::::::::::::::::::::::::::::::::&&&&OOOOOOOO++++OOOOOOOO++++++++OOOO::::::::::::::::::::::::::::::::::::::::::::::::",
"::::::::::::::::::::::::::::::::::::::::::::&&&&OOOOOOOO++++OOOOOOOO++++++++OOOO::::::::::::::::::::::::::::::::::::::::::::::::",
"::::::::::::::::::::::::::::::::::::::::::::::::XXXXXXXXooooXXXXOOOOOOOO++++OOOO::::::::::::::::::::::::::::::::::::::::::::::::",
"::::::::::::::::::::::::::::::::::::::::::::::::XXXXXXXXooooXXXXOOOOOOOO++++OOOO::::::::::::::::::::::::::::::::::::::::::::::::",
"::::::::::::::::::::::::::::::::::::::::::::::::XXXXXXXXooooXXXXOOOOOOOO++++OOOO::::::::::::::::::::::::::::::::::::::::::::::::",
"::::::::::::::::::::::::::::::::::::::::::::::::XXXXXXXXooooXXXXOOOOOOOO++++OOOO::::::::::::::::::::::::::::::::::::::::::::::::",
"::::::::::::::::::::::::::::::::::::::::::::::::XXXXXXXXooooXXXX::::OOOOOOOOOOOO::::::::::::::::::::::::::::::::::::::::::::::::",
"::::::::::::::::::::::::::::::::::::::::::::::::XXXXXXXXooooXXXX::::OOOOOOOOOOOO::::::::::::::::::::::::::::::::::::::::::::::::",
"::::::::::::::::::::::::::::::::::::::::::::::::XXXXXXXXooooXXXX::::OOOOOOOOOOOO::::::::::::::::::::::::::::::::::::::::::::::::",
"::::::::::::::::::::::::::::::::::::::::::::::::XXXXXXXXooooXXXX::::OOOOOOOOOOOO::::::::::::::::::::::::::::::::::::::::::::::::",
"::::::::::::::::::::::::::::::::::::::::::::::::::::XXXXXXXX::::::::OOOOOOOO::::::::::::::::::::::::::::::::::::::::::::::::::::",
"::::::::::::::::::::::::::::::::::::::::::::::::::::XXXXXXXX::::::::OOOOOOOO::::::::::::::::::::::::::::::::::::::::::::::::::::",
"::::::::::::::::::::::::::::::::::::::::::::::::::::XXXXXXXX::::::::OOOOOOOO::::::::::::::::::::::::::::::::::::::::::::::::::::",
"::::::::::::::::::::::::::::::::::::::::::::::::::::XXXXXXXX::::::::OOOOOOOO::::::::::::::::::::::::::::::::::::::::::::::::::::",
"::::::::::::::::::::::::::::::::::::::::::::::::::::%%%%****::::::::&&&&&&&&::::::::::::::::::::::::::::::::::::::::::::::::::::",
"::::::::::::::::::::::::::::::::::::::::::::::::::::%%%%****::::::::&&&&&&&&::::::::::::::::::::::::::::::::::::::::::::::::::::",
"::::::::::::::::::::::::::::::::::::::::::::::::::::%%%%****::::::::&&&&&&&&::::::::::::::::::::::::::::::::::::::::::::::::::::",
"::::::::::::::::::::::::::::::::::::::::::::::::::::%%%%****::::::::&&&&&&&&::::::::::::::::::::::::::::::::::::::::::::::::::::",
"::::::::::::::::::::::::::::::::::::::::::::::::::::        ::::::::........::::::::::::::::::::::::::::::::::::::::::::::::::::",
"::::::::::::::::::::::::::::::::::::::::::::::::::::        ::::::::........::::::::::::::::::::::::::::::::::::::::::::::::::::",
"::::::::::::::::::::::::::::::::::::::::::::::::::::        ::::::::........::::::::::::::::::::::::::::::::::::::::::::::::::::",
"::::::::::::::::::::::::::::::::::::::::::::::::::::        ::::::::........::::::::::::::::::::::::::::::::::::::::::::::::::::",
"::::::::::::::::::::::::::::::::::::::::::::::::::::        ::::::::........::::::::::::::::::::::::::::::::::::::::::::::::::::",
"::::::::::::::::::::::::::::::::::::::::::::::::::::        ::::::::........::::::::::::::::::::::::::::::::::::::::::::::::::::",
"::::::::::::::::::::::::::::::::::::::::::::::::::::        ::::::::........::::::::::::::::::::::::::::::::::::::::::::::::::::",
"::::::::::::::::::::::::::::::::::::::::::::::::::::        ::::::::........::::::::::::::::::::::::::::::::::::::::::::::::::::",
"::::::::::::::::::::::::::::::::::::::::::::::::::::::::::::::::::::........::::::::::::::::::::::::::::::::::::::::::::::::::::",
"::::::::::::::::::::::::::::::::::::::::::::::::::::::::::::::::::::........::::::::::::::::::::::::::::::::::::::::::::::::::::",
"::::::::::::::::::::::::::::::::::::::::::::::::::::::::::::::::::::........::::::::::::::::::::::::::::::::::::::::::::::::::::",
"::::::::::::::::::::::::::::::::::::::::::::::::::::::::::::::::::::........::::::::::::::::::::::::::::::::::::::::::::::::::::"
};
