/* XPM */
static char *result[] = {
/* columns rows colors chars-per-pixel */
"128 128 14 1 ",
"  c black",
". c #493025",
"X c #6B3E30",
"o c #7C4737",
"O c #B45F1F",
"+ c #DA7326",
"@ c #DE8543",
"# c #FFC279",
"$ c #FFB08A",
"% c #FFBC9B",
"& c #FFD29B",
"* c #F2F1DB",
"= c #FFFFEA",
"- c None",
/* pixels */
"--------------------------------------------------------------------------------------------------------------------------------",
"--------------------------------------------------------------------------------------------------------------------------------",
"--------------------------------------------------------------------------------------------------------------------------------",
"--------------------------------------------------------------------------------------------------------------------------------",
"--------------------------------------------------------------------------------------------------------------------------------",
"--------------------------------------------------------------------------------------------------------------------------------",
"--------------------------------------------------------------------------------------------------------------------------------",
"--------------------------------------------------------------------------------------------------------------------------------",
"--------------------------------------------------------------------------------------------------------------------------------",
"--------------------------------------------------------------------------------------------------------------------------------",
"--------------------------------------------------------------------------------------------------------------------------------",
"--------------------------------------------------------------------------------------------------------------------------------",
"----------------------------------------------------++++++++++++----------------------------------------------------------------",
"----------------------------------------------------++++++++++++----------------------------------------------------------------",
"----------------------------------------------------++++++++++++----------------------------------------------------------------",
"----------------------------------------------------++++++++++++----------------------------------------------------------------",
"--------------------------------------------++++++++++++@@@@++++++++++++++++----------------------------------------------------",
"--------------------------------------------++++++++++++@@@@++++++++++++++++----------------------------------------------------",
"--------------------------------------------++++++++++++@@@@++++++++++++++++----------------------------------------------------",
"--------------------------------------------++++++++++++@@@@++++++++++++++++----------------------------------------------------",
"----------------------------------------++++++++@@@@@@@@++++@@@@++++@@@@++++++++------------------------------------------------",
"----------------------------------------++++++++@@@@@@@@++++@@@@++++@@@@++++++++------------------------------------------------",
"----------------------------------------++++++++@@@@@@@@++++@@@@++++@@@@++++++++------------------------------------------------",
"----------------------------------------++++++++@@@@@@@@++++@@@@++++@@@@++++++++------------------------------------------------",
"----------------------------------------++++@@@@@@@@++++@@@@@@@@++++@@@@@@@@++++++++--------------------------------------------",
"----------------------------------------++++@@@@@@@@++++@@@@@@@@++++@@@@@@@@++++++++--------------------------------------------",
"----------------------------------------++++@@@@@@@@++++@@@@@@@@++++@@@@@@@@++++++++--------------------------------------------",
"----------------------------------------++++@@@@@@@@++++@@@@@@@@++++@@@@@@@@++++++++--------------------------------------------",
"------------------------------------++++@@@@@@@@++++OOOO++++@@@@++++++++++++@@@@++++--------------------------------------------",
"------------------------------------++++@@@@@@@@++++OOOO++++@@@@++++++++++++@@@@++++--------------------------------------------",
"------------------------------------++++@@@@@@@@++++OOOO++++@@@@++++++++++++@@@@++++--------------------------------------------",
"------------------------------------++++@@@@@@@@++++OOOO++++@@@@++++++++++++@@@@++++--------------------------------------------",
"------------------------------------OOOO@@@@++++OOOO####OOOO++++OOOO####OOOO++++OOOO--------------------------------------------",
"------------------------------------OOOO@@@@++++OOOO####OOOO++++OOOO####OOOO++++OOOO--------------------------------------------",
"------------------------------------OOOO@@@@++++OOOO####OOOO++++OOOO####OOOO++++OOOO--------------------------------------------",
"------------------------------------OOOO@@@@++++OOOO####OOOO++++OOOO####OOOO++++OOOO--------------------------------------------",
"------------------------------------OOOO++++OOOO####&&&&####OOOO####&&&&####OOOOOOOO--------------------------------------------",
"------------------------------------OOOO++++OOOO####&&&&####OOOO####&&&&####OOOOOOOO--------------------------------------------",
"------------------------------------OOOO++++OOOO####&&&&####OOOO####&&&&####OOOOOOOO--------------------------------------------",
"------------------------------------OOOO++++OOOO####&&&&####OOOO####&&&&####OOOOOOOO--------------------------------------------",
"----------------------------------------OOOO####&&&&&&&&&&&&####&&&&&&&&&&&&OOOO------------------------------------------------",
"----------------------------------------OOOO####&&&&&&&&&&&&####&&&&&&&&&&&&OOOO------------------------------------------------",
"----------------------------------------OOOO####&&&&&&&&&&&&####&&&&&&&&&&&&OOOO------------------------------------------------",
"----------------------------------------OOOO####&&&&&&&&&&&&####&&&&&&&&&&&&OOOO------------------------------------------------",
"----------------------------------------####&&&&    &&&&&&&&&&&&&&&&    &&&&####------------------------------------------------",
"----------------------------------------####&&&&    &&&&&&&&&&&&&&&&    &&&&####------------------------------------------------",
"----------------------------------------####&&&&    &&&&&&&&&&&&&&&&    &&&&####------------------------------------------------",
"----------------------------------------####&&&&    &&&&&&&&&&&&&&&&    &&&&####------------------------------------------------",
"------------------------------------########&&&&    &&&&&&&&&&&&&&&&    &&&&########--------------------------------------------",
"------------------------------------########&&&&    &&&&&&&&&&&&&&&&    &&&&########--------------------------------------------",
"------------------------------------########&&&&    &&&&&&&&&&&&&&&&    &&&&########--------------------------------------------",
"------------------------------------########&&&&    &&&&&&&&&&&&&&&&    &&&&########--------------------------------------------",
"----------------------------------------####$$$$%%%%&&&&&&&&&&&&&&&&%%%%$$$$####------------------------------------------------",
"----------------------------------------####$$$$%%%%&&&&&&&&&&&&&&&&%%%%$$$$####------------------------------------------------",
"----------------------------------------####$$$$%%%%&&&&&&&&&&&&&&&&%%%%$$$$####------------------------------------------------",
"----------------------------------------####$$$$%%%%&&&&&&&&&&&&&&&&%%%%$$$$####------------------------------------------------",
"------------------------------------------------########&&&&&&&&########--------------------------------------------------------",
"------------------------------------------------########&&&&&&&&########--------------------------------------------------------",
"------------------------------------------------########&&&&&&&&########--------------------------------------------------------",
"------------------------------------------------########&&&&&&&&########--------------------------------------------------------",
"--------------------------------------------------------########----------------------------------------------------------------",
"--------------------------------------------------------########----------------------------------------------------------------",
"--------------------------------------------------------########----------------------------------------------------------------",
"--------------------------------------------------------########----------------------------------------------------------------",
"------------------------------------------------************************--------------------------------------------------------",
"------------------------------------------------************************--------------------------------------------------------",
"------------------------------------------------************************--------------------------------------------------------",
"------------------------------------------------************************--------------------------------------------------------",
"--------------------------------------------********========....====********----------------------------------------------------",
"--------------------------------------------********========....====********----------------------------------------------------",
"--------------------------------------------********========....====********----------------------------------------------------",
"--------------------------------------------********========....====********----------------------------------------------------",
"--------------------------------------------****============****========****----------------------------------------------------",
"--------------------------------------------****============****========****----------------------------------------------------",
"--------------------------------------------****============****========****----------------------------------------------------",
"--------------------------------------------****============****========****----------------------------------------------------",
"----------------------------------------****====****========....====****====****------------------------------------------------",
"----------------------------------------****====****========....====****====****------------------------------------------------",
"----------------------------------------****====****========....====****====****------------------------------------------------",
"----------------------------------------****====****========....====****====****------------------------------------------------",
"----------------------------------------####&&&&****====********====****&&&&####------------------------------------------------",
"----------------------------------------####&&&&****====********====****&&&&####------------------------------------------------",
"----------------------------------------####&&&&****====********====****&&&&####------------------------------------------------",
"----------------------------------------####&&&&****====********====****&&&&####------------------------------------------------",
"------------------------------------####&&&&&&&&XXXXXXXXXXXXXXXXXXXXXXXX&&&&&&&&####--------------------------------------------",
"------------------------------------####&&&&&&&&XXXXXXXXXXXXXXXXXXXXXXXX&&&&&&&&####--------------------------------------------",
"------------------------------------####&&&&&&&&XXXXXXXXXXXXXXXXXXXXXXXX&&&&&&&&####--------------------------------------------",
"------------------------------------####&&&&&&&&XXXXXXXXXXXXXXXXXXXXXXXX&&&&&&&&####--------------------------------------------",
"------------------------------------####&&&&XXXX........................XXXX&&&&####--------------------------------------------",
"------------------------------------####&&&&XXXX........................XXXX&&&&####--------------------------------------------",
"------------------------------------####&&&&XXXX........................XXXX&&&&####--------------------------------------------",
"------------------------------------####&&&&XXXX........................XXXX&&&&####--------------------------------------------",
"------------------------------------########XXXXooooooooXXXXXXXXooooooooXXXX########--------------------------------------------",
"------------------------------------########XXXXooooooooXXXXXXXXooooooooXXXX########--------------------------------------------",
"------------------------------------########XXXXooooooooXXXXXXXXooooooooXXXX########--------------------------------------------",
"------------------------------------########XXXXooooooooXXXXXXXXooooooooXXXX########--------------------------------------------",
"--------------------------------------------XXXXooooXXXXXXXXXXXXXXXXooooXXXX----------------------------------------------------",
"--------------------------------------------XXXXooooXXXXXXXXXXXXXXXXooooXXXX----------------------------------------------------",
"--------------------------------------------XXXXooooXXXXXXXXXXXXXXXXooooXXXX----------------------------------------------------",
"--------------------------------------------XXXXooooXXXXXXXXXXXXXXXXooooXXXX----------------------------------------------------",
"--------------------------------------------XXXXooooXXXX--------XXXXooooXXXX----------------------------------------------------",
"--------------------------------------------XXXXooooXXXX--------XXXXooooXXXX----------------------------------------------------",
"--------------------------------------------XXXXooooXXXX--------XXXXooooXXXX----------------------------------------------------",
"--------------------------------------------XXXXooooXXXX--------XXXXooooXXXX----------------------------------------------------",
"------------------------------------------------XXXXXXXX--------XXXXXXXX--------------------------------------------------------",
"------------------------------------------------XXXXXXXX--------XXXXXXXX--------------------------------------------------------",
"------------------------------------------------XXXXXXXX--------XXXXXXXX--------------------------------------------------------",
"------------------------------------------------XXXXXXXX--------XXXXXXXX--------------------------------------------------------",
"------------------------------------------------XXXXXXXX--------XXXXXXXX--------------------------------------------------------",
"------------------------------------------------XXXXXXXX--------XXXXXXXX--------------------------------------------------------",
"------------------------------------------------XXXXXXXX--------XXXXXXXX--------------------------------------------------------",
"------------------------------------------------XXXXXXXX--------XXXXXXXX--------------------------------------------------------",
"------------------------------------------------########--------########--------------------------------------------------------",
"------------------------------------------------########--------########--------------------------------------------------------",
"------------------------------------------------########--------########--------------------------------------------------------",
"------------------------------------------------########--------########--------------------------------------------------------",
"------------------------------------------------........--------........--------------------------------------------------------",
"------------------------------------------------........--------........--------------------------------------------------------",
"------------------------------------------------........--------........--------------------------------------------------------",
"------------------------------------------------........--------........--------------------------------------------------------",
"------------------------------------------------........--------........--------------------------------------------------------",
"------------------------------------------------........--------........--------------------------------------------------------",
"------------------------------------------------........--------........--------------------------------------------------------",
"------------------------------------------------........--------........--------------------------------------------------------",
"--------------------------------------------............--------............----------------------------------------------------",
"--------------------------------------------............--------............----------------------------------------------------",
"--------------------------------------------............--------............----------------------------------------------------",
"--------------------------------------------............--------............----------------------------------------------------"
};
