/* XPM */
static char *_b8aba985d784778c122ada61d651a9fefew8Wy4jst1Det7[] = {
/* columns rows colors chars-per-pixel */
"128 128 21 1 ",
"  c None",
". c black",
"X c #37241C",
"o c #493025",
"O c #543025",
"+ c #6B3E30",
"@ c #7C4737",
"# c #9B0000",
"$ c #AA0000",
"% c #D20000",
"& c red",
"* c #B45F1F",
"= c #DA7326",
"- c #DE8543",
"; c #FFAE4A",
": c #FFC279",
"> c #635182",
", c #FFBC9B",
"< c #FFD29B",
"1 c #F2F1DB",
"2 c #FFFFEA",
/* pixels */
"                                                                                                                                ",
"                                                                                                                                ",
"                                                                                                                                ",
"                                                                                                                                ",
"                                                                                                                                ",
"                                                                                                                                ",
"                                                                                                                                ",
"                                                                                                                                ",
"                                                                                                                                ",
"                                                                                                                                ",
"                                                                                                                                ",
"                                                                                                                                ",
"                                                                                                                                ",
"                                                                                                                                ",
"                                                                                                                                ",
"                                                                                                                                ",
"                                                                                                                                ",
"                                                                                                                                ",
"                                                                                                                                ",
"                                                                                                                                ",
"                                                                                                                                ",
"                                                                                                                                ",
"                                                                                                                                ",
"                                                                                                                                ",
"                                                                                                                                ",
"                                                                                                                                ",
"                                                                                                                                ",
"                                                                                                                                ",
"                                                                                                                                ",
"                                                                                                                                ",
"                                                                                                                                ",
"                                                                                                                                ",
"                                                                                                                                ",
"                                                                                                                                ",
"                                                                                                                                ",
"                                                                                                                                ",
"                                                                                                                                ",
"                                                                                                                                ",
"                                                                                                                                ",
"                                                                                                                                ",
"                                                                                                                                ",
"                                                                                                                                ",
"                                                                                                                                ",
"                                                                                                                                ",
"                                                                                                                                ",
"                                                                                                                                ",
"                                                                                                                                ",
"                                                                                                                                ",
"                                                                                                                                ",
"                                                                                                                                ",
"                                                                                                                                ",
"                                                                                                                                ",
"                                                                                                                                ",
"                                                                                                                                ",
"                                                                                                                                ",
"                                                                                                                                ",
"                                                                                                                                ",
"                                                                                                                                ",
"                                                                                                                                ",
"                                                                                                                                ",
"                                                                                                                                ",
"                                                                                                                                ",
"                                                                                                                                ",
"                                                                                                                                ",
"                                                                                                                                ",
"                                                                                                                                ",
"                                                                                                                                ",
"                                                                                                                                ",
"                                                                                                                                ",
"                                                                                                                                ",
"                                                                                                                                ",
"                                                                                                                                ",
"                                                                                                                                ",
"                                                                                                                                ",
"                                                                                                                                ",
"                                                                                                                                ",
"                                                                                            ****====--------                    ",
"                                                                                            ****====--------                    ",
"                                                                                            ****====--------                    ",
"                                                                                            ****====--------                    ",
"                                                                                        ****====------------====                ",
"                                                                                        ****====------------====                ",
"                                                                                        ****====------------====                ",
"                                                                                        ****====------------====                ",
"                                                                                <<<<<<<<::::****====------------====            ",
"                                                                                <<<<<<<<::::****====------------====            ",
"                                                                                <<<<<<<<::::****====------------====            ",
"                                                                                <<<<<<<<::::****====------------====            ",
"                                                                            <<<<<<<<<<<<<<<<::::****========----====            ",
"                                                                            <<<<<<<<<<<<<<<<::::****========----====            ",
"                                                                            <<<<<<<<<<<<<<<<::::****========----====            ",
"                                                                            <<<<<<<<<<<<<<<<::::****========----====            ",
"            ;;;;                ####OOOO++++oooo++++1111oooo1111oooo        <<<<,,,,........<<<<::::****========----====        ",
"            ;;;;                ####OOOO++++oooo++++1111oooo1111oooo        <<<<,,,,........<<<<::::****========----====        ",
"            ;;;;                ####OOOO++++oooo++++1111oooo1111oooo        <<<<,,,,........<<<<::::****========----====        ",
"            ;;;;                ####OOOO++++oooo++++1111oooo1111oooo        <<<<,,,,........<<<<::::****========----====        ",
"            ;;;;XXXX;;;;OOOO########++++@@@@oooo++++22222222222222221111    <<<<,,,,<<<<>>>>::::****====--------========        ",
"            ;;;;XXXX;;;;OOOO########++++@@@@oooo++++22222222222222221111    <<<<,,,,<<<<>>>>::::****====--------========        ",
"            ;;;;XXXX;;;;OOOO########++++@@@@oooo++++22222222222222221111    <<<<,,,,<<<<>>>>::::****====--------========        ",
"            ;;;;XXXX;;;;OOOO########++++@@@@oooo++++22222222222222221111    <<<<,,,,<<<<>>>>::::****====--------========        ",
"        ooooXXXXXXXX;;;;OOOO++++::::@@@@++++oooo++++11112222111111111111::::<<<<<<<<<<<<<<<<****====----------------====        ",
"        ooooXXXXXXXX;;;;OOOO++++::::@@@@++++oooo++++11112222111111111111::::<<<<<<<<<<<<<<<<****====----------------====        ",
"        ooooXXXXXXXX;;;;OOOO++++::::@@@@++++oooo++++11112222111111111111::::<<<<<<<<<<<<<<<<****====----------------====        ",
"        ooooXXXXXXXX;;;;OOOO++++::::@@@@++++oooo++++11112222111111111111::::<<<<<<<<<<<<<<<<****====----------------====        ",
"        oooooooooooo::::++++++++::::++++&&&&&&&&++++11111111222222221111::::::::<<<<%%%%::::::::****====--------========        ",
"        oooooooooooo::::++++++++::::++++&&&&&&&&++++11111111222222221111::::::::<<<<%%%%::::::::****====--------========        ",
"        oooooooooooo::::++++++++::::++++&&&&&&&&++++11111111222222221111::::::::<<<<%%%%::::::::****====--------========        ",
"        oooooooooooo::::++++++++::::++++&&&&&&&&++++11111111222222221111::::::::<<<<%%%%::::::::****====--------========        ",
"        oooooooooooo::::++++++++++++%%%%%%%%&&&&$$$$<<<<111111111111        ::::%%%%%%%%********====------------============    ",
"        oooooooooooo::::++++++++++++%%%%%%%%&&&&$$$$<<<<111111111111        ::::%%%%%%%%********====------------============    ",
"        oooooooooooo::::++++++++++++%%%%%%%%&&&&$$$$<<<<111111111111        ::::%%%%%%%%********====------------============    ",
"        oooooooooooo::::++++++++++++%%%%%%%%&&&&$$$$<<<<111111111111        ::::%%%%%%%%********====------------============    ",
"                            ++++$$$$$$$$%%%%::::::::<<<<::::                $$$$$$$$%%%%$$$$====------------============        ",
"                            ++++$$$$$$$$%%%%::::::::<<<<::::                $$$$$$$$%%%%$$$$====------------============        ",
"                            ++++$$$$$$$$%%%%::::::::<<<<::::                $$$$$$$$%%%%$$$$====------------============        ",
"                            ++++$$$$$$$$%%%%::::::::<<<<::::                $$$$$$$$%%%%$$$$====------------============        ",
"                                    $$$$$$$$::::<<<<<<<<::::                        $$$$====------------====================    ",
"                                    $$$$$$$$::::<<<<<<<<::::                        $$$$====------------====================    ",
"                                    $$$$$$$$::::<<<<<<<<::::                        $$$$====------------====================    ",
"                                    $$$$$$$$::::<<<<<<<<::::                        $$$$====------------====================    ",
"                                            ::::::::::::                            ************================                ",
"                                            ::::::::::::                            ************================                ",
"                                            ::::::::::::                            ************================                ",
"                                            ::::::::::::                            ************================                ",
"                                                                                                                                ",
"                                                                                                                                ",
"                                                                                                                                ",
"                                                                                                                                "
};
