/* XPM */
static char *result[] = {
/* columns rows colors chars-per-pixel */
"128 128 16 1 ",
"  c black",
". c #37241C",
"X c #493025",
"o c #543025",
"O c #6B3E30",
"+ c #7C4737",
"@ c #B45F1F",
"# c #DA7326",
"$ c #DE8543",
"% c #FFAE4A",
"& c #FFC279",
"* c #FFBC9B",
"= c #FFD29B",
"- c #F2F1DB",
"; c #FFFFEA",
": c None",
/* pixels */
"::::::::::::::::::::::::::::::::::::::::::::::::::::::::::::::::::::::::::::::::::::::::::::::::::::::::::::::::::::::::::::::::",
"::::::::::::::::::::::::::::::::::::::::::::::::::::::::::::::::::::::::::::::::::::::::::::::::::::::::::::::::::::::::::::::::",
"::::::::::::::::::::::::::::::::::::::::::::::::::::::::::::::::::::::::::::::::::::::::::::::::::::::::::::::::::::::::::::::::",
"::::::::::::::::::::::::::::::::::::::::::::::::::::::::::::::::::::::::::::::::::::::::::::::::::::::::::::::::::::::::::::::::",
"::::::::::::::::::::::::::::::::::::::::::::::::::::::::::::::::::::::::::::::::::::::::::::::::::::::::::::::::::::::::::::::::",
"::::::::::::::::::::::::::::::::::::::::::::::::::::::::::::::::::::::::::::::::::::::::::::::::::::::::::::::::::::::::::::::::",
"::::::::::::::::::::::::::::::::::::::::::::::::::::::::::::::::::::::::::::::::::::::::::::::::::::::::::::::::::::::::::::::::",
"::::::::::::::::::::::::::::::::::::::::::::::::::::::::::::::::::::::::::::::::::::::::::::::::::::::::::::::::::::::::::::::::",
"::::::::::::::::::::::::::::::::::::::::::::::::::::::::::::::::::::::::::::::::::::::::::::::::::::::::::::::::::::::::::::::::",
"::::::::::::::::::::::::::::::::::::::::::::::::::::::::::::::::::::::::::::::::::::::::::::::::::::::::::::::::::::::::::::::::",
"::::::::::::::::::::::::::::::::::::::::::::::::::::::::::::::::::::::::::::::::::::::::::::::::::::::::::::::::::::::::::::::::",
"::::::::::::::::::::::::::::::::::::::::::::::::::::::::::::::::::::::::::::::::::::::::::::::::::::::::::::::::::::::::::::::::",
"::::::::::::::::::::::::::::::::::::::::::::::::::::::::::::::::::::::::::::::::::::::::::::::::::::::::::::::::::::::::::::::::",
"::::::::::::::::::::::::::::::::::::::::::::::::::::::::::::::::::::::::::::::::::::::::::::::::::::::::::::::::::::::::::::::::",
"::::::::::::::::::::::::::::::::::::::::::::::::::::::::::::::::::::::::::::::::::::::::::::::::::::::::::::::::::::::::::::::::",
"::::::::::::::::::::::::::::::::::::::::::::::::::::::::::::::::::::::::::::::::::::::::::::::::::::::::::::::::::::::::::::::::",
"::::::::::::::::::::::::::::::::::::::::::::::::::::::::::::::::::::::::::::::::::::::::::::::::::::::::::::::::::::::::::::::::",
"::::::::::::::::::::::::::::::::::::::::::::::::::::::::::::::::::::::::::::::::::::::::::::::::::::::::::::::::::::::::::::::::",
"::::::::::::::::::::::::::::::::::::::::::::::::::::::::::::::::::::::::::::::::::::::::::::::::::::::::::::::::::::::::::::::::",
"::::::::::::::::::::::::::::::::::::::::::::::::::::::::::::::::::::::::::::::::::::::::::::::::::::::::::::::::::::::::::::::::",
"::::::::::::::::::::::::::::::::::::::::::::::::::::########################::::::::::::::::::::::::::::::::::::::::::::::::::::",
"::::::::::::::::::::::::::::::::::::::::::::::::::::########################::::::::::::::::::::::::::::::::::::::::::::::::::::",
"::::::::::::::::::::::::::::::::::::::::::::::::::::########################::::::::::::::::::::::::::::::::::::::::::::::::::::",
"::::::::::::::::::::::::::::::::::::::::::::::::::::########################::::::::::::::::::::::::::::::::::::::::::::::::::::",
"::::::::::::::::::::::::::::::::::::::::::::::::########$$$$####$$$$$$$$########::::::::::::::::::::::::::::::::::::::::::::::::",
"::::::::::::::::::::::::::::::::::::::::::::::::########$$$$####$$$$$$$$########::::::::::::::::::::::::::::::::::::::::::::::::",
"::::::::::::::::::::::::::::::::::::::::::::::::########$$$$####$$$$$$$$########::::::::::::::::::::::::::::::::::::::::::::::::",
"::::::::::::::::::::::::::::::::::::::::::::::::########$$$$####$$$$$$$$########::::::::::::::::::::::::::::::::::::::::::::::::",
"::::::::::::::::::::::::::::::::::::::::::::########$$$$$$$$$$$$$$$$$$$$$$$$####$$$$::::::::::::::::::::::::::::::::::::::::::::",
"::::::::::::::::::::::::::::::::::::::::::::########$$$$$$$$$$$$$$$$$$$$$$$$####$$$$::::::::::::::::::::::::::::::::::::::::::::",
"::::::::::::::::::::::::::::::::::::::::::::########$$$$$$$$$$$$$$$$$$$$$$$$####$$$$::::::::::::::::::::::::::::::::::::::::::::",
"::::::::::::::::::::::::::::::::::::::::::::########$$$$$$$$$$$$$$$$$$$$$$$$####$$$$::::::::::::::::::::::::::::::::::::::::::::",
"::::::::::::::::::::::::::::::::::::::::########$$$$$$$$####$$$$$$$$####$$$$####$$$$$$$$::::::::::::::::::::::::::::::::::::::::",
"::::::::::::::::::::::::::::::::::::::::########$$$$$$$$####$$$$$$$$####$$$$####$$$$$$$$::::::::::::::::::::::::::::::::::::::::",
"::::::::::::::::::::::::::::::::::::::::########$$$$$$$$####$$$$$$$$####$$$$####$$$$$$$$::::::::::::::::::::::::::::::::::::::::",
"::::::::::::::::::::::::::::::::::::::::########$$$$$$$$####$$$$$$$$####$$$$####$$$$$$$$::::::::::::::::::::::::::::::::::::::::",
"::::::::::::::::::::::::::::::::::::::::####$$$$$$$$############$$$$################$$$$::::::::::::::::::::::::::::::::::::::::",
"::::::::::::::::::::::::::::::::::::::::####$$$$$$$$############$$$$################$$$$::::::::::::::::::::::::::::::::::::::::",
"::::::::::::::::::::::::::::::::::::::::####$$$$$$$$############$$$$################$$$$::::::::::::::::::::::::::::::::::::::::",
"::::::::::::::::::::::::::::::::::::::::####$$$$$$$$############$$$$################$$$$::::::::::::::::::::::::::::::::::::::::",
"::::::::::::::::::::::::::::::::::::::::####$$$$$$$$################@@@@@@@@############::::::::::::::::::::::::::::::::::::::::",
"::::::::::::::::::::::::::::::::::::::::####$$$$$$$$################@@@@@@@@############::::::::::::::::::::::::::::::::::::::::",
"::::::::::::::::::::::::::::::::::::::::####$$$$$$$$################@@@@@@@@############::::::::::::::::::::::::::::::::::::::::",
"::::::::::::::::::::::::::::::::::::::::####$$$$$$$$################@@@@@@@@############::::::::::::::::::::::::::::::::::::::::",
"::::::::::::::::::::::::::::::::::::::::@@@@$$$$####@@@@@@@@####@@@@====&&&&@@@@########::::::::::::::::::::::::::::::::::::::::",
"::::::::::::::::::::::::::::::::::::::::@@@@$$$$####@@@@@@@@####@@@@====&&&&@@@@########::::::::::::::::::::::::::::::::::::::::",
"::::::::::::::::::::::::::::::::::::::::@@@@$$$$####@@@@@@@@####@@@@====&&&&@@@@########::::::::::::::::::::::::::::::::::::::::",
"::::::::::::::::::::::::::::::::::::::::@@@@$$$$####@@@@@@@@####@@@@====&&&&@@@@########::::::::::::::::::::::::::::::::::::::::",
"::::::::::::::::::::::::::::::::::::::::@@@@####@@@@@@@@&&&&@@@@====    ========@@@@::::::::::::::::::::::::::::::::::::::::::::",
"::::::::::::::::::::::::::::::::::::::::@@@@####@@@@@@@@&&&&@@@@====    ========@@@@::::::::::::::::::::::::::::::::::::::::::::",
"::::::::::::::::::::::::::::::::::::::::@@@@####@@@@@@@@&&&&@@@@====    ========@@@@::::::::::::::::::::::::::::::::::::::::::::",
"::::::::::::::::::::::::::::::::::::::::@@@@####@@@@@@@@&&&&@@@@====    ========@@@@::::::::::::::::::::::::::::::::::::::::::::",
"::::::::::::::::::::::::::::::::::::::::::::@@@@@@@@&&&&============    ========::::::::::::::::::::::::::::::::::::::::::::::::",
"::::::::::::::::::::::::::::::::::::::::::::@@@@@@@@&&&&============    ========::::::::::::::::::::::::::::::::::::::::::::::::",
"::::::::::::::::::::::::::::::::::::::::::::@@@@@@@@&&&&============    ========::::::::::::::::::::::::::::::::::::::::::::::::",
"::::::::::::::::::::::::::::::::::::::::::::@@@@@@@@&&&&============    ========::::::::::::::::::::::::::::::::::::::::::::::::",
"::::::::::::::::::::::::::::::::::::::::::::@@@@@@@@&&&&========********========::::::::::::::::::::::::::::::::::::::::::::::::",
"::::::::::::::::::::::::::::::::::::::::::::@@@@@@@@&&&&========********========::::::::::::::::::::::::::::::::::::::::::::::::",
"::::::::::::::::::::::::::::::::::::::::::::@@@@@@@@&&&&========********========::::::::::::::::::::::::::::::::::::::::::::::::",
"::::::::::::::::::::::::::::::::::::::::::::@@@@@@@@&&&&========********========::::::::::::::::::::::::::::::::::::::::::::::::",
"::::::::::::::::::::::::::::::::::::::::::::::::::::&&&&&&&&================::::::::::::::::::::::::::::::::::::::::::::::::::::",
"::::::::::::::::::::::::::::::::::::::::::::::::::::&&&&&&&&================::::::::::::::::::::::::::::::::::::::::::::::::::::",
"::::::::::::::::::::::::::::::::::::::::::::::::::::&&&&&&&&================::::::::::::::::::::::::::::::::::::::::::::::::::::",
"::::::::::::::::::::::::::::::::::::::::::::::::::::&&&&&&&&================::::::::::::::::::::::::::::::::::::::::::::::::::::",
"::::::::::::::::::::::::::::::::::::::::::::::::::::::::&&&&&&&&::::::::::::::::::::::::::::::::::::::::::::::::::::::::::::::::",
"::::::::::::::::::::::::::::::::::::::::::::::::::::::::&&&&&&&&::::::::::::::::::::::::::::::::::::::::::::::::::::::::::::::::",
"::::::::::::::::::::::::::::::::::::::::::::::::::::::::&&&&&&&&::::::::::::::::::::::::::::::::::::::::::::::::::::::::::::::::",
"::::::::::::::::::::::::::::::::::::::::::::::::::::::::&&&&&&&&::::::::::::::::::::::::::::::::::::::::::::::::::::::::::::::::",
"::::::::::::::::::::::::::::::::::::::::::::::::::::::::------------::::::::::::::::::::::::::::::::::::::::::::::::::::::::::::",
"::::::::::::::::::::::::::::::::::::::::::::::::::::::::------------::::::::::::::::::::::::::::::::::::::::::::::::::::::::::::",
"::::::::::::::::::::::::::::::::::::::::::::::::::::::::------------::::::::::::::::::::::::::::::::::::::::::::::::::::::::::::",
"::::::::::::::::::::::::::::::::::::::::::::::::::::::::------------::::::::::::::::::::::::::::::::::::::::::::::::::::::::::::",
"::::::::::::::::::::::::::::::::::::::::::::::::::::--------;;;;;;;;XXXX::::::::::::::::::::::::::::::::::::::::::::::::::::::::",
"::::::::::::::::::::::::::::::::::::::::::::::::::::--------;;;;;;;;XXXX::::::::::::::::::::::::::::::::::::::::::::::::::::::::",
"::::::::::::::::::::::::::::::::::::::::::::::::::::--------;;;;;;;;XXXX::::::::::::::::::::::::::::::::::::::::::::::::::::::::",
"::::::::::::::::::::::::::::::::::::::::::::::::::::--------;;;;;;;;XXXX::::::::::::::::::::::::::::::::::::::::::::::::::::::::",
"::::::::::::::::::::::::::::::::::::::::::::::::::::--------;;;;;;;;----::::::::::::::::::::::::::::::::::::::::::::::::::::::::",
"::::::::::::::::::::::::::::::::::::::::::::::::::::--------;;;;;;;;----::::::::::::::::::::::::::::::::::::::::::::::::::::::::",
"::::::::::::::::::::::::::::::::::::::::::::::::::::--------;;;;;;;;----::::::::::::::::::::::::::::::::::::::::::::::::::::::::",
"::::::::::::::::::::::::::::::::::::::::::::::::::::--------;;;;;;;;----::::::::::::::::::::::::::::::::::::::::::::::::::::::::",
"::::::::::::::::::::::::::::::::::::::::::::::::--------;;;;;;;;;;;;XXXX::::::::::::::::::::::::::::::::::::::::::::::::::::::::",
"::::::::::::::::::::::::::::::::::::::::::::::::--------;;;;;;;;;;;;XXXX::::::::::::::::::::::::::::::::::::::::::::::::::::::::",
"::::::::::::::::::::::::::::::::::::::::::::::::--------;;;;;;;;;;;;XXXX::::::::::::::::::::::::::::::::::::::::::::::::::::::::",
"::::::::::::::::::::::::::::::::::::::::::::::::--------;;;;;;;;;;;;XXXX::::::::::::::::::::::::::::::::::::::::::::::::::::::::",
"::::::::::::::::::::::::::::::::::::::::::::::::&&&&----;;;;;;;;;;;;----::::::::::::::::::::::::::::::::::::::::::::::::::::::::",
"::::::::::::::::::::::::::::::::::::::::::::::::&&&&----;;;;;;;;;;;;----::::::::::::::::::::::::::::::::::::::::::::::::::::::::",
"::::::::::::::::::::::::::::::::::::::::::::::::&&&&----;;;;;;;;;;;;----::::::::::::::::::::::::::::::::::::::::::::::::::::::::",
"::::::::::::::::::::::::::::::::::::::::::::::::&&&&----;;;;;;;;;;;;----::::::::::::::::::::::::::::::::::::::::::::::::::::::::",
"::::::::::::::::::::::::::::::::::::::::::::&&&&====OOOOOOOOOOOOOOOOOOOO&&&&::::::::::::::::::::::::::::::::::::::::::::::::::::",
"::::::::::::::::::::::::::::::::::::::::::::&&&&====OOOOOOOOOOOOOOOOOOOO&&&&::::::::::::::::::::::::::::::::::::::::::::::::::::",
"::::::::::::::::::::::::::::::::::::::::::::&&&&====OOOOOOOOOOOOOOOOOOOO&&&&::::::::::::::::::::::::::::::::::::::::::::::::::::",
"::::::::::::::::::::::::::::::::::::::::::::&&&&====OOOOOOOOOOOOOOOOOOOO&&&&::::::::::::::::::::::::::::::::::::::::::::::::::::",
"::::::::::::::::::::::::::::::::::::::::::::&&&&====XXXXXXXXXXXXXXXXXXXX&&&&::::::::::::::::::::::::::::::::::::::::::::::::::::",
"::::::::::::::::::::::::::::::::::::::::::::&&&&====XXXXXXXXXXXXXXXXXXXX&&&&::::::::::::::::::::::::::::::::::::::::::::::::::::",
"::::::::::::::::::::::::::::::::::::::::::::&&&&====XXXXXXXXXXXXXXXXXXXX&&&&::::::::::::::::::::::::::::::::::::::::::::::::::::",
"::::::::::::::::::::::::::::::::::::::::::::&&&&====XXXXXXXXXXXXXXXXXXXX&&&&::::::::::::::::::::::::::::::::::::::::::::::::::::",
"::::::::::::::::::::::::::::::::::::::::::::&&&&&&&&ooooooooOOOOOOOOOOOO&&&&::::::::::::::::::::::::::::::::::::::::::::::::::::",
"::::::::::::::::::::::::::::::::::::::::::::&&&&&&&&ooooooooOOOOOOOOOOOO&&&&::::::::::::::::::::::::::::::::::::::::::::::::::::",
"::::::::::::::::::::::::::::::::::::::::::::&&&&&&&&ooooooooOOOOOOOOOOOO&&&&::::::::::::::::::::::::::::::::::::::::::::::::::::",
"::::::::::::::::::::::::::::::::::::::::::::&&&&&&&&ooooooooOOOOOOOOOOOO&&&&::::::::::::::::::::::::::::::::::::::::::::::::::::",
"::::::::::::::::::::::::::::::::::::::::::::::::ooooOOOOooooOOOO++++OOOOOOOO::::::::::::::::::::::::::::::::::::::::::::::::::::",
"::::::::::::::::::::::::::::::::::::::::::::::::ooooOOOOooooOOOO++++OOOOOOOO::::::::::::::::::::::::::::::::::::::::::::::::::::",
"::::::::::::::::::::::::::::::::::::::::::::::::ooooOOOOooooOOOO++++OOOOOOOO::::::::::::::::::::::::::::::::::::::::::::::::::::",
"::::::::::::::::::::::::::::::::::::::::::::::::ooooOOOOooooOOOO++++OOOOOOOO::::::::::::::::::::::::::::::::::::::::::::::::::::",
"::::::::::::::::::::::::::::::::::::::::::::::::ooooOOOOooooOOOO++++++++OOOO::::::::::::::::::::::::::::::::::::::::::::::::::::",
"::::::::::::::::::::::::::::::::::::::::::::::::ooooOOOOooooOOOO++++++++OOOO::::::::::::::::::::::::::::::::::::::::::::::::::::",
"::::::::::::::::::::::::::::::::::::::::::::::::ooooOOOOooooOOOO++++++++OOOO::::::::::::::::::::::::::::::::::::::::::::::::::::",
"::::::::::::::::::::::::::::::::::::::::::::::::ooooOOOOooooOOOO++++++++OOOO::::::::::::::::::::::::::::::::::::::::::::::::::::",
"::::::::::::::::::::::::::::::::::::::::::::::::oooooooooooo::::OOOOOOOOOOOO::::::::::::::::::::::::::::::::::::::::::::::::::::",
"::::::::::::::::::::::::::::::::::::::::::::::::oooooooooooo::::OOOOOOOOOOOO::::::::::::::::::::::::::::::::::::::::::::::::::::",
"::::::::::::::::::::::::::::::::::::::::::::::::oooooooooooo::::OOOOOOOOOOOO::::::::::::::::::::::::::::::::::::::::::::::::::::",
"::::::::::::::::::::::::::::::::::::::::::::::::oooooooooooo::::OOOOOOOOOOOO::::::::::::::::::::::::::::::::::::::::::::::::::::",
"::::::::::::::::::::::::::::::::::::::::::::XXXX%%%%%%%%::::::::::::&&&&&&&&::::::::::::::::::::::::::::::::::::::::::::::::::::",
"::::::::::::::::::::::::::::::::::::::::::::XXXX%%%%%%%%::::::::::::&&&&&&&&::::::::::::::::::::::::::::::::::::::::::::::::::::",
"::::::::::::::::::::::::::::::::::::::::::::XXXX%%%%%%%%::::::::::::&&&&&&&&::::::::::::::::::::::::::::::::::::::::::::::::::::",
"::::::::::::::::::::::::::::::::::::::::::::XXXX%%%%%%%%::::::::::::&&&&&&&&::::::::::::::::::::::::::::::::::::::::::::::::::::",
"::::::::::::::::::::::::::::::::::::::::::::XXXXXXXX::::::::::::::::........::::::::::::::::::::::::::::::::::::::::::::::::::::",
"::::::::::::::::::::::::::::::::::::::::::::XXXXXXXX::::::::::::::::........::::::::::::::::::::::::::::::::::::::::::::::::::::",
"::::::::::::::::::::::::::::::::::::::::::::XXXXXXXX::::::::::::::::........::::::::::::::::::::::::::::::::::::::::::::::::::::",
"::::::::::::::::::::::::::::::::::::::::::::XXXXXXXX::::::::::::::::........::::::::::::::::::::::::::::::::::::::::::::::::::::",
"::::::::::::::::::::::::::::::::::::::::::::XXXXXXXX::::::::::::::::........::::::::::::::::::::::::::::::::::::::::::::::::::::",
"::::::::::::::::::::::::::::::::::::::::::::XXXXXXXX::::::::::::::::........::::::::::::::::::::::::::::::::::::::::::::::::::::",
"::::::::::::::::::::::::::::::::::::::::::::XXXXXXXX::::::::::::::::........::::::::::::::::::::::::::::::::::::::::::::::::::::",
"::::::::::::::::::::::::::::::::::::::::::::XXXXXXXX::::::::::::::::........::::::::::::::::::::::::::::::::::::::::::::::::::::",
"::::::::::::::::::::::::::::::::::::::::::::XXXX::::::::::::::::::::............::::::::::::::::::::::::::::::::::::::::::::::::",
"::::::::::::::::::::::::::::::::::::::::::::XXXX::::::::::::::::::::............::::::::::::::::::::::::::::::::::::::::::::::::",
"::::::::::::::::::::::::::::::::::::::::::::XXXX::::::::::::::::::::............::::::::::::::::::::::::::::::::::::::::::::::::",
"::::::::::::::::::::::::::::::::::::::::::::XXXX::::::::::::::::::::............::::::::::::::::::::::::::::::::::::::::::::::::"
};
