/* XPM */
static char *result[] = {
/* columns rows colors chars-per-pixel */
"128 128 14 1 ",
"  c #37241C",
". c #493025",
"X c #543025",
"o c #60362B",
"O c #6B3E30",
"+ c #B45F1F",
"@ c #DA7326",
"# c #DE8543",
"$ c #FFAE4A",
"% c #FFC279",
"& c #FFD29B",
"* c #F2F1DB",
"= c #FFFFEA",
"- c None",
/* pixels */
"--------------------------------------------------------------------------------------------------------------------------------",
"--------------------------------------------------------------------------------------------------------------------------------",
"--------------------------------------------------------------------------------------------------------------------------------",
"--------------------------------------------------------------------------------------------------------------------------------",
"--------------------------------------------------------------------------------------------------------------------------------",
"--------------------------------------------------------------------------------------------------------------------------------",
"--------------------------------------------------------------------------------------------------------------------------------",
"--------------------------------------------------------------------------------------------------------------------------------",
"--------------------------------------------------------------------------------------------------------------------------------",
"--------------------------------------------------------------------------------------------------------------------------------",
"--------------------------------------------------------------------------------------------------------------------------------",
"--------------------------------------------------------------------------------------------------------------------------------",
"--------------------------------------------------------------------------------------------------------------------------------",
"--------------------------------------------------------------------------------------------------------------------------------",
"--------------------------------------------------------------------------------------------------------------------------------",
"--------------------------------------------------------------------------------------------------------------------------------",
"--------------------------------------------------------------------------------------------------------------------------------",
"--------------------------------------------------------------------------------------------------------------------------------",
"--------------------------------------------------------------------------------------------------------------------------------",
"--------------------------------------------------------------------------------------------------------------------------------",
"------------------------------------------------------------@@@@@@@@@@@@--------------------------------------------------------",
"------------------------------------------------------------@@@@@@@@@@@@--------------------------------------------------------",
"------------------------------------------------------------@@@@@@@@@@@@--------------------------------------------------------",
"------------------------------------------------------------@@@@@@@@@@@@--------------------------------------------------------",
"------------------------------------------------@@@@@@@@@@@@@@@@####@@@@@@@@@@@@------------------------------------------------",
"------------------------------------------------@@@@@@@@@@@@@@@@####@@@@@@@@@@@@------------------------------------------------",
"------------------------------------------------@@@@@@@@@@@@@@@@####@@@@@@@@@@@@------------------------------------------------",
"------------------------------------------------@@@@@@@@@@@@@@@@####@@@@@@@@@@@@------------------------------------------------",
"--------------------------------------------@@@@@@@@####@@@@################@@@@@@@@--------------------------------------------",
"--------------------------------------------@@@@@@@@####@@@@################@@@@@@@@--------------------------------------------",
"--------------------------------------------@@@@@@@@####@@@@################@@@@@@@@--------------------------------------------",
"--------------------------------------------@@@@@@@@####@@@@################@@@@@@@@--------------------------------------------",
"----------------------------------------@@@@@@@@########@@@@####################@@@@--------------------------------------------",
"----------------------------------------@@@@@@@@########@@@@####################@@@@--------------------------------------------",
"----------------------------------------@@@@@@@@########@@@@####################@@@@--------------------------------------------",
"----------------------------------------@@@@@@@@########@@@@####################@@@@--------------------------------------------",
"----------------------------------------@@@@@@@@####@@@@@@@@@@@@########@@@@########@@@@----------------------------------------",
"----------------------------------------@@@@@@@@####@@@@@@@@@@@@########@@@@########@@@@----------------------------------------",
"----------------------------------------@@@@@@@@####@@@@@@@@@@@@########@@@@########@@@@----------------------------------------",
"----------------------------------------@@@@@@@@####@@@@@@@@@@@@########@@@@########@@@@----------------------------------------",
"----------------------------------------++++@@@@####@@@@++++@@@@@@@@####@@@@@@@@####++++----------------------------------------",
"----------------------------------------++++@@@@####@@@@++++@@@@@@@@####@@@@@@@@####++++----------------------------------------",
"----------------------------------------++++@@@@####@@@@++++@@@@@@@@####@@@@@@@@####++++----------------------------------------",
"----------------------------------------++++@@@@####@@@@++++@@@@@@@@####@@@@@@@@####++++----------------------------------------",
"----------------------------------------++++++++@@@@++++++++++++@@@@@@@@@@@@++++@@@@++++----------------------------------------",
"----------------------------------------++++++++@@@@++++++++++++@@@@@@@@@@@@++++@@@@++++----------------------------------------",
"----------------------------------------++++++++@@@@++++++++++++@@@@@@@@@@@@++++@@@@++++----------------------------------------",
"----------------------------------------++++++++@@@@++++++++++++@@@@@@@@@@@@++++@@@@++++----------------------------------------",
"--------------------------------------------++++++++++++++++++++++++@@@@++++++++++++--------------------------------------------",
"--------------------------------------------++++++++++++++++++++++++@@@@++++++++++++--------------------------------------------",
"--------------------------------------------++++++++++++++++++++++++@@@@++++++++++++--------------------------------------------",
"--------------------------------------------++++++++++++++++++++++++@@@@++++++++++++--------------------------------------------",
"--------------------------------------------++++++++++++++++++++++++++++++++++++++++--------------------------------------------",
"--------------------------------------------++++++++++++++++++++++++++++++++++++++++--------------------------------------------",
"--------------------------------------------++++++++++++++++++++++++++++++++++++++++--------------------------------------------",
"--------------------------------------------++++++++++++++++++++++++++++++++++++++++--------------------------------------------",
"----------------------------------------%%%%%%%%++++++++++++++++++++++++++++++++++++%%%%----------------------------------------",
"----------------------------------------%%%%%%%%++++++++++++++++++++++++++++++++++++%%%%----------------------------------------",
"----------------------------------------%%%%%%%%++++++++++++++++++++++++++++++++++++%%%%----------------------------------------",
"----------------------------------------%%%%%%%%++++++++++++++++++++++++++++++++++++%%%%----------------------------------------",
"--------------------------------------------%%%%++++++++++++++++++++++++++++++++%%%%--------------------------------------------",
"--------------------------------------------%%%%++++++++++++++++++++++++++++++++%%%%--------------------------------------------",
"--------------------------------------------%%%%++++++++++++++++++++++++++++++++%%%%--------------------------------------------",
"--------------------------------------------%%%%++++++++++++++++++++++++++++++++%%%%--------------------------------------------",
"----------------------------------------------------%%%%++++++++++++++++%%%%----------------------------------------------------",
"----------------------------------------------------%%%%++++++++++++++++%%%%----------------------------------------------------",
"----------------------------------------------------%%%%++++++++++++++++%%%%----------------------------------------------------",
"----------------------------------------------------%%%%++++++++++++++++%%%%----------------------------------------------------",
"------------------------------------------------------------%%%%%%%%------------------------------------------------------------",
"------------------------------------------------------------%%%%%%%%------------------------------------------------------------",
"------------------------------------------------------------%%%%%%%%------------------------------------------------------------",
"------------------------------------------------------------%%%%%%%%------------------------------------------------------------",
"--------------------------------------------------------********************----------------------------------------------------",
"--------------------------------------------------------********************----------------------------------------------------",
"--------------------------------------------------------********************----------------------------------------------------",
"--------------------------------------------------------********************----------------------------------------------------",
"------------------------------------------------********================********------------------------------------------------",
"------------------------------------------------********================********------------------------------------------------",
"------------------------------------------------********================********------------------------------------------------",
"------------------------------------------------********================********------------------------------------------------",
"------------------------------------------------********================****====****--------------------------------------------",
"------------------------------------------------********================****====****--------------------------------------------",
"------------------------------------------------********================****====****--------------------------------------------",
"------------------------------------------------********================****====****--------------------------------------------",
"--------------------------------------------****====****================****&&&&&&&&%%%%----------------------------------------",
"--------------------------------------------****====****================****&&&&&&&&%%%%----------------------------------------",
"--------------------------------------------****====****================****&&&&&&&&%%%%----------------------------------------",
"--------------------------------------------****====****================****&&&&&&&&%%%%----------------------------------------",
"--------------------------------------------%%%%&&&&****====********====********%%%%%%%%----------------------------------------",
"--------------------------------------------%%%%&&&&****====********====********%%%%%%%%----------------------------------------",
"--------------------------------------------%%%%&&&&****====********====********%%%%%%%%----------------------------------------",
"--------------------------------------------%%%%&&&&****====********====********%%%%%%%%----------------------------------------",
"--------------------------------------------%%%%%%%%OOOOOOOOOOOOOOOOOOOOOOOOOOOO------------------------------------------------",
"--------------------------------------------%%%%%%%%OOOOOOOOOOOOOOOOOOOOOOOOOOOO------------------------------------------------",
"--------------------------------------------%%%%%%%%OOOOOOOOOOOOOOOOOOOOOOOOOOOO------------------------------------------------",
"--------------------------------------------%%%%%%%%OOOOOOOOOOOOOOOOOOOOOOOOOOOO------------------------------------------------",
"--------------------------------------------%%%%................................------------------------------------------------",
"--------------------------------------------%%%%................................------------------------------------------------",
"--------------------------------------------%%%%................................------------------------------------------------",
"--------------------------------------------%%%%................................------------------------------------------------",
"------------------------------------------------OOOOOOOOOOOOOOOOOOOOOOOOOOOOOOOO------------------------------------------------",
"------------------------------------------------OOOOOOOOOOOOOOOOOOOOOOOOOOOOOOOO------------------------------------------------",
"------------------------------------------------OOOOOOOOOOOOOOOOOOOOOOOOOOOOOOOO------------------------------------------------",
"------------------------------------------------OOOOOOOOOOOOOOOOOOOOOOOOOOOOOOOO------------------------------------------------",
"------------------------------------------------XXXXoooooooo--------ooooooooXXXX------------------------------------------------",
"------------------------------------------------XXXXoooooooo--------ooooooooXXXX------------------------------------------------",
"------------------------------------------------XXXXoooooooo--------ooooooooXXXX------------------------------------------------",
"------------------------------------------------XXXXoooooooo--------ooooooooXXXX------------------------------------------------",
"------------------------------------------------XXXXXXXXXXXX--------XXXXXXXXXXXX------------------------------------------------",
"------------------------------------------------XXXXXXXXXXXX--------XXXXXXXXXXXX------------------------------------------------",
"------------------------------------------------XXXXXXXXXXXX--------XXXXXXXXXXXX------------------------------------------------",
"------------------------------------------------XXXXXXXXXXXX--------XXXXXXXXXXXX------------------------------------------------",
"----------------------------------------------------XXXXXXXX--------XXXXXXXX----------------------------------------------------",
"----------------------------------------------------XXXXXXXX--------XXXXXXXX----------------------------------------------------",
"----------------------------------------------------XXXXXXXX--------XXXXXXXX----------------------------------------------------",
"----------------------------------------------------XXXXXXXX--------XXXXXXXX----------------------------------------------------",
"----------------------------------------------------$$$$$$$$--------$$$$$$$$----------------------------------------------------",
"----------------------------------------------------$$$$$$$$--------$$$$$$$$----------------------------------------------------",
"----------------------------------------------------$$$$$$$$--------$$$$$$$$----------------------------------------------------",
"----------------------------------------------------$$$$$$$$--------$$$$$$$$----------------------------------------------------",
"----------------------------------------------------        --------        ----------------------------------------------------",
"----------------------------------------------------        --------        ----------------------------------------------------",
"----------------------------------------------------        --------        ----------------------------------------------------",
"----------------------------------------------------        --------        ----------------------------------------------------",
"----------------------------------------------------........--------........----------------------------------------------------",
"----------------------------------------------------........--------........----------------------------------------------------",
"----------------------------------------------------........--------........----------------------------------------------------",
"----------------------------------------------------........--------........----------------------------------------------------"
};
