/* XPM */
static char *_006[] = {
/* columns rows colors chars-per-pixel */
"32 32 6 1 ",
"  c #163C2B",
". c #296640",
"X c #509B66",
"o c #00CCFF",
"O c #D7F8FF",
"+ c #F4FDFF",
/* pixels */
"XX. OooooooooooooooooooooooO .XX",
"X  +OooooooooooooooooooooooO+ .X",
"XX  +OooooooooooooooooooooooO+ X",
"XXX +OooooooooooooooooooooooO XX",
"XX. +OoooOoooooooooooooOoooO XXX",
"XX +OooooOOooooooooooooooooO .XX",
"XXX OoooooOooooooooooooooooO .XX",
"XXX OooooooooooooooooooooooO+ XX",
"XX. OoooooooooooooooooooooO+ X X",
"XX. +OooooooooooooooooooooO .XXX",
"XX . OooooooooooooooooooooO .XXX",
"XXX. OooooooooooooooooooooO ..XX",
"XXX. OooooooooooooooooooooO+ .XX",
"XX. +OoooooooooooooooooooooO  XX",
"XX. +OoooooooooooooooooooooO XXX",
"XX +OooooooooooooooooooooooO XXX",
"XXX OooooooooooooooooooooooO .XX",
"XXX. OoooooooooooooooooooooO+  X",
"XXX. OooooooooooooooooooooO+  XX",
"XXX. OoooooooooooooooooOooO+ XXX",
"XXX. OoooooooooooooooooOooO+ .XX",
"XX. OoooooooooooooooooOOooO+ .XX",
"XX +OooooooooooooooooOOooooO+ XX",
"XX +OooOooooooooooooooooooO+ XXX",
"XXX OoooOoooooooooooooooooO XXXX",
"XX. OOoooooooooooooooooooOO .XXX",
"XX. +OOOOOOOooOOOoOOoOOOOO+ ..XX",
"XX.. O+++   OO+++O++O++   ++ .XX",
"XXX..    XX. +  ++   + .XX  .XXX",
"XXXX..X. XXX. .X  XXX .XXXX XXXX",
"XXXXXXXXXXXXXXXXXXXXXXXXXXXXXXXX",
"XXXXXXXXXXXXXXXXXXXXXXXXXXXXXXXX"
};
