/* XPM */
static char *_001[] = {
/* columns rows colors chars-per-pixel */
"32 32 6 1 ",
"  c #163C2B",
". c #296640",
"X c #509B66",
"o c #00CCFF",
"O c #D7F8FF",
"+ c #F4FDFF",
/* pixels */
"oooooooooooooooooooooooooooooooo",
"oooooooooooooooooooooooooooooooo",
"oooooooooooooooooooooooooooooooo",
"oooooooooooooooooooooooooooooooo",
"oooooooooooooooooooooooooooooooo",
"oooooooooooooooooooooooooooooooo",
"oooooooooooooooooooooooooooooooo",
"oooooooooooooooooooooooooooooooo",
"oooooooooooooooooooooooooooooooo",
"oooooooooooooooooooooooooooooooo",
"oooooooooooooooooooooooooooooooo",
"oooooooooooooooooooooooooooooooo",
"oooooooooooooooooooooooooooooooo",
"oooooooooooooooooooooooooooooooo",
"oooooooooooooooooooooooooooooooo",
"oooooooooooooooooooooooooooooooo",
"oooooooooooooooooooooooooooooooo",
"oooooooooooooooooooooooooooooooo",
"oooooooooooooooooooooooooooooooo",
"oooooooooooooooooooooooooooooooo",
"oooooooooooooooooooooooooooooooo",
"ooooOooooooooooooooooooooooooooo",
"ooooOOoOooooooooooooooOOoooooooo",
"oooooooooooooooooooooooOOOoooooo",
"oooooooooooooooooooooooooooooooo",
"oooooooooooooooooooooooooooooooo",
"OOooooOOOOOOooOOOoOOooOOOOOOooOO",
"++OOOO+++   OO+++O++OO+   ++OO  ",
"    +    XX. +  ++   + .XX    .X",
"X X. XX. XXX. .X  XXX .XXXX .XXX",
"XXXXXXXXXXXXXXXXXXXXXXXXXXXXXXXX",
"XXXXXXXXXXXXXXXXXXXXXXXXXXXXXXXX"
};
