/* XPM */
static char *_011[] = {
/* columns rows colors chars-per-pixel */
"32 32 6 1 ",
"  c #163C2B",
". c #296640",
"X c #509B66",
"o c #00CCFF",
"O c #D7F8FF",
"+ c #F4FDFF",
/* pixels */
"XX. Oooooooooooooooooooooooooooo",
"X  +Oooooooooooooooooooooooooooo",
"XX  +Ooooooooooooooooooooooooooo",
"XXX +OoooooOoooooooooooooooooooo",
"XX. +OoooooOoooooooooooooooooooo",
"XX +OooooooOoooooooooooooooooooo",
"XXX OoooooOooooooooooooooooooooo",
"XX. Oooooooooooooooooooooooooooo",
"XX +Oooooooooooooooooooooooooooo",
"XXX +Ooooooooooooooooooooooooooo",
"XXX. Ooooooooooooooooooooooooooo",
"XXX. Ooooooooooooooooooooooooooo",
"XXX. Ooooooooooooooooooooooooooo",
"XX. +Ooooooooooooooooooooooooooo",
"XX. +Ooooooooooooooooooooooooooo",
"XX +Oooooooooooooooooooooooooooo",
"XXX Oooooooooooooooooooooooooooo",
"XXX. Ooooooooooooooooooooooooooo",
"XXX. Ooooooooooooooooooooooooooo",
"X .. Ooooooooooooooooooooooooooo",
"XX  +Ooooooooooooooooooooooooooo",
"XXX +Ooooooooooooooooooooooooooo",
"XX. OooooooOoooooooooooooooooooo",
"XX +OooooooOoooooooooooooooooooo",
"XX. OooooooOOooooooooooooooooooo",
"XX. OoooooooOooooooooooooooooooo",
"X.. OoooooooOooooooooooooooooooo",
"X  +Oooooooooooooooooooooooooooo",
"XX  +Ooooooooooooooooooooooooooo",
"XX. +Ooooooooooooooooooooooooooo",
"XX. +Ooooooooooooooooooooooooooo",
"XX. Oooooooooooooooooooooooooooo"
};
