/* XPM */
static char *_007[] = {
/* columns rows colors chars-per-pixel */
"32 32 8 1 ",
"  c #163C2B",
". c #755338",
"X c #296640",
"o c #9D7658",
"O c #509B66",
"+ c #00CCFF",
"@ c #D7F8FF",
"# c #F4FDFF",
/* pixels */
"OOOX @++++++++++++++++++++++++++",
"OOOX @++++++++++++++++++++++++++",
"OOOX @++++++++++++++++++++++++++",
"XXX  @++++++++++++++++++++++++++",
"    #@++++@+++++++++++++++++++++",
"..o.@+++++@+++++++++++++++++++++",
"ooo.#++++@++++++++++++++++++++++",
"ooo.#+++++++++++++++++++++++++++",
"ooo#@+++++++++++++++++++++++++++",
"####@+++++++++++++++++++++++++++",
"@@@@++++++++++++++++++++++++++++",
"++++++++@+++++++++++++++++++++++",
"+++++++@@+++++++++++++++++++++++",
"++++++@@++++++++++++++++++++++++",
"++++++++++++++++++++++++++++++++",
"++++++++++++++++++++++++++++++++",
"++++++++++++++++++++++++++++++++",
"++++++++++++++++++++++++++++++++",
"++++++++++++++++++++++++++++++++",
"++++++++++++++++++++++++++++++++",
"++++++++++++++++++++++++++++++++",
"++++++++++++++++++++++++++++++++",
"++++++++++++++++++++++++++++++++",
"++++++++++++++++++++++++++++++++",
"++++++++++++++++++++++++++++++++",
"+++++@@+++++++++++++++++++++++++",
"++++++@+++++++++++++++++++++++++",
"@@@+++++++++++++++++++++++++++++",
"  #@++++++++++++++++++++++++++++",
"XX #@+++++++++++++++++++++++++++",
"OOX @+++++++++++++++++++++++++++",
"OOX @+++++++++++++++++++++++++++"
};
