/* XPM */
static char *cat_right_walk_11713722509[] = {
/* columns rows colors chars-per-pixel */
"128 128 5 1 ",
"  c None",
". c #562B03",
"X c #E4603F",
"o c #FF9900",
"O c #FFDFAE",
/* pixels */
"                                                                                                                                ",
"                                                                                                                                ",
"                                                                                                                                ",
"                                                                                                                                ",
"                                                                                                                                ",
"                                                                                                                                ",
"                                                                                                                                ",
"                                                                                                                                ",
"                                                                                                                                ",
"                                                                                                                                ",
"                                                                                                                                ",
"                                                                                                                                ",
"                                                                                                                                ",
"                                                                                                                                ",
"                                                                                                                                ",
"                                                                                                                                ",
"                                                                                                                                ",
"                                                                                                                                ",
"                                                                                                                                ",
"                                                                                                                                ",
"                                                                                                                                ",
"                                                                                                                                ",
"                                                                                                                                ",
"                                                                                                                                ",
"                                                                                                                                ",
"                                                                                                                                ",
"                                                                                                                                ",
"                                                                                                                                ",
"                                    ........                                                                                    ",
"                                    ........                                                                                    ",
"                                    ........                                                                                    ",
"                                    ........                                                                                    ",
"                                ....OOOOoooo....                                    ........                                    ",
"                                ....OOOOoooo....                                    ........                                    ",
"                                ....OOOOoooo....                                    ........                                    ",
"                                ....OOOOoooo....                                    ........                                    ",
"                            ....ooooXXXX........                ........        ....OOOO....                                    ",
"                            ....ooooXXXX........                ........        ....OOOO....                                    ",
"                            ....ooooXXXX........                ........        ....OOOO....                                    ",
"                            ....ooooXXXX........                ........        ....OOOO....                                    ",
"                            ....OOOO....                        ....OOOO....    ....oooo....                                    ",
"                            ....OOOO....                        ....OOOO....    ....oooo....                                    ",
"                            ....OOOO....                        ....OOOO....    ....oooo....                                    ",
"                            ....OOOO....                        ....OOOO....    ....oooo....                                    ",
"                            ....oooo....                        ....OOOO........XXXXXXXX....                                    ",
"                            ....oooo....                        ....OOOO........XXXXXXXX....                                    ",
"                            ....oooo....                        ....OOOO........XXXXXXXX....                                    ",
"                            ....oooo....                        ....OOOO........XXXXXXXX....                                    ",
"                            ....OOOO....                        ....ooooXXXXoooooooooooooooo....                                ",
"                            ....OOOO....                        ....ooooXXXXoooooooooooooooo....                                ",
"                            ....OOOO....                        ....ooooXXXXoooooooooooooooo....                                ",
"                            ....OOOO....                        ....ooooXXXXoooooooooooooooo....                                ",
"                            ....ooooXXXX....                    ....XXXXooooooooXXXXooooXXXXoooo....                            ",
"                            ....ooooXXXX....                    ....XXXXooooooooXXXXooooXXXXoooo....                            ",
"                            ....ooooXXXX....                    ....XXXXooooooooXXXXooooXXXXoooo....                            ",
"                            ....ooooXXXX....                    ....XXXXooooooooXXXXooooXXXXoooo....                            ",
"                            ....XXXXooooXXXX....................XXXXoooooooooooo....oooo....oooo....                            ",
"                            ....XXXXooooXXXX....................XXXXoooooooooooo....oooo....oooo....                            ",
"                            ....XXXXooooXXXX....................XXXXoooooooooooo....oooo....oooo....                            ",
"                            ....XXXXooooXXXX....................XXXXoooooooooooo....oooo....oooo....                            ",
"                                ....ooooooooXXXXooooXXXXoooo....ooooooooooooXXXX....oooo....XXXX....                            ",
"                                ....ooooooooXXXXooooXXXXoooo....ooooooooooooXXXX....oooo....XXXX....                            ",
"                                ....ooooooooXXXXooooXXXXoooo....ooooooooooooXXXX....oooo....XXXX....                            ",
"                                ....ooooooooXXXXooooXXXXoooo....ooooooooooooXXXX....oooo....XXXX....                            ",
"                                ....XXXXooooXXXXooooXXXXoooo....XXXXooooooooooooOOOOXXXXOOOOoooo....                            ",
"                                ....XXXXooooXXXXooooXXXXoooo....XXXXooooooooooooOOOOXXXXOOOOoooo....                            ",
"                                ....XXXXooooXXXXooooXXXXoooo....XXXXooooooooooooOOOOXXXXOOOOoooo....                            ",
"                                ....XXXXooooXXXXooooXXXXoooo....XXXXooooooooooooOOOOXXXXOOOOoooo....                            ",
"                                    ....ooooooooooooooooooooXXXX....XXXXooooOOOOOOOOOOOOOOOO....                                ",
"                                    ....ooooooooooooooooooooXXXX....XXXXooooOOOOOOOOOOOOOOOO....                                ",
"                                    ....ooooooooooooooooooooXXXX....XXXXooooOOOOOOOOOOOOOOOO....                                ",
"                                    ....ooooooooooooooooooooXXXX....XXXXooooOOOOOOOOOOOOOOOO....                                ",
"                                    ....ooooXXXXooooooooooooooooooooooooXXXX................                                    ",
"                                    ....ooooXXXXooooooooooooooooooooooooXXXX................                                    ",
"                                    ....ooooXXXXooooooooooooooooooooooooXXXX................                                    ",
"                                    ....ooooXXXXooooooooooooooooooooooooXXXX................                                    ",
"                                    ....ooooXXXXXXXXXXXXXXXXoooooooooooo........                                                ",
"                                    ....ooooXXXXXXXXXXXXXXXXoooooooooooo........                                                ",
"                                    ....ooooXXXXXXXXXXXXXXXXoooooooooooo........                                                ",
"                                    ....ooooXXXXXXXXXXXXXXXXoooooooooooo........                                                ",
"                                ....XXXXooooOOOO................ooooooooXXXX....                                                ",
"                                ....XXXXooooOOOO................ooooooooXXXX....                                                ",
"                                ....XXXXooooOOOO................ooooooooXXXX....                                                ",
"                                ....XXXXooooOOOO................ooooooooXXXX....                                                ",
"                                ....XXXX....OOOO............oooooooo....OOOOOOOO....                                            ",
"                                ....XXXX....OOOO............oooooooo....OOOOOOOO....                                            ",
"                                ....XXXX....OOOO............oooooooo....OOOOOOOO....                                            ",
"                                ....XXXX....OOOO............oooooooo....OOOOOOOO....                                            ",
"                                ....OOOO....ooooOOOO........OOOO....    ....OOOO....                                            ",
"                                ....OOOO....ooooOOOO........OOOO....    ....OOOO....                                            ",
"                                ....OOOO....ooooOOOO........OOOO....    ....OOOO....                                            ",
"                                ....OOOO....ooooOOOO........OOOO....    ....OOOO....                                            ",
"                                    ................        ........        ....                                                ",
"                                    ................        ........        ....                                                ",
"                                    ................        ........        ....                                                ",
"                                    ................        ........        ....                                                ",
"                                                                                                                                ",
"                                                                                                                                ",
"                                                                                                                                ",
"                                                                                                                                ",
"                                                                                                                                ",
"                                                                                                                                ",
"                                                                                                                                ",
"                                                                                                                                ",
"                                                                                                                                ",
"                                                                                                                                ",
"                                                                                                                                ",
"                                                                                                                                ",
"                                                                                                                                ",
"                                                                                                                                ",
"                                                                                                                                ",
"                                                                                                                                ",
"                                                                                                                                ",
"                                                                                                                                ",
"                                                                                                                                ",
"                                                                                                                                ",
"                                                                                                                                ",
"                                                                                                                                ",
"                                                                                                                                ",
"                                                                                                                                ",
"                                                                                                                                ",
"                                                                                                                                ",
"                                                                                                                                ",
"                                                                                                                                ",
"                                                                                                                                ",
"                                                                                                                                ",
"                                                                                                                                ",
"                                                                                                                                "
};
