/* XPM */
static char *cat_up_walk_11713722529[] = {
/* columns rows colors chars-per-pixel */
"128 128 5 1 ",
"  c None",
". c #562B03",
"X c #E4603F",
"o c #FF9900",
"O c #FFDFAE",
/* pixels */
"                                                                                                                                ",
"                                                                                                                                ",
"                                                                                                                                ",
"                                                                                                                                ",
"                                                                                                                                ",
"                                                                                                                                ",
"                                                                                                                                ",
"                                                                                                                                ",
"                                                                                                                                ",
"                                                                                                                                ",
"                                                                                                                                ",
"                                                                                                                                ",
"                                                                                                                                ",
"                                                                                                                                ",
"                                                                                                                                ",
"                                                                                                                                ",
"                                                                                                                                ",
"                                                                                                                                ",
"                                                                                                                                ",
"                                                                                                                                ",
"                                            ........                    ........                                                ",
"                                            ........                    ........                                                ",
"                                            ........                    ........                                                ",
"                                            ........                    ........                                                ",
"                                            ....OOOO....            ....OOOO....                                                ",
"                                            ....OOOO....            ....OOOO....                                                ",
"                                            ....OOOO....            ....OOOO....                                                ",
"                                            ....OOOO....            ....OOOO....                                                ",
"                                            ....OOOOXXXX............XXXXOOOO....                                                ",
"                                            ....OOOOXXXX............XXXXOOOO....                                                ",
"                                            ....OOOOXXXX............XXXXOOOO....                                                ",
"                                            ....OOOOXXXX............XXXXOOOO....                                                ",
"                                            ....ooooXXXXooooooooooooXXXXoooo....                                                ",
"                                            ....ooooXXXXooooooooooooXXXXoooo....                                                ",
"                                            ....ooooXXXXooooooooooooXXXXoooo....                                                ",
"                                            ....ooooXXXXooooooooooooXXXXoooo....                                                ",
"                                    ........XXXXooooooooooooooooooooooooooooXXXX........                                        ",
"                                    ........XXXXooooooooooooooooooooooooooooXXXX........                                        ",
"                                    ........XXXXooooooooooooooooooooooooooooXXXX........                                        ",
"                                    ........XXXXooooooooooooooooooooooooooooXXXX........                                        ",
"                                        ....oooooooooooooooooooooooooooooooooooo....                                            ",
"                                        ....oooooooooooooooooooooooooooooooooooo....                                            ",
"                                        ....oooooooooooooooooooooooooooooooooooo....                                            ",
"                                        ....oooooooooooooooooooooooooooooooooooo....                                            ",
"                                    ........oooooooooooo........oooooooooooooooo........                                        ",
"                                    ........oooooooooooo........oooooooooooooooo........                                        ",
"                                    ........oooooooooooo........oooooooooooooooo........                                        ",
"                                    ........oooooooooooo........oooooooooooooooo........                                        ",
"                                        ....XXXX....XXXX....OOOO....XXXX....XXXX....                                            ",
"                                        ....XXXX....XXXX....OOOO....XXXX....XXXX....                                            ",
"                                        ....XXXX....XXXX....OOOO....XXXX....XXXX....                                            ",
"                                        ....XXXX....XXXX....OOOO....XXXX....XXXX....                                            ",
"                                            ........XXXX....oooo....XXXX........                                                ",
"                                            ........XXXX....oooo....XXXX........                                                ",
"                                            ........XXXX....oooo....XXXX........                                                ",
"                                            ........XXXX....oooo....XXXX........                                                ",
"                                                ....oooo....OOOO....XXXX....                                                    ",
"                                                ....oooo....OOOO....XXXX....                                                    ",
"                                                ....oooo....OOOO....XXXX....                                                    ",
"                                                ....oooo....OOOO....XXXX....                                                    ",
"                                            ....XXXXoooo....oooo....ooooXXXX....                                                ",
"                                            ....XXXXoooo....oooo....ooooXXXX....                                                ",
"                                            ....XXXXoooo....oooo....ooooXXXX....                                                ",
"                                            ....XXXXoooo....oooo....ooooXXXX....                                                ",
"                                            ....oooooooo....OOOO....oooooooo....                                                ",
"                                            ....oooooooo....OOOO....oooooooo....                                                ",
"                                            ....oooooooo....OOOO....oooooooo....                                                ",
"                                            ....oooooooo....OOOO....oooooooo....                                                ",
"                                            ....oooooooo....oooo....oooooooo....                                                ",
"                                            ....oooooooo....oooo....oooooooo....                                                ",
"                                            ....oooooooo....oooo....oooooooo....                                                ",
"                                            ....oooooooo....oooo....oooooooo....                                                ",
"                                            ....ooooooooXXXXooooXXXXoooooooo....                                                ",
"                                            ....ooooooooXXXXooooXXXXoooooooo....                                                ",
"                                            ....ooooooooXXXXooooXXXXoooooooo....                                                ",
"                                            ....ooooooooXXXXooooXXXXoooooooo....                                                ",
"                                            ....oooooooooooooooooooooooooooo....                                                ",
"                                            ....oooooooooooooooooooooooooooo....                                                ",
"                                            ....oooooooooooooooooooooooooooo....                                                ",
"                                            ....oooooooooooooooooooooooooooo....                                                ",
"                                            ....XXXXoooooooo....ooooooooXXXX....                                                ",
"                                            ....XXXXoooooooo....ooooooooXXXX....                                                ",
"                                            ....XXXXoooooooo....ooooooooXXXX....                                                ",
"                                            ....XXXXoooooooo....ooooooooXXXX....                                                ",
"                                                ....XXXXXXXX....XXXXOOOOOOOO....                                                ",
"                                                ....XXXXXXXX....XXXXOOOOOOOO....                                                ",
"                                                ....XXXXXXXX....XXXXOOOOOOOO....                                                ",
"                                                ....XXXXXXXX....XXXXOOOOOOOO....                                                ",
"                                                ............    ....ooooOOOO....                                                ",
"                                                ............    ....ooooOOOO....                                                ",
"                                                ............    ....ooooOOOO....                                                ",
"                                                ............    ....ooooOOOO....                                                ",
"                                                                ............                                                    ",
"                                                                ............                                                    ",
"                                                                ............                                                    ",
"                                                                ............                                                    ",
"                                                                                                                                ",
"                                                                                                                                ",
"                                                                                                                                ",
"                                                                                                                                ",
"                                                                                                                                ",
"                                                                                                                                ",
"                                                                                                                                ",
"                                                                                                                                ",
"                                                                                                                                ",
"                                                                                                                                ",
"                                                                                                                                ",
"                                                                                                                                ",
"                                                                                                                                ",
"                                                                                                                                ",
"                                                                                                                                ",
"                                                                                                                                ",
"                                                                                                                                ",
"                                                                                                                                ",
"                                                                                                                                ",
"                                                                                                                                ",
"                                                                                                                                ",
"                                                                                                                                ",
"                                                                                                                                ",
"                                                                                                                                ",
"                                                                                                                                ",
"                                                                                                                                ",
"                                                                                                                                ",
"                                                                                                                                ",
"                                                                                                                                ",
"                                                                                                                                ",
"                                                                                                                                ",
"                                                                                                                                "
};
