/* XPM */
static char *bc3b43b8d9c2455ff0f2a56496d590f7FGcsjWp1zQhRnpb2[] = {
/* columns rows colors chars-per-pixel */
"128 128 9 1 ",
"  c None",
". c #524036",
"X c #9C5B26",
"o c #BB8049",
"O c #C7925E",
"+ c #D4A369",
"@ c #F19393",
"# c #E5D4C3",
"$ c #F0EBE6",
/* pixels */
"                                                                                                                                ",
"                                                                                                                                ",
"                                                                                                                                ",
"                                                                                                                                ",
"                                                                                                                                ",
"                                                                                                                                ",
"                                                                                                                                ",
"                                                                                                                                ",
"                                                                                                                                ",
"                                                                                                                                ",
"                                                                                                                                ",
"                                                                                                                                ",
"                                                                                                                                ",
"                                                                                                                                ",
"                                                                                                                                ",
"                                                                                                                                ",
"                                                                                                                                ",
"                                                                                                                                ",
"                                                                                                                                ",
"                                                                                                                                ",
"                                                                                                                                ",
"                                                                                                                                ",
"                                                                                                                                ",
"                                                                                                                                ",
"                                                                                                                                ",
"                                                                                                                                ",
"                                                                                                                                ",
"                                                                                                                                ",
"                                                                                                                                ",
"                                                                                                                                ",
"                                                                                                                                ",
"                                                                                                                                ",
"                                                                                                                                ",
"                                                                                                                                ",
"                                                                                                                                ",
"                                                                                                                                ",
"                                                                                                                                ",
"                                                                                                                                ",
"                                                                                                                                ",
"                                                                                                                                ",
"                                                                                                                                ",
"                                                                                                                                ",
"                                                                                                                                ",
"                                                                                                                                ",
"                                                            ............                                                        ",
"                                                            ............                                                        ",
"                                                            ............                                                        ",
"                                                            ............                                                        ",
"                                                        ....####++++####....                                                    ",
"                                                        ....####++++####....                                                    ",
"                                                        ....####++++####....                                                    ",
"                                                        ....####++++####....                                                    ",
"                                                    ............XXXX............                                                ",
"                                                    ............XXXX............                                                ",
"                                                    ............XXXX............                                                ",
"                                                    ............XXXX............                                                ",
"                                                ....++++....XXXXXXXXXXXX....++++....                                            ",
"                                                ....++++....XXXXXXXXXXXX....++++....                                            ",
"                                                ....++++....XXXXXXXXXXXX....++++....                                            ",
"                                                ....++++....XXXXXXXXXXXX....++++....                                            ",
"                                            ....oooo####++++............++++####oooo....                                        ",
"                                            ....oooo####++++............++++####oooo....                                        ",
"                                            ....oooo####++++............++++####oooo....                                        ",
"                                            ....oooo####++++............++++####oooo....                                        ",
"                                            ....ooooOOOOOOOOOOOOOOOOOOOOOOOOOOOOoooo....                                        ",
"                                            ....ooooOOOOOOOOOOOOOOOOOOOOOOOOOOOOoooo....                                        ",
"                                            ....ooooOOOOOOOOOOOOOOOOOOOOOOOOOOOOoooo....                                        ",
"                                            ....ooooOOOOOOOOOOOOOOOOOOOOOOOOOOOOoooo....                                        ",
"                                            ....OOOOOOOO####OOOO++++OOOO####OOOOOOOO....                                        ",
"                                            ....OOOOOOOO####OOOO++++OOOO####OOOOOOOO....                                        ",
"                                            ....OOOOOOOO####OOOO++++OOOO####OOOOOOOO....                                        ",
"                                            ....OOOOOOOO####OOOO++++OOOO####OOOOOOOO....                                        ",
"                                        ....OOOO++++XXXX....OOOO++++OOOO....XXXX++++OOOO....                                    ",
"                                        ....OOOO++++XXXX....OOOO++++OOOO....XXXX++++OOOO....                                    ",
"                                        ....OOOO++++XXXX....OOOO++++OOOO....XXXX++++OOOO....                                    ",
"                                        ....OOOO++++XXXX....OOOO++++OOOO....XXXX++++OOOO....                                    ",
"                                        ....OOOO####++++++++++++....++++++++++++####OOOO....                                    ",
"                                        ....OOOO####++++++++++++....++++++++++++####OOOO....                                    ",
"                                        ....OOOO####++++++++++++....++++++++++++####OOOO....                                    ",
"                                        ....OOOO####++++++++++++....++++++++++++####OOOO....                                    ",
"                                        ....####$$$$####XXXX####XXXX####XXXX####$$$$####....                                    ",
"                                        ....####$$$$####XXXX####XXXX####XXXX####$$$$####....                                    ",
"                                        ....####$$$$####XXXX####XXXX####XXXX####$$$$####....                                    ",
"                                        ....####$$$$####XXXX####XXXX####XXXX####$$$$####....                                    ",
"                                        ....####$$$$####++++............++++####$$$$####....                                    ",
"                                        ....####$$$$####++++............++++####$$$$####....                                    ",
"                                        ....####$$$$####++++............++++####$$$$####....                                    ",
"                                        ....####$$$$####++++............++++####$$$$####....                                    ",
"                                            ....OOOO$$$$$$$$####@@@@####$$$$$$$$####....                                        ",
"                                            ....OOOO$$$$$$$$####@@@@####$$$$$$$$####....                                        ",
"                                            ....OOOO$$$$$$$$####@@@@####$$$$$$$$####....                                        ",
"                                            ....OOOO$$$$$$$$####@@@@####$$$$$$$$####....                                        ",
"                                            ....XXXXOOOO++++$$$$$$$$$$$$$$$$####OOOO....                                        ",
"                                            ....XXXXOOOO++++$$$$$$$$$$$$$$$$####OOOO....                                        ",
"                                            ....XXXXOOOO++++$$$$$$$$$$$$$$$$####OOOO....                                        ",
"                                            ....XXXXOOOO++++$$$$$$$$$$$$$$$$####OOOO....                                        ",
"                                                ....OOOO########$$$$####++++OOOOXXXX....                                        ",
"                                                ....OOOO########$$$$####++++OOOOXXXX....                                        ",
"                                                ....OOOO########$$$$####++++OOOOXXXX....                                        ",
"                                                ....OOOO########$$$$####++++OOOOXXXX....                                        ",
"                                                ....OOOO####............####OOOO....                                            ",
"                                                ....OOOO####............####OOOO....                                            ",
"                                                ....OOOO####............####OOOO....                                            ",
"                                                ....OOOO####............####OOOO....                                            ",
"                                                ....XXXXOOOO....    ....OOOOXXXX....                                            ",
"                                                ....XXXXOOOO....    ....OOOOXXXX....                                            ",
"                                                ....XXXXOOOO....    ....OOOOXXXX....                                            ",
"                                                ....XXXXOOOO....    ....OOOOXXXX....                                            ",
"                                                ....########....    ....$$$$++++....                                            ",
"                                                ....########....    ....$$$$++++....                                            ",
"                                                ....########....    ....$$$$++++....                                            ",
"                                                ....########....    ....$$$$++++....                                            ",
"                                                    ........        ....$$$$$$$$....                                            ",
"                                                    ........        ....$$$$$$$$....                                            ",
"                                                    ........        ....$$$$$$$$....                                            ",
"                                                    ........        ....$$$$$$$$....                                            ",
"                                                                        ........                                                ",
"                                                                        ........                                                ",
"                                                                        ........                                                ",
"                                                                        ........                                                ",
"                                                                                                                                ",
"                                                                                                                                ",
"                                                                                                                                ",
"                                                                                                                                ",
"                                                                                                                                ",
"                                                                                                                                ",
"                                                                                                                                ",
"                                                                                                                                "
};
