/* XPM */
static char *_4dd841db7484cad807d2c6246dd5251nFKw9rTR1K0X1BGC[] = {
/* columns rows colors chars-per-pixel */
"128 128 9 1 ",
"  c None",
". c #524036",
"X c #9C5B26",
"o c #BB8049",
"O c #C7925E",
"+ c #D4A369",
"@ c #F19393",
"# c #E5D4C3",
"$ c #F0EBE6",
/* pixels */
"                                                                                                                                ",
"                                                                                                                                ",
"                                                                                                                                ",
"                                                                                                                                ",
"                                                                                                                                ",
"                                                                                                                                ",
"                                                                                                                                ",
"                                                                                                                                ",
"                                                                                                                                ",
"                                                                                                                                ",
"                                                                                                                                ",
"                                                                                                                                ",
"                                                                                                                                ",
"                                                                                                                                ",
"                                                                                                                                ",
"                                                                                                                                ",
"                                                                                                                                ",
"                                                                                                                                ",
"                                                                                                                                ",
"                                                                                                                                ",
"                                                                                                                                ",
"                                                                                                                                ",
"                                                                                                                                ",
"                                                                                                                                ",
"                                                                                                                                ",
"                                                                                                                                ",
"                                                                                                                                ",
"                                                                                                                                ",
"                                                                                                                                ",
"                                                                                                                                ",
"                                                                                                                                ",
"                                                                                                                                ",
"                                                                                                                                ",
"                                                                                                                                ",
"                                                                                                                                ",
"                                                                                                                                ",
"                                                                                                                                ",
"                                                                                                                                ",
"                                                                                                                                ",
"                                                                                                                                ",
"                                                                                                                                ",
"                                                                                                                                ",
"                                                                                                                                ",
"                                                                                                                                ",
"                        ....                    ....                                                                            ",
"                        ....                    ....                                                                            ",
"                        ....                    ....                                                                            ",
"                        ....                    ....                                                                            ",
"                    ....oooo....            ....++++....                                                                        ",
"                    ....oooo....            ....++++....                                                                        ",
"                    ....oooo....            ....++++....                                                                        ",
"                    ....oooo....            ....++++....                                                                        ",
"                    ....ooooOOOO............++++####OOOO....                        ............                                ",
"                    ....ooooOOOO............++++####OOOO....                        ............                                ",
"                    ....ooooOOOO............++++####OOOO....                        ............                                ",
"                    ....ooooOOOO............++++####OOOO....                        ............                                ",
"                    ........OOOOOOOOOOOOOOOOOOOO++++OOOO....                    ....############....                            ",
"                    ........OOOOOOOOOOOOOOOOOOOO++++OOOO....                    ....############....                            ",
"                    ........OOOOOOOOOOOOOOOOOOOO++++OOOO....                    ....############....                            ",
"                    ........OOOOOOOOOOOOOOOOOOOO++++OOOO....                    ....############....                            ",
"                    ....####OOOO++++OOOO####OOOOOOOOoooo....                ....oooooooooooo++++$$$$....                        ",
"                    ....####OOOO++++OOOO####OOOOOOOOoooo....                ....oooooooooooo++++$$$$....                        ",
"                    ....####OOOO++++OOOO####OOOOOOOOoooo....                ....oooooooooooo++++$$$$....                        ",
"                    ....####OOOO++++OOOO####OOOOOOOOoooo....                ....oooooooooooo++++$$$$....                        ",
"                ....XXXX....OOOO++++OOOO....XXXXOOOOOOOOXXXX................................XXXX++++$$$$....                    ",
"                ....XXXX....OOOO++++OOOO....XXXXOOOOOOOOXXXX................................XXXX++++$$$$....                    ",
"                ....XXXX....OOOO++++OOOO....XXXXOOOOOOOOXXXX................................XXXX++++$$$$....                    ",
"                ....XXXX....OOOO++++OOOO....XXXXOOOOOOOOXXXX................................XXXX++++$$$$....                    ",
"                ....OOOO++++++++++++++++++++####++++OOOOoooo....ooooOOOOOOOOOOOOOOOOooooXXXX....XXXX####....                    ",
"                ....OOOO++++++++++++++++++++####++++OOOOoooo....ooooOOOOOOOOOOOOOOOOooooXXXX....XXXX####....                    ",
"                ....OOOO++++++++++++++++++++####++++OOOOoooo....ooooOOOOOOOOOOOOOOOOooooXXXX....XXXX####....                    ",
"                ....OOOO++++++++++++++++++++####++++OOOOoooo....ooooOOOOOOOOOOOOOOOOooooXXXX....XXXX####....                    ",
"                ....####....++++++++########$$$$####OOOOooooXXXX++++++++++++++++OOOOOOOOOOOOXXXXXXXX####....                    ",
"                ....####....++++++++########$$$$####OOOOooooXXXX++++++++++++++++OOOOOOOOOOOOXXXXXXXX####....                    ",
"                ....####....++++++++########$$$$####OOOOooooXXXX++++++++++++++++OOOOOOOOOOOOXXXXXXXX####....                    ",
"                ....####....++++++++########$$$$####OOOOooooXXXX++++++++++++++++OOOOOOOOOOOOXXXXXXXX####....                    ",
"                ....####XXXX++++####XXXX++++$$$$$$$$####ooooOOOO++++++++++++++++++++++++OOOOoooo....++++....                    ",
"                ....####XXXX++++####XXXX++++$$$$$$$$####ooooOOOO++++++++++++++++++++++++OOOOoooo....++++....                    ",
"                ....####XXXX++++####XXXX++++$$$$$$$$####ooooOOOO++++++++++++++++++++++++OOOOoooo....++++....                    ",
"                ....####XXXX++++####XXXX++++$$$$$$$$####ooooOOOO++++++++++++++++++++++++OOOOoooo....++++....                    ",
"                ....++++............########$$$$$$$$####OOOO++++++++++++++++++++++++++++++++oooo....OOOO....                    ",
"                ....++++............########$$$$$$$$####OOOO++++++++++++++++++++++++++++++++oooo....OOOO....                    ",
"                ....++++............########$$$$$$$$####OOOO++++++++++++++++++++++++++++++++oooo....OOOO....                    ",
"                ....++++............########$$$$$$$$####OOOO++++++++++++++++++++++++++++++++oooo....OOOO....                    ",
"                    ....####@@@@####$$$$$$$$$$$$####OOOO++++++++++++++++++++++++++++++++++++XXXX........                        ",
"                    ....####@@@@####$$$$$$$$$$$$####OOOO++++++++++++++++++++++++++++++++++++XXXX........                        ",
"                    ....####@@@@####$$$$$$$$$$$$####OOOO++++++++++++++++++++++++++++++++++++XXXX........                        ",
"                    ....####@@@@####$$$$$$$$$$$$####OOOO++++++++++++++++++++++++++++++++++++XXXX........                        ",
"                        ....$$$$$$$$$$$$$$$$####OOOO++++++++++++OOOOOOOO++++++++++++++++OOOO....                                ",
"                        ....$$$$$$$$$$$$$$$$####OOOO++++++++++++OOOOOOOO++++++++++++++++OOOO....                                ",
"                        ....$$$$$$$$$$$$$$$$####OOOO++++++++++++OOOOOOOO++++++++++++++++OOOO....                                ",
"                        ....$$$$$$$$$$$$$$$$####OOOO++++++++++++OOOOOOOO++++++++++++++++OOOO....                                ",
"                            ........$$$$####++++++++++++OOOOOOOO########OOOO++++++++OOOO....                                    ",
"                            ........$$$$####++++++++++++OOOOOOOO########OOOO++++++++OOOO....                                    ",
"                            ........$$$$####++++++++++++OOOOOOOO########OOOO++++++++OOOO....                                    ",
"                            ........$$$$####++++++++++++OOOOOOOO########OOOO++++++++OOOO....                                    ",
"                            ....XXXX........++++++++OOOOOOOO........####OOOOOOOOoooo........                                    ",
"                            ....XXXX........++++++++OOOOOOOO........####OOOOOOOOoooo........                                    ",
"                            ....XXXX........++++++++OOOOOOOO........####OOOOOOOOoooo........                                    ",
"                            ....XXXX........++++++++OOOOOOOO........####OOOOOOOOoooo........                                    ",
"                            ....XXXX............OOOOOOOOOOOO....    ....OOOOOOOO........XXXX....                                ",
"                            ....XXXX............OOOOOOOOOOOO....    ....OOOOOOOO........XXXX....                                ",
"                            ....XXXX............OOOOOOOOOOOO....    ....OOOOOOOO........XXXX....                                ",
"                            ....XXXX............OOOOOOOOOOOO....    ....OOOOOOOO........XXXX....                                ",
"                        ....XXXXXXXX....        ....oooooooo....    ....oooooooo........XXXX....                                ",
"                        ....XXXXXXXX....        ....oooooooo....    ....oooooooo........XXXX....                                ",
"                        ....XXXXXXXX....        ....oooooooo....    ....oooooooo........XXXX....                                ",
"                        ....XXXXXXXX....        ....oooooooo....    ....oooooooo........XXXX....                                ",
"                        ....OOOO....            ....XXXXXXXX........XXXXoooo....    ....++++....                                ",
"                        ....OOOO....            ....XXXXXXXX........XXXXoooo....    ....++++....                                ",
"                        ....OOOO....            ....XXXXXXXX........XXXXoooo....    ....++++....                                ",
"                        ....OOOO....            ....XXXXXXXX........XXXXoooo....    ....++++....                                ",
"                        ........                    ....####....$$$$####....        ........                                    ",
"                        ........                    ....####....$$$$####....        ........                                    ",
"                        ........                    ....####....$$$$####....        ........                                    ",
"                        ........                    ....####....$$$$####....        ........                                    ",
"                                                    ....................                                                        ",
"                                                    ....................                                                        ",
"                                                    ....................                                                        ",
"                                                    ....................                                                        ",
"                                                                                                                                ",
"                                                                                                                                ",
"                                                                                                                                ",
"                                                                                                                                ",
"                                                                                                                                ",
"                                                                                                                                ",
"                                                                                                                                ",
"                                                                                                                                "
};
