/* XPM */
static char *border_river_end_d1713795586[] = {
/* columns rows colors chars-per-pixel */
"32 32 12 1 ",
"  c #163C2B",
". c #503625",
"X c #755338",
"o c #296640",
"O c #9D7658",
"+ c #509B66",
"@ c #6C918D",
"# c #00CCFF",
"$ c gray54",
"% c gray59",
"& c #D7F8FF",
"* c #F4FDFF",
/* pixels */
"+++++++++++++o+++++++++o++++++++",
"+++++++o ++oo ++++o+++o+++o+++++",
"+++++++o oo  ++++o ++o ++o +++++",
"+++++oo    .  oooo      oo o++++",
"+++++  XXXXXX.    XXXX      o+++",
"++++ XXOOOOOXXXXXXOO$%XXXXO oo++",
"+++ O%$XOOOOOO$%XOOOOXOOOOOO o++",
"+++ OOXO****OOOXOOO****OOOOO  ++",
"++o OOO*&&&&***OO**&&&&***** + +",
"++o *&*&@@@@&&&**&&@@@@&&&& o+++",
"++ o &&@@@@@@@@&&@@@@@@@@@& o+++",
"+++o &@@@@@@@@@@@@@@@@@@@@@ oo++",
"+++o &@@##&&@@@@@@@####@@@@* o++",
"++o *&@##&&####@@#########@&  ++",
"++o *&###&###########&&####& +++",
"++ *&#################&&###& +++",
"+++ &##################&###& o++",
"+++o &#####################&*  +",
"+++o &####################&*  ++",
"+++o &####################&* +++",
"+++o &####################&* o++",
"++oo &####################&* o++",
"++o &######################&* ++",
"++ *&######################& +++",
"++o &#####################& ++++",
"++o &#####################& o+++",
"+oo &#####################& oo++",
"+  *&####&################&*  ++",
"++  *&###&&###############&  +++",
"++o *&###################&* o+++",
"++o *&###################&* o+++",
"++o &#####################&* +++"
};
