/* XPM */
static char *border_river_el1713795586[] = {
/* columns rows colors chars-per-pixel */
"32 32 9 1 ",
"  c #163C2B",
". c #755338",
"X c #296640",
"o c #9D7658",
"O c #509B66",
"+ c #6C918D",
"@ c #00CCFF",
"# c #D7F8FF",
"$ c #F4FDFF",
/* pixels */
"@@@@@@@@@@@@@@@@@@@@#@@@@@# OOOO",
"@@@@@@@@@@@@@@@@@@@@#@@@@#$ OOOO",
"@@@@@@@@@@@@@@@@@@@@#@@@@#$ OOOO",
"@@@@@@@@@@@@@@@@@@@@@@@@@#$  XXX",
"@@@@@@@@@@@@@@@@@@@@@@@@@#$..   ",
"@@@@@@@@@@@@@@@@@@@@@@@@@@#.o...",
"@@@@@@@@@@@@@@@@@@@@@@@@@@#.oooo",
"@@@@@@@@@@@@@@@@@@@@@@@@@@#.oooo",
"@@@@@@@@@@@@@@@@@@@@@@@@@@#$oooo",
"@@@@@@@@@@@@@@@@@@@@@@@@@@#$$$$$",
"@@@@@@@@@@@@@@@@@@@@@#@@@@@+####",
"@@@@@@@@@@@@@@@@@@@@@##@@@@+++++",
"@@@@@@@@@@@@@@@@@@@@@@##@@@+++++",
"@@@@@@@@@@@@@@@@@@@@@@@@@@@@++++",
"@@@@@@@@@@@@@@@@@@@@@@@@@@@@@@@@",
"@@@@@@@@@@@@@@@@@@@@@@@@@@@@@@@@",
"@@@@@@@@@@@@@@@@@@@@@@@@@@@@@@@@",
"@@@@@@@@@@@@@@@@@@@@@@@@@@@@@@@@",
"@@@@@@@@@@@@@@@@@@@@@@@@@@@@@@@@",
"@@@@@@@@@@@@@@@@@@@@@@@@@@@@@@@@",
"@@@@@@@@@@@@@@@@@@@@@@@@@@@@@@@@",
"@@@@@@@@@@@@@@@@@@@@@@@@@@@@@@@@",
"@@@@@@@@@@@@@@@@@@@@@@@@@@@@@@@@",
"@@@@@@@@@@@@@@@@@@@@@@@@@@@@@@@@",
"@@@@@@@@@@@@@@@@@@@@@@@@@@@@@@@@",
"@@@@@@@@@@@@@@@@@@@@@@@@@@@@@@@@",
"@@@@@@@@@@@@@@@@@@@@@@@@@@@@@@@@",
"@@@@@@@@@@@@@@@@@@@@@@@@@@@@@###",
"@@@@@@@@@@@@@@@@@@@@@##@@@@@#   ",
"@@@@@@@@@@@@@@@@@@@@@#@@@@@# OOO",
"@@@@@@@@@@@@@@@@@@@@@#@@@@# XOOO",
"@@@@@@@@@@@@@@@@@@@@@@@@@@# XOOO"
};
