/* XPM */
static char *border_turn_dl1713795588[] = {
/* columns rows colors chars-per-pixel */
"32 32 9 1 ",
"  c #163C2B",
". c #755338",
"X c #296640",
"o c #9D7658",
"O c #509B66",
"+ c #6C918D",
"@ c #00CCFF",
"# c #D7F8FF",
"$ c #F4FDFF",
/* pixels */
"OOOX #@@@@@@@@@@@@@@@@@@@@@# XXO",
"OOOX #@@@@@@@@@@@@@@@@@@@@@#$   ",
"OOOX #@@@@@@@@@@@@@@@@@@#@@@#$ O",
"XXX  #@@@@@@@@@@@@@@@@@@#@@@# OO",
"    $#@@@#@@@@@@@@@@@@@#@@@# OOO",
"..o.#@@@@#@@@@@@@@@@@@@#@@@# XOO",
"ooo.#@@@@#@@@@@@@@@@@@@@@@@# XOO",
"ooo.$@@@##@@@@@@@@@@@@@@@@@#$ OO",
"ooo.$@@@#@@@@@@@@@@@@@@@@@#$ O O",
"ooo$#@@@@@@@@@@@@@@@@@@@@@# XOOO",
"$$$$#@@@@@@@@@@@@@@@@@@@@@# XOOO",
"###+@@@@@@@@@@@@@@@@@@@@@@#$ XOO",
"++++@@@@#@@@@@@@@@@@@@@@@@@# XOO",
"++++@@##@@@@@@@@@@@@@@@@@@@#$ OO",
"+++@@@@@@@@@@@@@@@@@@@@@@@@# OOO",
"@@@@@@@@@@@@@@@@@@@@@@@@@@@# OOO",
"@@@@@@@@@@@@@@@@@@@@@@@@@@@# XOO",
"@@@@@@@@@@@@@@@@@@@@@@@@@@@#$  O",
"@@@@@@@@@@@@@@@@@@@@@@@@@@#$  OO",
"@@@@@@@@@@@@@@@@@@@@@@@@@@#$ OOO",
"@@@@@@@@@@@@@@@@@@@@@@#@@@#$ XOO",
"@@#@@@@@@@@@@@@@@@@@@@#@@@#$ XOO",
"@@@###@@@@@@@@@@@@@@@#@@@@@#$ OO",
"@@@@@@@@@@@@@@@@@@@@@@@@@@@# OOO",
"@@@@@@@@@@@@@@@@@@@@@@@@@@# OOOO",
"@@@@@@@@@@@@@@@@@@@@@@@@@@# XOOO",
"##@@@@######@@###@##@@##### XXOO",
"$$####$$$   ##$$$#$$##$   $$  OO",
"    $    OOX $  $$   $ XOO   OOO",
"O OX OOX OOOX XO  OOO XOOOO XOOO",
"OOOOOOOOOOOOOOOOOOOOOOOOOOOOOOOO",
"OOOOOOOOOOOOOOOOOOOOOOOOOOOOOOOO"
};
