/* XPM */
static char *border_corner_ld1713795581[] = {
/* columns rows colors chars-per-pixel */
"32 32 12 1 ",
"  c #163C2B",
". c #503625",
"X c #755338",
"o c #296640",
"O c #9D7658",
"+ c #509B66",
"@ c #6C918D",
"# c #00CCFF",
"$ c gray54",
"% c gray59",
"& c #D7F8FF",
"* c #F4FDFF",
/* pixels */
"+++o+++++++++o+++++++++o++++++++",
"++o +++o ++oo ++++o+++o+++o+++++",
"ooo  ++o oo  ++++o ++o ++o +++++",
"   X oo    .  oooo      oo  ++++",
"XXXXX  XXXXXX.    XXXX.   XX +++",
"OOOOOXXOOOOOXXXXXXOOOOXXXXOO o++",
"OOOOOOOO%$XOOOOOOOO%$OOOOOOO o++",
"OOOOOOOOXXOOOOOOOO$$XOOOOOOOX ++",
"OOOOOOOOOOOOOOOOOOXXOOOOOOOO + +",
"*OOOOO******OOOOOO*****OOOO o+++",
"&*****&&&&&&******&&&&&**** o+++",
"@&&&&&@@@@@@&&&&&&@@@@@&&&&* o++",
"@@@@@@@@@@@@@@@@@@@@@@@@@@&& o++",
"@@@@@@&@@@@@@@@@@@@@@@@@@@@&* ++",
"#@@@&&######&@@@@@#####@@@@& +++",
"#####################&#####& +++",
"######################&####& o++",
"###########################&*  +",
"##########################&*  ++",
"##########################&* +++",
"##########################&* o++",
"##########################&* o++",
"###########################&* ++",
"###########################& +++",
"##########################& ++++",
"##########################& o+++",
"######################&###& oo++",
"######################&###&*  ++",
"#####################&&###&  +++",
"#####################&###&* o+++",
"#########################&* o+++",
"##########################& ++++"
};
