/* XPM */
static char *border_corner_lu1713795581[] = {
/* columns rows colors chars-per-pixel */
"32 32 6 1 ",
"  c #163C2B",
". c #296640",
"X c #509B66",
"o c #00CCFF",
"O c #D7F8FF",
"+ c #F4FDFF",
/* pixels */
"oooooooooooooooooooooooooooO ..X",
"oooooooooooooooooooooooooooO+   ",
"ooooooooooooooooooooooooOoooO+ X",
"ooooooooooooooooooooooooOoooO XX",
"oooooooooooooooooooooooOoooO XXX",
"oooooooooooooooooooooooOoooO .XX",
"oooooooooooooooooooooooooooO .XX",
"oooooooooooooooooooooooooooO+ XX",
"ooooooooooooooooooooooooooO+ X X",
"ooooooooooooooooooooooooooO .XXX",
"ooooooooooooooooooooooooooO .XXX",
"ooooooooooooooooooooooooooO+ .XX",
"oooooooooooooooooooooooooooO .XX",
"oooooooooooooooooooooooooooO+ XX",
"oooooooooooooooooooooooooooO XXX",
"oooooooooooooooooooooooooooO XXX",
"oooooooooooooooooooooooooooO .XX",
"oooooooooooooooooooooooooooO+  X",
"ooooooooooooooooooooooooooO+  XX",
"ooooooooooooooooooooooooooO+ XXX",
"ooooooooooooooooooooooOoooO+ .XX",
"ooOoooooooooooooooooooOoooO+ .XX",
"oooOOOoooooooooooooooOoooooO+ XX",
"oooooooooooooooooooooooooooO XXX",
"ooooooooooooooooooooooooooO XXXX",
"ooooooooooooooooooooooooooO .XXX",
"OOooooOOOOOOooOOOoOOooOOOOO ..XX",
"++OOOO+++   OO+++O++OO+   ++  XX",
"    +    XX. +  ++   + .XX   XXX",
"X X. XX. XXX. .X  XXX .XXXX .XXX",
"XXXXXXXXXXXXXXXXXXXXXXXXXXXXXXXX",
"XXXXXXXXXXXXXXXXXXXXXXXXXXXXXXXX"
};
