/* XPM */
static char *border_river_cross_r1713795585[] = {
/* columns rows colors chars-per-pixel */
"32 32 9 1 ",
"  c #163C2B",
". c #755338",
"X c #296640",
"o c #9D7658",
"O c #509B66",
"+ c #6C918D",
"@ c #00CCFF",
"# c #D7F8FF",
"$ c #F4FDFF",
/* pixels */
"OOX #@@@@@@@@@@@@@@@#@@@@@# OOOO",
"O  $#@@@@@@@@@@@@@@@#@@@@#$ OOOO",
"OO  $#@@@@@@@@@@@@@@#@@@@#$ OOOO",
"OOO $#@@@@@#@@@@@@@@@@@@@#$  XXX",
"OOX $#@@@@@#@@@@@@@@@@@@@#$..   ",
"OO $#@@@@@@#@@@@@@@@@@@@@@#.o...",
"OOO #@@@@@#@@@@@@@@@@@@@@@#.oooo",
"OOX #@@@@@@@@@@@@@@@@@@@@@#.oooo",
"OO $#@@@@@@@@@@@@@@@@@@@@@#$oooo",
"OOO $#@@@@@@@@@@@@@@@@@@@@#$$$$$",
"OOOX #@@@@@@@@@@@@@@@#@@@@@+####",
"OOOX #@@@@@@@@@@@@@@@##@@@@+++++",
"OOOX #@@@@@@@@@@@@@@@@##@@@+++++",
"OOX $#@@@@@@@@@@@@@@@@@@@@@@++++",
"OOX $#@@@@@@@@@@@@@@@@@@@@@@@@@@",
"OO $#@@@@@@@@@@@@@@@@@@@@@@@@@@@",
"OOO #@@@@@@@@@@@@@@@@@@@@@@@@@@@",
"OOOX #@@@@@@@@@@@@@@@@@@@@@@@@@@",
"OOOX #@@@@@@@@@@@@@@@@@@@@@@@@@@",
"O XX #@@@@@@@@@@@@@@@@@@@@@@@@@@",
"OO  $#@@@@@@@@@@@@@@@@@@@@@@@@@@",
"OOO $#@@@@@@@@@@@@@@@@@@@@@@@@@@",
"OOX #@@@@@@#@@@@@@@@@@@@@@@@@@@@",
"OO $#@@@@@@#@@@@@@@@@@@@@@@@@@@@",
"OOX #@@@@@@##@@@@@@@@@@@@@@@@@@@",
"OOX #@@@@@@@#@@@@@@@@@@@@@@@@@@@",
"OXX #@@@@@@@#@@@@@@@@@@@@@@@@@@@",
"O  $#@@@@@@@@@@@@@@@@@@@@@@@@###",
"OO  $#@@@@@@@@@@@@@@@##@@@@@#   ",
"OOX $#@@@@@@@@@@@@@@@#@@@@@# OOO",
"OOX $#@@@@@@@@@@@@@@@#@@@@# XOOO",
"OOX #@@@@@@@@@@@@@@@@@@@@@# XOOO"
};
