/* XPM */
static char *_002[] = {
/* columns rows colors chars-per-pixel */
"32 32 12 1 ",
"  c #163C2B",
". c #61372E",
"X c #554337",
"o c #755338",
"O c #296640",
"+ c #705849",
"@ c #816554",
"# c #9D7658",
"$ c #997864",
"% c #509B66",
"& c #DABF94",
"* c #F3DEBA",
/* pixels */
"%%%%%%%%%%%%%%%%%%%%%%%%%%%%%%%%",
"%%%%%%%%%%%%%%%%%%%%%%XXXXXXX%%%",
"%%%%%%%%%%%%%%%XXXXXXX+$$$$$X%%%",
"%%%%%%%%XXXXXXX$$$$$$$+$$$$$.%%%",
"%%%XXXXX$$$$$$+$$$$$$$+$$$$$.%%%",
"%%%X$$$+$$$$$$++++++$$++++++.%%%",
"%%%X$$$+$$$++++X***++++$$$$$.%%%",
"%%%X$$$+++++***XXXX+$$$$$$$$.%%%",
"%%%X++++$$$+XXXX***+$$$+++++.%%%",
"%%%X$$$$$$$+***XXXX+++++$$$$.%%%",
"%%%X$$$$++++XXXX***+$$$+$$$$.%%%",
"%%%X+++++$$+***X++++$$$+$$$$.%%%",
"%%%X$$$$+$$++++++$$$$$++++++.%%%",
"%%%X$$$$+$$$$$$$++++++XXXXXXX%%%",
"%%%X$$$$+++++++XXXXXXX&&&&$X%%%%",
"%%%X++++XXXXXXX&&&&&&&*&**$X%%%%",
"%%%XXXXX&&&&&&****&****&**$X%%%%",
"%%%%X@@&&**@$$$$$$$$$@****$X%%%%",
"%%%%X$**&*@$XXXXXXXX$$****$X%%%%",
"%%%%X$****@$++++++++X$****$X%%%%",
"%%%%X$****@$+$$++$$+X$****$X%%%%",
"%%%%X$****@$+$$++$$+X$****$X%%%%",
"%%%%X$**&*@$+$$++$$+X$**&*$X%%%%",
"%%%%X@&&&&@$+$$++$$+X$&&&&$X%%%%",
"%%%%X@@$$$@$++++++++X$$$$$$X%%%%",
"%%%OXXXXXXXXooooooooXXXXXXXXO%%%",
"%%%O  oo############oooo    O%%%",
"%%%%%O   o############# OO O%%%%",
"%%%%%%OO  o   ####     O%%O%%%%%",
"%%%%%%%%O% %OO    OOOO %%%%%%%%%",
"%%%%%%%%%%%%%O O%%%O%%%%%%%%%%%%",
"%%%%%%%%%%%%%%%%%%%%%%%%%%%%%%%%"
};
