/* XPM */
static char *_bdf065f22404944edbf3d4c82bdf413RVGamHsa0kKa5Kkq[] = {
/* columns rows colors chars-per-pixel */
"32 32 16 1 ",
"  c black",
". c #37241C",
"X c #493025",
"o c #543025",
"O c #6B3E30",
"+ c #7C4737",
"@ c #B45F1F",
"# c #DA7326",
"$ c #509B66",
"% c #DE8543",
"& c #FFAE4A",
"* c #FFC279",
"= c #FFBC9B",
"- c #FFD29B",
"; c #F2F1DB",
": c #FFFFEA",
/* pixels */
"$$$$$$$$$$$$$$$$$$$$$$$$$$$$$$$$",
"$$$$$$$$$$$$$$$$$$$$$$$$$$$$$$$$",
"$$$$$$$$$$$$$$$$$$$$$$$$$$$$$$$$",
"$$$$$$$$$$$$$$$$$$$$$$$$$$$$$$$$",
"$$$$$$$$$$$$$$$$$$$$$$$$$$$$$$$$",
"$$$$$$$$$$$$$$$$$$$$$$$$$$$$$$$$",
"$$$$$$$$$$$$$$$$$$$$$$$$$$$$$$$$",
"$$$$$$$$$$$$$$$$$$$$$$$$$$$$$$$$",
"$$$$$$$$$$$$$$$$$$$$$$$$$$$$$$$$",
"$$$$$$$$$$$$$$$$$$$$$$$@#%%$$$$$",
"$$$$$$$$$$$$$$$$$$$$$$@#%%%#$$$$",
"$$$$$$$$$$$$$$$$$$$$--*@#%%%#$$$",
"$$$$$$$$$$$$$$$$$$$----*@##%#$$$",
"$$$.$$$$+oOXO;X;X$$-= --*@##%#$$",
"$$$..&o++O+XO::::;$-= -*@#%%##$$",
"$$X..&oO++OXO;:;;;*----@#%%%%#$$",
"$$XXX*OO+OOXO;;::;**--**@#%%##$$",
"$$XXX*OOOOOXO-;;;$$*--*@#%%%###$",
"$$$$$$$OOOO**-*$$$$*--@#%%%###$$",
"$$$$$$$$$$$*--*$$$$$@@#%%%#####$",
"$$$$$$$$$$$***$$$$$$$@@@####$$$$",
"$$$$$$$$$$$$$$$$$$$$$$$$$$$$$$$$",
"$$$$$$$$$$$$$$$$$$$$$$$$$$$$$$$$",
"$$$$$$$$$$$$$$$$$$$$$$$$$$$$$$$$",
"$$$$$$$$$$$$$$$$$$$$$$$$$$$$$$$$",
"$$$$$$$$$$$$$$$$$$$$$$$$$$$$$$$$",
"$$$$$$$$$$$$$$$$$$$$$$$$$$$$$$$$",
"$$$$$$$$$$$$$$$$$$$$$$$$$$$$$$$$",
"$$$$$$$$$$$$$$$$$$$$$$$$$$$$$$$$",
"$$$$$$$$$$$$$$$$$$$$$$$$$$$$$$$$",
"$$$$$$$$$$$$$$$$$$$$$$$$$$$$$$$$",
"$$$$$$$$$$$$$$$$$$$$$$$$$$$$$$$$"
};
