/* XPM */
static char *_003[] = {
/* columns rows colors chars-per-pixel */
"32 32 7 1 ",
"  c #334251",
". c #296640",
"X c #52697F",
"o c #509B66",
"O c #748BA0",
"+ c #8AA0B5",
"@ c #A2B9CE",
/* pixels */
"oooooooooooooooooooooooooooooooo",
"oooooooooooooooooooooooooooooooo",
"ooooooooooo           oooooooooo",
"oooooooo   +++++++++++  oooooooo",
"ooooooo ++++++++++++++++   ooooo",
"oooooo ++++++++++++++++++@@ oooo",
"ooooo +++++++++++++++++++@@@ ooo",
"oooo X+++++++++++++++++++@@@ ooo",
"oooo X++++++++++++++++++++@@ ooo",
"oooo +++++++++++++++++++++@O ooo",
"oooo @++++++++++++++++++++@OO oo",
"oooo @++++++++++++++++++++@XO oo",
"oooo @@+++++++++++++++++++@XO oo",
"ooo O@@@++++++++++++++++++XXO oo",
"ooo OOO@@@@+++++++++++++XXXXO oo",
"ooo XOOO@@@@@@@+++++XXXXXXX@@ oo",
"ooo XOOOOOXXXXXXXXXXXXXXXXO@@ oo",
"ooo XOOOOOOOXXXXXXXXXXXXXOOOX oo",
"ooo XX@@OOOXXXXXXXXXXXXXOOOXX oo",
"oo OOOXXXXXXXXXXXXXXXOOOOOXXXO o",
"oo OOOOXXXXXXXXXXXXXXXXXXXXXOO o",
"oo XOOOOXXXXXXXXXXXXXXXXXXX@@O o",
"oo XOOOOOOXXXXXXXXXXXXXXXOO@@X o",
"oo XXOOOOOOOOOOOOXXXXXXOOOOOXX o",
"oo XXXXOO@@@OOOOOOOXXXXXXXXXXX o",
"oo. XXXXXXXXXXXXXXXXXXXXXXXXXX o",
"o.. XXXXXXXXXXXXXXXXXXXXXXXXX .o",
"o... XXXXXXXXXXXXXXXXXXXXXXX ..o",
"o.... XXXXXXXXXXXXXXXXXXXXX ..oo",
"oo...........................ooo",
"ooo.........................oooo",
"oooooooooooooooooooooooooooooooo"
};
